<?xml version="1.0" encoding="UTF-8" standalone="no"?>
<svg
     xmlns:dc="http://purl.org/dc/elements/1.1/"
     xmlns:cc="http://creativecommons.org/ns#"
     xmlns:rdf="http://www.w3.org/1999/02/22-rdf-syntax-ns#"
     xmlns:svg="http://www.w3.org/2000/svg"
     xmlns="http://www.w3.org/2000/svg"
     xmlns:xlink="http://www.w3.org/1999/xlink"
     xmlns:sodipodi="http://sodipodi.sourceforge.net/DTD/sodipodi-0.dtd"
     xmlns:inkscape="http://www.inkscape.org/namespaces/inkscape"
     width="432pt"
     height="432pt"
     version="1.1"
     viewBox="0 0 432 432"
     id="svg2"
     inkscape:version="0.92.2 5c3e80d, 2017-08-06"
     sodipodi:docname="calibrate-31.svg">
    <metadata
         id="metadata450">
        <rdf:RDF>
            <cc:Work
                 rdf:about="">
                <dc:format>image/svg+xml</dc:format>
                <dc:type
                     rdf:resource="http://purl.org/dc/dcmitype/StillImage" />
                <dc:title></dc:title>
            </cc:Work>
        </rdf:RDF>
    </metadata>
    <sodipodi:namedview
         pagecolor="#ffffff"
         bordercolor="#666666"
         borderopacity="1"
         objecttolerance="10"
         gridtolerance="10"
         guidetolerance="10"
         inkscape:pageopacity="0"
         inkscape:pageshadow="2"
         inkscape:window-width="857"
         inkscape:window-height="480"
         id="namedview448"
         showgrid="false"
         inkscape:zoom="0.437"
         inkscape:cx="-178.5"
         inkscape:cy="270"
         inkscape:window-x="0"
         inkscape:window-y="0"
         inkscape:window-maximized="0"
         inkscape:current-layer="svg2" />
    <defs
         id="defs4">
        <symbol
             id="a"
             overflow="visible">
            <path
                 d="m3.25-8.3906c1.082 0 1.8672 0.44922 2.3594 1.3438 0.375 0.6875 0.5625 1.6367 0.5625 2.8438 0 1.1367-0.17188 2.0781-0.51562 2.8281-0.49219 1.0742-1.2969 1.6094-2.4219 1.6094-1 0-1.75-0.4375-2.25-1.3125-0.40625-0.73828-0.60938-1.7227-0.60938-2.9531 0-0.94531 0.125-1.7656 0.375-2.4531 0.45703-1.2695 1.2891-1.9062 2.5-1.9062zm-0.015625 7.6562c0.55078 0 0.98828-0.23828 1.3125-0.71875 0.32031-0.48828 0.48438-1.3945 0.48438-2.7188 0-0.94531-0.12109-1.7266-0.35938-2.3438-0.23047-0.61328-0.68359-0.92188-1.3594-0.92188-0.625 0-1.0859 0.29297-1.375 0.875-0.28125 0.58594-0.42188 1.4453-0.42188 2.5781 0 0.85547 0.09375 1.543 0.28125 2.0625 0.28125 0.79297 0.75781 1.1875 1.4375 1.1875z"
                 id="path7" />
        </symbol>
        <symbol
             id="ap"
             overflow="visible">
            <path
                 d="m1.1562-5.9375v-0.8125c0.75781-0.070312 1.2852-0.19531 1.5781-0.375 0.30078-0.17578 0.53125-0.58594 0.6875-1.2344h0.82812v8.3594h-1.125v-5.9375z"
                 id="path10" />
        </symbol>
        <symbol
             id="ao"
             overflow="visible">
            <path
                 d="m0.375 0c0.039062-0.71875 0.19141-1.3438 0.45312-1.875 0.25781-0.53906 0.76562-1.0312 1.5156-1.4688l1.125-0.65625c0.5-0.28906 0.85156-0.53906 1.0625-0.75 0.32031-0.32031 0.48438-0.69141 0.48438-1.1094 0-0.48828-0.15234-0.875-0.45312-1.1562-0.29297-0.28906-0.67969-0.4375-1.1562-0.4375-0.73047 0-1.2305 0.27344-1.5 0.8125-0.15625 0.30469-0.24219 0.71094-0.25 1.2188h-1.0781c0.007813-0.72656 0.14453-1.3203 0.40625-1.7812 0.45703-0.8125 1.2656-1.2188 2.4219-1.2188 0.95703 0 1.6562 0.26172 2.0938 0.78125 0.44531 0.52344 0.67188 1.1016 0.67188 1.7344 0 0.66797-0.23438 1.2422-0.70312 1.7188-0.27344 0.28125-0.76172 0.62109-1.4688 1.0156l-0.8125 0.4375c-0.375 0.21094-0.67188 0.41406-0.89062 0.60938-0.39844 0.33594-0.64844 0.71094-0.75 1.125h4.5938v1z"
                 id="path13" />
        </symbol>
        <symbol
             id="an"
             overflow="visible">
            <path
                 d="m3.125 0.23438c-1 0-1.7266-0.26953-2.1719-0.8125-0.44922-0.55078-0.67188-1.2188-0.67188-2h1.1094c0.039063 0.54297 0.14062 0.9375 0.29688 1.1875 0.28125 0.4375 0.77344 0.65625 1.4844 0.65625 0.5625 0 1.0078-0.14453 1.3438-0.4375 0.33203-0.30078 0.5-0.6875 0.5-1.1562 0-0.57031-0.17969-0.97266-0.53125-1.2031-0.35547-0.23828-0.84375-0.35938-1.4688-0.35938-0.074219 0-0.14844 0.007813-0.21875 0.015625h-0.21875v-0.9375c0.11328 0.023438 0.20703 0.03125 0.28125 0.03125h0.23438c0.39453 0 0.71875-0.0625 0.96875-0.1875 0.44531-0.21875 0.67188-0.60938 0.67188-1.1719 0-0.41406-0.15234-0.73438-0.45312-0.95312-0.29297-0.22656-0.63672-0.34375-1.0312-0.34375-0.69922 0-1.1836 0.23438-1.4531 0.70312-0.14844 0.25-0.23047 0.61719-0.25 1.0938h-1.0469c0-0.625 0.125-1.1562 0.375-1.5938 0.42578-0.78125 1.1797-1.1719 2.2656-1.1719 0.85156 0 1.5156 0.19531 1.9844 0.57812 0.46875 0.375 0.70312 0.92969 0.70312 1.6562 0 0.51172-0.13672 0.92969-0.40625 1.25-0.17969 0.19922-0.40234 0.35547-0.67188 0.46875 0.4375 0.125 0.78125 0.35938 1.0312 0.70312s0.375 0.76562 0.375 1.2656c0 0.80469-0.26562 1.4609-0.79688 1.9688-0.52344 0.5-1.2656 0.75-2.2344 0.75z"
                 id="path16" />
        </symbol>
        <symbol
             id="am"
             overflow="visible">
            <path
                 d="m3.9688-2.9688v-3.8125l-2.6875 3.8125zm0.015625 2.9688v-2.0469h-3.6719v-1.0312l3.8438-5.3438h0.89062v5.4531h1.2344v0.92188h-1.2344v2.0469z"
                 id="path19" />
        </symbol>
        <symbol
             id="al"
             overflow="visible">
            <path
                 d="m4.9219-4.6719c0.53906 0 0.96875-0.10938 1.2812-0.32812 0.32031-0.21875 0.48438-0.60938 0.48438-1.1719 0-0.61328-0.21875-1.0352-0.65625-1.2656-0.24219-0.11328-0.5625-0.17188-0.96875-0.17188h-2.8438v2.9375zm-3.8594-3.9375h3.9844c0.65625 0 1.1914 0.09375 1.6094 0.28125 0.8125 0.375 1.2188 1.0586 1.2188 2.0469 0 0.51172-0.10938 0.93359-0.32812 1.2656-0.21094 0.32422-0.50781 0.58594-0.89062 0.78125 0.34375 0.13672 0.59766 0.32031 0.76562 0.54688 0.16406 0.21875 0.25781 0.57812 0.28125 1.0781l0.046875 1.1562c0.007812 0.32422 0.035156 0.57031 0.078125 0.73438 0.070313 0.27344 0.19531 0.44922 0.375 0.53125v0.1875h-1.4219c-0.042969-0.070312-0.078125-0.16406-0.10938-0.28125-0.023437-0.125-0.039063-0.35156-0.046875-0.6875l-0.078125-1.4375c-0.023437-0.5625-0.23047-0.9375-0.625-1.125-0.21875-0.10156-0.57031-0.15625-1.0469-0.15625h-2.6562v3.6875h-1.1562z"
                 id="path22" />
        </symbol>
        <symbol
             id="k"
             overflow="visible">
            <path
                 d="m1.5781-1.6719c0 0.30469 0.10938 0.54297 0.32812 0.71875 0.22656 0.17969 0.49219 0.26562 0.79688 0.26562 0.375 0 0.73438-0.082031 1.0781-0.25 0.59375-0.28906 0.89062-0.75781 0.89062-1.4062v-0.84375c-0.13672 0.074219-0.30859 0.14062-0.51562 0.20312-0.19922 0.054687-0.39844 0.089844-0.59375 0.10938l-0.625 0.078125c-0.38672 0.054687-0.67969 0.13672-0.875 0.25-0.32422 0.17969-0.48438 0.46875-0.48438 0.875zm2.5625-2.125c0.23828-0.03125 0.39844-0.13281 0.48438-0.3125 0.039062-0.09375 0.0625-0.22656 0.0625-0.40625 0-0.35156-0.13281-0.60938-0.39062-0.76562-0.25-0.16406-0.60938-0.25-1.0781-0.25-0.55469 0-0.94531 0.14844-1.1719 0.4375-0.13672 0.16797-0.22656 0.41406-0.26562 0.73438h-0.98438c0.019531-0.76953 0.26953-1.3047 0.75-1.6094 0.48828-0.30078 1.0508-0.45312 1.6875-0.45312 0.73828 0 1.3359 0.14062 1.7969 0.42188 0.45703 0.28125 0.6875 0.71875 0.6875 1.3125v3.6094c0 0.10547 0.019531 0.19531 0.0625 0.26562 0.050781 0.0625 0.14844 0.09375 0.29688 0.09375h0.14062c0.0625-0.007812 0.12891-0.019531 0.20312-0.03125v0.78125c-0.16797 0.039062-0.29688 0.066406-0.39062 0.078125-0.085938 0.019531-0.19922 0.03125-0.34375 0.03125-0.36719 0-0.625-0.13281-0.78125-0.39062-0.09375-0.13281-0.15625-0.32812-0.1875-0.57812-0.21875 0.28125-0.53125 0.52734-0.9375 0.73438-0.39844 0.20703-0.83594 0.3125-1.3125 0.3125-0.58594 0-1.0625-0.17969-1.4375-0.53125-0.36719-0.35156-0.54688-0.79688-0.54688-1.3281 0-0.58203 0.17969-1.0352 0.54688-1.3594 0.36328-0.32031 0.83594-0.51953 1.4219-0.59375zm-0.875-2.625z"
                 id="path25" />
        </symbol>
        <symbol
             id="ak"
             overflow="visible">
            <path
                 d="m1.2656-6.2812l1.2031 4.9531 1.2188-4.9531h1.1875l1.2344 4.9219 1.2812-4.9219h1.0469l-1.8125 6.2812h-1.0938l-1.2812-4.8594-1.2344 4.8594h-1.0938l-1.8125-6.2812z"
                 id="path28" />
        </symbol>
        <symbol
             id="aj"
             overflow="visible" />
        <symbol
             id="ar"
             overflow="visible">
            <path
                 d="m1.4375-3.0625c0 0.66797 0.14062 1.2305 0.42188 1.6875 0.28906 0.44922 0.75 0.67188 1.375 0.67188 0.48828 0 0.89062-0.20703 1.2031-0.625 0.32031-0.41406 0.48438-1.0195 0.48438-1.8125 0-0.78906-0.16797-1.375-0.5-1.75-0.32422-0.38281-0.71875-0.57812-1.1875-0.57812-0.53125 0-0.96484 0.20312-1.2969 0.60938-0.33594 0.40625-0.5 1.0078-0.5 1.7969zm1.5938-3.3281c0.47656 0 0.87891 0.10547 1.2031 0.3125 0.1875 0.11719 0.39844 0.32031 0.64062 0.60938v-3.1719h1.0156v8.6406h-0.95312v-0.875c-0.24219 0.38672-0.53125 0.66797-0.875 0.84375-0.33594 0.16406-0.71875 0.25-1.1562 0.25-0.69922 0-1.3047-0.28906-1.8125-0.875-0.51172-0.59375-0.76562-1.375-0.76562-2.3438 0-0.91406 0.23438-1.707 0.70312-2.375 0.46875-0.67578 1.1328-1.0156 2-1.0156z"
                 id="path32" />
        </symbol>
        <symbol
             id="aq"
             overflow="visible">
            <path
                 d="m0.98438-8.0312h1.0625v1.75h1v0.85938h-1v4.1094c0 0.21875 0.078125 0.36719 0.23438 0.4375 0.070312 0.042969 0.20703 0.0625 0.40625 0.0625h0.15625c0.0625-0.007812 0.12891-0.015625 0.20312-0.015625v0.82812c-0.11719 0.03125-0.24219 0.050781-0.375 0.0625-0.125 0.019531-0.26562 0.03125-0.42188 0.03125-0.49219 0-0.82422-0.125-1-0.375-0.17969-0.25-0.26562-0.57812-0.26562-0.98438v-4.1562h-0.84375v-0.85938h0.84375z"
                 id="path35" />
        </symbol>
        <symbol
             id="c"
             overflow="visible">
            <path
                 d="m-8.3906-3.25c0-1.082 0.44922-1.8672 1.3438-2.3594 0.6875-0.375 1.6367-0.5625 2.8438-0.5625 1.1367 0 2.0781 0.17188 2.8281 0.51562 1.0742 0.49219 1.6094 1.2969 1.6094 2.4219 0 1-0.4375 1.75-1.3125 2.25-0.73828 0.40625-1.7227 0.60938-2.9531 0.60938-0.94531 0-1.7656-0.125-2.4531-0.375-1.2695-0.45703-1.9062-1.2891-1.9062-2.5zm7.6562 0.015625c0-0.55078-0.23828-0.98828-0.71875-1.3125-0.48828-0.32031-1.3945-0.48438-2.7188-0.48438-0.94531 0-1.7266 0.12109-2.3438 0.35938-0.61328 0.23047-0.92188 0.68359-0.92188 1.3594 0 0.625 0.29297 1.0859 0.875 1.375 0.58594 0.28125 1.4453 0.42188 2.5781 0.42188 0.85547 0 1.543-0.09375 2.0625-0.28125 0.79297-0.28125 1.1875-0.75781 1.1875-1.4375z"
                 id="path38" />
        </symbol>
        <symbol
             id="e"
             overflow="visible">
            <path
                 d="m-1.2812-1.0312v-1.2188h1.2812v1.2188z"
                 id="path41" />
        </symbol>
        <symbol
             id="ac"
             overflow="visible">
            <path
                 d="m0-0.375c-0.71875-0.039062-1.3438-0.19141-1.875-0.45312-0.53906-0.25781-1.0312-0.76562-1.4688-1.5156l-0.65625-1.125c-0.28906-0.5-0.53906-0.85156-0.75-1.0625-0.32031-0.32031-0.69141-0.48438-1.1094-0.48438-0.48828 0-0.875 0.15234-1.1562 0.45312-0.28906 0.29297-0.4375 0.67969-0.4375 1.1562 0 0.73047 0.27344 1.2305 0.8125 1.5 0.30469 0.15625 0.71094 0.24219 1.2188 0.25v1.0781c-0.72656-0.007813-1.3203-0.14453-1.7812-0.40625-0.8125-0.45703-1.2188-1.2656-1.2188-2.4219 0-0.95703 0.26172-1.6562 0.78125-2.0938 0.52344-0.44531 1.1016-0.67188 1.7344-0.67188 0.66797 0 1.2422 0.23438 1.7188 0.70312 0.28125 0.27344 0.62109 0.76172 1.0156 1.4688l0.4375 0.8125c0.21094 0.375 0.41406 0.67188 0.60938 0.89062 0.33594 0.39844 0.71094 0.64844 1.125 0.75v-4.5938h1z"
                 id="path44" />
        </symbol>
        <symbol
             id="ab"
             overflow="visible">
            <path
                 d="m-2.9688-3.9688h-3.8125l3.8125 2.6875zm2.9688-0.015625h-2.0469v3.6719h-1.0312l-5.3438-3.8438v-0.89062h5.4531v-1.2344h0.92188v1.2344h2.0469z"
                 id="path47" />
        </symbol>
        <symbol
             id="aa"
             overflow="visible">
            <path
                 d="m-8.4219-3.5156c0-0.9375 0.24609-1.5859 0.73438-1.9531 0.48047-0.375 0.98047-0.5625 1.5-0.5625v1.0469c-0.33203 0.0625-0.59375 0.16406-0.78125 0.29688-0.35156 0.26172-0.53125 0.64844-0.53125 1.1562 0 0.59375 0.27734 1.0703 0.82812 1.4219 0.54297 0.34375 1.3203 0.53125 2.3281 0.5625-0.35156-0.23828-0.61719-0.53906-0.79688-0.90625-0.15625-0.33203-0.23438-0.70703-0.23438-1.125 0-0.70703 0.22656-1.3203 0.67188-1.8438 0.44922-0.51953 1.1211-0.78125 2.0156-0.78125 0.76172 0 1.4375 0.25 2.0312 0.75 0.58594 0.49219 0.875 1.1953 0.875 2.1094 0 0.79297-0.29688 1.4766-0.89062 2.0469-0.60156 0.5625-1.6094 0.84375-3.0156 0.84375-1.0391 0-1.9258-0.125-2.6562-0.375-1.3828-0.48828-2.0781-1.3828-2.0781-2.6875zm7.7031 0.078125c0-0.55078-0.1875-0.96094-0.5625-1.2344-0.375-0.28125-0.81641-0.42188-1.3281-0.42188-0.42578 0-0.83203 0.125-1.2188 0.375-0.38281 0.24219-0.57812 0.6875-0.57812 1.3438 0 0.44922 0.15234 0.84375 0.45312 1.1875 0.29297 0.34375 0.74219 0.51562 1.3438 0.51562 0.53125 0 0.98047-0.15625 1.3438-0.46875 0.36719-0.3125 0.54688-0.74219 0.54688-1.2969z"
                 id="path50" />
        </symbol>
        <symbol
             id="z"
             overflow="visible">
            <path
                 d="m-4.875-3.2656c0-0.46875-0.12891-0.83203-0.39062-1.0938-0.25781-0.25781-0.56641-0.39062-0.92188-0.39062-0.3125 0-0.59766 0.125-0.85938 0.375-0.26953 0.25-0.40625 0.63281-0.40625 1.1406 0 0.51172 0.13672 0.88281 0.40625 1.1094 0.26172 0.23047 0.5625 0.34375 0.90625 0.34375 0.39844 0 0.71094-0.14453 0.9375-0.4375 0.21875-0.30078 0.32812-0.64844 0.32812-1.0469zm4.1562-0.0625c0-0.48828-0.12891-0.89453-0.39062-1.2188-0.26953-0.32031-0.66406-0.48438-1.1875-0.48438-0.53906 0-0.95312 0.16797-1.2344 0.5-0.28125 0.33594-0.42188 0.76172-0.42188 1.2812 0 0.5 0.14844 0.91406 0.4375 1.2344 0.28125 0.3125 0.67969 0.46875 1.1875 0.46875 0.4375 0 0.82031-0.14453 1.1406-0.4375 0.3125-0.28906 0.46875-0.73828 0.46875-1.3438zm-3.75 1.5c-0.125 0.29297-0.26953 0.52344-0.4375 0.6875-0.3125 0.30469-0.71875 0.45312-1.2188 0.45312-0.625 0-1.1602-0.22266-1.6094-0.67188-0.45703-0.45703-0.6875-1.0977-0.6875-1.9219 0-0.8125 0.21484-1.4414 0.64062-1.8906 0.42969-0.45703 0.92188-0.6875 1.4844-0.6875 0.52344 0 0.94922 0.13281 1.2812 0.39062 0.17969 0.14844 0.35547 0.375 0.53125 0.6875 0.15625-0.34375 0.33984-0.61328 0.54688-0.8125 0.39844-0.375 0.90625-0.5625 1.5312-0.5625 0.74219 0 1.3672 0.25 1.875 0.75 0.51172 0.49219 0.76562 1.1875 0.76562 2.0938 0 0.82422-0.21875 1.5156-0.65625 2.0781-0.44531 0.5625-1.0938 0.84375-1.9375 0.84375-0.48828 0-0.91406-0.11719-1.2812-0.35938-0.36328-0.23828-0.64062-0.59766-0.82812-1.0781z"
                 id="path53" />
        </symbol>
        <symbol
             id="y"
             overflow="visible">
            <path
                 d="m-5.9375-1.1562h-0.8125c-0.070312-0.75781-0.19531-1.2852-0.375-1.5781-0.17578-0.30078-0.58594-0.53125-1.2344-0.6875v-0.82812h8.3594v1.125h-5.9375z"
                 id="path56" />
        </symbol>
        <symbol
             id="x"
             overflow="visible">
            <path
                 d="m-8.8438-4.5469c0-1.082 0.28906-1.9258 0.85938-2.5312 0.57422-0.60156 1.2266-0.9375 1.9531-1v1.1406c-0.55078 0.125-0.98828 0.38281-1.3125 0.76562-0.32031 0.38672-0.48438 0.92969-0.48438 1.625 0 0.84375 0.29688 1.5273 0.89062 2.0469 0.59375 0.52344 1.5078 0.78125 2.7344 0.78125 1.0117 0 1.8359-0.23438 2.4688-0.70312 0.625-0.46875 0.9375-1.1719 0.9375-2.1094 0-0.85156-0.33203-1.5078-1-1.9688-0.34375-0.22656-0.80078-0.40625-1.375-0.53125v-1.125c0.90625 0.09375 1.668 0.42969 2.2812 1 0.74219 0.6875 1.1094 1.6094 1.1094 2.7656 0 1-0.30078 1.8398-0.90625 2.5156-0.80078 0.89844-2.0352 1.3438-3.7031 1.3438-1.2695 0-2.3125-0.33203-3.125-1-0.88281-0.72656-1.3281-1.7344-1.3281-3.0156zm0 0.23438z"
                 id="path59" />
        </symbol>
        <symbol
             id="i"
             overflow="visible">
            <path
                 d="m-1.6719-1.5781c0.30469 0 0.54297-0.10938 0.71875-0.32812 0.17969-0.22656 0.26562-0.49219 0.26562-0.79688 0-0.375-0.082031-0.73438-0.25-1.0781-0.28906-0.59375-0.75781-0.89062-1.4062-0.89062h-0.84375c0.074219 0.13672 0.14062 0.30859 0.20312 0.51562 0.054687 0.19922 0.089844 0.39844 0.10938 0.59375l0.078125 0.625c0.054687 0.38672 0.13672 0.67969 0.25 0.875 0.17969 0.32422 0.46875 0.48438 0.875 0.48438zm-2.125-2.5625c-0.03125-0.23828-0.13281-0.39844-0.3125-0.48438-0.09375-0.039062-0.22656-0.0625-0.40625-0.0625-0.35156 0-0.60938 0.13281-0.76562 0.39062-0.16406 0.25-0.25 0.60938-0.25 1.0781 0 0.55469 0.14844 0.94531 0.4375 1.1719 0.16797 0.13672 0.41406 0.22656 0.73438 0.26562v0.98438c-0.76953-0.019531-1.3047-0.26953-1.6094-0.75-0.30078-0.48828-0.45312-1.0508-0.45312-1.6875 0-0.73828 0.14062-1.3359 0.42188-1.7969 0.28125-0.45703 0.71875-0.6875 1.3125-0.6875h3.6094c0.10547 0 0.19531-0.019531 0.26562-0.0625 0.0625-0.050781 0.09375-0.14844 0.09375-0.29688v-0.14062c-0.007812-0.0625-0.019531-0.12891-0.03125-0.20312h0.78125c0.039062 0.16797 0.066406 0.29688 0.078125 0.39062 0.019531 0.085938 0.03125 0.19922 0.03125 0.34375 0 0.36719-0.13281 0.625-0.39062 0.78125-0.13281 0.09375-0.32812 0.15625-0.57812 0.1875 0.28125 0.21875 0.52734 0.53125 0.73438 0.9375 0.20703 0.39844 0.3125 0.83594 0.3125 1.3125 0 0.58594-0.17969 1.0625-0.53125 1.4375-0.35156 0.36719-0.79688 0.54688-1.3281 0.54688-0.58203 0-1.0352-0.17969-1.3594-0.54688-0.32031-0.36328-0.51953-0.83594-0.59375-1.4219zm-2.625 0.875z"
                 id="path62" />
        </symbol>
        <symbol
             id="ai"
             overflow="visible">
            <path
                 d="m-8.6094-0.79688v-1.0625h8.6094v1.0625z"
                 id="path65" />
        </symbol>
        <symbol
             id="ah"
             overflow="visible">
            <path
                 d="m-6.25-0.78125v-1.0625h6.25v1.0625zm-2.3594 0v-1.0625h1.2031v1.0625z"
                 id="path68" />
        </symbol>
        <symbol
             id="ag"
             overflow="visible">
            <path
                 d="m-8.6406-0.6875v-1.0312h3.125c-0.30078-0.22656-0.53125-0.50391-0.6875-0.82812-0.15625-0.32031-0.23438-0.67188-0.23438-1.0469 0-0.78125 0.27344-1.4102 0.8125-1.8906 0.53125-0.48828 1.3203-0.73438 2.3594-0.73438 1 0 1.8281 0.24219 2.4844 0.71875 0.65625 0.48047 0.98438 1.1484 0.98438 2 0 0.48047-0.11719 0.88281-0.34375 1.2031-0.14453 0.19922-0.36328 0.40625-0.65625 0.625h0.79688v0.98438zm7.9062-2.75c0-0.57031-0.22266-1-0.67188-1.2812-0.45703-0.28125-1.0547-0.42188-1.7969-0.42188-0.66406 0-1.2109 0.14062-1.6406 0.42188-0.4375 0.28125-0.65625 0.69922-0.65625 1.25 0 0.48047 0.17969 0.90234 0.53125 1.2656 0.35547 0.36719 0.94531 0.54688 1.7656 0.54688 0.58594 0 1.0625-0.070312 1.4375-0.21875 0.6875-0.28125 1.0312-0.80078 1.0312-1.5625z"
                 id="path71" />
        </symbol>
        <symbol
             id="af"
             overflow="visible">
            <path
                 d="m-6.2812-0.79688v-1.0156h1.0938c-0.21875-0.070312-0.47656-0.26953-0.78125-0.59375-0.30078-0.32031-0.45312-0.69141-0.45312-1.1094 0-0.019531 0.007813-0.050781 0.015625-0.09375 0-0.050781 0.007812-0.13281 0.015625-0.25h1.1094c-0.007812 0.0625-0.015625 0.12109-0.015625 0.17188v0.17188c0 0.53125 0.17188 0.94531 0.51562 1.2344 0.33594 0.28125 0.72656 0.42188 1.1719 0.42188h3.6094v1.0625z"
                 id="path74" />
        </symbol>
        <symbol
             id="r"
             overflow="visible">
            <path
                 d="m-8.0312-0.98438v-1.0625h1.75v-1h0.85938v1h4.1094c0.21875 0 0.36719-0.078125 0.4375-0.23438 0.042969-0.070312 0.0625-0.20703 0.0625-0.40625v-0.15625c-0.007812-0.0625-0.015625-0.12891-0.015625-0.20312h0.82812c0.03125 0.11719 0.050781 0.24219 0.0625 0.375 0.019531 0.125 0.03125 0.26562 0.03125 0.42188 0 0.49219-0.125 0.82422-0.375 1-0.25 0.17969-0.57812 0.26562-0.98438 0.26562h-4.1562v0.84375h-0.85938v-0.84375z"
                 id="path77" />
        </symbol>
        <symbol
             id="ae"
             overflow="visible">
            <path
                 d="m-6.4219-3.3906c0-0.44531 0.10547-0.87891 0.3125-1.2969 0.21094-0.41406 0.48047-0.73438 0.8125-0.95312 0.32422-0.20703 0.69531-0.34766 1.1094-0.42188 0.29297-0.0625 0.75781-0.09375 1.3906-0.09375v4.6094c0.63672-0.019531 1.1484-0.17188 1.5312-0.45312 0.38672-0.28125 0.57812-0.71875 0.57812-1.3125 0-0.55078-0.17969-0.98828-0.54688-1.3125-0.20703-0.1875-0.45312-0.32031-0.73438-0.40625v-1.0312c0.23047 0.023438 0.48438 0.10938 0.76562 0.26562s0.51562 0.32812 0.70312 0.51562c0.3125 0.32422 0.51953 0.72656 0.625 1.2031 0.0625 0.25 0.09375 0.53906 0.09375 0.85938 0 0.78125-0.28125 1.4453-0.84375 1.9844-0.57031 0.54297-1.3672 0.8125-2.3906 0.8125-1.0078 0-1.8281-0.26953-2.4531-0.8125-0.63281-0.55078-0.95312-1.2695-0.95312-2.1562zm2.7812-1.6719c-0.45703 0.042969-0.82031 0.14062-1.0938 0.29688-0.50781 0.28125-0.76562 0.76172-0.76562 1.4375 0 0.49219 0.17969 0.90234 0.53125 1.2344 0.34375 0.32422 0.78906 0.49609 1.3281 0.51562zm-2.7812 1.7812z"
                 id="path80" />
        </symbol>
        <symbol
             id="q"
             overflow="visible">
            <path
                 d="m-3.0625-1.4375c0.66797 0 1.2305-0.14062 1.6875-0.42188 0.44922-0.28906 0.67188-0.75 0.67188-1.375 0-0.48828-0.20703-0.89062-0.625-1.2031-0.41406-0.32031-1.0195-0.48438-1.8125-0.48438-0.78906 0-1.375 0.16797-1.75 0.5-0.38281 0.32422-0.57812 0.71875-0.57812 1.1875 0 0.53125 0.20312 0.96484 0.60938 1.2969 0.40625 0.33594 1.0078 0.5 1.7969 0.5zm-3.3281-1.5938c0-0.47656 0.10547-0.87891 0.3125-1.2031 0.11719-0.1875 0.32031-0.39844 0.60938-0.64062h-3.1719v-1.0156h8.6406v0.95312h-0.875c0.38672 0.24219 0.66797 0.53125 0.84375 0.875 0.16406 0.33594 0.25 0.71875 0.25 1.1562 0 0.69922-0.28906 1.3047-0.875 1.8125-0.59375 0.51172-1.375 0.76562-2.3438 0.76562-0.91406 0-1.707-0.23438-2.375-0.70312-0.67578-0.46875-1.0156-1.1328-1.0156-2z"
                 id="path83" />
        </symbol>
        <symbol
             id="ad"
             overflow="visible" />
        <symbol
             id="w"
             overflow="visible">
            <path
                 d="m7.9688-10.375h3.125v10.375h-2.0312v-7.0156-0.84375c0.007812-0.36328 0.015625-0.64453 0.015625-0.84375l-1.9531 8.7031h-2.1094l-1.9531-8.7031v0.84375c0.007812 0.36719 0.015625 0.64844 0.015625 0.84375v7.0156h-2.0156v-10.375h3.1562l1.875 8.1562z"
                 id="path87" />
        </symbol>
        <symbol
             id="d"
             overflow="visible">
            <path
                 d="m3.9531-6.2188c-0.46094 0-0.82031 0.14844-1.0781 0.4375-0.25 0.29297-0.40625 0.6875-0.46875 1.1875h3.1094c-0.03125-0.53125-0.19531-0.92969-0.48438-1.2031-0.29297-0.28125-0.65234-0.42188-1.0781-0.42188zm0-1.6562c0.64453 0 1.2227 0.12109 1.7344 0.35938 0.50781 0.24219 0.92969 0.62109 1.2656 1.1406 0.30078 0.44922 0.49219 0.97656 0.57812 1.5781 0.050781 0.35547 0.070312 0.85938 0.0625 1.5156h-5.25c0.03125 0.77344 0.27344 1.3125 0.73438 1.625 0.26953 0.1875 0.60156 0.28125 1 0.28125 0.40625 0 0.73828-0.11328 1-0.34375 0.14453-0.125 0.26953-0.30078 0.375-0.53125h2.0469c-0.054688 0.46094-0.29297 0.92188-0.71875 1.3906-0.65625 0.74219-1.5742 1.1094-2.75 1.1094-0.98047 0-1.8438-0.3125-2.5938-0.9375-0.74219-0.625-1.1094-1.6445-1.1094-3.0625 0-1.332 0.33203-2.3516 1-3.0625 0.67578-0.70703 1.5508-1.0625 2.625-1.0625zm0.14062 0z"
                 id="path90" />
        </symbol>
        <symbol
             id="m"
             overflow="visible">
            <path
                 d="m9.5-7.8438c0.34375 0 0.67578 0.070312 1 0.20312 0.33203 0.13672 0.62891 0.36719 0.89062 0.6875 0.21875 0.27344 0.36328 0.60156 0.4375 0.98438 0.050781 0.26172 0.078125 0.64062 0.078125 1.1406l-0.015625 4.8281h-2.0625v-4.875c0-0.28906-0.046875-0.53125-0.14062-0.71875-0.17969-0.36328-0.50781-0.54688-0.98438-0.54688-0.55469 0-0.93359 0.23438-1.1406 0.70312-0.10547 0.24219-0.15625 0.53125-0.15625 0.875v4.5625h-2.0312v-4.5625c0-0.45703-0.046875-0.78906-0.14062-1-0.16797-0.36328-0.49609-0.54688-0.98438-0.54688-0.57422 0-0.96094 0.18359-1.1562 0.54688-0.10547 0.21875-0.15625 0.53906-0.15625 0.95312v4.6094h-2.0312v-7.6562h1.9375v1.125c0.25-0.39453 0.48438-0.67969 0.70312-0.85938 0.39453-0.30078 0.89844-0.45312 1.5156-0.45312 0.58203 0 1.0547 0.13281 1.4219 0.39062 0.28906 0.24219 0.50781 0.54688 0.65625 0.92188 0.26953-0.44531 0.59766-0.77344 0.98438-0.98438 0.41406-0.21875 0.875-0.32812 1.375-0.32812z"
                 id="path93" />
        </symbol>
        <symbol
             id="t"
             overflow="visible">
            <path
                 d="m5.0781-7.8438c1.0078 0 1.7969 0.36719 2.3594 1.0938 0.57031 0.73047 0.85938 1.668 0.85938 2.8125 0 1.1992-0.28125 2.1875-0.84375 2.9688s-1.3516 1.1719-2.3594 1.1719c-0.625 0-1.1328-0.125-1.5156-0.375-0.23047-0.15625-0.48047-0.42188-0.75-0.79688v0.96875h-1.9688v-10.359h2v3.6875c0.25781-0.35156 0.53906-0.625 0.84375-0.8125 0.35156-0.23828 0.8125-0.35938 1.375-0.35938zm-0.51562 6.3906c0.51953 0 0.92188-0.20703 1.2031-0.625 0.28906-0.41406 0.4375-0.96094 0.4375-1.6406 0-0.53906-0.074219-0.99219-0.21875-1.3594-0.27344-0.66406-0.76172-1-1.4688-1-0.73047 0-1.2305 0.32812-1.5 0.98438-0.14844 0.35547-0.21875 0.80859-0.21875 1.3594 0 0.65625 0.14453 1.2031 0.4375 1.6406 0.28906 0.42969 0.73438 0.64062 1.3281 0.64062z"
                 id="path96" />
        </symbol>
        <symbol
             id="l"
             overflow="visible">
            <path
                 d="m5.0938-7.8438h0.09375 0.17188v2.0625c-0.125-0.007812-0.24219-0.015625-0.34375-0.015625-0.09375-0.007813-0.16797-0.015625-0.21875-0.015625-0.8125 0-1.3555 0.26172-1.625 0.78125-0.15625 0.29297-0.23438 0.74609-0.23438 1.3594v3.6719h-2.0156v-7.6719h1.9062v1.3438c0.3125-0.50781 0.58203-0.85938 0.8125-1.0469 0.375-0.3125 0.85938-0.46875 1.4531-0.46875z"
                 id="path99" />
        </symbol>
        <symbol
             id="h"
             overflow="visible">
            <path
                 d="m2.5-2.4531c0.039062 0.36719 0.12891 0.62109 0.26562 0.76562 0.25 0.27344 0.71094 0.40625 1.3906 0.40625 0.38281 0 0.69141-0.054688 0.92188-0.17188 0.23828-0.125 0.35938-0.30078 0.35938-0.53125 0-0.22656-0.09375-0.39844-0.28125-0.51562-0.1875-0.125-0.88672-0.32812-2.0938-0.60938-0.86719-0.21875-1.4766-0.48828-1.8281-0.8125-0.35547-0.3125-0.53125-0.76953-0.53125-1.375 0-0.70703 0.27344-1.3164 0.82812-1.8281 0.55078-0.50781 1.332-0.76562 2.3438-0.76562 0.95703 0 1.7383 0.19531 2.3438 0.57812 0.60156 0.38672 0.94531 1.0469 1.0312 1.9844h-2c-0.03125-0.25781-0.10547-0.46094-0.21875-0.60938-0.21875-0.28125-0.59375-0.42188-1.125-0.42188-0.4375 0-0.75 0.074219-0.9375 0.21875-0.1875 0.13672-0.28125 0.29297-0.28125 0.46875 0 0.23047 0.097656 0.39844 0.29688 0.5 0.19531 0.10547 0.89453 0.29297 2.0938 0.5625 0.80078 0.1875 1.3984 0.46875 1.7969 0.84375 0.39453 0.38672 0.59375 0.86719 0.59375 1.4375 0 0.76172-0.28906 1.3867-0.85938 1.875-0.5625 0.47656-1.4336 0.71875-2.6094 0.71875-1.2109 0-2.1016-0.25781-2.6719-0.76562-0.57422-0.50781-0.85938-1.1602-0.85938-1.9531zm1.5312-5.4219z"
                 id="path102" />
        </symbol>
        <symbol
             id="g"
             overflow="visible">
            <path
                 d="m5.1562-7.8594c0.47656 0 0.91016 0.085937 1.2969 0.25 0.38281 0.15625 0.70312 0.40625 0.95312 0.75 0.20703 0.28125 0.33203 0.57422 0.375 0.875 0.050781 0.30469 0.078125 0.79688 0.078125 1.4844v4.5h-2.0469v-4.6562c0-0.41406-0.070312-0.75-0.20312-1-0.1875-0.36328-0.53906-0.54688-1.0469-0.54688-0.53125 0-0.93359 0.17969-1.2031 0.53125-0.27344 0.35547-0.40625 0.85938-0.40625 1.5156v4.1562h-2v-10.328h2v3.6562c0.28906-0.44531 0.625-0.75391 1-0.92188 0.38281-0.17578 0.78516-0.26562 1.2031-0.26562z"
                 id="path105" />
        </symbol>
        <symbol
             id="f"
             overflow="visible">
            <path
                 d="m3-8.5781h-2.0312v-1.8594h2.0312zm-2.0312 0.90625h2.0312v7.6719h-2.0312z"
                 id="path108" />
        </symbol>
        <symbol
             id="s"
             overflow="visible">
            <path
                 d="m6.2188-3.8281c0-0.59375-0.13672-1.1133-0.40625-1.5625-0.27344-0.45703-0.71094-0.6875-1.3125-0.6875-0.73047 0-1.2305 0.34375-1.5 1.0312-0.13672 0.36719-0.20312 0.82812-0.20312 1.3906 0 0.88672 0.23438 1.5117 0.70312 1.875 0.28125 0.21094 0.61328 0.3125 1 0.3125 0.5625 0 0.98828-0.21094 1.2812-0.64062 0.28906-0.42578 0.4375-1 0.4375-1.7188zm-1.1406-4.0156c0.89453 0 1.6484 0.33594 2.2656 1 0.625 0.65625 0.9375 1.625 0.9375 2.9062 0 1.3555-0.30469 2.3867-0.90625 3.0938-0.60547 0.71094-1.3867 1.0625-2.3438 1.0625-0.61719 0-1.1211-0.15234-1.5156-0.45312-0.23047-0.17578-0.44922-0.42578-0.65625-0.75v4h-1.9844v-10.688h1.9219v1.1406c0.21875-0.33203 0.44531-0.59766 0.6875-0.79688 0.44531-0.34375 0.97656-0.51562 1.5938-0.51562z"
                 id="path111" />
        </symbol>
        <symbol
             id="b"
             overflow="visible" />
        <symbol
             id="p"
             overflow="visible">
            <path
                 d="m5.5156-4.9219c-0.042969-0.28125-0.14062-0.53516-0.29688-0.76562-0.21875-0.3125-0.57031-0.46875-1.0469-0.46875-0.66797 0-1.125 0.33594-1.375 1-0.13672 0.36719-0.20312 0.83984-0.20312 1.4219 0 0.5625 0.066406 1.0156 0.20312 1.3594 0.23828 0.64844 0.6875 0.96875 1.3438 0.96875 0.46875 0 0.80078-0.125 1-0.375 0.19531-0.25781 0.31641-0.59375 0.35938-1h2.0469c-0.042969 0.61719-0.26172 1.1953-0.65625 1.7344-0.63672 0.875-1.5703 1.3125-2.7969 1.3125-1.2305 0-2.1367-0.36328-2.7188-1.0938-0.58594-0.72656-0.875-1.6758-0.875-2.8438 0-1.3203 0.31641-2.3477 0.95312-3.0781 0.64453-0.72656 1.5352-1.0938 2.6719-1.0938 0.95703 0 1.7422 0.21484 2.3594 0.64062 0.61328 0.42969 0.97266 1.1875 1.0781 2.2812zm-1.3594-2.9531z"
                 id="path115" />
        </symbol>
        <symbol
             id="j"
             overflow="visible">
            <path
                 d="m4.375-1.4062c0.58203 0 1.0312-0.20703 1.3438-0.625 0.32031-0.42578 0.48438-1.0195 0.48438-1.7812 0-0.76953-0.16406-1.3633-0.48438-1.7812-0.3125-0.41406-0.76172-0.625-1.3438-0.625-0.58594 0-1.0391 0.21094-1.3594 0.625-0.3125 0.41797-0.46875 1.0117-0.46875 1.7812 0 0.76172 0.15625 1.3555 0.46875 1.7812 0.32031 0.41797 0.77344 0.625 1.3594 0.625zm3.9219-2.4062c0 1.125-0.32422 2.0898-0.96875 2.8906-0.64844 0.79297-1.6328 1.1875-2.9531 1.1875-1.3125 0-2.293-0.39453-2.9375-1.1875-0.64844-0.80078-0.96875-1.7656-0.96875-2.8906 0-1.1133 0.32031-2.0703 0.96875-2.875 0.64453-0.8125 1.625-1.2188 2.9375-1.2188 1.3203 0 2.3047 0.40625 2.9531 1.2188 0.64453 0.80469 0.96875 1.7617 0.96875 2.875zm-3.9219-4.0625z"
                 id="path118" />
        </symbol>
        <symbol
             id="o"
             overflow="visible">
            <path
                 d="m5.1875-7.8438c0.78906 0 1.4375 0.21094 1.9375 0.625 0.50781 0.40625 0.76562 1.0938 0.76562 2.0625v5.1562h-2.0625v-4.6562c0-0.40625-0.054687-0.71875-0.15625-0.9375-0.19922-0.39453-0.57422-0.59375-1.125-0.59375-0.67969 0-1.1484 0.29297-1.4062 0.875-0.125 0.30469-0.1875 0.6875-0.1875 1.1562v4.1562h-2v-7.6562h1.9375v1.125c0.25-0.39453 0.48828-0.67969 0.71875-0.85938 0.41406-0.30078 0.94141-0.45312 1.5781-0.45312zm-0.73438-0.03125z"
                 id="path121" />
        </symbol>
        <symbol
             id="n"
             overflow="visible">
            <path
                 d="m0.14062-6.1719v-1.4219h1.0781v-2.1406h1.9844v2.1406h1.25v1.4219h-1.25v4.0469c0 0.32422 0.035156 0.52734 0.10938 0.60938 0.082031 0.074219 0.32812 0.10938 0.73438 0.10938h0.1875c0.070313-0.007812 0.14453-0.015625 0.21875-0.015625v1.5l-0.95312 0.03125c-0.94922 0.03125-1.6016-0.13281-1.9531-0.5-0.21875-0.22656-0.32812-0.58203-0.32812-1.0625v-4.7188z"
                 id="path124" />
        </symbol>
        <symbol
             id="v"
             overflow="visible">
            <path
                 d="m3.7656-10.469c0.125 0 0.23828 0.007812 0.34375 0.015625 0.10156 0 0.24219 0.007813 0.42188 0.015625v1.6406c-0.11719-0.019531-0.30859-0.03125-0.57812-0.03125-0.26172-0.007813-0.44531 0.046875-0.54688 0.17188-0.09375 0.125-0.14062 0.26172-0.14062 0.40625v0.65625h1.3125v1.4062h-1.3125v6.1875h-2v-6.1875h-1.125v-1.4062h1.1094v-0.5c0-0.82031 0.13281-1.3828 0.40625-1.6875 0.28906-0.45703 0.99219-0.6875 2.1094-0.6875z"
                 id="path127" />
        </symbol>
        <symbol
             id="u"
             overflow="visible">
            <path
                 d="m4.2344-1.6406c0.46875 0 0.86328-0.17578 1.1875-0.53125 0.32031-0.35156 0.48438-0.92188 0.48438-1.7031 0-0.71875-0.15625-1.2656-0.46875-1.6406-0.30469-0.38281-0.71484-0.57812-1.2344-0.57812-0.69922 0-1.1836 0.32812-1.4531 0.98438-0.13672 0.35547-0.20312 0.78906-0.20312 1.2969 0 0.44922 0.070313 0.85156 0.21875 1.2031 0.26953 0.64844 0.75781 0.96875 1.4688 0.96875zm-0.5-6.2031c0.38281 0 0.71875 0.058594 1 0.17188 0.48828 0.19922 0.88281 0.57031 1.1875 1.1094v-1.1094h1.9375v7.2812c0 0.98828-0.16797 1.7344-0.5 2.2344-0.57422 0.86328-1.668 1.2969-3.2812 1.2969-0.98047 0-1.7812-0.19531-2.4062-0.57812-0.61719-0.38672-0.96094-0.96094-1.0312-1.7188h2.1875c0.050781 0.22656 0.14453 0.39453 0.28125 0.5 0.20703 0.1875 0.56641 0.28125 1.0781 0.28125 0.72656 0 1.2109-0.24609 1.4531-0.73438 0.15625-0.3125 0.23438-0.83594 0.23438-1.5625v-0.48438c-0.1875 0.32422-0.39062 0.57031-0.60938 0.73438-0.40625 0.30469-0.92969 0.45312-1.5625 0.45312-0.98047 0-1.7656-0.34375-2.3594-1.0312-0.58594-0.69531-0.875-1.6328-0.875-2.8125 0-1.1328 0.28125-2.0859 0.84375-2.8594 0.57031-0.78125 1.3789-1.1719 2.4219-1.1719zm0.64062-0.03125z"
                 id="path130" />
        </symbol>
    </defs>
    <rect
         width="432"
         height="432"
         fill="#fff"
         id="rect132" />
    <path
         d="m391.77 70.133c0 3.6016-5.3984 3.6016-5.3984 0 0-3.5977 5.3984-3.5977 5.3984 0"
         fill="none"
         stroke="#000"
         stroke-linecap="round"
         stroke-linejoin="round"
         stroke-miterlimit="10"
         stroke-width=".75"
         id="path134" />
    <path
         d="m346.47 70.133c0 3.6016-5.4023 3.6016-5.4023 0 0-3.5977 5.4023-3.5977 5.4023 0"
         fill="none"
         stroke="#000"
         stroke-linecap="round"
         stroke-linejoin="round"
         stroke-miterlimit="10"
         stroke-width=".75"
         id="path136" />
    <path
         d="m273.48 70.41c0 3.5977-5.3984 3.5977-5.3984 0 0-3.6016 5.3984-3.6016 5.3984 0"
         fill="none"
         stroke="#000"
         stroke-linecap="round"
         stroke-linejoin="round"
         stroke-miterlimit="10"
         stroke-width=".75"
         id="path138" />
    <path
         d="m271.26 70.488c0 3.6016-5.3984 3.6016-5.3984 0 0-3.6016 5.3984-3.6016 5.3984 0"
         fill="none"
         stroke="#000"
         stroke-linecap="round"
         stroke-linejoin="round"
         stroke-miterlimit="10"
         stroke-width=".75"
         id="path140" />
    <path
         d="m232.7 80.297c0 3.6016-5.3984 3.6016-5.3984 0 0-3.5977 5.3984-3.5977 5.3984 0"
         fill="none"
         stroke="#000"
         stroke-linecap="round"
         stroke-linejoin="round"
         stroke-miterlimit="10"
         stroke-width=".75"
         id="path142" />
    <path
         d="m209.14 101.83c0 3.5977-5.3984 3.5977-5.3984 0 0-3.6016 5.3984-3.6016 5.3984 0"
         fill="none"
         stroke="#000"
         stroke-linecap="round"
         stroke-linejoin="round"
         stroke-miterlimit="10"
         stroke-width=".75"
         id="path144" />
    <path
         d="m195.1 117.63c0 3.5977-5.3984 3.5977-5.3984 0 0-3.6016 5.3984-3.6016 5.3984 0"
         fill="none"
         stroke="#000"
         stroke-linecap="round"
         stroke-linejoin="round"
         stroke-miterlimit="10"
         stroke-width=".75"
         id="path146" />
    <path
         d="m182.09 130.5c0 3.6016-5.4023 3.6016-5.4023 0 0-3.5977 5.4023-3.5977 5.4023 0"
         fill="none"
         stroke="#000"
         stroke-linecap="round"
         stroke-linejoin="round"
         stroke-miterlimit="10"
         stroke-width=".75"
         id="path148" />
    <path
         d="m166.54 141.95c0 3.6016-5.3984 3.6016-5.3984 0 0-3.6016 5.3984-3.6016 5.3984 0"
         fill="none"
         stroke="#000"
         stroke-linecap="round"
         stroke-linejoin="round"
         stroke-miterlimit="10"
         stroke-width=".75"
         id="path150" />
    <path
         d="m163.13 143.99c0 3.6016-5.4023 3.6016-5.4023 0 0-3.5977 5.4023-3.5977 5.4023 0"
         fill="none"
         stroke="#000"
         stroke-linecap="round"
         stroke-linejoin="round"
         stroke-miterlimit="10"
         stroke-width=".75"
         id="path152" />
    <path
         d="m160.35 145.59c0 3.6016-5.3984 3.6016-5.3984 0s5.3984-3.6016 5.3984 0"
         fill="none"
         stroke="#000"
         stroke-linecap="round"
         stroke-linejoin="round"
         stroke-miterlimit="10"
         stroke-width=".75"
         id="path154" />
    <path
         d="m151.31 150.81c0 3.5977-5.4023 3.5977-5.4023 0 0-3.6016 5.4023-3.6016 5.4023 0"
         fill="none"
         stroke="#000"
         stroke-linecap="round"
         stroke-linejoin="round"
         stroke-miterlimit="10"
         stroke-width=".75"
         id="path156" />
    <path
         d="m132.82 167.44c0 3.6016-5.4023 3.6016-5.4023 0 0-3.5977 5.4023-3.5977 5.4023 0"
         fill="none"
         stroke="#000"
         stroke-linecap="round"
         stroke-linejoin="round"
         stroke-miterlimit="10"
         stroke-width=".75"
         id="path158" />
    <path
         d="m110.61 231.94c0 3.5977-5.3984 3.5977-5.3984 0 0-3.6016 5.3984-3.6016 5.3984 0"
         fill="none"
         stroke="#000"
         stroke-linecap="round"
         stroke-linejoin="round"
         stroke-miterlimit="10"
         stroke-width=".75"
         id="path160" />
    <path
         d="m106.09 256.39c0 3.5977-5.3984 3.5977-5.3984 0 0-3.6016 5.3984-3.6016 5.3984 0"
         fill="none"
         stroke="#000"
         stroke-linecap="round"
         stroke-linejoin="round"
         stroke-miterlimit="10"
         stroke-width=".75"
         id="path162" />
    <path
         d="m105.85 257.77c0 3.5977-5.3984 3.5977-5.3984 0 0-3.6016 5.3984-3.6016 5.3984 0"
         fill="none"
         stroke="#000"
         stroke-linecap="round"
         stroke-linejoin="round"
         stroke-miterlimit="10"
         stroke-width=".75"
         id="path164" />
    <path
         d="m103.23 273.29c0 3.6016-5.3984 3.6016-5.3984 0 0-3.5977 5.3984-3.5977 5.3984 0"
         fill="none"
         stroke="#000"
         stroke-linecap="round"
         stroke-linejoin="round"
         stroke-miterlimit="10"
         stroke-width=".75"
         id="path166" />
    <path
         d="m102.84 275.67c0 3.5977-5.4023 3.5977-5.4023 0 0-3.6016 5.4023-3.6016 5.4023 0"
         fill="none"
         stroke="#000"
         stroke-linecap="round"
         stroke-linejoin="round"
         stroke-miterlimit="10"
         stroke-width=".75"
         id="path168" />
    <path
         d="m102.04 280.44c0 3.5977-5.4023 3.5977-5.4023 0 0-3.6016 5.4023-3.6016 5.4023 0"
         fill="none"
         stroke="#000"
         stroke-linecap="round"
         stroke-linejoin="round"
         stroke-miterlimit="10"
         stroke-width=".75"
         id="path170" />
    <path
         d="m97.203 308.16c0 3.5977-5.4023 3.5977-5.4023 0 0-3.6016 5.4023-3.6016 5.4023 0"
         fill="none"
         stroke="#000"
         stroke-linecap="round"
         stroke-linejoin="round"
         stroke-miterlimit="10"
         stroke-width=".75"
         id="path172" />
    <path
         d="m81.492 346.82c0 3.6016-5.3984 3.6016-5.3984 0 0-3.5977 5.3984-3.5977 5.3984 0"
         fill="none"
         stroke="#000"
         stroke-linecap="round"
         stroke-linejoin="round"
         stroke-miterlimit="10"
         stroke-width=".75"
         id="path174" />
    <path
         d="m78.719 347.32c0 3.5977-5.4023 3.5977-5.4023 0 0-3.6016 5.4023-3.6016 5.4023 0"
         fill="none"
         stroke="#000"
         stroke-linecap="round"
         stroke-linejoin="round"
         stroke-miterlimit="10"
         stroke-width=".75"
         id="path176" />
    <path
         d="m77.129 347.42c0 3.5977-5.3984 3.5977-5.3984 0 0-3.6016 5.3984-3.6016 5.3984 0"
         fill="none"
         stroke="#000"
         stroke-linecap="round"
         stroke-linejoin="round"
         stroke-miterlimit="10"
         stroke-width=".75"
         id="path178" />
    <path
         d="m74.434 347.46c0 3.6016-5.3984 3.6016-5.3984 0 0-3.5977 5.3984-3.5977 5.3984 0"
         fill="none"
         stroke="#000"
         stroke-linecap="round"
         stroke-linejoin="round"
         stroke-miterlimit="10"
         stroke-width=".75"
         id="path180" />
    <path
         d="m70.859 358.56h317.34"
         fill="none"
         stroke="#000"
         stroke-linecap="round"
         stroke-linejoin="round"
         stroke-miterlimit="10"
         stroke-width=".75"
         id="path182" />
    <path
         d="m70.859 358.56v7.2031"
         fill="none"
         stroke="#000"
         stroke-linecap="round"
         stroke-linejoin="round"
         stroke-miterlimit="10"
         stroke-width=".75"
         id="path184" />
    <path
         d="m150.2 358.56v7.2031"
         fill="none"
         stroke="#000"
         stroke-linecap="round"
         stroke-linejoin="round"
         stroke-miterlimit="10"
         stroke-width=".75"
         id="path186" />
    <path
         d="m229.53 358.56v7.2031"
         fill="none"
         stroke="#000"
         stroke-linecap="round"
         stroke-linejoin="round"
         stroke-miterlimit="10"
         stroke-width=".75"
         id="path188" />
    <path
         d="m308.86 358.56v7.2031"
         fill="none"
         stroke="#000"
         stroke-linecap="round"
         stroke-linejoin="round"
         stroke-miterlimit="10"
         stroke-width=".75"
         id="path190" />
    <path
         d="m388.2 358.56v7.2031"
         fill="none"
         stroke="#000"
         stroke-linecap="round"
         stroke-linejoin="round"
         stroke-miterlimit="10"
         stroke-width=".75"
         id="path192" />
    <g
         id="g194">
        <use
             x="67.523438"
             y="384.480469"
             xlink:href="#a"
             id="use196" />
    </g>
    <g
         id="g198">
        <use
             x="133.511719"
             y="384.480469"
             xlink:href="#ap"
             id="use200" />
        <use
             x="140.185547"
             y="384.480469"
             xlink:href="#a"
             id="use202" />
        <use
             x="146.859375"
             y="384.480469"
             xlink:href="#a"
             id="use204" />
        <use
             x="153.533203"
             y="384.480469"
             xlink:href="#a"
             id="use206" />
        <use
             x="160.207031"
             y="384.480469"
             xlink:href="#a"
             id="use208" />
    </g>
    <g
         id="g210">
        <use
             x="212.84375"
             y="384.480469"
             xlink:href="#ao"
             id="use212" />
        <use
             x="219.517578"
             y="384.480469"
             xlink:href="#a"
             id="use214" />
        <use
             x="226.191406"
             y="384.480469"
             xlink:href="#a"
             id="use216" />
        <use
             x="232.865234"
             y="384.480469"
             xlink:href="#a"
             id="use218" />
        <use
             x="239.539062"
             y="384.480469"
             xlink:href="#a"
             id="use220" />
    </g>
    <g
         id="g222">
        <use
             x="292.175781"
             y="384.480469"
             xlink:href="#an"
             id="use224" />
        <use
             x="298.849609"
             y="384.480469"
             xlink:href="#a"
             id="use226" />
        <use
             x="305.523438"
             y="384.480469"
             xlink:href="#a"
             id="use228" />
        <use
             x="312.197266"
             y="384.480469"
             xlink:href="#a"
             id="use230" />
        <use
             x="318.871094"
             y="384.480469"
             xlink:href="#a"
             id="use232" />
    </g>
    <g
         id="g234">
        <use
             x="371.511719"
             y="384.480469"
             xlink:href="#am"
             id="use236" />
        <use
             x="378.185547"
             y="384.480469"
             xlink:href="#a"
             id="use238" />
        <use
             x="384.859375"
             y="384.480469"
             xlink:href="#a"
             id="use240" />
        <use
             x="391.533203"
             y="384.480469"
             xlink:href="#a"
             id="use242" />
        <use
             x="398.207031"
             y="384.480469"
             xlink:href="#a"
             id="use244" />
    </g>
    <path
         d="m59.039 347.46v-277.33"
         fill="none"
         stroke="#000"
         stroke-linecap="round"
         stroke-linejoin="round"
         stroke-miterlimit="10"
         stroke-width=".75"
         id="path246" />
    <path
         d="m59.039 347.46h-7.1992"
         fill="none"
         stroke="#000"
         stroke-linecap="round"
         stroke-linejoin="round"
         stroke-miterlimit="10"
         stroke-width=".75"
         id="path248" />
    <path
         d="m59.039 292h-7.1992"
         fill="none"
         stroke="#000"
         stroke-linecap="round"
         stroke-linejoin="round"
         stroke-miterlimit="10"
         stroke-width=".75"
         id="path250" />
    <path
         d="m59.039 236.54h-7.1992"
         fill="none"
         stroke="#000"
         stroke-linecap="round"
         stroke-linejoin="round"
         stroke-miterlimit="10"
         stroke-width=".75"
         id="path252" />
    <path
         d="m59.039 181.07h-7.1992"
         fill="none"
         stroke="#000"
         stroke-linecap="round"
         stroke-linejoin="round"
         stroke-miterlimit="10"
         stroke-width=".75"
         id="path254" />
    <path
         d="m59.039 125.6h-7.1992"
         fill="none"
         stroke="#000"
         stroke-linecap="round"
         stroke-linejoin="round"
         stroke-miterlimit="10"
         stroke-width=".75"
         id="path256" />
    <path
         d="m59.039 70.133h-7.1992"
         fill="none"
         stroke="#000"
         stroke-linecap="round"
         stroke-linejoin="round"
         stroke-miterlimit="10"
         stroke-width=".75"
         id="path258" />
    <g
         id="g260">
        <use
             x="41.761719"
             y="355.804688"
             xlink:href="#c"
             id="use262" />
        <use
             x="41.761719"
             y="349.130859"
             xlink:href="#e"
             id="use264" />
        <use
             x="41.761719"
             y="345.796875"
             xlink:href="#c"
             id="use266" />
    </g>
    <g
         id="g268">
        <use
             x="41.761719"
             y="300.339844"
             xlink:href="#c"
             id="use270" />
        <use
             x="41.761719"
             y="293.666016"
             xlink:href="#e"
             id="use272" />
        <use
             x="41.761719"
             y="290.332031"
             xlink:href="#ac"
             id="use274" />
    </g>
    <g
         id="g276">
        <use
             x="41.761719"
             y="244.875"
             xlink:href="#c"
             id="use278" />
        <use
             x="41.761719"
             y="238.201172"
             xlink:href="#e"
             id="use280" />
        <use
             x="41.761719"
             y="234.867188"
             xlink:href="#ab"
             id="use282" />
    </g>
    <g
         id="g284">
        <use
             x="41.761719"
             y="189.40625"
             xlink:href="#c"
             id="use286" />
        <use
             x="41.761719"
             y="182.732422"
             xlink:href="#e"
             id="use288" />
        <use
             x="41.761719"
             y="179.398438"
             xlink:href="#aa"
             id="use290" />
    </g>
    <g
         id="g292">
        <use
             x="41.761719"
             y="133.941406"
             xlink:href="#c"
             id="use294" />
        <use
             x="41.761719"
             y="127.267578"
             xlink:href="#e"
             id="use296" />
        <use
             x="41.761719"
             y="123.933594"
             xlink:href="#z"
             id="use298" />
    </g>
    <g
         id="g300">
        <use
             x="41.761719"
             y="78.472656"
             xlink:href="#y"
             id="use302" />
        <use
             x="41.761719"
             y="71.798828"
             xlink:href="#e"
             id="use304" />
        <use
             x="41.761719"
             y="68.464844"
             xlink:href="#c"
             id="use306" />
    </g>
    <path
         d="m59.039 358.56h342.72v-299.52h-342.72v299.52"
         fill="none"
         stroke="#000"
         stroke-linecap="round"
         stroke-linejoin="round"
         stroke-miterlimit="10"
         stroke-width=".75"
         id="path308" />
    <g
         id="g310">
        <use
             x="75.902344"
             y="34.707031"
             xlink:href="#w"
             id="use312" />
        <use
             x="87.902863"
             y="34.707031"
             xlink:href="#d"
             id="use314" />
        <use
             x="95.914932"
             y="34.707031"
             xlink:href="#m"
             id="use316" />
        <use
             x="108.724396"
             y="34.707031"
             xlink:href="#t"
             id="use318" />
        <use
             x="117.524307"
             y="34.707031"
             xlink:href="#d"
             id="use320" />
        <use
             x="125.536377"
             y="34.707031"
             xlink:href="#l"
             id="use322" />
        <use
             x="131.142715"
             y="34.707031"
             xlink:href="#h"
             id="use324" />
        <use
             x="139.154785"
             y="34.707031"
             xlink:href="#g"
             id="use326" />
        <use
             x="147.954697"
             y="34.707031"
             xlink:href="#f"
             id="use328" />
        <use
             x="151.957214"
             y="34.707031"
             xlink:href="#s"
             id="use330" />
        <use
             x="160.757126"
             y="34.707031"
             xlink:href="#b"
             id="use332" />
        <use
             x="164.759644"
             y="34.707031"
             xlink:href="#h"
             id="use334" />
        <use
             x="172.771713"
             y="34.707031"
             xlink:href="#p"
             id="use336" />
        <use
             x="180.783783"
             y="34.707031"
             xlink:href="#j"
             id="use338" />
        <use
             x="189.583694"
             y="34.707031"
             xlink:href="#l"
             id="use340" />
        <use
             x="195.190033"
             y="34.707031"
             xlink:href="#d"
             id="use342" />
        <use
             x="203.202103"
             y="34.707031"
             xlink:href="#h"
             id="use344" />
        <use
             x="211.214172"
             y="34.707031"
             xlink:href="#b"
             id="use346" />
        <use
             x="215.21669"
             y="34.707031"
             xlink:href="#f"
             id="use348" />
        <use
             x="219.219208"
             y="34.707031"
             xlink:href="#o"
             id="use350" />
        <use
             x="228.019119"
             y="34.707031"
             xlink:href="#b"
             id="use352" />
        <use
             x="232.021637"
             y="34.707031"
             xlink:href="#n"
             id="use354" />
        <use
             x="236.819031"
             y="34.707031"
             xlink:href="#g"
             id="use356" />
        <use
             x="245.618942"
             y="34.707031"
             xlink:href="#d"
             id="use358" />
        <use
             x="253.631012"
             y="34.707031"
             xlink:href="#b"
             id="use360" />
        <use
             x="257.63353"
             y="34.707031"
             xlink:href="#h"
             id="use362" />
        <use
             x="265.645599"
             y="34.707031"
             xlink:href="#d"
             id="use364" />
        <use
             x="273.657669"
             y="34.707031"
             xlink:href="#n"
             id="use366" />
        <use
             x="278.455063"
             y="34.707031"
             xlink:href="#b"
             id="use368" />
        <use
             x="282.457581"
             y="34.707031"
             xlink:href="#j"
             id="use370" />
        <use
             x="291.257492"
             y="34.707031"
             xlink:href="#v"
             id="use372" />
        <use
             x="296.054886"
             y="34.707031"
             xlink:href="#b"
             id="use374" />
        <use
             x="300.057404"
             y="34.707031"
             xlink:href="#g"
             id="use376" />
        <use
             x="308.857315"
             y="34.707031"
             xlink:href="#f"
             id="use378" />
        <use
             x="312.859833"
             y="34.707031"
             xlink:href="#u"
             id="use380" />
        <use
             x="321.659744"
             y="34.707031"
             xlink:href="#g"
             id="use382" />
        <use
             x="330.459656"
             y="34.707031"
             xlink:href="#b"
             id="use384" />
        <use
             x="334.462173"
             y="34.707031"
             xlink:href="#f"
             id="use386" />
        <use
             x="338.464691"
             y="34.707031"
             xlink:href="#o"
             id="use388" />
        <use
             x="347.264603"
             y="34.707031"
             xlink:href="#p"
             id="use390" />
        <use
             x="355.276672"
             y="34.707031"
             xlink:href="#j"
             id="use392" />
        <use
             x="364.076584"
             y="34.707031"
             xlink:href="#m"
             id="use394" />
        <use
             x="376.886047"
             y="34.707031"
             xlink:href="#d"
             id="use396" />
    </g>
    <g
         id="g398">
        <use
             x="205.050781"
             y="413.28125"
             xlink:href="#al"
             id="use400" />
        <use
             x="213.716797"
             y="413.28125"
             xlink:href="#k"
             id="use402" />
        <use
             x="220.390625"
             y="413.28125"
             xlink:href="#ak"
             id="use404" />
        <use
             x="229.056641"
             y="413.28125"
             xlink:href="#aj"
             id="use406" />
        <use
             x="232.390625"
             y="413.28125"
             xlink:href="#ar"
             id="use408" />
        <use
             x="239.064453"
             y="413.28125"
             xlink:href="#k"
             id="use410" />
        <use
             x="245.738281"
             y="413.28125"
             xlink:href="#aq"
             id="use412" />
        <use
             x="249.072266"
             y="413.28125"
             xlink:href="#k"
             id="use414" />
    </g>
    <g
         id="g416">
        <use
             x="12.960938"
             y="249.496094"
             xlink:href="#x"
             id="use418" />
        <use
             x="12.960938"
             y="240.830078"
             xlink:href="#i"
             id="use420" />
        <use
             x="12.960938"
             y="234.15625"
             xlink:href="#ai"
             id="use422" />
        <use
             x="12.960938"
             y="231.490234"
             xlink:href="#ah"
             id="use424" />
        <use
             x="12.960938"
             y="228.824219"
             xlink:href="#ag"
             id="use426" />
        <use
             x="12.960938"
             y="222.150391"
             xlink:href="#af"
             id="use428" />
        <use
             x="12.960938"
             y="218.154297"
             xlink:href="#i"
             id="use430" />
        <use
             x="12.960938"
             y="211.480469"
             xlink:href="#r"
             id="use432" />
        <use
             x="12.960938"
             y="208.146484"
             xlink:href="#ae"
             id="use434" />
        <use
             x="12.960938"
             y="201.472656"
             xlink:href="#q"
             id="use436" />
        <use
             x="12.960938"
             y="194.798828"
             xlink:href="#ad"
             id="use438" />
        <use
             x="12.960938"
             y="191.464844"
             xlink:href="#q"
             id="use440" />
        <use
             x="12.960938"
             y="184.791016"
             xlink:href="#i"
             id="use442" />
        <use
             x="12.960938"
             y="178.117188"
             xlink:href="#r"
             id="use444" />
        <use
             x="12.960938"
             y="174.783203"
             xlink:href="#i"
             id="use446" />
    </g>
</svg>
