<?xml version="1.0" encoding="UTF-8" standalone="no"?>
<svg
     xmlns:dc="http://purl.org/dc/elements/1.1/"
     xmlns:cc="http://creativecommons.org/ns#"
     xmlns:rdf="http://www.w3.org/1999/02/22-rdf-syntax-ns#"
     xmlns:svg="http://www.w3.org/2000/svg"
     xmlns="http://www.w3.org/2000/svg"
     xmlns:xlink="http://www.w3.org/1999/xlink"
     xmlns:sodipodi="http://sodipodi.sourceforge.net/DTD/sodipodi-0.dtd"
     xmlns:inkscape="http://www.inkscape.org/namespaces/inkscape"
     width="432pt"
     height="432pt"
     version="1.1"
     viewBox="0 0 432 432"
     id="svg2"
     inkscape:version="0.92.2 5c3e80d, 2017-08-06"
     sodipodi:docname="minimize-1.svg">
    <metadata
         id="metadata149">
        <rdf:RDF>
            <cc:Work
                 rdf:about="">
                <dc:format>image/svg+xml</dc:format>
                <dc:type
                     rdf:resource="http://purl.org/dc/dcmitype/StillImage" />
                <dc:title></dc:title>
            </cc:Work>
        </rdf:RDF>
    </metadata>
    <sodipodi:namedview
         pagecolor="#ffffff"
         bordercolor="#666666"
         borderopacity="1"
         objecttolerance="10"
         gridtolerance="10"
         guidetolerance="10"
         inkscape:pageopacity="0"
         inkscape:pageshadow="2"
         inkscape:window-width="857"
         inkscape:window-height="480"
         id="namedview147"
         showgrid="false"
         inkscape:zoom="0.437"
         inkscape:cx="-178.5"
         inkscape:cy="270"
         inkscape:window-x="0"
         inkscape:window-y="0"
         inkscape:window-maximized="0"
         inkscape:current-layer="svg2" />
    <defs
         id="defs4">
        <symbol
             id="d"
             overflow="visible">
            <path
                 d="m3.5938-0.84375c0.33203 0 0.60156-0.035156 0.8125-0.10938 0.38281-0.125 0.70312-0.375 0.95312-0.75 0.19531-0.28906 0.33594-0.66406 0.42188-1.125 0.050781-0.28125 0.078125-0.53906 0.078125-0.78125 0-0.90625-0.18359-1.6094-0.54688-2.1094-0.35547-0.5-0.93359-0.75-1.7344-0.75h-1.7656v5.625zm-2.7656-6.4688h2.9531c1.0078 0 1.7891 0.35547 2.3438 1.0625 0.5 0.64844 0.75 1.4766 0.75 2.4844 0 0.77344-0.14844 1.4766-0.4375 2.1094-0.52344 1.1055-1.4062 1.6562-2.6562 1.6562h-2.9531z"
                 id="path7" />
        </symbol>
        <symbol
             id="i"
             overflow="visible">
            <path
                 d="m0.875-7.3125h5.3281v0.89062h-4.3594v2.2188h4.0312v0.84375h-4.0312v2.4844h4.4375v0.875h-5.4062zm2.7031 0z"
                 id="path10" />
        </symbol>
        <symbol
             id="h"
             overflow="visible">
            <path
                 d="m1.3594-7.3125l2.0938 6.2188 2.0781-6.2188h1.1094l-2.6719 7.3125h-1.0469l-2.6562-7.3125z"
                 id="path13" />
        </symbol>
        <symbol
             id="g"
             overflow="visible">
            <path
                 d="m1.8594-7.3125v4.5156c0 0.53125 0.097656 0.97656 0.29688 1.3281 0.28906 0.53125 0.78516 0.79688 1.4844 0.79688 0.84375 0 1.4141-0.28516 1.7188-0.85938 0.16406-0.3125 0.25-0.73438 0.25-1.2656v-4.5156h1v4.1094c0 0.89844-0.12109 1.5898-0.35938 2.0781-0.44922 0.875-1.293 1.3125-2.5312 1.3125-1.2305 0-2.0703-0.4375-2.5156-1.3125-0.24219-0.48828-0.35938-1.1797-0.35938-2.0781v-4.1094zm1.875 0z"
                 id="path16" />
        </symbol>
        <symbol
             id="f"
             overflow="visible">
            <path
                 d="m4.1875-3.9688c0.45703 0 0.82031-0.09375 1.0938-0.28125 0.26953-0.1875 0.40625-0.51953 0.40625-1 0-0.51953-0.1875-0.875-0.5625-1.0625-0.21094-0.10156-0.48047-0.15625-0.8125-0.15625h-2.4219v2.5zm-3.2969-3.3438h3.3906c0.5625 0 1.0234 0.078125 1.3906 0.23438 0.6875 0.3125 1.0312 0.89062 1.0312 1.7344 0 0.4375-0.09375 0.79688-0.28125 1.0781-0.17969 0.28125-0.42969 0.50781-0.75 0.67188 0.28125 0.11719 0.49219 0.26562 0.64062 0.45312 0.14453 0.1875 0.22266 0.49609 0.23438 0.92188l0.046875 0.98438c0 0.28125 0.019531 0.49219 0.0625 0.625 0.0625 0.23047 0.16406 0.375 0.3125 0.4375v0.17188h-1.2031c-0.042969-0.0625-0.074219-0.14062-0.09375-0.23438-0.011719-0.10156-0.027344-0.30078-0.046875-0.59375l-0.0625-1.2188c-0.023438-0.47656-0.19922-0.79688-0.53125-0.95312-0.1875-0.09375-0.48438-0.14062-0.89062-0.14062h-2.25v3.1406h-1z"
                 id="path19" />
        </symbol>
        <symbol
             id="c"
             overflow="visible">
            <path
                 d="m3.5312-4.2188c0.41406 0 0.73828-0.0625 0.96875-0.1875 0.36328-0.17578 0.54688-0.50391 0.54688-0.98438 0-0.47656-0.19531-0.80078-0.57812-0.96875-0.21875-0.082031-0.54297-0.125-0.96875-0.125h-1.7812v2.2656zm0.32812 3.375c0.60156 0 1.0352-0.17578 1.2969-0.53125 0.16406-0.21875 0.25-0.48828 0.25-0.8125 0-0.53125-0.24219-0.89062-0.71875-1.0781-0.25-0.10156-0.58594-0.15625-1-0.15625h-1.9688v2.5781zm-3.1094-6.4688h3.1406c0.86328 0 1.4727 0.25781 1.8281 0.76562 0.21875 0.30469 0.32812 0.65234 0.32812 1.0469 0 0.46094-0.13281 0.83594-0.39062 1.125-0.13672 0.15625-0.33594 0.30469-0.59375 0.4375 0.375 0.14844 0.65625 0.30859 0.84375 0.48438 0.32031 0.3125 0.48438 0.75 0.48438 1.3125 0 0.46875-0.14844 0.89844-0.4375 1.2812-0.4375 0.57422-1.1406 0.85938-2.1094 0.85938h-3.0938z"
                 id="path22" />
        </symbol>
        <symbol
             id="e"
             overflow="visible">
            <path
                 d="m0.78125-7.3125h0.98438v6.4375h3.7031v0.875h-4.6875z"
                 id="path25" />
        </symbol>
        <symbol
             id="b"
             overflow="visible">
            <path
                 d="m1-7.3125h1v7.3125h-1z"
                 id="path28" />
        </symbol>
        <symbol
             id="a"
             overflow="visible">
            <path
                 d="m6.1094-7.3125v0.85938h-2.4688v6.4531h-1.0156v-6.4531h-2.4531v-0.85938z"
                 id="path31" />
        </symbol>
        <symbol
             id="o"
             overflow="visible">
            <path
                 d="m0.78125-7.3125h1.1719l3.6875 5.9219v-5.9219h0.95312v7.3125h-1.125l-3.75-5.9219v5.9219h-0.9375zm2.8281 0z"
                 id="path34" />
        </symbol>
        <symbol
             id="n"
             overflow="visible">
            <path
                 d="m1.4219-2.3594c0.019531 0.41797 0.11719 0.75781 0.29688 1.0156 0.33203 0.48047 0.91016 0.71875 1.7344 0.71875 0.375 0 0.71094-0.050781 1.0156-0.15625 0.59375-0.20703 0.89062-0.57812 0.89062-1.1094 0-0.39453-0.125-0.67578-0.375-0.84375-0.25-0.16406-0.64844-0.3125-1.1875-0.4375l-0.98438-0.21875c-0.64844-0.14453-1.1055-0.30469-1.375-0.48438-0.46875-0.3125-0.70312-0.76953-0.70312-1.375 0-0.65625 0.22656-1.1914 0.6875-1.6094 0.45703-0.42578 1.1016-0.64062 1.9375-0.64062 0.75781 0 1.4062 0.1875 1.9375 0.5625 0.53906 0.36719 0.8125 0.95312 0.8125 1.7656h-0.92188c-0.054688-0.39453-0.16406-0.69531-0.32812-0.90625-0.30469-0.375-0.8125-0.5625-1.5312-0.5625-0.58594 0-1.0078 0.125-1.2656 0.375-0.26172 0.24219-0.39062 0.52344-0.39062 0.84375 0 0.36719 0.14844 0.625 0.45312 0.78125 0.19531 0.11719 0.64062 0.25 1.3281 0.40625l1.0312 0.23438c0.48828 0.11719 0.86719 0.27344 1.1406 0.46875 0.46875 0.33594 0.70312 0.82812 0.70312 1.4844 0 0.8125-0.29688 1.3984-0.89062 1.75-0.58594 0.34375-1.2656 0.51562-2.0469 0.51562-0.91797 0-1.6328-0.23438-2.1406-0.70312-0.51172-0.45703-0.76172-1.082-0.75-1.875zm2-5.1562z"
                 id="path37" />
        </symbol>
        <symbol
             id="m"
             overflow="visible">
            <path
                 d="m2.7656-7.1406c0.91406 0 1.582 0.38281 2 1.1406 0.3125 0.59375 0.46875 1.4023 0.46875 2.4219 0 0.96875-0.14062 1.7734-0.42188 2.4062-0.41797 0.90625-1.1055 1.3594-2.0625 1.3594-0.85547 0-1.4922-0.36719-1.9062-1.1094-0.35547-0.625-0.53125-1.457-0.53125-2.5 0-0.8125 0.10156-1.5078 0.3125-2.0938 0.39453-1.082 1.1094-1.625 2.1406-1.625zm-0.015625 6.5156c0.46875 0 0.83594-0.20312 1.1094-0.60938 0.28125-0.41406 0.42188-1.1875 0.42188-2.3125 0-0.80078-0.10547-1.4609-0.3125-1.9844-0.19922-0.53125-0.58594-0.79688-1.1562-0.79688-0.53125 0-0.91797 0.25-1.1562 0.75-0.24219 0.49219-0.35938 1.2188-0.35938 2.1875 0 0.73047 0.078125 1.3125 0.23438 1.75 0.23828 0.67969 0.64453 1.0156 1.2188 1.0156z"
                 id="path40" />
        </symbol>
        <symbol
             id="l"
             overflow="visible">
            <path
                 d="m0.96875-5.0469v-0.6875c0.65625-0.0625 1.1094-0.16406 1.3594-0.3125 0.25781-0.15625 0.45312-0.50781 0.57812-1.0625h0.70312v7.1094h-0.95312v-5.0469z"
                 id="path43" />
        </symbol>
        <symbol
             id="k"
             overflow="visible">
            <path
                 d="m3.8594-7.5156c0.92578 0 1.6445 0.24609 2.1562 0.73438 0.50781 0.49219 0.79688 1.043 0.85938 1.6562h-0.96875c-0.11719-0.46875-0.33984-0.83594-0.67188-1.1094-0.32422-0.28125-0.77734-0.42188-1.3594-0.42188-0.71875 0-1.3047 0.25781-1.75 0.76562-0.44922 0.5-0.67188 1.2773-0.67188 2.3281 0 0.85547 0.19531 1.5469 0.59375 2.0781 0.40625 0.53125 1.0039 0.79688 1.7969 0.79688 0.73828 0 1.2969-0.28125 1.6719-0.84375 0.20703-0.28906 0.35938-0.67578 0.45312-1.1562h0.96875c-0.085938 0.77344-0.37109 1.418-0.85938 1.9375-0.57422 0.625-1.3555 0.9375-2.3438 0.9375-0.85547 0-1.5703-0.25391-2.1406-0.76562-0.76172-0.6875-1.1406-1.7383-1.1406-3.1562 0-1.082 0.28516-1.9688 0.85938-2.6562 0.61328-0.75 1.4609-1.125 2.5469-1.125zm-0.20312 0z"
                 id="path46" />
        </symbol>
        <symbol
             id="j"
             overflow="visible">
            <path
                 d="m2.4531-1.0312h1v1.0312h-1zm-1.6719-4c0-0.71875 0.20312-1.2891 0.60938-1.7188 0.40625-0.4375 0.95703-0.65625 1.6562-0.65625 0.65625 0 1.1797 0.1875 1.5781 0.5625 0.39453 0.36719 0.59375 0.83984 0.59375 1.4219 0 0.35547-0.074219 0.64062-0.21875 0.85938-0.14844 0.21875-0.4375 0.54297-0.875 0.96875-0.32422 0.30469-0.53125 0.5625-0.625 0.78125s-0.14062 0.53906-0.14062 0.95312h-0.89062c0-0.47656 0.054688-0.86328 0.17188-1.1562 0.11328-0.28906 0.36328-0.625 0.75-1l0.39062-0.39062c0.125-0.11328 0.22266-0.22656 0.29688-0.34375 0.13281-0.21875 0.20312-0.44531 0.20312-0.6875 0-0.32031-0.10156-0.60156-0.29688-0.84375-0.19922-0.23828-0.52344-0.35938-0.96875-0.35938-0.55469 0-0.93359 0.21094-1.1406 0.625-0.125 0.23047-0.19922 0.55859-0.21875 0.98438z"
                 id="path49" />
        </symbol>
    </defs>
    <rect
         width="432"
         height="432"
         fill="#fff"
         id="rect51" />
    <path
         d="m18.941 412.67h393.33v-393.34h-393.33zm47.395-185.81l-2.1484 3.5391-1.9648 3.6133-1.7812 3.6719-1.5977 3.7344-1.4141 3.7812-1.2344 3.8281-1.0508 3.8633-0.87109 3.8984-0.69141 3.9219-0.51172 3.9414-0.33203 3.9531-0.15625 3.957 0.023438 3.9609 0.19922 3.9531 0.375 3.9414 0.55078 3.9219 0.72656 3.8945 0.89844 3.8594 1.0742 3.8242 1.2461 3.7812 1.418 3.7266 1.5859 3.668 1.7617 3.6055 1.9297 3.5391 2.0977 3.457 2.2695 3.375 2.4336 3.2852 2.6016 3.1875 2.7695 3.0859 2.9375 2.9766 3.1016 2.8633 3.2656 2.7383 2.4414 1.8555 2.4844 1.7578 2.5273 1.6602 2.5625 1.5625 2.6055 1.4688 2.6328 1.3711 2.668 1.2773 2.6992 1.1797 2.7227 1.0859 2.75 0.98828 2.7695 0.89844 2.7891 0.80078 2.8086 0.70703 2.8203 0.61328 2.8359 0.51953 2.8438 0.42578 2.8516 0.33594 2.8555 0.23828 2.8633 0.14844 2.8594 0.054688 2.8555-0.035156 2.8555-0.12891 2.8477-0.21875 2.8359-0.3125 2.8281-0.40234 2.8125-0.49219 2.7969-0.58594 2.7773-0.67187 2.7539-0.76563 2.7305-0.85156 2.707-0.94531 2.6758-1.0312 2.7891 3.1445 2.9141 2.9805 3.0273 2.8203 3.1406 2.6562 3.2422 2.4922 3.3398 2.3281 3.4336 2.1602 3.5117 1.9922 3.5938 1.8203 3.6641 1.6523 3.7266 1.4805 3.7812 1.3086 3.8359 1.1328 3.8789 0.96094 3.918 0.78125 3.9492 0.60547 3.9727 0.42578 3.9922 0.25 4.0039 0.066406 4.0078-0.11719 4.0078-0.30078 3.9961-0.48437 3.9844-0.66797 3.9609-0.85938 3.9336-1.043 3.8984-1.2344 3.8594-1.4219 3.8086-1.6172 3.7578-1.8086 3.6953-2.0039 3.625-2.1992 3.5547-2.3906 2.332-1.6914 2.2617-1.75 2.1875-1.8086 2.1172-1.8711 2.043-1.9258 1.9688-1.9844 1.8945-2.0312 1.8242-2.0859 1.75-2.1328 1.6719-2.1836 1.6016-2.2227 1.5234-2.2695 1.4492-2.3086 1.3711-2.3477 1.2969-2.3828 1.2188-2.418 1.1445-2.4531 1.0625-2.4805 0.98828-2.5117 0.91016-2.5391 0.82812-2.5625 0.75-2.5859 0.67188-2.6055 0.59375-2.625 0.51172-2.6406 0.43359-2.6562 0.35156-2.668 0.26953-2.6797 0.1875-2.6875 0.10938-2.6953 0.023438-2.6992-0.058594-2.7031 3.8789-1.6602 3.7656-1.8281 3.6484-1.9922 3.5234-2.1484 3.4023-2.2969 3.2695-2.4453 3.1406-2.582 3.0078-2.7148 2.8672-2.8398 2.7266-2.9609 2.5859-3.0781 2.4375-3.1875 2.2891-3.2891 2.1328-3.3867 1.9805-3.4805 1.8203-3.5625 1.6562-3.6445 1.4961-3.7148 1.3242-3.7852 1.1523-3.8477 0.97656-3.9023 0.80078-3.9492 0.62109-4 0.4375-4.0312 0.25-4.0664 0.058594-4.0938-0.13281-4.1133-0.32812-4.125-0.53125-4.1367-0.73047-4.1367-0.93359-4.1367-1.1445-4.125-0.92578-2.8672-1.0117-2.8164-1.0977-2.7617-1.1836-2.707-1.2656-2.6484-1.3438-2.5898-1.4258-2.5352-1.5039-2.4727-1.5742-2.4102-1.6484-2.3516-1.7227-2.2852-1.7891-2.2227-1.8516-2.1602-1.9219-2.0898-1.9805-2.0234-2.043-1.9531-2.1016-1.8867-2.1602-1.8125-2.2109-1.7461-2.2656-1.668-2.3125-1.5938-2.3672-1.5195-2.4102-1.4453-2.4531-1.3672-2.4961-1.2891-2.5391-1.207-2.5742-1.1289-2.6133-1.043-2.6445-0.96484-2.6797-0.87891-2.7109-0.79297-2.7383-0.70703-0.4375-4.207-0.63672-4.1484-0.82813-4.0781-1.0117-4.0117-1.1992-3.9336-1.3711-3.8555-1.5508-3.7695-1.7109-3.6797-1.8789-3.5859-2.0352-3.4844-2.1914-3.3828-2.3359-3.2734-2.4844-3.1602-2.6172-3.043-2.7578-2.918-2.8828-2.793-3.0078-2.6602-3.1289-2.5195-3.2422-2.3828-3.3555-2.2344-3.457-2.082-3.5625-1.9258-3.6523-1.7617-3.7461-1.6016-3.8359-1.4297-3.9102-1.2539-3.9922-1.0742-4.0625-0.88672-4.1289-0.69922-4.1914-0.50781-4.2461-0.30859-4.3008-0.10156-2.8203 0.042969-2.8008 0.13281-2.7773 0.21875-2.75 0.30469-2.7266 0.39062-2.6992 0.47266-2.6719 0.55078-2.6406 0.63672-2.6094 0.71094-2.5742 0.78906-2.543 0.86719-2.5078 0.9375-2.4688 1.0156-2.4336 1.0859-2.3906 1.1562-2.3555 1.2266-2.3086 1.293-2.2656 1.3594-2.2227 1.4297-2.1758 1.4883-2.1289 1.5547-2.0781 1.6133-2.0312 1.6758-1.9766 1.7344-1.9258 1.7891-1.8711 1.8477-1.8164 1.9023-1.7578 1.957-1.6992 2.0039-1.6406 2.0586-1.582 2.1094-1.5156 2.1562-4.0625-0.86719-4.0703-0.67188-4.0664-0.47656-4.0664-0.28516-4.0508-0.097656-4.0391 0.089844-4.0117 0.27344-3.9844 0.45312-3.9492 0.62891-3.9102 0.80859-3.8594 0.97656-3.8086 1.1484-3.7539 1.3164-3.6836 1.4805-3.6172 1.6445-3.5391 1.8008-3.457 1.9609-3.3711 2.1133-3.2734 2.2656-3.1758 2.4141-3.0703 2.5625-2.957 2.7031-2.8398 2.8438-2.7148 2.9844-2.5859 3.1172-2.4492 3.2539-2.3086 3.3828-2.1641 3.5117-2.0078 3.6328-1.8477 3.7578-1.6836 3.8789-1.5117 3.9961-0.94141 2.7812-0.84766 2.793-0.74609 2.7969-0.65234 2.8086-0.55469 2.8086-0.46094 2.8125-0.36719 2.8125-0.27344 2.8086-0.18359 2.8086-0.089843 2.8008v2.793l0.085937 2.7812 0.17969 2.7734 0.26172 2.7578 0.35156 2.7461 0.4375 2.7227 0.51953 2.707 0.60156 2.6875 0.6875 2.6602 0.76953 2.6406 0.85156 2.6094 0.92969 2.582 1.0078 2.5508 1.0859 2.5156 1.1641 2.4844 1.2422 2.4453 1.3164 2.4102 1.3906 2.3672 1.4609 2.3242 1.5391 2.2812 1.6055 2.2344z"
         fill="#ffd785"
         fill-rule="evenodd"
         id="path53" />
    <path
         d="m114.25 257.73l0.019531 1.75 0.097656 1.7148 0.17188 1.6797 0.24219 1.6445 0.3125 1.6016 0.38672 1.5664 0.45313 1.5234 0.51953 1.4844 0.58984 1.4414 0.65625 1.4023 0.71875 1.3555 0.78516 1.3125 0.84766 1.2695 0.91016 1.2227 0.96875 1.1797 1.0312 1.1289 1.0898 1.0859 1.1484 1.0352 1.2031 0.98438 1.2617 0.9375 1.3125 0.88281 1.3711 0.83594 1.4219 0.78125 1.4727 0.72656 1.5273 0.67578 1.5742 0.62109 1.6211 0.5625 1.6719 0.51172 1.7188 0.44922 1.7617 0.39453 1.8086 0.33594 1.8516 0.27734 2.1406 9.9219 1.0352 4.5273 1.0469 4.2891 1.0781 4.082 1.1445 3.9023 1.2305 3.7656 1.3398 3.6602 1.4844 3.582 1.6484 3.5469 1.8359 3.5391 2.0547 3.5664 2.2969 3.6289 2.5664 3.7227 2.8594 3.8516 3.1797 4.0156-2.6758 1.0312-2.707 0.94531-2.7305 0.85156-2.7539 0.76563-2.7773 0.67187-2.7969 0.58594-2.8125 0.49219-2.8281 0.40234-2.8359 0.3125-2.8477 0.21875-2.8555 0.12891-2.8555 0.035156-2.8594-0.054688-2.8633-0.14844-2.8555-0.23828-2.8516-0.33594-2.8438-0.42578-2.8359-0.51953-2.8203-0.61328-2.8086-0.70703-2.7891-0.80078-2.7695-0.89844-2.75-0.98828-2.7227-1.0859-2.6992-1.1797-2.668-1.2773-2.6328-1.3711-2.6055-1.4688-2.5625-1.5625-2.5273-1.6602-2.4844-1.7578-2.4414-1.8555-3.2656-2.7383-3.1016-2.8633-2.9375-2.9766-2.7695-3.0859-2.6016-3.1875-2.4336-3.2852-2.2695-3.375-2.0977-3.457-1.9297-3.5391-1.7617-3.6055-1.5859-3.668-1.418-3.7266-1.2461-3.7812-1.0742-3.8242-0.89844-3.8594-0.72656-3.8945-0.55078-3.9219-0.375-3.9414-0.19922-3.9531-0.023438-3.9609 0.15625-3.957 0.33203-3.9531 0.51172-3.9414 0.69141-3.9219 0.87109-3.8984 1.0508-3.8633 1.2344-3.8281 1.4141-3.7812 1.5977-3.7344 1.7812-3.6719 1.9648-3.6133 2.1484-3.5391 2.7891 2.9062 2.7891 2.7578 2.793 2.6172 2.8086 2.4805 2.8281 2.3398 2.8516 2.2109 2.8828 2.0781 2.9141 1.957 2.957 1.832 3.0039 1.7148 3.0547 1.5977 3.1094 1.4883 3.1758 1.3789 3.2422 1.2734 3.3125 1.1719z"
         fill="#ffd785"
         fill-rule="evenodd"
         stroke="#000"
         stroke-linecap="round"
         stroke-linejoin="round"
         stroke-miterlimit="10"
         stroke-width=".75"
         id="path55" />
    <path
         d="m328.81 295.41l3.8789-1.6602 3.7656-1.8281 3.6484-1.9922 3.5234-2.1484 3.4023-2.2969 3.2695-2.4453 3.1406-2.582 3.0078-2.7148 2.8672-2.8398 2.7266-2.9609 2.5859-3.0781 2.4375-3.1875 2.2891-3.2891 2.1328-3.3867 1.9805-3.4805 1.8203-3.5625 1.6562-3.6445 1.4961-3.7148 1.3242-3.7852 1.1523-3.8477 0.97656-3.9023 0.80078-3.9492 0.62109-4 0.4375-4.0312 0.25-4.0664 0.058594-4.0938-0.13281-4.1133-0.32812-4.125-0.53125-4.1367-0.73047-4.1367-0.93359-4.1367-1.1445-4.125-0.92578-2.8672-1.0117-2.8164-1.0977-2.7617-1.1836-2.707-1.2656-2.6484-1.3438-2.5898-1.4258-2.5352-1.5039-2.4727-1.5742-2.4102-1.6484-2.3516-1.7227-2.2852-1.7891-2.2227-1.8516-2.1602-1.9219-2.0898-1.9805-2.0234-2.043-1.9531-2.1016-1.8867-2.1602-1.8125-2.2109-1.7461-2.2656-1.668-2.3125-1.5938-2.3672-1.5195-2.4102-1.4453-2.4531-1.3672-2.4961-1.2891-2.5391-1.207-2.5742-1.1289-2.6133-1.043-2.6445-0.96484-2.6797-0.87891-2.7109-0.79297-2.7383-0.70703 0.25781 6.2031 0.089843 5.7305-0.074218 5.3008-0.23828 4.9219-0.40625 4.582-0.5625 4.2969-0.72656 4.0508-0.89062 3.8516-1.0469 3.6953-1.207 3.5898-1.3633 3.5273-1.5234 3.5117-1.6797 3.5391-1.8359 3.6133-1.9883 3.7344-2.1445 3.8984 2.707 2.4336 1.25 1.2422 1.1836 1.2617 1.1133 1.2773 1.043 1.2969 0.97266 1.3125 0.90234 1.3242 0.82812 1.3438 0.75781 1.3594 0.67969 1.375 0.60938 1.3867 0.53125 1.4023 0.45703 1.418 0.37891 1.4336 0.30078 1.4414 0.22266 1.457 0.14453 1.4727 0.066406 1.4805-0.015625 1.4961-0.097656 1.5078-0.17969 1.5156-0.26172 1.5312-0.34375 1.5391-0.42969 1.5508-0.51562 1.5625-0.59766 1.5703-0.6875 1.582-0.77344 1.5859-0.85938 1.6016-0.94922 1.6055-1.043 1.6133 2.0859 2.8047 1.957 2.8594 1.8359 2.918 1.7148 2.9766 1.6016 3.0391 1.4883 3.1055 1.3789 3.1758 1.2734 3.25 1.168 3.3242 1.0703 3.4062 0.97266 3.4922 0.87891 3.5781 0.78516 3.668 0.70312 3.7617 0.61328 3.8594z"
         fill="#ffd785"
         fill-rule="evenodd"
         stroke="#000"
         stroke-linecap="round"
         stroke-linejoin="round"
         stroke-miterlimit="10"
         stroke-width=".75"
         id="path57" />
    <path
         d="m114.25 257.73l0.019531 1.75 0.097656 1.7148 0.17188 1.6797 0.24219 1.6445 0.3125 1.6016 0.38672 1.5664 0.45313 1.5234 0.51953 1.4844 0.58984 1.4414 0.65625 1.4023 0.71875 1.3555 0.78516 1.3125 0.84766 1.2695 0.91016 1.2227 0.96875 1.1797 1.0312 1.1289 1.0898 1.0859 1.1484 1.0352 1.2031 0.98438 1.2617 0.9375 1.3125 0.88281 1.3711 0.83594 1.4219 0.78125 1.4727 0.72656 1.5273 0.67578 1.5742 0.62109 1.6211 0.5625 1.6719 0.51172 1.7188 0.44922 1.7617 0.39453 1.8086 0.33594 1.8516 0.27734-0.26172-3.5469-0.20312-3.543-0.33984-7.1289-0.40234-7.2734-0.27734-3.7305-0.36328-3.8047-3.4102-0.17578-3.5156-0.29688-3.6211-0.42578-3.7461-0.56641-3.8789-0.71875-4.0156-0.88281-4.168-1.0508z"
         fill="#ffd785"
         fill-rule="evenodd"
         stroke="#000"
         stroke-linecap="round"
         stroke-linejoin="round"
         stroke-miterlimit="10"
         stroke-width=".75"
         id="path59" />
    <path
         d="m286.96 219.58l-2.2578 4.332-2.0859 4.4102-1.9258 4.4961-1.7695 4.5898-1.6172 4.6914-1.4766 4.7969-1.3438 4.9062-1.2109 5.0273 2.7578-0.042969 2.7109-0.125 2.6562-0.21094 2.5938-0.30859 2.5352-0.41016 2.4648-0.51953 2.3906-0.63672 2.3125-0.76562 2.2305-0.89844 2.1406-1.0391 2.043-1.1875 1.9492-1.3438 1.8398-1.5117 1.7344-1.6797 1.6211-1.8633 1.4961-2.0508-2.793-3.5938-2.7734-3.3516-2.7539-3.125-2.7344-2.9102-2.7148-2.6992-2.6953-2.5078-2.6719-2.3203z"
         fill="#ffd785"
         fill-rule="evenodd"
         stroke="#000"
         stroke-linecap="round"
         stroke-linejoin="round"
         stroke-miterlimit="10"
         stroke-width=".75"
         id="path61" />
    <path
         d="m286.96 219.58l-2.2578 4.332-2.0859 4.4102-1.9258 4.4961-1.7695 4.5898-1.6172 4.6914-1.4766 4.7969-1.3438 4.9062-1.2109 5.0273-4.2773-0.066406-4.3594-0.21484-4.418-0.33203-4.4648-0.41797-8.9922-1.0039-8.9688-1.0312 0.28125-3.6523 0.38281-3.5742 0.48438-3.5078 0.57812-3.4453 0.66797-3.3828 0.75781-3.3359 0.84375-3.2812 0.92188-3.2422 1-3.2031 1.0742-3.168 1.1445-3.1406 1.2109-3.1211 1.2773-3.0977 1.332-3.0859 2.832-6.1562 4.2734 1.707 4.2695 1.7656 4.2695 1.8711 4.2734 2.0352 4.2891 2.2539 2.1523 1.2227 2.1562 1.2969 2.1641 1.3789 2.168 1.4648 2.1797 1.5586z"
         fill="#ffd785"
         fill-rule="evenodd"
         stroke="#000"
         stroke-linecap="round"
         stroke-linejoin="round"
         stroke-miterlimit="10"
         stroke-width=".75"
         id="path63" />
    <path
         d="m135.05 225.91l-2.1875 1.6484-2.1094 1.6758-2.0195 1.7148-1.9219 1.75-1.8203 1.7891-1.7031 1.8359-1.582 1.8828-1.4531 1.9336-1.3164 1.9844-1.1719 2.0391-1.0195 2.1016-0.85547 2.1602-0.68359 2.2227-0.51172 2.2891-0.32031 2.3633-0.12891 2.4336 4.3242 1.2305 4.168 1.0508 4.0156 0.88281 3.8789 0.71875 3.7461 0.56641 3.6211 0.42578 3.5156 0.29688 3.4102 0.17578-0.61328-4.6875-0.79688-4.6562-0.98047-4.6328-1.1602-4.6211-1.332-4.625-1.5-4.6289-1.668-4.6445z"
         fill="#95bb71"
         fill-rule="evenodd"
         stroke="#000"
         stroke-linecap="round"
         stroke-linejoin="round"
         stroke-miterlimit="10"
         stroke-width=".75"
         id="path65" />
    <path
         d="m163.37 208.57l-7.3047 4.1758-7.2812 4.2461-3.5742 2.168-3.4922 2.2031-3.3945 2.25-3.2734 2.3008 1.8242 4.6758 1.668 4.6445 1.5 4.6289 1.332 4.625 1.1602 4.6211 0.98047 4.6328 0.79688 4.6562 0.61328 4.6875 2.8477 0.054688 2.7773-0.027344 2.7109-0.10547 2.6562-0.17188 2.6016-0.23438 2.5547-0.29297 4.9805-0.74219 4.8555-0.90234 4.7695-1.0234 9.4453-2.2188-0.82812-3.3047-0.88281-3.2422-0.93359-3.1797-0.99219-3.1289-1.0586-3.082-1.1289-3.0469-1.1953-3.0117-1.2773-2.9922-1.3555-2.9688-1.4414-2.9609-1.5273-2.9609-1.625-2.9609-1.7188-2.9688-1.8203-2.9883-1.9297-3.0117z"
         fill="#95bb71"
         fill-rule="evenodd"
         stroke="#000"
         stroke-linecap="round"
         stroke-linejoin="round"
         stroke-miterlimit="10"
         stroke-width=".75"
         id="path67" />
    <path
         d="m205.89 173.56l-2.375 2.8711-2.4102 2.75-2.4414 2.6328-2.4766 2.5195-2.5117 2.4219-2.5469 2.3242-2.5898 2.2344-2.625 2.1523-2.6641 2.082-2.707 2.0078-2.75 1.9492-2.793 1.8945-2.8398 1.8477-2.8828 1.8047-5.9062 3.5156 2.0391 3.043 1.9297 3.0117 1.8203 2.9883 1.7188 2.9688 1.625 2.9609 1.5273 2.9609 1.4414 2.9609 1.3555 2.9688 1.2773 2.9922 1.1953 3.0117 1.1289 3.0469 1.0586 3.082 0.99219 3.1289 0.93359 3.1797 0.88281 3.2422 0.82812 3.3047 3.4531-0.90625 3.4141-0.79688 3.3672-0.69922 3.3359-0.59766 3.3047-0.50391 3.2812-0.41016 3.2578-0.32031 3.2422-0.23438 3.2344-0.15234 3.2266-0.074219h3.2305l3.2305 0.078125 3.2461 0.14453 3.2578 0.20703 6.582 0.60938 0.28125-3.6523 0.38281-3.5742 0.48438-3.5078 0.57812-3.4453 0.66797-3.3828 0.75781-3.3359 0.84375-3.2812 0.92188-3.2422 1-3.2031 1.0742-3.168 1.1445-3.1406 1.2109-3.1211 1.2773-3.0977 1.332-3.0859 2.832-6.1562-3.4883-1.3125-3.375-1.3516-3.2773-1.4023-3.1758-1.4492-3.0898-1.5039-3.0078-1.5586-2.9336-1.6133-2.8672-1.6758-2.8086-1.7422-2.7617-1.8047-2.7148-1.875-2.6797-1.9492-2.6484-2.0195-2.6328-2.1016-2.6133-2.1836z"
         fill="#95bb71"
         fill-rule="evenodd"
         stroke="#000"
         stroke-linecap="round"
         stroke-linejoin="round"
         stroke-miterlimit="10"
         stroke-width=".75"
         id="path69" />
    <path
         d="m18.941 412.67h393.33v-393.34h-393.33v393.34"
         fill="none"
         stroke="#000"
         stroke-linecap="round"
         stroke-linejoin="round"
         stroke-miterlimit="10"
         stroke-width=".75"
         id="path71" />
    <path
         d="m156.18 85.965l-4.0625-0.86719-4.0703-0.67188-4.0664-0.47656-4.0664-0.28516-4.0508-0.097656-4.0391 0.089844-4.0117 0.27344-3.9844 0.45312-3.9492 0.62891-3.9102 0.80859-3.8594 0.97656-3.8086 1.1484-3.7539 1.3164-3.6836 1.4805-3.6172 1.6445-3.5391 1.8008-3.457 1.9609-3.3711 2.1133-3.2734 2.2656-3.1758 2.4141-3.0703 2.5625-2.957 2.7031-2.8398 2.8438-2.7148 2.9844-2.5859 3.1172-2.4492 3.2539-2.3086 3.3828-2.1641 3.5117-2.0078 3.6328-1.8477 3.7578-1.6836 3.8789-1.5117 3.9961-0.94141 2.7812-0.84766 2.793-0.74609 2.7969-0.65234 2.8086-0.55469 2.8086-0.46094 2.8125-0.36719 2.8125-0.27344 2.8086-0.18359 2.8086-0.089843 2.8008v2.793l0.085937 2.7812 0.17969 2.7734 0.26172 2.7578 0.35156 2.7461 0.4375 2.7227 0.51953 2.707 0.60156 2.6875 0.6875 2.6602 0.76953 2.6406 0.85156 2.6094 0.92969 2.582 1.0078 2.5508 1.0859 2.5156 1.1641 2.4844 1.2422 2.4453 1.3164 2.4102 1.3906 2.3672 1.4609 2.3242 1.5391 2.2812 1.6055 2.2344 1.6797 2.1836 2.7891 2.9062 2.7891 2.7578 2.793 2.6172 2.8086 2.4805 2.8281 2.3398 2.8516 2.2109 2.8828 2.0781 2.9141 1.957 2.957 1.832 3.0039 1.7148 3.0547 1.5977 3.1094 1.4883 3.1758 1.3789 3.2422 1.2734 3.3125 1.1719 3.3984 1.0742 4.3242 1.2305 4.168 1.0508 4.0156 0.88281 3.8789 0.71875 3.7461 0.56641 3.6211 0.42578 3.5156 0.29688 3.4102 0.17578 2.8477 0.054688 2.7773-0.027344 2.7109-0.10547 2.6562-0.17188 2.6016-0.23438 2.5547-0.29297 4.9805-0.74219 4.8555-0.90234 4.7695-1.0234 9.4453-2.2188 3.4531-0.90625 3.4141-0.79688 3.3672-0.69922 3.3359-0.59766 3.3047-0.50391 3.2812-0.41016 3.2578-0.32031 3.2422-0.23438 3.2344-0.15234 3.2266-0.074219h3.2305l3.2305 0.078125 3.2461 0.14453 3.2578 0.20703 6.582 0.60938 8.9688 1.0312 8.9922 1.0039 4.4648 0.41797 4.418 0.33203 4.3594 0.21484 4.2773 0.066406 2.7578-0.042969 2.7109-0.125 2.6562-0.21094 2.5938-0.30859 2.5352-0.41016 2.4648-0.51953 2.3906-0.63672 2.3125-0.76562 2.2305-0.89844 2.1406-1.0391 2.043-1.1875 1.9492-1.3438 1.8398-1.5117 1.7344-1.6797 1.6211-1.8633 1.4961-2.0508 1.043-1.6133 0.94922-1.6055 0.85938-1.6016 0.77344-1.5859 0.6875-1.582 0.59766-1.5703 0.51562-1.5625 0.42969-1.5508 0.34375-1.5391 0.26172-1.5312 0.17969-1.5156 0.097656-1.5078 0.015625-1.4961-0.066406-1.4805-0.14453-1.4727-0.22266-1.457-0.30078-1.4414-0.37891-1.4336-0.45703-1.418-0.53125-1.4023-0.60938-1.3867-0.67969-1.375-0.75781-1.3594-0.82812-1.3438-0.90234-1.3242-0.97266-1.3125-1.043-1.2969-1.1133-1.2773-1.1836-1.2617-1.25-1.2422-2.707-2.4336-1.8398-1.6445-1.9219-1.6211-2-1.6016-2.0664-1.5781-4.3125-3.1094-4.5039-3.0508-4.6523-3.0156-4.7422-2.9961-9.5547-6.0039-4.4648-2.9102-4.2773-2.9375-4.1055-2.9961-3.9453-3.0742-3.793-3.1875-3.6602-3.3242-3.5312-3.4922-3.4141-3.6836-2.3438-2.6836-2.2305-2.668-4.2227-5.3047-4.0547-5.2383-4.0625-5.1484-3.2188-3.8477-3.1875-3.6133-3.1875-3.3867-3.2109-3.1719-3.25-2.9688-3.3203-2.7695-3.4141-2.5898-3.5234-2.4141-3.668-2.25-3.8242-2.0977-4.0117-1.9531-4.2227-1.8164-4.4531-1.6953-4.707-1.582-4.9883-1.4805-5.2891-1.3828"
         fill="none"
         stroke="#000"
         stroke-linecap="round"
         stroke-linejoin="round"
         stroke-miterlimit="10"
         stroke-width=".75"
         id="path73" />
    <path
         d="m316.69 128.21l-0.4375-4.207-0.63672-4.1484-0.82813-4.0781-1.0117-4.0117-1.1992-3.9336-1.3711-3.8555-1.5508-3.7695-1.7109-3.6797-1.8789-3.5859-2.0352-3.4844-2.1914-3.3828-2.3359-3.2734-2.4844-3.1602-2.6172-3.043-2.7578-2.918-2.8828-2.793-3.0078-2.6602-3.1289-2.5195-3.2422-2.3828-3.3555-2.2344-3.457-2.082-3.5625-1.9258-3.6523-1.7617-3.7461-1.6016-3.8359-1.4297-3.9102-1.2539-3.9922-1.0742-4.0625-0.88672-4.1289-0.69922-4.1914-0.50781-4.2461-0.30859-4.3008-0.10156-2.8203 0.042969-2.8008 0.13281-2.7773 0.21875-2.75 0.30469-2.7266 0.39062-2.6992 0.47266-2.6719 0.55078-2.6406 0.63672-2.6094 0.71094-2.5742 0.78906-2.543 0.86719-2.5078 0.9375-2.4688 1.0156-2.4336 1.0859-2.3906 1.1562-2.3555 1.2266-2.3086 1.293-2.2656 1.3594-2.2227 1.4297-2.1758 1.4883-2.1289 1.5547-2.0781 1.6133-2.0312 1.6758-1.9766 1.7344-1.9258 1.7891-1.8711 1.8477-1.8164 1.9023-1.7578 1.957-1.6992 2.0039-1.6406 2.0586-1.582 2.1094-1.5156 2.1562-1.9844 3.1055-1.8398 3.0586-1.6914 3.0312-1.5469 3.0195-1.4102 3.0312-1.2695 3.0547-1.1289 3.1016-0.99609 3.1641-0.85938 3.2461-0.72656 3.3477-0.59766 3.4648-0.46875 3.6016-0.34375 3.7539-0.21875 3.9297-0.089844 4.1172 0.027344 4.332 0.17969 4.793 0.30859 4.5664 0.42188 4.3477 0.53906 4.1445 0.64844 3.9492 0.75 3.7695 0.85156 3.5977 0.94141 3.4375 0.83203 2.6953 0.88281 2.6055 0.92969 2.5195 0.98047 2.4375 1.0195 2.3672 1.0547 2.3008 2.2227 4.4258 2.3359 4.2344 2.4258 4.0938 2.4883 4 2.5273 3.957 2.0391 3.043 1.9297 3.0117 1.8203 2.9883 1.7188 2.9688 1.625 2.9609 1.5273 2.9609 1.4414 2.9609 1.3555 2.9688 1.2773 2.9922 1.1953 3.0117 1.1289 3.0469 1.0586 3.082 0.99219 3.1289 0.93359 3.1797 0.88281 3.2422 0.82812 3.3047 1.9609 8.4648 1.9648 8.5273 1.0273 4.2305 1.0781 4.1758 1.1484 4.1055 1.2344 4.0078 0.85156 2.5469 0.89453 2.4883 0.94531 2.4258 1.0039 2.3555 1.0664 2.2773 1.1289 2.1953 1.2031 2.1055 1.2773 2.0078 1.3555 1.9102 1.4414 1.7969 1.5312 1.6875 1.6289 1.5625 1.7266 1.4414 1.8281 1.3008 1.9375 1.168 2.0508 1.0156 1.9688 0.70312 1.9375 0.59375 1.9023 0.48438 1.8672 0.38281 1.832 0.28125 1.7969 0.17969 1.7617 0.085937 1.7305-0.011719 1.6914-0.10156 1.6602-0.19531 1.625-0.28125 1.5898-0.37109 1.5508-0.45312 1.5195-0.53125 1.4844-0.61328 1.4492-0.69141 1.4102-0.76562 1.3789-0.83594 1.3438-0.91016 1.3047-0.97656 1.2734-1.043 1.2344-1.1055 1.2031-1.168 1.1641-1.2266 1.1289-1.2852 1.0938-1.3398 1.0547-1.3906 1.0234-1.4414 1.9336-3.0273 1.793-3.1992 1.0234-2.4062 0.96484-2.4844 0.91016-2.5547 0.86328-2.6133 1.5977-5.3984 1.4688-5.5781 1.3711-5.7031 1.3203-5.7852 2.6328-11.609 1.2109-5.0273 1.3438-4.9062 1.4766-4.7969 1.6172-4.6914 1.7695-4.5898 1.9258-4.4961 2.0859-4.4102 2.2578-4.332 1.7969-3.125 1.8125-3.0234 3.6484-5.8203 3.6172-5.668 3.5195-5.6875 2.1445-3.8984 1.9883-3.7344 1.8359-3.6133 1.6797-3.5391 1.5234-3.5117 1.3633-3.5273 1.207-3.5898 1.0469-3.6953 0.89062-3.8516 0.72656-4.0508 0.5625-4.2969 0.40625-4.582 0.23828-4.9219 0.074218-5.3008-0.089843-5.7305-0.25781-6.2031"
         fill="none"
         stroke="#000"
         stroke-linecap="round"
         stroke-linejoin="round"
         stroke-miterlimit="10"
         stroke-width=".75"
         id="path75" />
    <path
         d="m328.81 295.41l3.8789-1.6602 3.7656-1.8281 3.6484-1.9922 3.5234-2.1484 3.4023-2.2969 3.2695-2.4453 3.1406-2.582 3.0078-2.7148 2.8672-2.8398 2.7266-2.9609 2.5859-3.0781 2.4375-3.1875 2.2891-3.2891 2.1328-3.3867 1.9805-3.4805 1.8203-3.5625 1.6562-3.6445 1.4961-3.7148 1.3242-3.7852 1.1523-3.8477 0.97656-3.9023 0.80078-3.9492 0.62109-4 0.4375-4.0312 0.25-4.0664 0.058594-4.0938-0.13281-4.1133-0.32812-4.125-0.53125-4.1367-0.73047-4.1367-0.93359-4.1367-1.1445-4.125-0.92578-2.8672-1.0117-2.8164-1.0977-2.7617-1.1836-2.707-1.2656-2.6484-1.3438-2.5898-1.4258-2.5352-1.5039-2.4727-1.5742-2.4102-1.6484-2.3516-1.7227-2.2852-1.7891-2.2227-1.8516-2.1602-1.9219-2.0898-1.9805-2.0234-2.043-1.9531-2.1016-1.8867-2.1602-1.8125-2.2109-1.7461-2.2656-1.668-2.3125-1.5938-2.3672-1.5195-2.4102-1.4453-2.4531-1.3672-2.4961-1.2891-2.5391-1.207-2.5742-1.1289-2.6133-1.043-2.6445-0.96484-2.6797-0.87891-2.7109-0.79297-2.7383-0.70703-3.7188-0.58594-3.6094-0.49609-3.5078-0.41016-3.418-0.3125-3.3477-0.20703-3.2891-0.10547-3.2461 0.011718-3.2148 0.125-3.1953 0.24609-3.1914 0.37891-3.2031 0.50781-3.2305 0.64453-3.2656 0.78906-3.3203 0.93359-3.3867 1.0898-3.4648 1.2461-4.3164 1.5898-4.0781 1.6367-3.8516 1.6875-3.6367 1.7305-3.4297 1.7695-3.2422 1.8125-3.0664 1.8516-2.8945 1.8867-2.293 1.6016-2.1953 1.6289-2.0977 1.6445-2.0156 1.6641-1.9375 1.6836-1.8633 1.6992-3.543 3.4453-3.3438 3.4922-3.1953 3.5312-6.1914 7.1406-2.375 2.8711-2.4102 2.75-2.4414 2.6328-2.4766 2.5195-2.5117 2.4219-2.5469 2.3242-2.5898 2.2344-2.625 2.1523-2.6641 2.082-2.707 2.0078-2.75 1.9492-2.793 1.8945-2.8398 1.8477-2.8828 1.8047-5.9062 3.5156-7.3047 4.1758-7.2812 4.2461-3.5742 2.168-3.4922 2.2031-3.3945 2.25-3.2734 2.3008-2.1875 1.6484-2.1094 1.6758-2.0195 1.7148-1.9219 1.75-1.8203 1.7891-1.7031 1.8359-1.582 1.8828-1.4531 1.9336-1.3164 1.9844-1.1719 2.0391-1.0195 2.1016-0.85547 2.1602-0.68359 2.2227-0.51172 2.2891-0.32031 2.3633-0.12891 2.4336 0.019531 1.75 0.097656 1.7148 0.17188 1.6797 0.24219 1.6445 0.3125 1.6016 0.38672 1.5664 0.45313 1.5234 0.51953 1.4844 0.58984 1.4414 0.65625 1.4023 0.71875 1.3555 0.78516 1.3125 0.84766 1.2695 0.91016 1.2227 0.96875 1.1797 1.0312 1.1289 1.0898 1.0859 1.1484 1.0352 1.2031 0.98438 1.2617 0.9375 1.3125 0.88281 1.3711 0.83594 1.4219 0.78125 1.4727 0.72656 1.5273 0.67578 1.5742 0.62109 1.6211 0.5625 1.6719 0.51172 1.7188 0.44922 1.7617 0.39453 1.8086 0.33594 1.8516 0.27734 2.6367 0.29688 2.6953 0.21094 2.7539 0.14062 2.8047 0.070313 5.7461-0.039063 5.8906-0.22266 6-0.35547 6.0664-0.42578 12.172-0.85547 4.8398-0.23828 4.7617-0.12109 4.6914 0.007813 4.6289 0.14844 4.5781 0.30469 4.5352 0.46875 4.5 0.64453 4.4805 0.83203 4.082 0.88672 3.957 0.96094 3.8477 1.0195 3.7773 1.0508 7.4336 2.1055 3.7148 1.0078 3.75 0.95313 5.5508 0.9375 5.2266 0.75781 4.9375 0.57422 4.6797 0.39844 4.4492 0.21875 4.25 0.046875 4.0859-0.12109 3.9531-0.28906 3.8516-0.45703 3.7773-0.62109 3.7383-0.78125 3.7305-0.9375 3.7539-1.0898 3.8047-1.2461 3.8906-1.3945 4.0117-1.543"
         fill="none"
         stroke="#000"
         stroke-linecap="round"
         stroke-linejoin="round"
         stroke-miterlimit="10"
         stroke-width=".75"
         id="path77" />
    <path
         d="m173.71 355.71l2.7891 3.1445 2.9141 2.9805 3.0273 2.8203 3.1406 2.6562 3.2422 2.4922 3.3398 2.3281 3.4336 2.1602 3.5117 1.9922 3.5938 1.8203 3.6641 1.6523 3.7266 1.4805 3.7812 1.3086 3.8359 1.1328 3.8789 0.96094 3.918 0.78125 3.9492 0.60547 3.9727 0.42578 3.9922 0.25 4.0039 0.066406 4.0078-0.11719 4.0078-0.30078 3.9961-0.48437 3.9844-0.66797 3.9609-0.85938 3.9336-1.043 3.8984-1.2344 3.8594-1.4219 3.8086-1.6172 3.7578-1.8086 3.6953-2.0039 3.625-2.1992 3.5547-2.3906 2.332-1.6914 2.2617-1.75 2.1875-1.8086 2.1172-1.8711 2.043-1.9258 1.9688-1.9844 1.8945-2.0312 1.8242-2.0859 1.75-2.1328 1.6719-2.1836 1.6016-2.2227 1.5234-2.2695 1.4492-2.3086 1.3711-2.3477 1.2969-2.3828 1.2188-2.418 1.1445-2.4531 1.0625-2.4805 0.98828-2.5117 0.91016-2.5391 0.82812-2.5625 0.75-2.5859 0.67188-2.6055 0.59375-2.625 0.51172-2.6406 0.43359-2.6562 0.35156-2.668 0.26953-2.6797 0.1875-2.6875 0.10938-2.6953 0.023438-2.6992-0.058594-2.7031-0.53516-3.9609-0.61328-3.8594-0.70312-3.7617-0.78516-3.668-0.87891-3.5781-0.97266-3.4922-1.0703-3.4062-1.168-3.3242-1.2734-3.25-1.3789-3.1758-1.4883-3.1055-1.6016-3.0391-1.7148-2.9766-1.8359-2.918-1.957-2.8594-2.0859-2.8047-2.793-3.5938-2.7734-3.3516-2.7539-3.125-2.7344-2.9102-2.7148-2.6992-2.6953-2.5078-2.6719-2.3203-2.6523-2.1484-2.1836-1.6562-2.1797-1.5586-2.168-1.4648-2.1641-1.3789-2.1562-1.2969-2.1523-1.2227-4.2891-2.2539-4.2734-2.0352-4.2695-1.8711-4.2695-1.7656-4.2734-1.707-3.4883-1.3125-3.375-1.3516-3.2773-1.4023-3.1758-1.4492-3.0898-1.5039-3.0078-1.5586-2.9336-1.6133-2.8672-1.6758-2.8086-1.7422-2.7617-1.8047-2.7148-1.875-2.6797-1.9492-2.6484-2.0195-2.6328-2.1016-2.6133-2.1836-2.6133-2.2656-6.2344-5.5703-6.2578-5.6055-3.1445-2.75-3.1523-2.6836-3.1641-2.5898-3.1797-2.4727-2.4297-1.8008-2.4336-1.707-2.4414-1.6055-2.4492-1.4883-2.4531-1.3633-2.4609-1.2305-2.4688-1.0781-2.4766-0.92188-2.4844-0.75391-2.4922-0.57031-2.5-0.38281-2.5078-0.17969-2.5195 0.035156-2.5273 0.25391-2.5352 0.49219-1.2734 0.33594-1.2734 0.40234-1.7148 0.75781-1.6523 0.79297-1.5859 0.83203-1.5195 0.86719-1.4531 0.90234-1.3906 0.9375-1.3203 0.97266-1.2578 1.0117-1.1914 1.0469-1.1211 1.082-1.0586 1.1211-0.98828 1.1523-0.92188 1.1914-0.85547 1.2266-0.78906 1.2656-0.71875 1.3008-0.65234 1.3359-0.58203 1.3711-0.51562 1.4102-0.44922 1.4453-0.375 1.4844-0.30859 1.5195-0.24219 1.5547-0.16797 1.5938-0.10156 1.6289-0.03125 1.6641 0.039063 1.7031 0.10938 1.7422 0.17969 1.7773 0.25 1.8125 0.32031 1.8516 0.39453 1.8867 0.57031 2.5625 0.66406 2.5898 0.74219 2.6211 0.82422 2.6445 1.8359 5.3594 2.043 5.4375 2.1914 5.4961 2.2734 5.5312 4.5469 11.102 1.8242 4.6758 1.668 4.6445 1.5 4.6289 1.332 4.625 1.1602 4.6211 0.98047 4.6328 0.79688 4.6562 0.61328 4.6875 0.36328 3.8047 0.27734 3.7305 0.40234 7.2734 0.33984 7.1289 0.20312 3.543 0.26172 3.5469 2.1406 9.9219 1.0352 4.5273 1.0469 4.2891 1.0781 4.082 1.1445 3.9023 1.2305 3.7656 1.3398 3.6602 1.4844 3.582 1.6484 3.5469 1.8359 3.5391 2.0547 3.5664 2.2969 3.6289 2.5664 3.7227 2.8594 3.8516 3.1797 4.0156"
         fill="none"
         stroke="#000"
         stroke-linecap="round"
         stroke-linejoin="round"
         stroke-miterlimit="10"
         stroke-width=".75"
         id="path79" />
    <path
         d="m66.336 226.86l-2.1484 3.5391-1.9648 3.6133-1.7812 3.6719-1.5977 3.7344-1.4141 3.7812-1.2344 3.8281-1.0508 3.8633-0.87109 3.8984-0.69141 3.9219-0.51172 3.9414-0.33203 3.9531-0.15625 3.957 0.023438 3.9609 0.19922 3.9531 0.375 3.9414 0.55078 3.9219 0.72656 3.8945 0.89844 3.8594 1.0742 3.8242 1.2461 3.7812 1.418 3.7266 1.5859 3.668 1.7617 3.6055 1.9297 3.5391 2.0977 3.457 2.2695 3.375 2.4336 3.2852 2.6016 3.1875 2.7695 3.0859 2.9375 2.9766 3.1016 2.8633 3.2656 2.7383 2.4414 1.8555 2.4844 1.7578 2.5273 1.6602 2.5625 1.5625 2.6055 1.4688 2.6328 1.3711 2.668 1.2773 2.6992 1.1797 2.7227 1.0859 2.75 0.98828 2.7695 0.89844 2.7891 0.80078 2.8086 0.70703 2.8203 0.61328 2.8359 0.51953 2.8438 0.42578 2.8516 0.33594 2.8555 0.23828 2.8633 0.14844 2.8594 0.054688 2.8555-0.035156 2.8555-0.12891 2.8477-0.21875 2.8359-0.3125 2.8281-0.40234 2.8125-0.49219 2.7969-0.58594 2.7773-0.67187 2.7539-0.76563 2.7305-0.85156 2.707-0.94531 2.6758-1.0312 3.418-1.6992 3.2812-1.7461 3.1523-1.793 3.0273-1.8438 2.9062-1.8984 2.793-1.9531 2.6914-2.0195 2.5898-2.082 2.4922-2.1523 2.4062-2.2227 2.3242-2.3008 2.25-2.3828 2.1797-2.4648 2.1172-2.5508 2.0586-2.6445 2.0078-2.7422 2.6367-3.8398 2.3945-3.7344 2.1719-3.6406 1.9609-3.5547 1.7617-3.4688 1.5742-3.3984 1.4023-3.332 1.2422-3.2695 0.91016-2.6211 0.81641-2.5859 0.73047-2.5547 0.65234-2.5195 0.58203-2.4961 0.51172-2.4688 0.85938-4.8789 0.67969-4.8125 0.55078-4.7734 0.94141-9.5039 0.28125-3.6523 0.38281-3.5742 0.48438-3.5078 0.57812-3.4453 0.66797-3.3828 0.75781-3.3359 0.84375-3.2812 0.92188-3.2422 1-3.2031 1.0742-3.168 1.1445-3.1406 1.2109-3.1211 1.2773-3.0977 1.332-3.0859 2.832-6.1562 3.5742-7.457 3.5156-7.4688 1.6758-3.7266 1.5898-3.7148 1.4805-3.6953 1.3438-3.6719 0.91797-2.7422 0.82031-2.7148 0.71094-2.6914 0.59375-2.6602 0.46484-2.6289 0.32422-2.5938 0.17969-2.5625 0.019531-2.5195-0.14844-2.4766-0.32812-2.4375-0.51172-2.3867-0.71094-2.3398-0.91797-2.2891-1.1328-2.2344-1.3594-2.1758-1.5977-2.1172-1.4805-1.6953-1.4805-1.5664-1.4805-1.4375-1.4727-1.3125-1.4766-1.1914-1.4688-1.0742-1.4688-0.96484-1.4648-0.85156-1.4648-0.74609-1.457-0.64844-1.457-0.54297-1.4492-0.45312-1.4453-0.35938-1.4414-0.26953-1.4375-0.1875-1.4336-0.10547-1.4258-0.03125-1.4219 0.042969-1.418 0.11719-1.4102 0.17969-1.4023 0.24219-1.3984 0.30078-2.7773 0.76953-2.7461 0.95703-2.7148 1.125-2.6875 1.2578-2.6484 1.3672-2.2891 1.25-2.2852 1.3438-2.2891 1.4336-2.293 1.5078-4.5898 3.2227-4.5977 3.4375-4.6133 3.5977-4.6289 3.6914-9.3086 7.418-4.1953 3.25-4.2422 3.082-4.2891 2.9062-4.3438 2.7305-4.4062 2.5469-4.4648 2.3672-4.5352 2.1758-4.6094 1.9844-3.4102 1.3359-3.3555 1.25-6.5977 2.3359-6.4922 2.2852-3.2305 1.1836-3.2266 1.2461-8.8906 4.9102-7.9688 4.5039-3.6836 2.1953-3.5 2.1992-3.3438 2.2461-3.1953 2.3281-3.0703 2.4453-2.9609 2.6016-2.8672 2.7891-2.7891 3.0156-2.7344 3.2773-2.6914 3.5781-2.668 3.9141-2.6602 4.2852"
         fill="none"
         stroke="#000"
         stroke-linecap="round"
         stroke-linejoin="round"
         stroke-miterlimit="10"
         stroke-width=".75"
         id="path81" />
    <g
         id="g83">
        <use
             x="39.917969"
             y="101.65625"
             xlink:href="#d"
             id="use85" />
        <use
             x="47.286346"
             y="101.65625"
             xlink:href="#i"
             id="use87" />
        <use
             x="54.091751"
             y="101.65625"
             xlink:href="#h"
             id="use89" />
    </g>
    <g
         id="g91">
        <use
             x="218.605469"
             y="38.628906"
             xlink:href="#g"
             id="use93" />
        <use
             x="225.973846"
             y="38.628906"
             xlink:href="#f"
             id="use95" />
        <use
             x="233.342224"
             y="38.628906"
             xlink:href="#c"
             id="use97" />
    </g>
    <g
         id="g99">
        <use
             x="365.570312"
             y="140.988281"
             xlink:href="#e"
             id="use101" />
        <use
             x="371.244812"
             y="140.988281"
             xlink:href="#b"
             id="use103" />
        <use
             x="374.079575"
             y="140.988281"
             xlink:href="#a"
             id="use105" />
    </g>
    <g
         id="g107">
        <use
             x="285.488281"
             y="396.65625"
             xlink:href="#b"
             id="use109" />
        <use
             x="288.323044"
             y="396.65625"
             xlink:href="#o"
             id="use111" />
        <use
             x="295.691422"
             y="396.65625"
             xlink:href="#d"
             id="use113" />
    </g>
    <g
         id="g115">
        <use
             x="56.21875"
             y="369.113281"
             xlink:href="#n"
             id="use117" />
        <use
             x="63.024155"
             y="369.113281"
             xlink:href="#a"
             id="use119" />
        <use
             x="69.256638"
             y="369.113281"
             xlink:href="#c"
             id="use121" />
    </g>
    <path
         d="m18.688 426.69h8.375v-8.375h-8.375z"
         fill="#ffd785"
         fill-rule="evenodd"
         stroke="#000"
         stroke-linecap="round"
         stroke-linejoin="round"
         stroke-miterlimit="10"
         stroke-width=".75"
         id="path123" />
    <path
         d="m61.953 426.69h8.375v-8.375h-8.375z"
         fill="#95bb71"
         fill-rule="evenodd"
         stroke="#000"
         stroke-linecap="round"
         stroke-linejoin="round"
         stroke-miterlimit="10"
         stroke-width=".75"
         id="path125" />
    <path
         d="m105.22 426.69h8.375v-8.375h-8.375z"
         fill="#1b89c8"
         fill-rule="evenodd"
         stroke="#000"
         stroke-linecap="round"
         stroke-linejoin="round"
         stroke-miterlimit="10"
         stroke-width=".75"
         id="path127" />
    <path
         d="m148.48 426.69h8.375v-8.375h-8.375z"
         fill="#fff"
         fill-rule="evenodd"
         stroke="#000"
         stroke-linecap="round"
         stroke-linejoin="round"
         stroke-miterlimit="10"
         stroke-width=".75"
         id="path129" />
    <g
         id="g131">
        <use
             x="31.835938"
             y="426.371094"
             xlink:href="#m"
             id="use133" />
    </g>
    <g
         id="g135">
        <use
             x="75.105469"
             y="426.449219"
             xlink:href="#l"
             id="use137" />
    </g>
    <g
         id="g139">
        <use
             x="117.523438"
             y="426.558594"
             xlink:href="#k"
             id="use141" />
    </g>
    <g
         id="g143">
        <use
             x="161.636719"
             y="426.597656"
             xlink:href="#j"
             id="use145" />
    </g>
</svg>
