<?xml version="1.0" encoding="UTF-8" standalone="no"?>
<svg
     xmlns:dc="http://purl.org/dc/elements/1.1/"
     xmlns:cc="http://creativecommons.org/ns#"
     xmlns:rdf="http://www.w3.org/1999/02/22-rdf-syntax-ns#"
     xmlns:svg="http://www.w3.org/2000/svg"
     xmlns="http://www.w3.org/2000/svg"
     xmlns:xlink="http://www.w3.org/1999/xlink"
     xmlns:sodipodi="http://sodipodi.sourceforge.net/DTD/sodipodi-0.dtd"
     xmlns:inkscape="http://www.inkscape.org/namespaces/inkscape"
     width="432pt"
     height="432pt"
     version="1.1"
     viewBox="0 0 432 432"
     id="svg2"
     inkscape:version="0.92.2 5c3e80d, 2017-08-06"
     sodipodi:docname="subsetsAndSupersets-2.svg">
    <metadata
         id="metadata96">
        <rdf:RDF>
            <cc:Work
                 rdf:about="">
                <dc:format>image/svg+xml</dc:format>
                <dc:type
                     rdf:resource="http://purl.org/dc/dcmitype/StillImage" />
                <dc:title></dc:title>
            </cc:Work>
        </rdf:RDF>
    </metadata>
    <sodipodi:namedview
         pagecolor="#ffffff"
         bordercolor="#666666"
         borderopacity="1"
         objecttolerance="10"
         gridtolerance="10"
         guidetolerance="10"
         inkscape:pageopacity="0"
         inkscape:pageshadow="2"
         inkscape:window-width="857"
         inkscape:window-height="480"
         id="namedview94"
         showgrid="false"
         inkscape:zoom="0.437"
         inkscape:cx="-178.5"
         inkscape:cy="270"
         inkscape:window-x="0"
         inkscape:window-y="0"
         inkscape:window-maximized="0"
         inkscape:current-layer="svg2" />
    <defs
         id="defs4">
        <symbol
             id="l"
             overflow="visible">
            <path
                 d="m2.7812-2.0781v-2.6719l-1.8906 2.6719zm0.015625 2.0781v-1.4375h-2.5781v-0.71875l2.6875-3.7344h0.625v3.8125h0.85938v0.64062h-0.85938v1.4375z"
                 id="path7" />
        </symbol>
        <symbol
             id="k"
             overflow="visible">
            <path
                 d="m0.26562 0c0.019531-0.50781 0.11719-0.95312 0.29688-1.3281 0.1875-0.375 0.54688-0.71094 1.0781-1.0156l0.79688-0.45312c0.34375-0.20703 0.58594-0.38281 0.73438-0.53125 0.22656-0.22656 0.34375-0.48828 0.34375-0.78125 0-0.34375-0.10547-0.61328-0.3125-0.8125-0.21094-0.19531-0.48438-0.29688-0.82812-0.29688-0.5 0-0.85156 0.19531-1.0469 0.57812-0.10547 0.19922-0.16406 0.48047-0.17188 0.84375h-0.75c0.007812-0.50781 0.10156-0.92578 0.28125-1.25 0.32031-0.5625 0.89062-0.84375 1.7031-0.84375 0.66406 0 1.1562 0.18359 1.4688 0.54688 0.3125 0.35547 0.46875 0.75781 0.46875 1.2031 0 0.46875-0.16797 0.87109-0.5 1.2031-0.1875 0.19922-0.53125 0.4375-1.0312 0.71875l-0.5625 0.3125c-0.27344 0.14844-0.48047 0.28906-0.625 0.42188-0.28125 0.23047-0.45312 0.49219-0.51562 0.78125h3.2031v0.70312z"
                 id="path10" />
        </symbol>
        <symbol
             id="j"
             overflow="visible">
            <path
                 d="m0.79688-4.1562v-0.57812c0.53906-0.050781 0.91406-0.13281 1.125-0.25 0.20703-0.125 0.36328-0.41406 0.46875-0.875h0.57812v5.8594h-0.78125v-4.1562z"
                 id="path13" />
        </symbol>
        <symbol
             id="i"
             overflow="visible">
            <path
                 d="m2.2812-3.4219c0.33203 0 0.58594-0.085937 0.76562-0.26562 0.1875-0.1875 0.28125-0.40625 0.28125-0.65625 0-0.21875-0.089844-0.41406-0.26562-0.59375-0.17969-0.1875-0.44531-0.28125-0.79688-0.28125-0.35547 0-0.61719 0.09375-0.78125 0.28125-0.15625 0.17969-0.23438 0.39062-0.23438 0.64062 0 0.27344 0.10156 0.48438 0.3125 0.64062 0.20703 0.15625 0.44531 0.23438 0.71875 0.23438zm0.046875 2.9219c0.34375 0 0.625-0.09375 0.84375-0.28125 0.22656-0.1875 0.34375-0.46094 0.34375-0.82812 0-0.375-0.11719-0.66016-0.34375-0.85938-0.23047-0.19531-0.52734-0.29688-0.89062-0.29688-0.35547 0-0.64844 0.10156-0.875 0.29688-0.21875 0.19922-0.32812 0.47656-0.32812 0.82812 0 0.3125 0.097656 0.58594 0.29688 0.8125 0.20703 0.21875 0.52344 0.32812 0.95312 0.32812zm-1.0469-2.625c-0.21094-0.09375-0.37109-0.19531-0.48438-0.3125-0.21875-0.21875-0.32812-0.50391-0.32812-0.85938 0-0.4375 0.15625-0.8125 0.46875-1.125 0.32031-0.3125 0.77344-0.46875 1.3594-0.46875 0.5625 0 1.0039 0.15234 1.3281 0.45312 0.32031 0.29297 0.48438 0.63672 0.48438 1.0312 0 0.36719-0.09375 0.66406-0.28125 0.89062-0.10547 0.125-0.26562 0.25-0.48438 0.375 0.23828 0.11719 0.42969 0.24609 0.57812 0.39062 0.25781 0.27344 0.39062 0.625 0.39062 1.0625 0 0.52344-0.17969 0.96484-0.53125 1.3281-0.34375 0.35547-0.83594 0.53125-1.4688 0.53125-0.57422 0-1.0586-0.15625-1.4531-0.46875-0.39844-0.3125-0.59375-0.76562-0.59375-1.3594 0-0.34375 0.082031-0.64062 0.25-0.89062 0.17578-0.25781 0.42969-0.45312 0.76562-0.57812z"
                 id="path16" />
        </symbol>
        <symbol
             id="b"
             overflow="visible">
            <path
                 d="m1.4219-2.3594c0.019531 0.41797 0.11719 0.75781 0.29688 1.0156 0.33203 0.48047 0.91016 0.71875 1.7344 0.71875 0.375 0 0.71094-0.050781 1.0156-0.15625 0.59375-0.20703 0.89062-0.57812 0.89062-1.1094 0-0.39453-0.125-0.67578-0.375-0.84375-0.25-0.16406-0.64844-0.3125-1.1875-0.4375l-0.98438-0.21875c-0.64844-0.14453-1.1055-0.30469-1.375-0.48438-0.46875-0.3125-0.70312-0.76953-0.70312-1.375 0-0.65625 0.22656-1.1914 0.6875-1.6094 0.45703-0.42578 1.1016-0.64062 1.9375-0.64062 0.75781 0 1.4062 0.1875 1.9375 0.5625 0.53906 0.36719 0.8125 0.95312 0.8125 1.7656h-0.92188c-0.054688-0.39453-0.16406-0.69531-0.32812-0.90625-0.30469-0.375-0.8125-0.5625-1.5312-0.5625-0.58594 0-1.0078 0.125-1.2656 0.375-0.26172 0.24219-0.39062 0.52344-0.39062 0.84375 0 0.36719 0.14844 0.625 0.45312 0.78125 0.19531 0.11719 0.64062 0.25 1.3281 0.40625l1.0312 0.23438c0.48828 0.11719 0.86719 0.27344 1.1406 0.46875 0.46875 0.33594 0.70312 0.82812 0.70312 1.4844 0 0.8125-0.29688 1.3984-0.89062 1.75-0.58594 0.34375-1.2656 0.51562-2.0469 0.51562-0.91797 0-1.6328-0.23438-2.1406-0.70312-0.51172-0.45703-0.76172-1.082-0.75-1.875zm2-5.1562z"
                 id="path19" />
        </symbol>
        <symbol
             id="h"
             overflow="visible">
            <path
                 d="m1.8594-7.3125v4.5156c0 0.53125 0.097656 0.97656 0.29688 1.3281 0.28906 0.53125 0.78516 0.79688 1.4844 0.79688 0.84375 0 1.4141-0.28516 1.7188-0.85938 0.16406-0.3125 0.25-0.73438 0.25-1.2656v-4.5156h1v4.1094c0 0.89844-0.12109 1.5898-0.35938 2.0781-0.44922 0.875-1.293 1.3125-2.5312 1.3125-1.2305 0-2.0703-0.4375-2.5156-1.3125-0.24219-0.48828-0.35938-1.1797-0.35938-2.0781v-4.1094zm1.875 0z"
                 id="path22" />
        </symbol>
        <symbol
             id="g"
             overflow="visible">
            <path
                 d="m4.1875-3.9688c0.45703 0 0.82031-0.09375 1.0938-0.28125 0.26953-0.1875 0.40625-0.51953 0.40625-1 0-0.51953-0.1875-0.875-0.5625-1.0625-0.21094-0.10156-0.48047-0.15625-0.8125-0.15625h-2.4219v2.5zm-3.2969-3.3438h3.3906c0.5625 0 1.0234 0.078125 1.3906 0.23438 0.6875 0.3125 1.0312 0.89062 1.0312 1.7344 0 0.4375-0.09375 0.79688-0.28125 1.0781-0.17969 0.28125-0.42969 0.50781-0.75 0.67188 0.28125 0.11719 0.49219 0.26562 0.64062 0.45312 0.14453 0.1875 0.22266 0.49609 0.23438 0.92188l0.046875 0.98438c0 0.28125 0.019531 0.49219 0.0625 0.625 0.0625 0.23047 0.16406 0.375 0.3125 0.4375v0.17188h-1.2031c-0.042969-0.0625-0.074219-0.14062-0.09375-0.23438-0.011719-0.10156-0.027344-0.30078-0.046875-0.59375l-0.0625-1.2188c-0.023438-0.47656-0.19922-0.79688-0.53125-0.95312-0.1875-0.09375-0.48438-0.14062-0.89062-0.14062h-2.25v3.1406h-1z"
                 id="path25" />
        </symbol>
        <symbol
             id="f"
             overflow="visible">
            <path
                 d="m1.3594-7.3125l2.0938 6.2188 2.0781-6.2188h1.1094l-2.6719 7.3125h-1.0469l-2.6562-7.3125z"
                 id="path28" />
        </symbol>
        <symbol
             id="a"
             overflow="visible">
            <path
                 d="m6.1094-7.3125v0.85938h-2.4688v6.4531h-1.0156v-6.4531h-2.4531v-0.85938z"
                 id="path31" />
        </symbol>
        <symbol
             id="e"
             overflow="visible">
            <path
                 d="m3.5312-4.2188c0.41406 0 0.73828-0.0625 0.96875-0.1875 0.36328-0.17578 0.54688-0.50391 0.54688-0.98438 0-0.47656-0.19531-0.80078-0.57812-0.96875-0.21875-0.082031-0.54297-0.125-0.96875-0.125h-1.7812v2.2656zm0.32812 3.375c0.60156 0 1.0352-0.17578 1.2969-0.53125 0.16406-0.21875 0.25-0.48828 0.25-0.8125 0-0.53125-0.24219-0.89062-0.71875-1.0781-0.25-0.10156-0.58594-0.15625-1-0.15625h-1.9688v2.5781zm-3.1094-6.4688h3.1406c0.86328 0 1.4727 0.25781 1.8281 0.76562 0.21875 0.30469 0.32812 0.65234 0.32812 1.0469 0 0.46094-0.13281 0.83594-0.39062 1.125-0.13672 0.15625-0.33594 0.30469-0.59375 0.4375 0.375 0.14844 0.65625 0.30859 0.84375 0.48438 0.32031 0.3125 0.48438 0.75 0.48438 1.3125 0 0.46875-0.14844 0.89844-0.4375 1.2812-0.4375 0.57422-1.1406 0.85938-2.1094 0.85938h-3.0938z"
                 id="path34" />
        </symbol>
        <symbol
             id="d"
             overflow="visible">
            <path
                 d="m0.78125-7.3125h0.98438v6.4375h3.7031v0.875h-4.6875z"
                 id="path37" />
        </symbol>
        <symbol
             id="c"
             overflow="visible">
            <path
                 d="m1-7.3125h1v7.3125h-1z"
                 id="path40" />
        </symbol>
    </defs>
    <rect
         width="432"
         height="432"
         fill="#fff"
         id="rect42" />
    <path
         d="m18.941 412.67h393.33v-393.34h-393.33v393.34"
         fill="none"
         stroke="#000"
         stroke-linecap="round"
         stroke-linejoin="round"
         stroke-miterlimit="10"
         stroke-width=".75"
         id="path44" />
    <path
         d="m117.27 173.32l-2.7734 1.6914-2.7422 1.793-2.7031 1.8945-2.6641 1.9961-2.6211 2.1016-2.5703 2.207-2.5156 2.3125-2.457 2.4258-2.3984 2.5312-2.3281 2.6484-2.2617 2.7578-2.1836 2.875-2.1016 2.9922-2.0234 3.1133-1.9297 3.2305-1.8398 3.3516-1.2852 2.5625-1.2148 2.6094-1.1406 2.6523-1.0625 2.6953-0.98828 2.7383-0.91406 2.7773-0.83203 2.8086-0.75 2.8438-0.66797 2.875-0.58594 2.9023-0.49609 2.9297-0.41406 2.9531-0.32031 2.9766-0.23438 2.9922-0.14062 3.0117-0.046875 3.0234 0.03125 2.5352 0.097656 2.5195 0.16016 2.5039 0.21875 2.4844 0.28516 2.4648 0.33984 2.4492 0.40625 2.4297 0.46094 2.4062 0.51953 2.3867 0.57812 2.3672 0.63672 2.3398 0.69141 2.3203 0.74609 2.293 0.80078 2.2695 0.85156 2.2422 0.91016 2.2188 1.9688 4.3477 2.1719 4.2383 2.3711 4.1094 2.5586 3.9883 2.7422 3.8477 2.9219 3.7109 3.0898 3.5625 3.2578 3.4141 3.418 3.25 3.5703 3.0898 3.7148 2.9141 3.8555 2.7383 3.9922 2.5547 4.1211 2.3633 4.2422 2.1719 4.3555 1.9648 2.2227 0.90625 2.2461 0.85547 2.2734 0.79688 2.2969 0.74609 2.3203 0.6875 2.3477 0.63672 2.3672 0.57422 2.3906 0.51953 2.4102 0.46484 2.4336 0.40234 2.4531 0.33984 2.4688 0.28125 2.4883 0.22266 2.5078 0.15625 2.5234 0.097656 2.5391 0.03125 3.1328-0.046875 3.1328-0.14844 3.1289-0.24609 3.125-0.34375 3.1211-0.44922 3.1133-0.54688 3.1016-0.65625 3.0938-0.75781 3.082-0.86328 3.0703-0.97266 3.0547-1.0781 3.0391-1.1914 3.0234-1.3008 3.0039-1.4102 2.9805-1.5234 2.9609-1.6406 2.8164-1.6719 2.75-1.7617 2.6758-1.8516 2.6094-1.9375 2.5312-2.0195 2.4609-2.0977 2.3828-2.1758 2.3047-2.25 2.2305-2.3203 2.1484-2.3906 2.0664-2.4531 1.9844-2.5195 1.9023-2.582 1.8125-2.6367 1.7305-2.6953 1.6406-2.7461 1.5508-2.793 1.457-2.8438 1.3672-2.8867 1.2773-2.9297 1.1758-2.9648 1.082-3.0039 0.98438-3.0391 0.88672-3.0664 0.78516-3.0977 0.67969-3.1211 0.58203-3.1445 0.47266-3.1641 0.36719-3.1797 0.26172-3.1953 0.15234-3.207 0.039063-3.2148-0.039063-3.2227-0.14453-3.2109-0.25781-3.2031-0.36328-3.1836-0.47266-3.1719-0.57422-3.1484-0.67969-3.125-0.78125-3.1016-0.88281-3.0703-0.98047-3.043-1.082-3.0078-1.1758-2.9766-1.2695-2.9336-1.3672-2.8945-1.457-2.8477-1.5508-2.8047-1.6406-2.7539-1.7266-2.7031-1.8164-2.6484-1.9023-2.5938-1.9844-2.5312-2.0664-2.4688-2.1523-2.4062-2.2305-2.3359-2.3086-2.2695-2.3867-2.1953-2.4648-2.1211-2.5352-2.043-2.6133-1.9609-2.6836-1.8789-2.7539-1.793-2.8242-1.7031-2.9219-1.6094-2.957-1.5078-2.9883-1.3984-3.0156-1.293-3.043-1.1875-3.0703-1.0859-3.0859-0.97656-3.1094-0.875-3.125-0.76953-3.1406-0.66797-3.1484-0.5625-3.1641-0.45703-3.168-0.35547-3.1719-0.25-3.1758-0.14844-3.1758-0.042969-3.1719 0.058593-3.168 0.16406-3.1641 0.26172-3.1523 0.36719-3.1406 0.46875-3.125 0.57031-3.1094 0.67578-3.0898 0.77344-3.0703 0.87891-3.043 0.97656-3.0195 1.082-2.9922 1.1797-2.957 1.2812-2.9258 1.3828-2.8906 1.4805-2.8516 1.5859"
         fill="none"
         stroke="#000"
         stroke-linecap="round"
         stroke-linejoin="round"
         stroke-miterlimit="10"
         stroke-width=".75"
         id="path46" />
    <path
         d="m313.94 173.32l-0.035156-2.4922-0.09375-2.4805-0.15625-2.4648-0.21875-2.4492-0.28125-2.4336-0.33984-2.418-0.40234-2.3984-0.45703-2.3828-0.51562-2.3633-0.57422-2.3438-0.62891-2.3203-0.6875-2.3008-1.5352-4.5352-1.75-4.4375-1.9609-4.332-2.1602-4.2266-2.3555-4.1094-2.5469-3.9844-2.7305-3.8555-2.9102-3.7227-3.0781-3.5781-3.2461-3.4258-3.4102-3.2734-3.5586-3.1094-3.7109-2.9375-3.8516-2.7656-3.9883-2.5781-4.1172-2.3906-4.2422-2.1953-4.3633-1.9922-2.2227-0.91797-2.25-0.86719-2.2773-0.80859-2.3008-0.75781-2.3281-0.69922-2.3516-0.64453-2.375-0.58594-2.4023-0.52734-2.418-0.46875-2.4414-0.41016-2.4648-0.34766-2.4805-0.28906-2.5039-0.22266-2.5195-0.16406-2.5391-0.097656-2.5547-0.03125-2.5547 0.03125-2.5352 0.097656-2.5234 0.16406-2.5 0.22266-2.4805 0.28906-2.4648 0.34766-2.4414 0.41016-2.4219 0.46875-2.3984 0.52734-2.375 0.58594-2.3516 0.64453-2.3281 0.69922-2.3047 0.75781-2.2773 0.80859-2.25 0.86719-2.2227 0.91797-4.3594 1.9922-4.2422 2.1953-4.1211 2.3906-3.9844 2.5781-3.8516 2.7656-3.7109 2.9375-3.5625 3.1094-3.4062 3.2734-3.2461 3.4258-3.082 3.5781-2.9062 3.7227-2.7305 3.8555-2.5469 3.9844-2.3594 4.1094-2.1602 4.2266-1.957 4.332-1.75 4.4375-1.5352 4.5352-0.6875 2.3008-0.62891 2.3203-0.57422 2.3438-0.51563 2.3633-0.46094 2.3828-0.39844 2.3984-0.33984 2.418-0.28125 2.4336-0.21875 2.4492-0.16016 2.4648-0.09375 2.4805-0.03125 2.4922 0.0625 3.5547 0.18359 3.5156 0.30078 3.4727 0.42188 3.4258 0.53125 3.3789 0.64453 3.332 0.75391 3.2812 0.85547 3.2305 0.96094 3.1797 1.0625 3.1211 1.1602 3.0703 1.2539 3.0078 1.3477 2.9531 1.4375 2.8906 1.5273 2.8281 1.6055 2.7656 1.6914 2.7031 1.7695 2.6328 1.8477 2.5664 1.918 2.4961 1.9922 2.4219 2.0586 2.3555 2.1289 2.2773 2.1875 2.1992 2.25 2.125 2.3047 2.043 2.3633 1.9648 2.4141 1.8828 2.4648 1.8008 2.5117 1.7109 2.5586 1.6289 2.5977 1.5352 2.8047 1.5898 2.8594 1.4883 2.9062 1.3828 2.9492 1.2852 2.9922 1.1758 3.0312 1.0781 3.0625 0.97656 3.0938 0.87109 3.1211 0.76953 3.1445 0.66406 3.168 0.56641 3.1836 0.46094 3.1953 0.35938 3.207 0.25391 3.2148 0.15625 3.2148 0.050782 3.2188-0.050782 3.2148-0.15625 3.207-0.25391 3.1992-0.35938 3.1836-0.46094 3.168-0.56641 3.1484-0.66406 3.1211-0.76953 3.0977-0.87109 3.0625-0.97656 3.0312-1.0781 2.9961-1.1758 2.9531-1.2852 2.9102-1.3828 2.8594-1.4883 2.8125-1.5898 2.5977-1.5352 2.5547-1.6289 2.5117-1.7109 2.4648-1.8008 2.418-1.8828 2.3594-1.9648 2.3086-2.043 2.25-2.125 2.1875-2.1992 2.125-2.2773 2.0586-2.3555 1.9922-2.4219 1.9219-2.4961 1.8438-2.5664 1.7695-2.6328 1.6914-2.7031 1.6094-2.7656 1.5234-2.8281 1.4375-2.8906 1.3477-2.9531 1.2539-3.0078 1.1602-3.0703 1.0625-3.1211 0.96094-3.1797 0.85938-3.2305 0.75391-3.2812 0.64453-3.332 0.53125-3.3789 0.41797-3.4258 0.30469-3.4727 0.18359-3.5156 0.0625-3.5547"
         fill="none"
         stroke="#000"
         stroke-linecap="round"
         stroke-linejoin="round"
         stroke-miterlimit="10"
         stroke-width=".75"
         id="path48" />
    <path
         d="m313.94 173.32l2.7734 1.6914 2.7383 1.793 2.707 1.8945 2.6641 1.9961 2.6172 2.1016 2.5703 2.207 2.5195 2.3125 2.457 2.4258 2.3945 2.5312 2.332 2.6484 2.2578 2.7578 2.1836 2.875 2.1055 2.9922 2.0195 3.1133 1.9336 3.2305 1.8398 3.3516 1.2852 2.5625 1.2109 2.6094 1.1406 2.6523 1.0664 2.6953 0.98828 2.7383 0.91016 2.7773 0.83203 2.8086 0.75 2.8438 0.67188 2.875 0.58203 2.9023 0.5 2.9297 0.41016 2.9531 0.32422 2.9766 0.23047 2.9922 0.14062 3.0117 0.046875 3.0234-0.03125 2.5352-0.09375 2.5195-0.16016 2.5039-0.22266 2.4844-0.28125 2.4648-0.34375 2.4492-0.40234 2.4297-0.46094 2.4062-0.52344 2.3867-0.57812 2.3672-0.63281 2.3398-0.69141 2.3203-0.74609 2.293-0.80078 2.2695-0.85547 2.2422-0.90625 2.2188-1.9688 4.3477-2.1758 4.2383-2.3672 4.1094-2.5586 3.9883-2.7422 3.8477-2.9219 3.7109-3.0938 3.5625-3.2578 3.4141-3.4141 3.25-3.5703 3.0898-3.7188 2.9141-3.8555 2.7383-3.9922 2.5547-4.1172 2.3633-4.2422 2.1719-4.3594 1.9648-2.2188 0.90625-2.2461 0.85547-2.2734 0.79688-2.2969 0.74609-2.3242 0.6875-2.3438 0.63672-2.3672 0.57422-2.3906 0.51953-2.4141 0.46484-2.4297 0.40234-2.4531 0.33984-2.4727 0.28125-2.4883 0.22266-2.5039 0.15625-2.5234 0.097656-2.5391 0.03125-3.1328-0.046875-3.1328-0.14844-3.1328-0.24609-3.125-0.34375-3.1172-0.44922-3.1133-0.54688-3.1055-0.65625-3.0938-0.75781-3.082-0.86328-3.0703-0.97266-3.0547-1.0781-3.0391-1.1914-3.0195-1.3008-3.0039-1.4102-2.9844-1.5234-2.9609-1.6406-2.8164-1.6719-2.7461-1.7617-2.6797-1.8516-2.6055-1.9375-2.5312-2.0195-2.4609-2.0977-2.3828-2.1758-2.3086-2.25-2.2266-2.3203-2.1484-2.3906-2.0664-2.4531-1.9844-2.5195-1.9023-2.582-1.8164-2.6367-1.7266-2.6953-1.6406-2.7461-1.5508-2.793-1.4609-2.8438-1.3672-2.8867-1.2734-2.9297-1.1797-2.9648-1.082-3.0039-0.98438-3.0391-0.88281-3.0664-0.78516-3.0977-0.68359-3.1211-0.57812-3.1445-0.47266-3.1641-0.37109-3.1797-0.25781-3.1953-0.15234-3.207-0.039063-3.2148 0.035156-3.2227 0.14844-3.2109 0.25781-3.2031 0.36328-3.1836 0.46875-3.1719 0.57812-3.1484 0.67969-3.125 0.78125-3.1016 0.88281-3.0703 0.98047-3.043 1.0781-3.0078 1.1758-2.9766 1.2734-2.9336 1.3672-2.8945 1.457-2.8477 1.5508-2.8047 1.6367-2.7539 1.7305-2.7031 1.8164-2.6484 1.8984-2.5938 1.9844-2.5312 2.0703-2.4688 2.1484-2.4062 2.2305-2.3359 2.3125-2.2695 2.3867-2.1953 2.4609-2.1211 2.5391-2.043 2.6094-1.9609 2.6836-1.8789 2.7539-1.793 2.8242-1.7031 2.9258-1.6094 2.957-1.5078 2.9883-1.3984 3.0156-1.293 3.043-1.1875 3.0664-1.0859 3.0898-0.97656 3.1094-0.875 3.125-0.76953 3.1367-0.66797 3.1523-0.5625 3.1602-0.45703 3.168-0.35547 3.1758-0.25 3.1719-0.14844 3.1758-0.042969 3.1758 0.058593 3.168 0.16406 3.1602 0.26172 3.1523 0.36719 3.1406 0.46875 3.1289 0.57031 3.1094 0.67578 3.0898 0.77344 3.0664 0.87891 3.0469 0.97656 3.0195 1.082 2.9883 1.1797 2.9609 1.2812 2.9258 1.3828 2.8906 1.4805 2.8516 1.5859"
         fill="none"
         stroke="#000"
         stroke-linecap="round"
         stroke-linejoin="round"
         stroke-miterlimit="10"
         stroke-width=".75"
         id="path50" />
    <g
         id="g52">
        <use
             x="303.738281"
             y="285.8125"
             xlink:href="#l"
             id="use54" />
    </g>
    <g
         id="g56">
        <use
             x="213.269531"
             y="130.839844"
             xlink:href="#k"
             id="use58" />
    </g>
    <g
         id="g60">
        <use
             x="269.910156"
             y="199.261719"
             xlink:href="#j"
             id="use62" />
    </g>
    <g
         id="g64">
        <use
             x="213.269531"
             y="232.625"
             xlink:href="#i"
             id="use66" />
    </g>
    <g
         id="g68">
        <use
             x="44.101562"
             y="196.046875"
             xlink:href="#b"
             id="use70" />
        <use
             x="50.906967"
             y="196.046875"
             xlink:href="#h"
             id="use72" />
        <use
             x="58.275345"
             y="196.046875"
             xlink:href="#g"
             id="use74" />
        <use
             x="65.643723"
             y="196.046875"
             xlink:href="#f"
             id="use76" />
    </g>
    <g
         id="g78">
        <use
             x="205.683594"
             y="58.382812"
             xlink:href="#b"
             id="use80" />
        <use
             x="212.488998"
             y="58.382812"
             xlink:href="#a"
             id="use82" />
        <use
             x="218.721481"
             y="58.382812"
             xlink:href="#e"
             id="use84" />
    </g>
    <g
         id="g86">
        <use
             x="365.570312"
             y="196.054688"
             xlink:href="#d"
             id="use88" />
        <use
             x="371.244812"
             y="196.054688"
             xlink:href="#c"
             id="use90" />
        <use
             x="374.079575"
             y="196.054688"
             xlink:href="#a"
             id="use92" />
    </g>
</svg>
