<?xml version="1.0" encoding="UTF-8" standalone="no"?>
<svg
   xmlns:dc="http://purl.org/dc/elements/1.1/"
   xmlns:cc="http://creativecommons.org/ns#"
   xmlns:rdf="http://www.w3.org/1999/02/22-rdf-syntax-ns#"
   xmlns:svg="http://www.w3.org/2000/svg"
   xmlns="http://www.w3.org/2000/svg"
   xmlns:xlink="http://www.w3.org/1999/xlink"
   xmlns:sodipodi="http://sodipodi.sourceforge.net/DTD/sodipodi-0.dtd"
   xmlns:inkscape="http://www.inkscape.org/namespaces/inkscape"
   sodipodi:docname="XYplot-8.svg"
   inkscape:version="1.0beta1 (32d4812, 2019-09-19)"
   id="svg2"
   viewBox="0 0 432 432"
   version="1.1"
   height="432pt"
   width="432pt">
  <style></style>
  <metadata
     id="metadata743">
    <rdf:RDF>
      <cc:Work
         rdf:about="">
        <dc:format>image/svg+xml</dc:format>
        <dc:type
           rdf:resource="http://purl.org/dc/dcmitype/StillImage" />
        <dc:title />
      </cc:Work>
    </rdf:RDF>
  </metadata>
  <sodipodi:namedview
     inkscape:document-rotation="0"
     inkscape:current-layer="svg2"
     inkscape:window-maximized="0"
     inkscape:window-y="23"
     inkscape:window-x="0"
     inkscape:cy="298.57143"
     inkscape:cx="307.14286"
     inkscape:zoom="1.0261702"
     showgrid="false"
     id="namedview741"
     inkscape:window-height="855"
     inkscape:window-width="1440"
     inkscape:pageshadow="2"
     inkscape:pageopacity="0"
     guidetolerance="10"
     gridtolerance="10"
     objecttolerance="10"
     borderopacity="1"
     bordercolor="#666666"
     pagecolor="#ffffff" />
  <defs
     id="defs4">
    <symbol
       overflow="visible"
       id="a">
      <path
         id="path7"
         d="m2.5938-6.7031c0.86328 0 1.4922 0.35547 1.8906 1.0625 0.28906 0.55469 0.4375 1.3125 0.4375 2.2812 0 0.90625-0.13672 1.6641-0.40625 2.2656-0.38672 0.85547-1.0273 1.2812-1.9219 1.2812-0.8125 0-1.4141-0.34766-1.7969-1.0469-0.33594-0.59375-0.5-1.3789-0.5-2.3594 0-0.75781 0.097656-1.4141 0.29688-1.9688 0.36328-1.0078 1.0312-1.5156 2-1.5156zm-0.015625 6.125c0.4375 0 0.78516-0.19141 1.0469-0.57812 0.25781-0.39453 0.39062-1.1172 0.39062-2.1719 0-0.75781-0.09375-1.3828-0.28125-1.875-0.1875-0.5-0.55469-0.75-1.0938-0.75-0.49219 0-0.85156 0.23438-1.0781 0.70312-0.23047 0.46875-0.34375 1.1562-0.34375 2.0625 0 0.6875 0.070312 1.2422 0.21875 1.6562 0.21875 0.63672 0.59766 0.95312 1.1406 0.95312z" />
    </symbol>
    <symbol
       overflow="visible"
       id="b">
      <path
         id="path10"
         d="m0.8125-1.0156h0.98438v1.0156h-0.98438z" />
    </symbol>
    <symbol
       overflow="visible"
       id="f">
      <path
         id="path13"
         d="m0.92188-4.75v-0.64062c0.60156-0.0625 1.0234-0.16016 1.2656-0.29688 0.23828-0.14453 0.42188-0.47656 0.54688-1h0.65625v6.6875h-0.89062v-4.75z" />
    </symbol>
    <symbol
       overflow="visible"
       id="w">
      <path
         id="path16"
         d="m0.29688 0c0.03125-0.57031 0.14844-1.0703 0.35938-1.5 0.20703-0.4375 0.61328-0.82812 1.2188-1.1719l0.89062-0.51562c0.40625-0.23828 0.69141-0.44141 0.85938-0.60938 0.25-0.25781 0.375-0.55469 0.375-0.89062 0-0.38281-0.12109-0.69141-0.35938-0.92188-0.23047-0.22656-0.53906-0.34375-0.92188-0.34375-0.58594 0-0.98438 0.21875-1.2031 0.65625-0.11719 0.23047-0.17969 0.55469-0.1875 0.96875h-0.85938c0.007812-0.58203 0.11328-1.0547 0.3125-1.4219 0.36328-0.65625 1.0078-0.98438 1.9375-0.98438 0.76953 0 1.332 0.21094 1.6875 0.625 0.35156 0.41797 0.53125 0.88281 0.53125 1.3906 0 0.53125-0.1875 0.99219-0.5625 1.375-0.21875 0.21875-0.61719 0.49219-1.1875 0.8125l-0.64062 0.34375c-0.30469 0.16797-0.54297 0.32812-0.71875 0.48438-0.3125 0.27344-0.51172 0.57422-0.59375 0.90625h3.6719v0.79688z" />
    </symbol>
    <symbol
       overflow="visible"
       id="v">
      <path
         id="path19"
         d="m2.4844 0.1875c-0.79297 0-1.3672-0.21875-1.7188-0.65625-0.35547-0.4375-0.53125-0.96875-0.53125-1.5938h0.875c0.039063 0.4375 0.125 0.75781 0.25 0.95312 0.21875 0.35547 0.60938 0.53125 1.1719 0.53125 0.44531 0 0.80469-0.11719 1.0781-0.35938 0.26953-0.23828 0.40625-0.54688 0.40625-0.92188 0-0.45703-0.14844-0.78125-0.4375-0.96875-0.28125-0.1875-0.67188-0.28125-1.1719-0.28125-0.054688 0-0.10938 0.007813-0.17188 0.015625h-0.17188v-0.75c0.082031 0.011719 0.15625 0.023438 0.21875 0.03125h0.1875c0.32031 0 0.58203-0.050781 0.78125-0.15625 0.35156-0.17578 0.53125-0.48828 0.53125-0.9375 0-0.33203-0.12109-0.58594-0.35938-0.76562-0.23047-0.1875-0.50781-0.28125-0.82812-0.28125-0.5625 0-0.94922 0.1875-1.1562 0.5625-0.125 0.21094-0.19531 0.50781-0.20312 0.89062h-0.84375c0-0.5 0.10156-0.92578 0.3125-1.2812 0.34375-0.625 0.94531-0.9375 1.8125-0.9375 0.67578 0 1.2031 0.15625 1.5781 0.46875 0.375 0.30469 0.5625 0.74219 0.5625 1.3125 0 0.41797-0.10938 0.75-0.32812 1-0.13672 0.15625-0.3125 0.28125-0.53125 0.375 0.35156 0.09375 0.62891 0.28125 0.82812 0.5625 0.19531 0.28125 0.29688 0.62109 0.29688 1.0156 0 0.63672-0.21484 1.1562-0.64062 1.5625-0.41797 0.40625-1.0156 0.60938-1.7969 0.60938z" />
    </symbol>
    <symbol
       overflow="visible"
       id="u">
      <path
         id="path22"
         d="m3.1719-2.375v-3.0469l-2.1562 3.0469zm0.015625 2.375v-1.6406h-2.9375v-0.82812l3.0625-4.2656h0.71875v4.3594h0.98438v0.73438h-0.98438v1.6406z" />
    </symbol>
    <symbol
       overflow="visible"
       id="i">
      <path
         id="path25"
         d="m1.1875-1.7031c0.050781 0.48047 0.27344 0.80859 0.67188 0.98438 0.19531 0.09375 0.42578 0.14062 0.6875 0.14062 0.5 0 0.86719-0.15625 1.1094-0.46875 0.23828-0.32031 0.35938-0.67578 0.35938-1.0625 0-0.46875-0.14844-0.82812-0.4375-1.0781-0.28125-0.25781-0.62109-0.39062-1.0156-0.39062-0.29297 0-0.54297 0.058594-0.75 0.17188-0.21094 0.11719-0.38672 0.27344-0.53125 0.46875l-0.73438-0.046875 0.51562-3.6094h3.4844v0.8125h-2.8438l-0.29688 1.8594c0.15625-0.11328 0.30469-0.20312 0.45312-0.26562 0.25-0.10156 0.53516-0.15625 0.85938-0.15625 0.61328 0 1.1328 0.20312 1.5625 0.60938 0.42578 0.39844 0.64062 0.89844 0.64062 1.5 0 0.63672-0.19922 1.1992-0.59375 1.6875-0.38672 0.48047-1.0078 0.71875-1.8594 0.71875-0.55469 0-1.0391-0.15234-1.4531-0.45312-0.41797-0.3125-0.65234-0.78516-0.70312-1.4219z" />
    </symbol>
    <symbol
       overflow="visible"
       id="t">
      <path
         id="path28"
         d="m2.8125-6.7344c0.75 0 1.2695 0.19922 1.5625 0.59375 0.28906 0.38672 0.4375 0.78125 0.4375 1.1875h-0.82812c-0.054687-0.25781-0.13281-0.46875-0.23438-0.625-0.21094-0.28125-0.52344-0.42188-0.9375-0.42188-0.46875 0-0.84375 0.21875-1.125 0.65625-0.27344 0.4375-0.42188 1.0625-0.45312 1.875 0.1875-0.28125 0.42969-0.49219 0.73438-0.64062 0.25781-0.125 0.55469-0.1875 0.89062-0.1875 0.5625 0 1.0508 0.18359 1.4688 0.54688 0.41406 0.35547 0.625 0.88672 0.625 1.5938 0 0.61719-0.19922 1.1562-0.59375 1.625-0.39844 0.46875-0.96094 0.70312-1.6875 0.70312-0.625 0-1.168-0.23438-1.625-0.70312-0.46094-0.47656-0.6875-1.2852-0.6875-2.4219 0-0.83203 0.10156-1.5352 0.3125-2.1094 0.38281-1.1133 1.0977-1.6719 2.1406-1.6719zm-0.0625 6.1562c0.4375 0 0.76562-0.14453 0.98438-0.4375 0.22656-0.30078 0.34375-0.65625 0.34375-1.0625 0-0.34375-0.10156-0.67188-0.29688-0.98438-0.19922-0.3125-0.55859-0.46875-1.0781-0.46875-0.36719 0-0.68359 0.12109-0.95312 0.35938-0.27344 0.24219-0.40625 0.60547-0.40625 1.0938 0 0.42969 0.11719 0.78906 0.35938 1.0781 0.25 0.28125 0.59766 0.42188 1.0469 0.42188z" />
    </symbol>
    <symbol
       overflow="visible"
       id="e">
      <path
         id="path31"
         d="m5.0156-6.5938v0.73438c-0.21875 0.21094-0.50781 0.57422-0.85938 1.0938-0.35547 0.52344-0.67188 1.0781-0.95312 1.6719-0.27344 0.58594-0.47656 1.1172-0.60938 1.5938-0.09375 0.3125-0.21484 0.8125-0.35938 1.5h-0.92188c0.20703-1.2812 0.67578-2.5547 1.4062-3.8281 0.42578-0.73828 0.875-1.3789 1.3438-1.9219h-3.7188v-0.84375z" />
    </symbol>
    <symbol
       overflow="visible"
       id="g">
      <path
         id="path34"
         d="m2.6094-3.8906c0.375 0 0.66406-0.10156 0.875-0.3125 0.20703-0.20703 0.3125-0.45703 0.3125-0.75 0-0.25-0.10547-0.47656-0.3125-0.6875-0.19922-0.20703-0.5-0.3125-0.90625-0.3125s-0.70312 0.10547-0.89062 0.3125c-0.17969 0.21094-0.26562 0.45312-0.26562 0.73438 0 0.3125 0.11328 0.5625 0.34375 0.75 0.23828 0.17969 0.51953 0.26562 0.84375 0.26562zm0.046875 3.3125c0.39453 0 0.71875-0.10156 0.96875-0.3125 0.25781-0.20703 0.39062-0.52344 0.39062-0.95312 0-0.42578-0.13672-0.75-0.40625-0.96875-0.26172-0.22656-0.60156-0.34375-1.0156-0.34375-0.39844 0-0.72656 0.11719-0.98438 0.34375-0.25 0.23047-0.375 0.54688-0.375 0.95312 0 0.34375 0.11328 0.64844 0.34375 0.90625 0.23828 0.25 0.59766 0.375 1.0781 0.375zm-1.1875-3c-0.24219-0.09375-0.42969-0.20703-0.5625-0.34375-0.24219-0.25-0.35938-0.57812-0.35938-0.98438 0-0.5 0.17578-0.92578 0.53125-1.2812 0.36328-0.36328 0.87891-0.54688 1.5469-0.54688 0.64453 0 1.1484 0.17188 1.5156 0.51562 0.36328 0.34375 0.54688 0.74219 0.54688 1.1875 0 0.41797-0.10547 0.75781-0.3125 1.0156-0.125 0.14844-0.3125 0.29297-0.5625 0.4375 0.28125 0.125 0.5 0.27344 0.65625 0.4375 0.30078 0.3125 0.45312 0.71875 0.45312 1.2188 0 0.58594-0.19922 1.0859-0.59375 1.5-0.39844 0.40625-0.96094 0.60938-1.6875 0.60938-0.65625 0-1.2109-0.17969-1.6562-0.53125-0.44922-0.35156-0.67188-0.86719-0.67188-1.5469 0-0.39453 0.09375-0.73438 0.28125-1.0156 0.19531-0.28906 0.48828-0.51562 0.875-0.67188z" />
    </symbol>
    <symbol
       overflow="visible"
       id="d">
      <path
         id="path37"
         d="m1.2812-1.625c0.019531 0.46875 0.19531 0.79297 0.53125 0.96875 0.17578 0.09375 0.36719 0.14062 0.57812 0.14062 0.40625 0 0.75-0.16406 1.0312-0.5 0.28125-0.33203 0.48438-1.0156 0.60938-2.0469-0.1875 0.29297-0.42188 0.5-0.70312 0.625-0.27344 0.11719-0.57031 0.17188-0.89062 0.17188-0.64844 0-1.1562-0.19531-1.5312-0.59375-0.375-0.40625-0.5625-0.92578-0.5625-1.5625 0-0.60156 0.17969-1.1328 0.54688-1.5938 0.375-0.46875 0.92578-0.70312 1.6562-0.70312 0.97656 0 1.6484 0.44531 2.0156 1.3281 0.20703 0.48047 0.3125 1.0859 0.3125 1.8125 0 0.82422-0.125 1.5547-0.375 2.1875-0.40625 1.0547-1.1016 1.5781-2.0781 1.5781-0.65625 0-1.1562-0.17188-1.5-0.51562-0.33594-0.34375-0.5-0.77344-0.5-1.2969zm1.2656-1.375c0.33203 0 0.64062-0.10938 0.92188-0.32812s0.42188-0.60156 0.42188-1.1562c0-0.48828-0.125-0.85156-0.375-1.0938-0.25-0.25-0.57031-0.375-0.95312-0.375-0.41797 0-0.74609 0.14062-0.98438 0.42188-0.24219 0.27344-0.35938 0.64062-0.35938 1.1094 0 0.4375 0.10156 0.78906 0.3125 1.0469 0.21875 0.25 0.55469 0.375 1.0156 0.375z" />
    </symbol>
    <symbol
       overflow="visible"
       id="aa">
      <path
         id="path40"
         d="m0.9375-6.875h0.95312v6.875h-0.95312z" />
    </symbol>
    <symbol
       overflow="visible"
       id="z">
      <path
         id="path43"
         d="m0.625-5.0156h0.79688v0.70312c0.23828-0.28906 0.48828-0.5 0.75-0.625 0.26953-0.125 0.56641-0.1875 0.89062-0.1875 0.70703 0 1.1875 0.24609 1.4375 0.73438 0.13281 0.27344 0.20312 0.66406 0.20312 1.1719v3.2188h-0.85938v-3.1562c0-0.3125-0.042969-0.5625-0.125-0.75-0.15625-0.3125-0.42969-0.46875-0.8125-0.46875-0.21094 0-0.375 0.023438-0.5 0.0625-0.23047 0.074219-0.43359 0.21484-0.60938 0.42188-0.13672 0.15625-0.22656 0.32422-0.26562 0.5-0.042969 0.17969-0.0625 0.43359-0.0625 0.76562v2.625h-0.84375zm1.9688-0.125z" />
    </symbol>
    <symbol
       overflow="visible"
       id="bv">
      <path
         id="path46"
         d="m2.5469-5.1562c0.57031 0 1.0352 0.13672 1.3906 0.40625 0.35156 0.27344 0.56641 0.74609 0.64062 1.4219h-0.82812c-0.054688-0.3125-0.16797-0.56641-0.34375-0.76562-0.17969-0.20703-0.46484-0.3125-0.85938-0.3125-0.53125 0-0.91406 0.26172-1.1406 0.78125-0.15625 0.34375-0.23438 0.76562-0.23438 1.2656s0.10156 0.92188 0.3125 1.2656c0.21875 0.34375 0.55469 0.51562 1.0156 0.51562 0.34375 0 0.61719-0.10156 0.82812-0.3125 0.20703-0.21875 0.34766-0.51562 0.42188-0.89062h0.82812c-0.09375 0.66797-0.32812 1.1562-0.70312 1.4688-0.375 0.30469-0.85547 0.45312-1.4375 0.45312-0.65625 0-1.1836-0.23828-1.5781-0.71875-0.38672-0.47656-0.57812-1.0781-0.57812-1.7969 0-0.875 0.21094-1.5547 0.64062-2.0469 0.42578-0.48828 0.96875-0.73438 1.625-0.73438zm-0.125 0.015625z" />
    </symbol>
    <symbol
       overflow="visible"
       id="bu">
      <path
         id="path49"
         d="m0.64062-6.875h0.84375v6.875h-0.84375z" />
    </symbol>
    <symbol
       overflow="visible"
       id="bt">
      <path
         id="path52"
         d="m1.4688-5.0156v3.3281c0 0.26172 0.035156 0.46875 0.10938 0.625 0.15625 0.30469 0.4375 0.45312 0.84375 0.45312 0.58203 0 0.98438-0.25781 1.2031-0.78125 0.11328-0.28125 0.17188-0.66406 0.17188-1.1562v-2.4688h0.84375v5.0156h-0.79688v-0.73438c-0.10547 0.1875-0.24219 0.35156-0.40625 0.48438-0.32422 0.25781-0.71484 0.39062-1.1719 0.39062-0.71094 0-1.1953-0.23828-1.4531-0.71875-0.14844-0.25781-0.21875-0.60156-0.21875-1.0312v-3.4062zm1.1562-0.125z" />
    </symbol>
    <symbol
       overflow="visible"
       id="bs">
      <path
         id="path55"
         d="m1.125-1.5781c0.019531 0.28125 0.085938 0.5 0.20312 0.65625 0.21875 0.27344 0.58594 0.40625 1.1094 0.40625 0.3125 0 0.58203-0.066406 0.8125-0.20312 0.23828-0.13281 0.35938-0.34766 0.35938-0.64062 0-0.20703-0.09375-0.36719-0.28125-0.48438-0.125-0.070312-0.36719-0.14844-0.71875-0.23438l-0.67188-0.17188c-0.42969-0.10156-0.74219-0.22266-0.9375-0.35938-0.36719-0.22656-0.54688-0.54688-0.54688-0.95312 0-0.46875 0.16406-0.84766 0.5-1.1406 0.34375-0.28906 0.80469-0.4375 1.3906-0.4375 0.75 0 1.2969 0.21875 1.6406 0.65625 0.20703 0.28125 0.30469 0.58594 0.29688 0.90625h-0.79688c-0.011719-0.1875-0.078125-0.35938-0.20312-0.51562-0.1875-0.21875-0.52344-0.32812-1-0.32812-0.32422 0-0.57031 0.0625-0.73438 0.1875-0.15625 0.11719-0.23438 0.27344-0.23438 0.46875 0 0.21875 0.10156 0.39844 0.3125 0.53125 0.125 0.074219 0.3125 0.14062 0.5625 0.20312l0.54688 0.14062c0.61328 0.14844 1.0195 0.28906 1.2188 0.42188 0.33203 0.21875 0.5 0.55859 0.5 1.0156 0 0.44922-0.17188 0.83594-0.51562 1.1562-0.33594 0.32031-0.85156 0.48438-1.5469 0.48438-0.74219 0-1.2656-0.16797-1.5781-0.5-0.3125-0.34375-0.48047-0.76562-0.5-1.2656zm1.2344-3.5625z" />
    </symbol>
    <symbol
       overflow="visible"
       id="br">
      <path
         id="path58"
         d="m0.625-5h0.84375v5h-0.84375zm0-1.875h0.84375v0.95312h-0.84375z" />
    </symbol>
    <symbol
       overflow="visible"
       id="y">
      <path
         id="path61"
         d="m2.6094-0.54688c0.5625 0 0.94531-0.20703 1.1562-0.625 0.20703-0.42578 0.3125-0.89844 0.3125-1.4219 0-0.46875-0.078125-0.84766-0.23438-1.1406-0.24219-0.45703-0.64844-0.6875-1.2188-0.6875-0.52344 0-0.90234 0.19922-1.1406 0.59375-0.23047 0.38672-0.34375 0.85938-0.34375 1.4219 0 0.53125 0.11328 0.97656 0.34375 1.3281 0.23828 0.35547 0.61328 0.53125 1.125 0.53125zm0.03125-4.6094c0.64453 0 1.1914 0.21484 1.6406 0.64062 0.44531 0.42969 0.67188 1.0625 0.67188 1.9062 0 0.80469-0.19922 1.4688-0.59375 2-0.39844 0.53125-1.0078 0.79688-1.8281 0.79688-0.6875 0-1.2344-0.23438-1.6406-0.70312s-0.60938-1.0977-0.60938-1.8906c0-0.83203 0.21094-1.5 0.64062-2 0.42578-0.5 1-0.75 1.7188-0.75zm-0.03125 0.015625z" />
    </symbol>
    <symbol
       overflow="visible"
       id="j">
      <path
         id="path64"
         d="m1.0625-4.9531h0.98438v1.0156h-0.98438zm0 3.9375h0.98438v1.0156h-0.98438z" />
    </symbol>
    <symbol
       overflow="visible"
       id="c" />
    <symbol
       overflow="visible"
       id="bq">
      <path
         id="path68"
         d="m3.625-7.0625c0.875 0 1.5508 0.23047 2.0312 0.6875 0.47656 0.46094 0.74219 0.98047 0.79688 1.5625h-0.90625c-0.10547-0.44531-0.3125-0.80078-0.625-1.0625-0.30469-0.25781-0.73047-0.39062-1.2812-0.39062-0.67969 0-1.2266 0.24219-1.6406 0.71875-0.41797 0.48047-0.625 1.2109-0.625 2.1875 0 0.8125 0.1875 1.4688 0.5625 1.9688s0.9375 0.75 1.6875 0.75c0.6875 0 1.207-0.26562 1.5625-0.79688 0.1875-0.26953 0.32812-0.63281 0.42188-1.0938h0.92188c-0.085938 0.73047-0.35547 1.3398-0.8125 1.8281-0.54297 0.58594-1.2773 0.875-2.2031 0.875-0.80469 0-1.4766-0.23828-2.0156-0.71875-0.71875-0.64453-1.0781-1.6328-1.0781-2.9688 0-1.0078 0.26953-1.8438 0.8125-2.5 0.57031-0.69531 1.3672-1.0469 2.3906-1.0469zm-0.1875 0z" />
    </symbol>
    <symbol
       overflow="visible"
       id="bp">
      <path
         id="path71"
         d="m1.0312-5.0156l1.3438 4.0781 1.3906-4.0781h0.92188l-1.8906 5.0156h-0.89062l-1.8594-5.0156z" />
    </symbol>
    <symbol
       overflow="visible"
       id="x">
      <path
         id="path74"
         d="m2.7031-5.125c0.35156 0 0.69531 0.085938 1.0312 0.25 0.34375 0.16797 0.59766 0.38281 0.76562 0.64062 0.17578 0.26172 0.28906 0.55859 0.34375 0.89062 0.050781 0.23047 0.078125 0.60156 0.078125 1.1094h-3.6875c0.019531 0.51172 0.14062 0.92188 0.35938 1.2344 0.22656 0.30469 0.57812 0.45312 1.0469 0.45312 0.44531 0 0.80078-0.14453 1.0625-0.4375 0.14453-0.16406 0.25-0.36328 0.3125-0.59375h0.82812c-0.023438 0.1875-0.09375 0.39844-0.21875 0.625-0.11719 0.21875-0.25 0.40234-0.40625 0.54688-0.26172 0.25-0.57812 0.42188-0.95312 0.51562-0.21094 0.039063-0.4375 0.0625-0.6875 0.0625-0.625 0-1.1562-0.22266-1.5938-0.67188-0.42969-0.45703-0.64062-1.0938-0.64062-1.9062s0.21875-1.4688 0.65625-1.9688 1.0039-0.75 1.7031-0.75zm1.3438 2.2188c-0.03125-0.36328-0.10938-0.65625-0.23438-0.875-0.23047-0.40625-0.61719-0.60938-1.1562-0.60938-0.38672 0-0.71484 0.14062-0.98438 0.42188-0.26172 0.27344-0.39844 0.625-0.40625 1.0625zm-1.4219-2.2344z" />
    </symbol>
    <symbol
       overflow="visible"
       id="bo">
      <path
         id="path77"
         d="m0.64062-5.0156h0.79688v0.85938c0.070312-0.16406 0.23438-0.36719 0.48438-0.60938 0.25781-0.23828 0.55469-0.35938 0.89062-0.35938h0.078125c0.039063 0 0.10156 0.007812 0.1875 0.015625v0.89062c-0.054687-0.007812-0.10156-0.015625-0.14062-0.015625h-0.125c-0.42969 0-0.75781 0.13672-0.98438 0.40625-0.23047 0.27344-0.34375 0.58594-0.34375 0.9375v2.8906h-0.84375z" />
    </symbol>
    <symbol
       overflow="visible"
       id="bn">
      <path
         id="path80"
         d="m1.2656-1.3281c0 0.24219 0.085937 0.43359 0.26562 0.57812 0.17578 0.13672 0.39062 0.20312 0.64062 0.20312 0.28906 0 0.57812-0.066406 0.85938-0.20312 0.46875-0.22656 0.70312-0.60156 0.70312-1.125v-0.67188c-0.10547 0.0625-0.24219 0.11719-0.40625 0.15625-0.15625 0.042969-0.3125 0.074219-0.46875 0.09375l-0.51562 0.0625c-0.30469 0.042969-0.53125 0.10938-0.6875 0.20312-0.26172 0.14844-0.39062 0.38281-0.39062 0.70312zm2.0469-1.7188c0.1875-0.019531 0.31641-0.097656 0.39062-0.23438 0.03125-0.070312 0.046875-0.17969 0.046875-0.32812 0-0.28125-0.10547-0.48438-0.3125-0.60938-0.19922-0.13281-0.49219-0.20312-0.875-0.20312-0.4375 0-0.75 0.11719-0.9375 0.34375-0.10547 0.13672-0.17188 0.33594-0.20312 0.59375h-0.78125c0.019531-0.61328 0.22266-1.0391 0.60938-1.2812 0.38281-0.25 0.82812-0.375 1.3281-0.375 0.59375 0 1.0781 0.11719 1.4531 0.34375 0.36328 0.21875 0.54688 0.57031 0.54688 1.0469v2.8906c0 0.085937 0.015625 0.15234 0.046875 0.20312 0.039062 0.054688 0.11719 0.078125 0.23438 0.078125h0.10938c0.050781 0 0.10156-0.003906 0.15625-0.015625v0.60938c-0.125 0.039062-0.22656 0.066406-0.29688 0.078125-0.0625 0.007812-0.15625 0.015625-0.28125 0.015625-0.29297 0-0.5-0.10547-0.625-0.3125-0.074219-0.10156-0.125-0.25781-0.15625-0.46875-0.16797 0.23047-0.41406 0.42969-0.73438 0.59375-0.32422 0.16406-0.67969 0.25-1.0625 0.25-0.46875 0-0.85156-0.14062-1.1406-0.42188-0.29297-0.28125-0.4375-0.63281-0.4375-1.0625 0-0.46875 0.14062-0.82812 0.42188-1.0781 0.28906-0.25781 0.67578-0.42188 1.1562-0.48438zm-0.70312-2.0938z" />
    </symbol>
    <symbol
       overflow="visible"
       id="bm">
      <path
         id="path83"
         d="m2.3906-5.1094c0.39453 0 0.73828 0.10156 1.0312 0.29688 0.15625 0.10547 0.31641 0.26172 0.48438 0.46875v-0.625h0.78125v4.5625c0 0.63281-0.09375 1.1328-0.28125 1.5-0.35547 0.6875-1.0156 1.0312-1.9844 1.0312-0.54297 0-1-0.125-1.375-0.375-0.36719-0.24219-0.57031-0.61719-0.60938-1.125h0.85938c0.039063 0.21875 0.125 0.39062 0.25 0.51562 0.1875 0.1875 0.48438 0.28125 0.89062 0.28125 0.64453 0 1.0664-0.23047 1.2656-0.6875 0.125-0.26172 0.17969-0.73828 0.17188-1.4375-0.16797 0.26172-0.37109 0.45312-0.60938 0.57812-0.24219 0.125-0.55469 0.1875-0.9375 0.1875-0.54297 0-1.0234-0.19141-1.4375-0.57812-0.40625-0.38281-0.60938-1.0234-0.60938-1.9219 0-0.83203 0.20312-1.4844 0.60938-1.9531 0.41406-0.47656 0.91406-0.71875 1.5-0.71875zm1.5156 2.5781c0-0.625-0.13281-1.082-0.39062-1.375-0.25-0.30078-0.57422-0.45312-0.96875-0.45312-0.59375 0-1 0.27734-1.2188 0.82812-0.11719 0.30469-0.17188 0.69531-0.17188 1.1719 0 0.5625 0.11328 0.99609 0.34375 1.2969 0.22656 0.29297 0.53516 0.4375 0.92188 0.4375 0.60156 0 1.0312-0.27344 1.2812-0.82812 0.13281-0.30078 0.20312-0.66016 0.20312-1.0781zm-1.4219-2.6094z" />
    </symbol>
    <symbol
       overflow="visible"
       id="bl">
      <path
         id="path86"
         d="m0.8125-6.875h3.1094c0.60156 0 1.0938 0.17188 1.4688 0.51562s0.5625 0.82812 0.5625 1.4531c0 0.53125-0.16797 1-0.5 1.4062-0.33594 0.39844-0.84375 0.59375-1.5312 0.59375h-2.1719v2.9062h-0.9375zm4.2031 1.9688c0-0.5-0.1875-0.84375-0.5625-1.0312-0.21094-0.09375-0.49219-0.14062-0.84375-0.14062h-1.8594v2.375h1.8594c0.41406 0 0.75391-0.085937 1.0156-0.26562 0.25781-0.17578 0.39062-0.48828 0.39062-0.9375z" />
    </symbol>
    <symbol
       overflow="visible"
       id="bk">
      <path
         id="path89"
         d="m3.9375-3.7344c0.4375 0 0.78125-0.082031 1.0312-0.25 0.25-0.17578 0.375-0.49219 0.375-0.95312 0-0.48828-0.17969-0.82031-0.53125-1-0.1875-0.09375-0.44531-0.14062-0.76562-0.14062h-2.2656v2.3438zm-3.0938-3.1406h3.1875c0.51953 0 0.95312 0.074219 1.2969 0.21875 0.64453 0.29297 0.96875 0.83594 0.96875 1.625 0 0.41797-0.089844 0.75781-0.26562 1.0156-0.16797 0.26172-0.40234 0.47656-0.70312 0.64062 0.26953 0.10547 0.47266 0.24609 0.60938 0.42188 0.13281 0.17969 0.20703 0.46875 0.21875 0.875l0.03125 0.92188c0.007812 0.26172 0.035156 0.45312 0.078125 0.57812 0.050781 0.21875 0.14844 0.35938 0.29688 0.42188v0.15625h-1.1406c-0.03125-0.0625-0.058594-0.14062-0.078125-0.23438-0.023438-0.09375-0.039062-0.26953-0.046875-0.53125l-0.0625-1.1562c-0.023437-0.44531-0.1875-0.75-0.5-0.90625-0.17969-0.082031-0.46094-0.125-0.84375-0.125h-2.1094v2.9531h-0.9375z" />
    </symbol>
    <symbol
       overflow="visible"
       id="s">
      <path
         id="path92"
         d="m0.79688-7.7656h1.7031l3.0938 5.4219v-5.4219h1.5156v7.7656h-1.625l-3.1719-5.5156v5.5156h-1.5156zm3.2188-0.015625z" />
    </symbol>
    <symbol
       overflow="visible"
       id="bb">
      <path
         id="path95"
         d="m2.9688-4.6562c-0.34375 0-0.61719 0.10938-0.8125 0.32812-0.1875 0.21875-0.30859 0.51172-0.35938 0.875h2.3438c-0.03125-0.39453-0.15625-0.69141-0.375-0.89062-0.21094-0.20703-0.47656-0.3125-0.79688-0.3125zm0-1.25c0.47656 0 0.90625 0.09375 1.2812 0.28125 0.38281 0.17969 0.70312 0.46094 0.95312 0.84375 0.22656 0.34375 0.375 0.74219 0.4375 1.1875 0.039063 0.26172 0.054687 0.64062 0.046875 1.1406h-3.9219c0.019531 0.57422 0.19531 0.97656 0.53125 1.2031 0.20703 0.14844 0.45703 0.21875 0.75 0.21875 0.3125 0 0.56641-0.085938 0.76562-0.26562 0.10156-0.09375 0.19141-0.22266 0.26562-0.39062h1.5469c-0.042969 0.34375-0.21875 0.6875-0.53125 1.0312-0.5 0.5625-1.1953 0.84375-2.0781 0.84375-0.73047 0-1.375-0.23438-1.9375-0.70312-0.55469-0.46875-0.82812-1.2344-0.82812-2.2969 0-1 0.25-1.7656 0.75-2.2969 0.50781-0.53125 1.1641-0.79688 1.9688-0.79688zm0.10938 0z" />
    </symbol>
    <symbol
       overflow="visible"
       id="ba">
      <path
         id="path98"
         d="m3.1719-1.2344c0.35156 0 0.64844-0.12891 0.89062-0.39062 0.23828-0.26953 0.35938-0.69531 0.35938-1.2812 0-0.53906-0.11719-0.95312-0.34375-1.2344-0.23047-0.28906-0.53906-0.4375-0.92188-0.4375-0.53125 0-0.89844 0.25-1.0938 0.75-0.10547 0.26172-0.15625 0.58594-0.15625 0.96875 0 0.34375 0.054688 0.64062 0.17188 0.89062 0.19531 0.49219 0.5625 0.73438 1.0938 0.73438zm-0.375-4.6562c0.28125 0 0.53125 0.046875 0.75 0.14062 0.36328 0.14844 0.66016 0.42188 0.89062 0.82812v-0.82812h1.4531v5.4531c0 0.73828-0.125 1.2969-0.375 1.6719-0.42969 0.64453-1.25 0.96875-2.4688 0.96875-0.73047 0-1.3281-0.14844-1.7969-0.4375-0.46094-0.28125-0.71484-0.71094-0.76562-1.2812h1.6406c0.039062 0.17578 0.10938 0.30078 0.20312 0.375 0.15625 0.14453 0.42578 0.21875 0.8125 0.21875 0.53906 0 0.90625-0.18359 1.0938-0.54688 0.11328-0.23047 0.17188-0.62109 0.17188-1.1719v-0.375c-0.14844 0.25-0.30469 0.4375-0.46875 0.5625-0.29297 0.23047-0.67969 0.34375-1.1562 0.34375-0.74219 0-1.3359-0.25781-1.7812-0.78125-0.4375-0.51953-0.65625-1.2227-0.65625-2.1094 0-0.85156 0.21094-1.5703 0.64062-2.1562 0.42578-0.58203 1.0312-0.875 1.8125-0.875zm0.48438-0.015625z" />
    </symbol>
    <symbol
       overflow="visible"
       id="az">
      <path
         id="path101"
         d="m3.875-2.7969c-0.09375 0.0625-0.19531 0.11719-0.29688 0.15625-0.09375 0.03125-0.22656 0.0625-0.39062 0.09375l-0.34375 0.0625c-0.3125 0.054687-0.53906 0.12109-0.67188 0.20312-0.24219 0.13672-0.35938 0.35156-0.35938 0.64062 0 0.26172 0.070312 0.44922 0.21875 0.5625 0.14453 0.11719 0.31641 0.17188 0.51562 0.17188 0.32031 0 0.61719-0.09375 0.89062-0.28125 0.28125-0.19531 0.42578-0.54688 0.4375-1.0469zm-0.92188-0.70312c0.28125-0.03125 0.47656-0.070312 0.59375-0.125 0.21875-0.09375 0.32812-0.23438 0.32812-0.42188 0-0.23828-0.085938-0.39844-0.25-0.48438-0.15625-0.09375-0.39844-0.14062-0.71875-0.14062-0.35547 0-0.60547 0.089844-0.75 0.26562-0.10547 0.125-0.17188 0.29688-0.20312 0.51562h-1.4531c0.03125-0.5 0.17188-0.91016 0.42188-1.2344 0.39453-0.50781 1.0781-0.76562 2.0469-0.76562 0.625 0 1.1797 0.125 1.6719 0.375 0.48828 0.25 0.73438 0.72656 0.73438 1.4219v2.6406 0.65625c0.019531 0.19922 0.050781 0.33594 0.09375 0.40625 0.050781 0.0625 0.125 0.12109 0.21875 0.17188v0.21875h-1.625c-0.054688-0.11328-0.089844-0.22266-0.10938-0.32812-0.011719-0.10156-0.023437-0.21875-0.03125-0.34375-0.21094 0.21875-0.44922 0.41406-0.71875 0.57812-0.32422 0.17578-0.6875 0.26562-1.0938 0.26562-0.52344 0-0.95312-0.14844-1.2969-0.4375-0.33594-0.30078-0.5-0.72266-0.5-1.2656 0-0.70703 0.26953-1.2188 0.8125-1.5312 0.30078-0.17578 0.74219-0.30078 1.3281-0.375zm0.078125-2.4062z" />
    </symbol>
    <symbol
       overflow="visible"
       id="ay">
      <path
         id="path104"
         d="m0.10938-4.625v-1.0625h0.79688v-1.6094h1.5v1.6094h0.92188v1.0625h-0.92188v3.0312c0 0.24219 0.023438 0.39062 0.078125 0.45312 0.0625 0.054687 0.24219 0.078125 0.54688 0.078125h0.15625 0.14062v1.1094l-0.70312 0.03125c-0.71094 0.019531-1.1953-0.10156-1.4531-0.375-0.17969-0.16406-0.26562-0.42969-0.26562-0.79688v-3.5312z" />
    </symbol>
    <symbol
       overflow="visible"
       id="ax">
      <path
         id="path107"
         d="m2.25-6.4375h-1.5312v-1.375h1.5312zm-1.5312 0.6875h1.5312v5.75h-1.5312z" />
    </symbol>
    <symbol
       overflow="visible"
       id="r">
      <path
         id="path110"
         d="m3.2812-1.0625c0.4375 0 0.76953-0.15625 1-0.46875 0.23828-0.3125 0.35938-0.75391 0.35938-1.3281 0-0.58203-0.12109-1.0234-0.35938-1.3281-0.23047-0.3125-0.5625-0.46875-1-0.46875s-0.77734 0.15625-1.0156 0.46875c-0.24219 0.30469-0.35938 0.74609-0.35938 1.3281 0 0.57422 0.11719 1.0156 0.35938 1.3281 0.23828 0.3125 0.57812 0.46875 1.0156 0.46875zm2.9375-1.7969c0 0.84375-0.24609 1.5703-0.73438 2.1719-0.48047 0.59375-1.2148 0.89062-2.2031 0.89062-0.99219 0-1.7305-0.29688-2.2188-0.89062-0.48047-0.60156-0.71875-1.3281-0.71875-2.1719 0-0.83203 0.23828-1.5508 0.71875-2.1562 0.48828-0.61328 1.2266-0.92188 2.2188-0.92188 0.98828 0 1.7227 0.30859 2.2031 0.92188 0.48828 0.60547 0.73438 1.3242 0.73438 2.1562zm-2.9375-3.0469z" />
    </symbol>
    <symbol
       overflow="visible"
       id="aw">
      <path
         id="path113"
         d="m3.8906-5.8906c0.59375 0 1.0781 0.15625 1.4531 0.46875s0.5625 0.82812 0.5625 1.5469v3.875h-1.5312v-3.5c0-0.30078-0.042969-0.53125-0.125-0.6875-0.14844-0.30078-0.42969-0.45312-0.84375-0.45312-0.51172 0-0.85938 0.21875-1.0469 0.65625-0.10547 0.23047-0.15625 0.52344-0.15625 0.875v3.1094h-1.4844v-5.7344h1.4375v0.84375c0.19531-0.30078 0.37891-0.51562 0.54688-0.64062 0.3125-0.23828 0.70703-0.35938 1.1875-0.35938zm-0.5625-0.015625z" />
    </symbol>
    <symbol
       overflow="visible"
       id="q" />
    <symbol
       overflow="visible"
       id="bj">
      <path
         id="path117"
         d="m2.8281-7.8438c0.09375 0 0.17578 0.007812 0.25 0.015625 0.070313 0 0.17578 0.007813 0.3125 0.015625v1.2188c-0.085937-0.007812-0.22656-0.015625-0.42188-0.015625-0.19922-0.007813-0.33594 0.03125-0.40625 0.125-0.074219 0.09375-0.10938 0.19922-0.10938 0.3125v0.48438h0.98438v1.0469h-0.98438v4.6406h-1.5v-4.6406h-0.84375v-1.0469h0.82812v-0.375c0-0.61328 0.10156-1.0352 0.3125-1.2656 0.21875-0.34375 0.74219-0.51562 1.5781-0.51562z" />
    </symbol>
    <symbol
       overflow="visible"
       id="bi">
      <path
         id="path120"
         d="m2.9531-2.9375h1.9688l-0.96875-3.0625zm0.09375-4.8281h1.8281l2.7656 7.7656h-1.7656l-0.5-1.5938h-2.8594l-0.54688 1.5938h-1.6875zm0.90625 0z" />
    </symbol>
    <symbol
       overflow="visible"
       id="bh">
      <path
         id="path123"
         d="m6.4688-7.7656v1.375h-2.3281v6.3906h-1.625v-6.3906h-2.3438v-1.375z" />
    </symbol>
    <symbol
       overflow="visible"
       id="bg">
      <path
         id="path126"
         d="m5.2031-5.2969c0-0.40625-0.10938-0.69141-0.32812-0.85938-0.21094-0.17578-0.50781-0.26562-0.89062-0.26562h-1.5156v2.2812h1.5156c0.38281 0 0.67969-0.085937 0.89062-0.26562 0.21875-0.1875 0.32812-0.48438 0.32812-0.89062zm1.6094-0.015625c0 0.91797-0.23438 1.5703-0.70312 1.9531-0.46094 0.375-1.1211 0.5625-1.9844 0.5625h-1.6562v2.7969h-1.6094v-7.7656h3.3906c0.78125 0 1.3984 0.20312 1.8594 0.60938 0.46875 0.39844 0.70312 1.0117 0.70312 1.8438z" />
    </symbol>
    <symbol
       overflow="visible"
       id="bf">
      <path
         id="path129"
         d="m2.4531-6.4219v2.0938h1.8281c0.36328 0 0.64062-0.039063 0.82812-0.125 0.32031-0.15625 0.48438-0.44531 0.48438-0.875 0-0.47656-0.15625-0.79688-0.46875-0.95312-0.17969-0.09375-0.44531-0.14062-0.79688-0.14062zm2.2188-1.3438c0.53906 0.011719 0.95703 0.078125 1.25 0.20312 0.30078 0.11719 0.55078 0.29297 0.75 0.53125 0.16406 0.19922 0.29688 0.41797 0.39062 0.65625 0.10156 0.24219 0.15625 0.51172 0.15625 0.8125 0 0.375-0.09375 0.74219-0.28125 1.0938-0.1875 0.35547-0.49609 0.60547-0.92188 0.75 0.36328 0.14844 0.61719 0.35547 0.76562 0.625 0.14453 0.26172 0.21875 0.66797 0.21875 1.2188v0.51562c0 0.35547 0.015625 0.59375 0.046875 0.71875 0.039063 0.19922 0.14062 0.35156 0.29688 0.45312v0.1875h-1.7812c-0.054688-0.17578-0.089844-0.31641-0.10938-0.42188-0.042969-0.21875-0.070313-0.44141-0.078125-0.67188v-0.71875c-0.011719-0.48828-0.10547-0.81641-0.28125-0.98438-0.16797-0.16406-0.49219-0.25-0.96875-0.25h-1.6719v3.0469h-1.5938v-7.7656z" />
    </symbol>
    <symbol
       overflow="visible"
       id="be">
      <path
         id="path132"
         d="m2.3125 0h-1.6094v-7.7656h1.6094zm-0.8125-7.9219z" />
    </symbol>
    <symbol
       overflow="visible"
       id="bd">
      <path
         id="path135"
         d="m2.4062-6.4219v5.0781h1.4844c0.76953 0 1.3047-0.37891 1.6094-1.1406 0.16406-0.41406 0.25-0.91016 0.25-1.4844 0-0.78906-0.125-1.3945-0.375-1.8125-0.25-0.42578-0.74609-0.64062-1.4844-0.64062zm1.7656-1.3438c0.47656 0 0.87891 0.054687 1.2031 0.15625 0.53906 0.1875 0.98438 0.52344 1.3281 1 0.25781 0.38672 0.4375 0.80469 0.53125 1.25 0.10156 0.44922 0.15625 0.875 0.15625 1.2812 0 1.0312-0.20312 1.9062-0.60938 2.625-0.5625 0.96875-1.4336 1.4531-2.6094 1.4531h-3.3438v-7.7656z" />
    </symbol>
    <symbol
       overflow="visible"
       id="bc">
      <path
         id="path138"
         d="m6.5625-6.3906h-4.1094v1.6406h3.7812v1.3594h-3.7812v2h4.3125v1.3906h-5.8906v-7.7656h5.6875z" />
    </symbol>
    <symbol
       overflow="visible"
       id="p">
      <path
         id="path141"
         d="m-1.1562-4.2656c0-0.63281-0.23438-1.1406-0.70312-1.5156-0.47656-0.38281-1.1562-0.57812-2.0312-0.57812s-1.5469 0.19531-2.0156 0.57812c-0.47656 0.375-0.71875 0.88281-0.71875 1.5156 0 0.64844 0.24219 1.1641 0.71875 1.5469 0.46875 0.38672 1.1406 0.57812 2.0156 0.57812s1.5547-0.19141 2.0312-0.57812c0.46875-0.38281 0.70312-0.89844 0.70312-1.5469zm-2.7344-3.7188c1.3984 0 2.4648 0.39062 3.2031 1.1719 0.60547 0.59375 0.90625 1.4453 0.90625 2.5469 0 1.1172-0.30078 1.9648-0.90625 2.5469-0.73828 0.79297-1.8047 1.1875-3.2031 1.1875-1.4258 0-2.4922-0.39453-3.2031-1.1875-0.61328-0.58203-0.92188-1.4297-0.92188-2.5469 0-1.1016 0.30859-1.9531 0.92188-2.5469 0.71094-0.78125 1.7773-1.1719 3.2031-1.1719zm-4.125 3.7188z" />
    </symbol>
    <symbol
       overflow="visible"
       id="ar">
      <path
         id="path144"
         d="m-5.75-2.2031h3.4688c0.32422 0 0.57031-0.035156 0.73438-0.10938 0.29297-0.13281 0.4375-0.40625 0.4375-0.8125 0-0.50781-0.20703-0.85938-0.625-1.0469-0.21875-0.10156-0.51562-0.15625-0.89062-0.15625h-3.125v-1.5156h5.75v1.4531h-0.8125c0.023438 0.023437 0.078125 0.058594 0.17188 0.10938 0.085937 0.054688 0.15625 0.12109 0.21875 0.20312 0.21094 0.23047 0.35156 0.46094 0.42188 0.6875 0.082031 0.21875 0.125 0.47656 0.125 0.76562 0 0.85547-0.30469 1.4297-0.92188 1.7188-0.33203 0.16797-0.82812 0.25-1.4844 0.25h-3.4688zm-0.15625-1.0469z" />
    </symbol>
    <symbol
       overflow="visible"
       id="aq">
      <path
         id="path147"
         d="m-4.625-0.10938h-1.0625v-0.79688h-1.6094v-1.5h1.6094v-0.92188h1.0625v0.92188h3.0312c0.24219 0 0.39062-0.023438 0.45312-0.078125 0.054687-0.0625 0.078125-0.24219 0.078125-0.54688v-0.15625-0.14062h1.1094l0.03125 0.70312c0.019531 0.71094-0.10156 1.1953-0.375 1.4531-0.16406 0.17969-0.42969 0.26562-0.79688 0.26562h-3.5312z" />
    </symbol>
    <symbol
       overflow="visible"
       id="ap">
      <path
         id="path150"
         d="m-3.6875-4.1406c-0.20703 0.03125-0.39844 0.10547-0.57812 0.21875-0.22656 0.17969-0.34375 0.44531-0.34375 0.79688 0 0.5 0.25 0.84375 0.75 1.0312 0.27344 0.09375 0.625 0.14062 1.0625 0.14062 0.42969 0 0.76562-0.046875 1.0156-0.14062 0.48047-0.17578 0.71875-0.51562 0.71875-1.0156 0-0.34375-0.09375-0.58594-0.28125-0.73438-0.1875-0.15625-0.42969-0.25-0.73438-0.28125v-1.5312c0.46094 0.03125 0.89062 0.19922 1.2969 0.5 0.65625 0.46875 0.98438 1.168 0.98438 2.0938 0 0.91797-0.26953 1.5938-0.8125 2.0312-0.55078 0.4375-1.2656 0.65625-2.1406 0.65625-0.98828 0-1.7578-0.23828-2.3125-0.71875-0.55078-0.47656-0.82812-1.1445-0.82812-2 0-0.71875 0.16797-1.3047 0.5-1.7656 0.32422-0.45703 0.89062-0.72656 1.7031-0.8125zm-2.2188 1.0312z" />
    </symbol>
    <symbol
       overflow="visible"
       id="ao">
      <path
         id="path153"
         d="m-1.0625-3.2812c0-0.4375-0.15625-0.76953-0.46875-1-0.3125-0.23828-0.75391-0.35938-1.3281-0.35938-0.58203 0-1.0234 0.12109-1.3281 0.35938-0.3125 0.23047-0.46875 0.5625-0.46875 1s0.15625 0.77734 0.46875 1.0156c0.30469 0.24219 0.74609 0.35938 1.3281 0.35938 0.57422 0 1.0156-0.11719 1.3281-0.35938 0.3125-0.23828 0.46875-0.57812 0.46875-1.0156zm-1.7969-2.9375c0.84375 0 1.5703 0.24609 2.1719 0.73438 0.59375 0.48047 0.89062 1.2148 0.89062 2.2031 0 0.99219-0.29688 1.7305-0.89062 2.2188-0.60156 0.48047-1.3281 0.71875-2.1719 0.71875-0.83203 0-1.5508-0.23828-2.1562-0.71875-0.61328-0.48828-0.92188-1.2266-0.92188-2.2188 0-0.98828 0.30859-1.7227 0.92188-2.2031 0.60547-0.48828 1.3242-0.73438 2.1562-0.73438zm-3.0469 2.9375z" />
    </symbol>
    <symbol
       overflow="visible"
       id="an">
      <path
         id="path156"
         d="m-5.875-7.125c0-0.25 0.054688-0.49219 0.15625-0.73438 0.09375-0.25 0.26562-0.47656 0.51562-0.6875 0.19922-0.15625 0.44531-0.26562 0.73438-0.32812 0.1875-0.03125 0.46875-0.046875 0.84375-0.046875l3.625 0.015625v1.5312h-3.6562c-0.21875 0-0.39844 0.039062-0.54688 0.10938-0.25781 0.13672-0.39062 0.38281-0.39062 0.73438 0 0.41797 0.17188 0.70312 0.51562 0.85938 0.17969 0.085937 0.39844 0.125 0.65625 0.125h3.4219v1.5156h-3.4219c-0.34375 0-0.59375 0.039062-0.75 0.10938-0.26953 0.125-0.40625 0.37109-0.40625 0.73438 0 0.42969 0.13672 0.71875 0.40625 0.875 0.16797 0.074219 0.40625 0.10938 0.71875 0.10938h3.4531v1.5312h-5.7344v-1.4688h0.84375c-0.30078-0.1875-0.51562-0.35938-0.64062-0.51562-0.22656-0.28906-0.34375-0.67188-0.34375-1.1406 0-0.4375 0.10156-0.78906 0.29688-1.0625 0.17969-0.21875 0.40625-0.38281 0.6875-0.5-0.34375-0.19531-0.59375-0.44141-0.75-0.73438-0.15625-0.30078-0.23438-0.64453-0.23438-1.0312z" />
    </symbol>
    <symbol
       overflow="visible"
       id="am">
      <path
         id="path159"
         d="m-4.6562-2.9688c0 0.34375 0.10938 0.61719 0.32812 0.8125 0.21875 0.1875 0.51172 0.30859 0.875 0.35938v-2.3438c-0.39453 0.03125-0.69141 0.15625-0.89062 0.375-0.20703 0.21094-0.3125 0.47656-0.3125 0.79688zm-1.25 0c0-0.47656 0.09375-0.90625 0.28125-1.2812 0.17969-0.38281 0.46094-0.70312 0.84375-0.95312 0.34375-0.22656 0.74219-0.375 1.1875-0.4375 0.26172-0.039063 0.64062-0.054687 1.1406-0.046875v3.9219c0.57422-0.019531 0.97656-0.19531 1.2031-0.53125 0.14844-0.20703 0.21875-0.45703 0.21875-0.75 0-0.3125-0.085938-0.56641-0.26562-0.76562-0.09375-0.10156-0.22266-0.19141-0.39062-0.26562v-1.5469c0.34375 0.042969 0.6875 0.21875 1.0312 0.53125 0.5625 0.5 0.84375 1.1953 0.84375 2.0781 0 0.73047-0.23438 1.375-0.70312 1.9375-0.46875 0.55469-1.2344 0.82812-2.2969 0.82812-1 0-1.7656-0.25-2.2969-0.75-0.53125-0.50781-0.79688-1.1641-0.79688-1.9688zm0-0.10938z" />
    </symbol>
    <symbol
       overflow="visible"
       id="al">
      <path
         id="path162"
         d="m-5.5156-1.2188v-1.6094h1.5625v1.6094zm3.9375 0v-1.6094h1.5781v1.6094z" />
    </symbol>
    <symbol
       overflow="visible"
       id="ak" />
    <symbol
       overflow="visible"
       id="av">
      <path
         id="path166"
         d="m-5.2969-5.2031c-0.40625 0-0.69141 0.10938-0.85938 0.32812-0.17578 0.21094-0.26562 0.50781-0.26562 0.89062v1.5156h2.2812v-1.5156c0-0.38281-0.085937-0.67969-0.26562-0.89062-0.1875-0.21875-0.48438-0.32812-0.89062-0.32812zm-0.015625-1.6094c0.91797 0 1.5703 0.23438 1.9531 0.70312 0.375 0.46094 0.5625 1.1211 0.5625 1.9844v1.6562h2.7969v1.6094h-7.7656v-3.3906c0-0.78125 0.20312-1.3984 0.60938-1.8594 0.39844-0.46875 1.0117-0.70312 1.8438-0.70312z" />
    </symbol>
    <symbol
       overflow="visible"
       id="au">
      <path
         id="path169"
         d="m-6.4219-2.4531h2.0938v-1.8281c0-0.36328-0.039063-0.64062-0.125-0.82812-0.15625-0.32031-0.44531-0.48438-0.875-0.48438-0.47656 0-0.79688 0.15625-0.95312 0.46875-0.09375 0.17969-0.14062 0.44531-0.14062 0.79688zm-1.3438-2.2188c0.011719-0.53906 0.078125-0.95703 0.20312-1.25 0.11719-0.30078 0.29297-0.55078 0.53125-0.75 0.19922-0.16406 0.41797-0.29688 0.65625-0.39062 0.24219-0.10156 0.51172-0.15625 0.8125-0.15625 0.375 0 0.74219 0.09375 1.0938 0.28125 0.35547 0.1875 0.60547 0.49609 0.75 0.92188 0.14844-0.36328 0.35547-0.61719 0.625-0.76562 0.26172-0.14453 0.66797-0.21875 1.2188-0.21875h0.51562c0.35547 0 0.59375-0.015625 0.71875-0.046875 0.19922-0.039063 0.35156-0.14062 0.45312-0.29688h0.1875v1.7812c-0.17578 0.054688-0.31641 0.089844-0.42188 0.10938-0.21875 0.042969-0.44141 0.070313-0.67188 0.078125h-0.71875c-0.48828 0.011719-0.81641 0.10547-0.98438 0.28125-0.16406 0.16797-0.25 0.49219-0.25 0.96875v1.6719h3.0469v1.5938h-7.7656z" />
    </symbol>
    <symbol
       overflow="visible"
       id="o">
      <path
         id="path172"
         d="m-7.7656-6.4688h1.375v2.3281h6.3906v1.625h-6.3906v2.3438h-1.375z" />
    </symbol>
    <symbol
       overflow="visible"
       id="at">
      <path
         id="path175"
         d="m-6.3906-6.5625v4.1094h1.6406v-3.7812h1.3594v3.7812h2v-4.3125h1.3906v5.8906h-7.7656v-5.6875z" />
    </symbol>
    <symbol
       overflow="visible"
       id="as">
      <path
         id="path178"
         d="m-2.4062-2c0.36719-0.050781 0.63281-0.14453 0.79688-0.28125 0.32422-0.26953 0.48438-0.72266 0.48438-1.3594 0-0.38281-0.039062-0.69531-0.125-0.9375-0.15625-0.44531-0.45703-0.67188-0.90625-0.67188-0.25 0-0.44531 0.10938-0.59375 0.32812-0.13281 0.23047-0.25391 0.58594-0.35938 1.0625l-0.1875 0.82812c-0.17578 0.80469-0.375 1.3594-0.59375 1.6719-0.35156 0.52344-0.91406 0.78125-1.6875 0.78125-0.6875 0-1.2578-0.25-1.7188-0.75-0.46875-0.50781-0.70312-1.2539-0.70312-2.2344 0-0.82031 0.21875-1.5195 0.65625-2.0938 0.42969-0.58203 1.0586-0.88281 1.8906-0.90625v1.5469c-0.46875 0.03125-0.80078 0.24219-1 0.625-0.125 0.25-0.1875 0.5625-0.1875 0.9375 0 0.41797 0.085937 0.75 0.25 1 0.16797 0.25 0.40234 0.375 0.70312 0.375 0.28125 0 0.49219-0.125 0.625-0.375 0.09375-0.15625 0.19922-0.48828 0.3125-1l0.32812-1.3438c0.13672-0.58203 0.32422-1.0234 0.5625-1.3281 0.36719-0.46875 0.89844-0.70312 1.5938-0.70312 0.71094 0 1.2969 0.27734 1.7656 0.82812 0.46875 0.54297 0.70312 1.3086 0.70312 2.2969 0 1.0117-0.22656 1.8086-0.6875 2.3906-0.46875 0.57422-1.1094 0.85938-1.9219 0.85938zm-5.6094-1.5781z" />
    </symbol>
    <symbol
       overflow="visible"
       id="aj">
      <path
         id="path181"
         d="m2.2188-2.6719c0.050781 0.39844 0.16016 0.69531 0.32812 0.89062 0.28906 0.35547 0.78906 0.53125 1.5 0.53125 0.42578 0 0.77344-0.046875 1.0469-0.14062 0.5-0.17578 0.75-0.50781 0.75-1 0-0.28125-0.125-0.5-0.375-0.65625s-0.64062-0.28906-1.1719-0.40625l-0.92188-0.20312c-0.89844-0.20703-1.5156-0.42969-1.8594-0.67188-0.58594-0.39453-0.875-1.0156-0.875-1.8594 0-0.78125 0.28125-1.4258 0.84375-1.9375 0.5625-0.50781 1.3906-0.76562 2.4844-0.76562 0.90625 0 1.6758 0.24609 2.3125 0.73438 0.64453 0.48047 0.98438 1.1797 1.0156 2.0938h-1.7344c-0.03125-0.51953-0.25781-0.89062-0.67188-1.1094-0.28125-0.14453-0.63281-0.21875-1.0469-0.21875-0.46875 0-0.84375 0.09375-1.125 0.28125-0.27344 0.1875-0.40625 0.44922-0.40625 0.78125 0 0.3125 0.13281 0.54688 0.40625 0.70312 0.17578 0.09375 0.55078 0.21094 1.125 0.34375l1.4844 0.35938c0.65625 0.15625 1.1484 0.36719 1.4844 0.625 0.50781 0.40625 0.76562 0.99609 0.76562 1.7656 0 0.79297-0.30469 1.4492-0.90625 1.9688-0.60547 0.52344-1.4531 0.78125-2.5469 0.78125-1.125 0-2.0117-0.25391-2.6562-0.76562-0.64844-0.50781-0.96875-1.2188-0.96875-2.125zm1.75-6.2344z" />
    </symbol>
    <symbol
       overflow="visible"
       id="ad">
      <path
         id="path184"
         d="m2.4375-6.3906v3.8594c0 0.35547 0.046875 0.625 0.14062 0.8125 0.14453 0.32422 0.44141 0.48438 0.89062 0.48438 0.57031 0 0.96094-0.22656 1.1719-0.6875 0.11328-0.25 0.17188-0.57812 0.17188-0.98438v-3.4844h1.6875v6.3906h-1.625v-0.90625c-0.011719 0.023438-0.046875 0.085938-0.10938 0.1875-0.0625 0.09375-0.14062 0.17969-0.23438 0.25-0.26172 0.23047-0.51562 0.38672-0.76562 0.46875-0.24219 0.09375-0.52344 0.14062-0.84375 0.14062-0.94922 0-1.5859-0.33594-1.9062-1.0156-0.1875-0.375-0.28125-0.92578-0.28125-1.6562v-3.8594zm1.1719-0.17188z" />
    </symbol>
    <symbol
       overflow="visible"
       id="n">
      <path
         id="path187"
         d="m3.1406-8.7188c0.10156 0 0.19531 0.007812 0.28125 0.015625 0.082031 0 0.20312 0.007813 0.35938 0.015625v1.3594c-0.09375-0.007813-0.25781-0.015625-0.48438-0.015625-0.21875-0.007812-0.37109 0.039062-0.45312 0.14062-0.085938 0.09375-0.125 0.20312-0.125 0.32812v0.54688h1.0938v1.1719h-1.0938v5.1562h-1.6562v-5.1562h-0.9375v-1.1719h0.90625v-0.40625c0-0.6875 0.11719-1.1602 0.35938-1.4219 0.23828-0.375 0.82031-0.5625 1.75-0.5625z" />
    </symbol>
    <symbol
       overflow="visible"
       id="h">
      <path
         id="path190"
         d="m2.5-7.1562h-1.7031v-1.5312h1.7031zm-1.7031 0.76562h1.7031v6.3906h-1.7031z" />
    </symbol>
    <symbol
       overflow="visible"
       id="m">
      <path
         id="path193"
         d="m4.5938-4.0938c-0.03125-0.23828-0.10938-0.45312-0.23438-0.64062-0.1875-0.25781-0.48047-0.39062-0.875-0.39062-0.5625 0-0.94922 0.27734-1.1562 0.82812-0.11719 0.30469-0.17188 0.69922-0.17188 1.1875 0 0.46875 0.054688 0.85156 0.17188 1.1406 0.19531 0.53125 0.57031 0.79688 1.125 0.79688 0.38281 0 0.66016-0.10156 0.82812-0.3125 0.16406-0.21875 0.26562-0.49219 0.29688-0.82812h1.7031c-0.03125 0.51172-0.21484 0.99219-0.54688 1.4375-0.52344 0.73047-1.2969 1.0938-2.3281 1.0938-1.0234 0-1.7773-0.30078-2.2656-0.90625-0.48047-0.61328-0.71875-1.4062-0.71875-2.375 0-1.1016 0.26562-1.957 0.79688-2.5625 0.53125-0.61328 1.2695-0.92188 2.2188-0.92188 0.80078 0 1.457 0.18359 1.9688 0.54688 0.50781 0.35547 0.8125 0.99219 0.90625 1.9062zm-1.125-2.4688z" />
    </symbol>
    <symbol
       overflow="visible"
       id="l">
      <path
         id="path196"
         d="m3.2969-5.1875c-0.38672 0-0.6875 0.125-0.90625 0.375-0.21094 0.24219-0.33984 0.57031-0.39062 0.98438h2.5938c-0.03125-0.44531-0.16797-0.78516-0.40625-1.0156-0.24219-0.22656-0.53906-0.34375-0.89062-0.34375zm0-1.375c0.53125 0 1.0078 0.10547 1.4375 0.3125 0.42578 0.19922 0.78125 0.51172 1.0625 0.9375 0.25 0.375 0.41016 0.8125 0.48438 1.3125 0.039062 0.29297 0.054688 0.71484 0.046875 1.2656h-4.375c0.03125 0.64844 0.23438 1.0938 0.60938 1.3438 0.22656 0.16797 0.50391 0.25 0.82812 0.25 0.34375 0 0.625-0.097656 0.84375-0.29688 0.11328-0.10156 0.21875-0.25 0.3125-0.4375h1.7031c-0.042969 0.375-0.24219 0.76172-0.59375 1.1562-0.55469 0.625-1.3203 0.9375-2.2969 0.9375-0.8125 0-1.5312-0.25781-2.1562-0.78125-0.61719-0.53125-0.92188-1.3828-0.92188-2.5625 0-1.1016 0.27344-1.9531 0.82812-2.5469 0.5625-0.59375 1.2891-0.89062 2.1875-0.89062zm0.125 0z" />
    </symbol>
    <symbol
       overflow="visible"
       id="k">
      <path
         id="path199"
         d="m4.3125-6.5469c0.66406 0 1.207 0.17969 1.625 0.53125 0.41406 0.34375 0.625 0.91797 0.625 1.7188v4.2969h-1.7031v-3.8906c0-0.33203-0.046875-0.58594-0.14062-0.76562-0.15625-0.33203-0.46875-0.5-0.9375-0.5-0.5625 0-0.94922 0.24219-1.1562 0.71875-0.11719 0.26172-0.17188 0.58984-0.17188 0.98438v3.4531h-1.6562v-6.375h1.6094v0.9375c0.20703-0.33203 0.41016-0.57031 0.60938-0.71875 0.34375-0.25781 0.77344-0.39062 1.2969-0.39062zm-0.60938-0.015625z" />
    </symbol>
    <symbol
       overflow="visible"
       id="ac">
      <path
         id="path202"
         d="m1.0312 1.2188l0.21875 0.015625c0.16406 0.007813 0.32031 0.003906 0.46875-0.015625 0.14453-0.023438 0.26953-0.070312 0.375-0.14062 0.09375-0.0625 0.17969-0.19922 0.26562-0.40625 0.082031-0.21094 0.11719-0.33984 0.10938-0.39062l-2.3438-6.6719h1.8594l1.3906 4.7188 1.3125-4.7188h1.7812l-2.1875 6.2812c-0.42969 1.2188-0.76562 1.9688-1.0156 2.25-0.24219 0.28906-0.73047 0.4375-1.4688 0.4375h-0.35938c-0.085938 0-0.21875-0.007813-0.40625-0.015625zm2.2656-7.7812z" />
    </symbol>
    <symbol
       overflow="visible"
       id="ab" />
    <symbol
       overflow="visible"
       id="ai">
      <path
         id="path206"
         d="m4.25-6.5469c0.03125 0 0.054688 0.007813 0.078125 0.015625h0.14062v1.7188c-0.10547-0.007812-0.19922-0.015625-0.28125-0.015625-0.085938-0.007813-0.15234-0.015625-0.20312-0.015625-0.66797 0-1.1172 0.21875-1.3438 0.65625-0.13672 0.24219-0.20312 0.62109-0.20312 1.1406v3.0469h-1.6719v-6.3906h1.5938v1.1094c0.25781-0.41406 0.48438-0.70312 0.67188-0.85938 0.3125-0.26953 0.71875-0.40625 1.2188-0.40625z" />
    </symbol>
    <symbol
       overflow="visible"
       id="ah">
      <path
         id="path209"
         d="m2.4844 0h-1.6719v-8.6406h1.6719z" />
    </symbol>
    <symbol
       overflow="visible"
       id="ag">
      <path
         id="path212"
         d="m4.2969-3.1094c-0.10547 0.074219-0.21094 0.13281-0.3125 0.17188-0.10547 0.03125-0.25 0.070312-0.4375 0.10938l-0.375 0.0625c-0.35547 0.0625-0.60938 0.14062-0.76562 0.23438-0.26172 0.15625-0.39062 0.39062-0.39062 0.70312 0 0.29297 0.078125 0.5 0.23438 0.625 0.16406 0.125 0.36328 0.1875 0.59375 0.1875 0.35156 0 0.67969-0.10156 0.98438-0.3125 0.30078-0.20703 0.45703-0.59375 0.46875-1.1562zm-1.0156-0.78125c0.3125-0.03125 0.53516-0.078125 0.67188-0.14062 0.23828-0.10156 0.35938-0.25781 0.35938-0.46875 0-0.26953-0.09375-0.45312-0.28125-0.54688-0.17969-0.10156-0.44531-0.15625-0.79688-0.15625-0.39844 0-0.67969 0.10156-0.84375 0.29688-0.11719 0.14844-0.19531 0.34375-0.23438 0.59375h-1.6094c0.039063-0.5625 0.19531-1.0234 0.46875-1.3906 0.44531-0.5625 1.207-0.84375 2.2812-0.84375 0.69531 0 1.3164 0.14062 1.8594 0.42188 0.53906 0.28125 0.8125 0.80859 0.8125 1.5781v2.9219c0 0.21094 0.003906 0.45312 0.015625 0.73438 0.007813 0.21875 0.039063 0.37109 0.09375 0.45312 0.0625 0.074219 0.14453 0.13672 0.25 0.1875v0.25h-1.8125c-0.054687-0.125-0.089844-0.24219-0.10938-0.35938-0.023438-0.11328-0.039062-0.24219-0.046875-0.39062-0.23047 0.25-0.49609 0.46484-0.79688 0.64062-0.35547 0.20703-0.76172 0.3125-1.2188 0.3125-0.57422 0-1.0547-0.16797-1.4375-0.5-0.375-0.33203-0.5625-0.80078-0.5625-1.4062 0-0.78125 0.30078-1.3477 0.90625-1.7031 0.33203-0.1875 0.82031-0.32031 1.4688-0.40625zm0.09375-2.6719z" />
    </symbol>
    <symbol
       overflow="visible"
       id="af">
      <path
         id="path215"
         d="m0.125-5.1406v-1.1875h0.89062v-1.7812h1.6562v1.7812h1.0312v1.1875h-1.0312v3.375c0 0.26172 0.03125 0.42969 0.09375 0.5 0.0625 0.0625 0.26562 0.09375 0.60938 0.09375h0.15625c0.0625-0.007813 0.11719-0.015625 0.17188-0.015625v1.25l-0.79688 0.03125c-0.78125 0.019531-1.3203-0.11719-1.6094-0.42188-0.1875-0.1875-0.28125-0.47656-0.28125-0.875v-3.9375z" />
    </symbol>
    <symbol
       overflow="visible"
       id="ae">
      <path
         id="path218"
         d="m3.6406-1.1719c0.48828 0 0.86328-0.17188 1.125-0.51562 0.25781-0.35156 0.39062-0.85156 0.39062-1.5 0-0.63281-0.13281-1.125-0.39062-1.4688-0.26172-0.35156-0.63672-0.53125-1.125-0.53125-0.49219 0-0.86719 0.17969-1.125 0.53125-0.26172 0.34375-0.39062 0.83594-0.39062 1.4688 0 0.64844 0.12891 1.1484 0.39062 1.5 0.25781 0.34375 0.63281 0.51562 1.125 0.51562zm3.2812-2.0156c0 0.9375-0.27344 1.7422-0.8125 2.4062-0.54297 0.66797-1.3594 1-2.4531 1-1.1055 0-1.9297-0.33203-2.4688-1-0.53125-0.66406-0.79688-1.4688-0.79688-2.4062 0-0.91406 0.26562-1.7109 0.79688-2.3906 0.53906-0.67578 1.3633-1.0156 2.4688-1.0156 1.0938 0 1.9102 0.33984 2.4531 1.0156 0.53906 0.67969 0.8125 1.4766 0.8125 2.3906zm-3.2656-3.375z" />
    </symbol>
    <clipPath
       id="by">
      <path
         id="path221"
         d="m234 36h2v353.8h-2z" />
    </clipPath>
    <clipPath
       id="bx">
      <path
         id="path224"
         d="m44.641 212h381.16v1h-381.16z" />
    </clipPath>
    <clipPath
       id="bw">
      <path
         id="path227"
         d="m44.641 36h381.16v353.8h-381.16z" />
    </clipPath>
  </defs>
  <rect
     id="rect229"
     fill="#fff"
     height="432"
     width="432" />
  <path
     id="path231"
     stroke-width=".75"
     stroke-miterlimit="10"
     stroke-linejoin="round"
     stroke-linecap="round"
     stroke="#000"
     fill="none"
     d="m44.641 388.8h380.16v-352.8h-380.16v352.8" />
  <path
     id="path233"
     stroke-width=".75"
     stroke-miterlimit="10"
     stroke-linejoin="round"
     stroke-linecap="round"
     stroke="#000"
     fill="none"
     d="m58.719 388.8h352" />
  <path
     id="path235"
     stroke-width=".75"
     stroke-miterlimit="10"
     stroke-linejoin="round"
     stroke-linecap="round"
     stroke="#000"
     fill="none"
     d="m58.719 388.8v5.293" />
  <path
     id="path237"
     stroke-width=".75"
     stroke-miterlimit="10"
     stroke-linejoin="round"
     stroke-linecap="round"
     stroke="#000"
     fill="none"
     d="m93.922 388.8v5.293" />
  <path
     id="path239"
     stroke-width=".75"
     stroke-miterlimit="10"
     stroke-linejoin="round"
     stroke-linecap="round"
     stroke="#000"
     fill="none"
     d="m129.12 388.8v5.293" />
  <path
     id="path241"
     stroke-width=".75"
     stroke-miterlimit="10"
     stroke-linejoin="round"
     stroke-linecap="round"
     stroke="#000"
     fill="none"
     d="m164.32 388.8v5.293" />
  <path
     id="path243"
     stroke-width=".75"
     stroke-miterlimit="10"
     stroke-linejoin="round"
     stroke-linecap="round"
     stroke="#000"
     fill="none"
     d="m199.52 388.8v5.293" />
  <path
     id="path245"
     stroke-width=".75"
     stroke-miterlimit="10"
     stroke-linejoin="round"
     stroke-linecap="round"
     stroke="#000"
     fill="none"
     d="m234.72 388.8v5.293" />
  <path
     id="path247"
     stroke-width=".75"
     stroke-miterlimit="10"
     stroke-linejoin="round"
     stroke-linecap="round"
     stroke="#000"
     fill="none"
     d="m269.92 388.8v5.293" />
  <path
     id="path249"
     stroke-width=".75"
     stroke-miterlimit="10"
     stroke-linejoin="round"
     stroke-linecap="round"
     stroke="#000"
     fill="none"
     d="m305.12 388.8v5.293" />
  <path
     id="path251"
     stroke-width=".75"
     stroke-miterlimit="10"
     stroke-linejoin="round"
     stroke-linecap="round"
     stroke="#000"
     fill="none"
     d="m340.32 388.8v5.293" />
  <path
     id="path253"
     stroke-width=".75"
     stroke-miterlimit="10"
     stroke-linejoin="round"
     stroke-linecap="round"
     stroke="#000"
     fill="none"
     d="m375.52 388.8v5.293" />
  <path
     id="path255"
     stroke-width=".75"
     stroke-miterlimit="10"
     stroke-linejoin="round"
     stroke-linecap="round"
     stroke="#000"
     fill="none"
     d="m410.72 388.8v5.293" />
  <g
     id="g257">
    <use
       id="use259"
       xlink:href="#a"
       y="407.519531"
       x="52.050781" />
    <use
       id="use261"
       xlink:href="#b"
       y="407.519531"
       x="57.386368" />
    <use
       id="use263"
       xlink:href="#a"
       y="407.519531"
       x="60.051819" />
  </g>
  <g
     id="g265">
    <use
       id="use267"
       xlink:href="#a"
       y="407.519531"
       x="87.253906" />
    <use
       id="use269"
       xlink:href="#b"
       y="407.519531"
       x="92.589493" />
    <use
       id="use271"
       xlink:href="#f"
       y="407.519531"
       x="95.254944" />
  </g>
  <g
     id="g273">
    <use
       id="use275"
       xlink:href="#a"
       y="407.519531"
       x="122.453125" />
    <use
       id="use277"
       xlink:href="#b"
       y="407.519531"
       x="127.788712" />
    <use
       id="use279"
       xlink:href="#w"
       y="407.519531"
       x="130.454163" />
  </g>
  <g
     id="g281">
    <use
       id="use283"
       xlink:href="#a"
       y="407.519531"
       x="157.652344" />
    <use
       id="use285"
       xlink:href="#b"
       y="407.519531"
       x="162.98793" />
    <use
       id="use287"
       xlink:href="#v"
       y="407.519531"
       x="165.653381" />
  </g>
  <g
     id="g289">
    <use
       id="use291"
       xlink:href="#a"
       y="407.519531"
       x="192.851562" />
    <use
       id="use293"
       xlink:href="#b"
       y="407.519531"
       x="198.187149" />
    <use
       id="use295"
       xlink:href="#u"
       y="407.519531"
       x="200.8526" />
  </g>
  <g
     id="g297">
    <use
       id="use299"
       xlink:href="#a"
       y="407.519531"
       x="228.050781" />
    <use
       id="use301"
       xlink:href="#b"
       y="407.519531"
       x="233.386368" />
    <use
       id="use303"
       xlink:href="#i"
       y="407.519531"
       x="236.051819" />
  </g>
  <g
     id="g305">
    <use
       id="use307"
       xlink:href="#a"
       y="407.519531"
       x="263.253906" />
    <use
       id="use309"
       xlink:href="#b"
       y="407.519531"
       x="268.589493" />
    <use
       id="use311"
       xlink:href="#t"
       y="407.519531"
       x="271.254944" />
  </g>
  <g
     id="g313">
    <use
       id="use315"
       xlink:href="#a"
       y="407.519531"
       x="298.453125" />
    <use
       id="use317"
       xlink:href="#b"
       y="407.519531"
       x="303.788712" />
    <use
       id="use319"
       xlink:href="#e"
       y="407.519531"
       x="306.454163" />
  </g>
  <g
     id="g321">
    <use
       id="use323"
       xlink:href="#a"
       y="407.519531"
       x="333.652344" />
    <use
       id="use325"
       xlink:href="#b"
       y="407.519531"
       x="338.98793" />
    <use
       id="use327"
       xlink:href="#g"
       y="407.519531"
       x="341.653381" />
  </g>
  <g
     id="g329">
    <use
       id="use331"
       xlink:href="#a"
       y="407.519531"
       x="368.851562" />
    <use
       id="use333"
       xlink:href="#b"
       y="407.519531"
       x="374.187149" />
    <use
       id="use335"
       xlink:href="#d"
       y="407.519531"
       x="376.8526" />
  </g>
  <g
     id="g337">
    <use
       id="use339"
       xlink:href="#f"
       y="407.519531"
       x="404.050781" />
    <use
       id="use341"
       xlink:href="#b"
       y="407.519531"
       x="409.386368" />
    <use
       id="use343"
       xlink:href="#a"
       y="407.519531"
       x="412.051819" />
  </g>
  <path
     id="path345"
     stroke-width=".75"
     stroke-miterlimit="10"
     stroke-linejoin="round"
     stroke-linecap="round"
     stroke="#000"
     fill="none"
     d="m44.641 375.73v-326.67" />
  <path
     id="path347"
     stroke-width=".75"
     stroke-miterlimit="10"
     stroke-linejoin="round"
     stroke-linecap="round"
     stroke="#000"
     fill="none"
     d="m44.641 375.73h-5.293" />
  <path
     id="path349"
     stroke-width=".75"
     stroke-miterlimit="10"
     stroke-linejoin="round"
     stroke-linecap="round"
     stroke="#000"
     fill="none"
     d="m44.641 343.07h-5.293" />
  <path
     id="path351"
     stroke-width=".75"
     stroke-miterlimit="10"
     stroke-linejoin="round"
     stroke-linecap="round"
     stroke="#000"
     fill="none"
     d="m44.641 310.4h-5.293" />
  <path
     id="path353"
     stroke-width=".75"
     stroke-miterlimit="10"
     stroke-linejoin="round"
     stroke-linecap="round"
     stroke="#000"
     fill="none"
     d="m44.641 277.73h-5.293" />
  <path
     id="path355"
     stroke-width=".75"
     stroke-miterlimit="10"
     stroke-linejoin="round"
     stroke-linecap="round"
     stroke="#000"
     fill="none"
     d="m44.641 245.07h-5.293" />
  <path
     id="path357"
     stroke-width=".75"
     stroke-miterlimit="10"
     stroke-linejoin="round"
     stroke-linecap="round"
     stroke="#000"
     fill="none"
     d="m44.641 212.4h-5.293" />
  <path
     id="path359"
     stroke-width=".75"
     stroke-miterlimit="10"
     stroke-linejoin="round"
     stroke-linecap="round"
     stroke="#000"
     fill="none"
     d="m44.641 179.73h-5.293" />
  <path
     id="path361"
     stroke-width=".75"
     stroke-miterlimit="10"
     stroke-linejoin="round"
     stroke-linecap="round"
     stroke="#000"
     fill="none"
     d="m44.641 147.07h-5.293" />
  <path
     id="path363"
     stroke-width=".75"
     stroke-miterlimit="10"
     stroke-linejoin="round"
     stroke-linecap="round"
     stroke="#000"
     fill="none"
     d="m44.641 114.4h-5.293" />
  <path
     id="path365"
     stroke-width=".75"
     stroke-miterlimit="10"
     stroke-linejoin="round"
     stroke-linecap="round"
     stroke="#000"
     fill="none"
     d="m44.641 81.734h-5.293" />
  <path
     id="path367"
     stroke-width=".75"
     stroke-miterlimit="10"
     stroke-linejoin="round"
     stroke-linecap="round"
     stroke="#000"
     fill="none"
     d="m44.641 49.066h-5.293" />
  <g
     id="g369">
    <use
       id="use371"
       xlink:href="#a"
       y="379.171875"
       x="22.769531" />
    <use
       id="use373"
       xlink:href="#b"
       y="379.171875"
       x="28.105118" />
    <use
       id="use375"
       xlink:href="#a"
       y="379.171875"
       x="30.770569" />
  </g>
  <g
     id="g377">
    <use
       id="use379"
       xlink:href="#a"
       y="346.503906"
       x="22.769531" />
    <use
       id="use381"
       xlink:href="#b"
       y="346.503906"
       x="28.105118" />
    <use
       id="use383"
       xlink:href="#f"
       y="346.503906"
       x="30.770569" />
  </g>
  <g
     id="g385">
    <use
       id="use387"
       xlink:href="#a"
       y="313.835938"
       x="22.769531" />
    <use
       id="use389"
       xlink:href="#b"
       y="313.835938"
       x="28.105118" />
    <use
       id="use391"
       xlink:href="#w"
       y="313.835938"
       x="30.770569" />
  </g>
  <g
     id="g393">
    <use
       id="use395"
       xlink:href="#a"
       y="281.171875"
       x="22.769531" />
    <use
       id="use397"
       xlink:href="#b"
       y="281.171875"
       x="28.105118" />
    <use
       id="use399"
       xlink:href="#v"
       y="281.171875"
       x="30.770569" />
  </g>
  <g
     id="g401">
    <use
       id="use403"
       xlink:href="#a"
       y="248.503906"
       x="22.769531" />
    <use
       id="use405"
       xlink:href="#b"
       y="248.503906"
       x="28.105118" />
    <use
       id="use407"
       xlink:href="#u"
       y="248.503906"
       x="30.770569" />
  </g>
  <g
     id="g409">
    <use
       id="use411"
       xlink:href="#a"
       y="215.835938"
       x="22.769531" />
    <use
       id="use413"
       xlink:href="#b"
       y="215.835938"
       x="28.105118" />
    <use
       id="use415"
       xlink:href="#i"
       y="215.835938"
       x="30.770569" />
  </g>
  <g
     id="g417">
    <use
       id="use419"
       xlink:href="#a"
       y="183.171875"
       x="22.769531" />
    <use
       id="use421"
       xlink:href="#b"
       y="183.171875"
       x="28.105118" />
    <use
       id="use423"
       xlink:href="#t"
       y="183.171875"
       x="30.770569" />
  </g>
  <g
     id="g425">
    <use
       id="use427"
       xlink:href="#a"
       y="150.503906"
       x="22.769531" />
    <use
       id="use429"
       xlink:href="#b"
       y="150.503906"
       x="28.105118" />
    <use
       id="use431"
       xlink:href="#e"
       y="150.503906"
       x="30.770569" />
  </g>
  <g
     id="g433">
    <use
       id="use435"
       xlink:href="#a"
       y="117.835938"
       x="22.769531" />
    <use
       id="use437"
       xlink:href="#b"
       y="117.835938"
       x="28.105118" />
    <use
       id="use439"
       xlink:href="#g"
       y="117.835938"
       x="30.770569" />
  </g>
  <g
     id="g441">
    <use
       id="use443"
       xlink:href="#a"
       y="85.171875"
       x="22.769531" />
    <use
       id="use445"
       xlink:href="#b"
       y="85.171875"
       x="28.105118" />
    <use
       id="use447"
       xlink:href="#d"
       y="85.171875"
       x="30.770569" />
  </g>
  <g
     id="g449">
    <use
       id="use451"
       xlink:href="#f"
       y="52.503906"
       x="22.769531" />
    <use
       id="use453"
       xlink:href="#b"
       y="52.503906"
       x="28.105118" />
    <use
       id="use455"
       xlink:href="#a"
       y="52.503906"
       x="30.770569" />
  </g>
  <g
     id="g457">
    <use
       id="use459"
       xlink:href="#s"
       y="425.519531"
       x="175.9375" />
    <use
       id="use461"
       xlink:href="#bb"
       y="425.519531"
       x="183.734665" />
    <use
       id="use463"
       xlink:href="#ba"
       y="425.519531"
       x="189.73938" />
    <use
       id="use465"
       xlink:href="#az"
       y="425.519531"
       x="196.334549" />
    <use
       id="use467"
       xlink:href="#ay"
       y="425.519531"
       x="202.339264" />
    <use
       id="use469"
       xlink:href="#ax"
       y="425.519531"
       x="205.934708" />
    <use
       id="use471"
       xlink:href="#r"
       y="425.519531"
       x="208.934433" />
    <use
       id="use473"
       xlink:href="#aw"
       y="425.519531"
       x="215.529602" />
    <use
       id="use475"
       xlink:href="#q"
       y="425.519531"
       x="222.124771" />
    <use
       id="use477"
       xlink:href="#r"
       y="425.519531"
       x="225.124496" />
    <use
       id="use479"
       xlink:href="#bj"
       y="425.519531"
       x="231.719666" />
    <use
       id="use481"
       xlink:href="#q"
       y="425.519531"
       x="235.315109" />
    <use
       id="use483"
       xlink:href="#s"
       y="425.519531"
       x="238.314835" />
    <use
       id="use485"
       xlink:href="#bi"
       y="425.519531"
       x="246.112" />
    <use
       id="use487"
       xlink:href="#bh"
       y="425.519531"
       x="253.909164" />
    <use
       id="use489"
       xlink:href="#bg"
       y="425.519531"
       x="260.504333" />
    <use
       id="use491"
       xlink:href="#bf"
       y="425.519531"
       x="267.705765" />
    <use
       id="use493"
       xlink:href="#be"
       y="425.519531"
       x="275.50293" />
    <use
       id="use495"
       xlink:href="#bd"
       y="425.519531"
       x="278.502655" />
    <use
       id="use497"
       xlink:href="#bc"
       y="425.519531"
       x="286.29982" />
  </g>
  <g
     id="g499">
    <use
       id="use501"
       xlink:href="#p"
       y="264.585938"
       x="12.960938" />
    <use
       id="use503"
       xlink:href="#ar"
       y="256.187775"
       x="12.960938" />
    <use
       id="use505"
       xlink:href="#aq"
       y="249.592606"
       x="12.960938" />
    <use
       id="use507"
       xlink:href="#ap"
       y="245.997162"
       x="12.960938" />
    <use
       id="use509"
       xlink:href="#ao"
       y="239.992447"
       x="12.960938" />
    <use
       id="use511"
       xlink:href="#an"
       y="233.397278"
       x="12.960938" />
    <use
       id="use513"
       xlink:href="#am"
       y="223.797119"
       x="12.960938" />
    <use
       id="use515"
       xlink:href="#al"
       y="217.792404"
       x="12.960938" />
    <use
       id="use517"
       xlink:href="#ak"
       y="214.19696"
       x="12.960938" />
    <use
       id="use519"
       xlink:href="#av"
       y="211.197235"
       x="12.960938" />
    <use
       id="use521"
       xlink:href="#au"
       y="203.995804"
       x="12.960938" />
    <use
       id="use523"
       xlink:href="#p"
       y="196.198639"
       x="12.960938" />
    <use
       id="use525"
       xlink:href="#o"
       y="187.800476"
       x="12.960938" />
    <use
       id="use527"
       xlink:href="#at"
       y="181.205307"
       x="12.960938" />
    <use
       id="use529"
       xlink:href="#as"
       y="174.003876"
       x="12.960938" />
    <use
       id="use531"
       xlink:href="#o"
       y="166.802444"
       x="12.960938" />
  </g>
  <g
     id="g533">
    <use
       id="use535"
       xlink:href="#aj"
       y="14.398438"
       x="179.371094" />
    <use
       id="use537"
       xlink:href="#ad"
       y="14.398438"
       x="187.375" />
    <use
       id="use539"
       xlink:href="#n"
       y="14.398438"
       x="194.705078" />
    <use
       id="use541"
       xlink:href="#n"
       y="14.398438"
       x="198.701172" />
    <use
       id="use543"
       xlink:href="#h"
       y="14.398438"
       x="202.697266" />
    <use
       id="use545"
       xlink:href="#m"
       y="14.398438"
       x="206.03125" />
    <use
       id="use547"
       xlink:href="#h"
       y="14.398438"
       x="212.705078" />
    <use
       id="use549"
       xlink:href="#l"
       y="14.398438"
       x="216.039062" />
    <use
       id="use551"
       xlink:href="#k"
       y="14.398438"
       x="222.712891" />
    <use
       id="use553"
       xlink:href="#m"
       y="14.398438"
       x="230.042969" />
    <use
       id="use555"
       xlink:href="#ac"
       y="14.398438"
       x="236.716797" />
    <use
       id="use557"
       xlink:href="#ab"
       y="14.398438"
       x="243.390625" />
    <use
       id="use559"
       xlink:href="#ai"
       y="14.398438"
       x="246.724609" />
    <use
       id="use561"
       xlink:href="#l"
       y="14.398438"
       x="251.394531" />
    <use
       id="use563"
       xlink:href="#ah"
       y="14.398438"
       x="258.068359" />
    <use
       id="use565"
       xlink:href="#ag"
       y="14.398438"
       x="261.402344" />
    <use
       id="use567"
       xlink:href="#af"
       y="14.398438"
       x="268.076172" />
    <use
       id="use569"
       xlink:href="#h"
       y="14.398438"
       x="272.072266" />
    <use
       id="use571"
       xlink:href="#ae"
       y="14.398438"
       x="275.40625" />
    <use
       id="use573"
       xlink:href="#k"
       y="14.398438"
       x="282.736328" />
  </g>
  <g
     id="g575"
     clip-path="url(#by)">
    <path
       id="path577"
       stroke-width=".75"
       stroke-miterlimit="10"
       stroke-linejoin="round"
       stroke-linecap="round"
       stroke-dasharray="3,3"
       stroke="#bebebe"
       fill="none"
       d="m234.72 388.8v-352.8" />
  </g>
  <g
     id="g579"
     clip-path="url(#bx)">
    <path
       id="path581"
       stroke-width=".75"
       stroke-miterlimit="10"
       stroke-linejoin="round"
       stroke-linecap="round"
       stroke-dasharray="3,3"
       stroke="#bebebe"
       fill="none"
       d="m44.641 212.4h380.16" />
  </g>
  <g
     id="g583"
     clip-path="url(#bw)">
    <path
       id="path585"
       stroke-width=".75"
       stroke-miterlimit="10"
       stroke-linejoin="round"
       stroke-linecap="round"
       stroke="#bebebe"
       fill="none"
       d="m44.641 388.8l380.16-352.8" />
  </g>
  <path
     id="path587"
     stroke-width=".75"
     stroke-miterlimit="10"
     stroke-linejoin="round"
     stroke-linecap="round"
     stroke="#000"
     fill="#707070"
     d="m141.84 222.2c0 2.8789-4.3203 2.8789-4.3203 0 0-2.8789 4.3203-2.8789 4.3203 0" />
  <path
     id="path589"
     stroke-width=".75"
     stroke-miterlimit="10"
     stroke-linejoin="round"
     stroke-linecap="round"
     stroke="#000"
     fill="#707070"
     d="m103.12 147.07c0 2.8789-4.3203 2.8789-4.3203 0s4.3203-2.8789 4.3203 0" />
  <path
     id="path591"
     stroke-width=".75"
     stroke-miterlimit="10"
     stroke-linejoin="round"
     stroke-linecap="round"
     stroke="#000"
     fill="#707070"
     d="m92.559 365.93c0 2.8789-4.3203 2.8789-4.3203 0s4.3203-2.8789 4.3203 0" />
  <path
     id="path593"
     stroke-width=".75"
     stroke-miterlimit="10"
     stroke-linejoin="round"
     stroke-linecap="round"
     stroke="#000"
     fill="#707070"
     d="m131.28 365.93c0 2.8789-4.3203 2.8789-4.3203 0s4.3203-2.8789 4.3203 0" />
  <path
     id="path595"
     stroke-width=".75"
     stroke-miterlimit="10"
     stroke-linejoin="round"
     stroke-linecap="round"
     stroke="#000"
     fill="#707070"
     d="m201.68 365.93c0 2.8789-4.3203 2.8789-4.3203 0s4.3203-2.8789 4.3203 0" />
  <path
     id="path597"
     stroke-width=".75"
     stroke-miterlimit="10"
     stroke-linejoin="round"
     stroke-linecap="round"
     stroke="#000"
     fill="#707070"
     d="m180.56 287.54c0 2.8789-4.3203 2.8789-4.3203 0 0-2.8828 4.3203-2.8828 4.3203 0" />
  <path
     id="path599"
     stroke-width=".75"
     stroke-miterlimit="10"
     stroke-linejoin="round"
     stroke-linecap="round"
     stroke="#000"
     fill="#707070"
     d="m74.961 326.73c0 2.8789-4.3203 2.8789-4.3203 0 0-2.8828 4.3203-2.8828 4.3203 0" />
  <path
     id="path601"
     stroke-width=".75"
     stroke-miterlimit="10"
     stroke-linejoin="round"
     stroke-linecap="round"
     stroke="#000"
     fill="#707070"
     d="m106.64 232c0 2.8789-4.3203 2.8789-4.3203 0s4.3203-2.8789 4.3203 0" />
  <path
     id="path603"
     stroke-width=".75"
     stroke-miterlimit="10"
     stroke-linejoin="round"
     stroke-linecap="round"
     stroke="#000"
     fill="#707070"
     d="m166.48 222.2c0 2.8789-4.3203 2.8789-4.3203 0 0-2.8789 4.3203-2.8789 4.3203 0" />
  <path
     id="path605"
     stroke-width=".75"
     stroke-miterlimit="10"
     stroke-linejoin="round"
     stroke-linecap="round"
     stroke="#000"
     fill="#707070"
     d="m120.72 258.13c0 2.8789-4.3203 2.8789-4.3203 0 0-2.8789 4.3203-2.8789 4.3203 0" />
  <path
     id="path607"
     stroke-width=".75"
     stroke-miterlimit="10"
     stroke-linejoin="round"
     stroke-linecap="round"
     stroke="#000"
     fill="#707070"
     d="m222.8 117.67c0 2.8789-4.3203 2.8789-4.3203 0 0-2.8828 4.3203-2.8828 4.3203 0" />
  <path
     id="path609"
     stroke-width=".75"
     stroke-miterlimit="10"
     stroke-linejoin="round"
     stroke-linecap="round"
     stroke="#000"
     fill="#707070"
     d="m85.52 267.93c0 2.8789-4.3203 2.8789-4.3203 0s4.3203-2.8789 4.3203 0" />
  <path
     id="path611"
     stroke-width=".75"
     stroke-miterlimit="10"
     stroke-linejoin="round"
     stroke-linecap="round"
     stroke="#000"
     fill="#707070"
     d="m110.16 369.2c0 2.8789-4.3203 2.8789-4.3203 0 0-2.8789 4.3203-2.8789 4.3203 0" />
  <path
     id="path613"
     stroke-width=".75"
     stroke-miterlimit="10"
     stroke-linejoin="round"
     stroke-linecap="round"
     stroke="#000"
     fill="#707070"
     d="m148.88 258.13c0 2.8789-4.3203 2.8789-4.3203 0 0-2.8789 4.3203-2.8789 4.3203 0" />
  <path
     id="path615"
     stroke-width=".75"
     stroke-miterlimit="10"
     stroke-linejoin="round"
     stroke-linecap="round"
     stroke="#000"
     fill="#707070"
     d="m310.8 98.066c0 2.8789-4.3203 2.8789-4.3203 0s4.3203-2.8789 4.3203 0" />
  <path
     id="path617"
     stroke-width=".75"
     stroke-miterlimit="10"
     stroke-linejoin="round"
     stroke-linecap="round"
     stroke="#000"
     fill="#707070"
     d="m324.88 98.066c0 2.8789-4.3203 2.8789-4.3203 0s4.3203-2.8789 4.3203 0" />
  <path
     id="path619"
     stroke-width=".75"
     stroke-miterlimit="10"
     stroke-linejoin="round"
     stroke-linecap="round"
     stroke="#000"
     fill="#707070"
     d="m106.64 189.54c0 2.8789-4.3203 2.8789-4.3203 0 0-2.8828 4.3203-2.8828 4.3203 0" />
  <path
     id="path621"
     stroke-width=".75"
     stroke-miterlimit="10"
     stroke-linejoin="round"
     stroke-linecap="round"
     stroke="#000"
     fill="#707070"
     d="m78.48 346.33c0 2.8828-4.3203 2.8828-4.3203 0 0-2.8789 4.3203-2.8789 4.3203 0" />
  <path
     id="path623"
     stroke-width=".75"
     stroke-miterlimit="10"
     stroke-linejoin="round"
     stroke-linecap="round"
     stroke="#000"
     fill="#707070"
     d="m201.68 137.27c0 2.8828-4.3203 2.8828-4.3203 0 0-2.8789 4.3203-2.8789 4.3203 0" />
  <path
     id="path625"
     stroke-width=".75"
     stroke-miterlimit="10"
     stroke-linejoin="round"
     stroke-linecap="round"
     stroke="#000"
     fill="#707070"
     d="m233.36 192.8c0 2.8789-4.3203 2.8789-4.3203 0 0-2.8789 4.3203-2.8789 4.3203 0" />
  <path
     id="path627"
     stroke-width=".75"
     stroke-miterlimit="10"
     stroke-linejoin="round"
     stroke-linecap="round"
     stroke="#000"
     fill="#707070"
     d="m194.64 183c0 2.8789-4.3203 2.8789-4.3203 0s4.3203-2.8789 4.3203 0" />
  <path
     id="path629"
     stroke-width=".75"
     stroke-miterlimit="10"
     stroke-linejoin="round"
     stroke-linecap="round"
     stroke="#000"
     fill="#707070"
     d="m279.12 71.934c0 2.8789-4.3203 2.8789-4.3203 0s4.3203-2.8789 4.3203 0" />
  <path
     id="path631"
     stroke-width=".75"
     stroke-miterlimit="10"
     stroke-linejoin="round"
     stroke-linecap="round"
     stroke="#000"
     fill="#707070"
     d="m110.16 192.8c0 2.8789-4.3203 2.8789-4.3203 0 0-2.8789 4.3203-2.8789 4.3203 0" />
  <path
     id="path633"
     stroke-width=".75"
     stroke-miterlimit="10"
     stroke-linejoin="round"
     stroke-linecap="round"
     stroke="#000"
     fill="#707070"
     d="m148.88 85c0 2.8789-4.3203 2.8789-4.3203 0s4.3203-2.8789 4.3203 0" />
  <path
     id="path635"
     stroke-width=".75"
     stroke-miterlimit="10"
     stroke-linejoin="round"
     stroke-linecap="round"
     stroke="#000"
     fill="#707070"
     d="m103.12 258.13c0 2.8789-4.3203 2.8789-4.3203 0 0-2.8789 4.3203-2.8789 4.3203 0" />
  <path
     id="path637"
     stroke-width=".75"
     stroke-miterlimit="10"
     stroke-linejoin="round"
     stroke-linecap="round"
     stroke="#000"
     fill="#707070"
     d="m391.76 85c0 2.8789-4.3203 2.8789-4.3203 0s4.3203-2.8789 4.3203 0" />
  <path
     id="path639"
     stroke-width=".75"
     stroke-miterlimit="10"
     stroke-linejoin="round"
     stroke-linecap="round"
     stroke="#000"
     fill="#707070"
     d="m293.2 205.87c0 2.8789-4.3203 2.8789-4.3203 0 0-2.8789 4.3203-2.8789 4.3203 0" />
  <path
     id="path641"
     stroke-width=".75"
     stroke-miterlimit="10"
     stroke-linejoin="round"
     stroke-linecap="round"
     stroke="#000"
     fill="#707070"
     d="m261.52 98.066c0 2.8789-4.3203 2.8789-4.3203 0s4.3203-2.8789 4.3203 0" />
  <path
     id="path643"
     stroke-width=".75"
     stroke-miterlimit="10"
     stroke-linejoin="round"
     stroke-linecap="round"
     stroke="#000"
     fill="#707070"
     d="m268.56 55.602c0 2.8789-4.3203 2.8789-4.3203 0 0-2.8828 4.3203-2.8828 4.3203 0" />
  <g
     id="g645">
    <use
       id="use647"
       xlink:href="#aa"
       y="33.121094"
       x="58.71875" />
    <use
       id="use649"
       xlink:href="#z"
       y="33.121094"
       x="61.384201" />
    <use
       id="use651"
       xlink:href="#bv"
       y="33.121094"
       x="66.719788" />
    <use
       id="use653"
       xlink:href="#bu"
       y="33.121094"
       x="71.516663" />
    <use
       id="use655"
       xlink:href="#bt"
       y="33.121094"
       x="73.648087" />
    <use
       id="use657"
       xlink:href="#bs"
       y="33.121094"
       x="78.983673" />
    <use
       id="use659"
       xlink:href="#br"
       y="33.121094"
       x="83.780548" />
    <use
       id="use661"
       xlink:href="#y"
       y="33.121094"
       x="85.911972" />
    <use
       id="use663"
       xlink:href="#z"
       y="33.121094"
       x="91.247559" />
    <use
       id="use665"
       xlink:href="#j"
       y="33.121094"
       x="96.583145" />
    <use
       id="use667"
       xlink:href="#c"
       y="33.121094"
       x="99.248596" />
    <use
       id="use669"
       xlink:href="#a"
       y="33.121094"
       x="101.914047" />
    <use
       id="use671"
       xlink:href="#b"
       y="33.121094"
       x="107.249634" />
    <use
       id="use673"
       xlink:href="#g"
       y="33.121094"
       x="109.915085" />
    <use
       id="use675"
       xlink:href="#d"
       y="33.121094"
       x="115.250671" />
    <use
       id="use677"
       xlink:href="#d"
       y="33.121094"
       x="120.586258" />
    <use
       id="use679"
       xlink:href="#c"
       y="33.121094"
       x="125.921844" />
    <use
       id="use681"
       xlink:href="#c"
       y="33.121094"
       x="128.587296" />
    <use
       id="use683"
       xlink:href="#c"
       y="33.121094"
       x="131.252747" />
    <use
       id="use685"
       xlink:href="#bq"
       y="33.121094"
       x="133.918198" />
    <use
       id="use687"
       xlink:href="#y"
       y="33.121094"
       x="140.846497" />
    <use
       id="use689"
       xlink:href="#bp"
       y="33.121094"
       x="146.182083" />
    <use
       id="use691"
       xlink:href="#x"
       y="33.121094"
       x="150.978958" />
    <use
       id="use693"
       xlink:href="#bo"
       y="33.121094"
       x="156.314545" />
    <use
       id="use695"
       xlink:href="#bn"
       y="33.121094"
       x="159.509338" />
    <use
       id="use697"
       xlink:href="#bm"
       y="33.121094"
       x="164.844925" />
    <use
       id="use699"
       xlink:href="#x"
       y="33.121094"
       x="170.180511" />
    <use
       id="use701"
       xlink:href="#j"
       y="33.121094"
       x="175.516098" />
    <use
       id="use703"
       xlink:href="#c"
       y="33.121094"
       x="178.181549" />
    <use
       id="use705"
       xlink:href="#a"
       y="33.121094"
       x="180.847" />
    <use
       id="use707"
       xlink:href="#b"
       y="33.121094"
       x="186.182587" />
    <use
       id="use709"
       xlink:href="#i"
       y="33.121094"
       x="188.848038" />
    <use
       id="use711"
       xlink:href="#d"
       y="33.121094"
       x="194.183624" />
    <use
       id="use713"
       xlink:href="#e"
       y="33.121094"
       x="199.519211" />
    <use
       id="use715"
       xlink:href="#c"
       y="33.121094"
       x="204.854797" />
    <use
       id="use717"
       xlink:href="#c"
       y="33.121094"
       x="207.520248" />
    <use
       id="use719"
       xlink:href="#c"
       y="33.121094"
       x="210.185699" />
    <use
       id="use721"
       xlink:href="#bl"
       y="33.121094"
       x="212.851151" />
    <use
       id="use723"
       xlink:href="#bk"
       y="33.121094"
       x="219.250107" />
    <use
       id="use725"
       xlink:href="#aa"
       y="33.121094"
       x="226.178406" />
    <use
       id="use727"
       xlink:href="#j"
       y="33.121094"
       x="228.843857" />
    <use
       id="use729"
       xlink:href="#c"
       y="33.121094"
       x="231.509308" />
    <use
       id="use731"
       xlink:href="#a"
       y="33.121094"
       x="234.174759" />
    <use
       id="use733"
       xlink:href="#b"
       y="33.121094"
       x="239.510345" />
    <use
       id="use735"
       xlink:href="#g"
       y="33.121094"
       x="242.175797" />
    <use
       id="use737"
       xlink:href="#a"
       y="33.121094"
       x="247.511383" />
    <use
       id="use739"
       xlink:href="#e"
       y="33.121094"
       x="252.84697" />
  </g>
</svg>
