<?xml version="1.0" encoding="UTF-8" standalone="no"?>
<svg
     xmlns:dc="http://purl.org/dc/elements/1.1/"
     xmlns:cc="http://creativecommons.org/ns#"
     xmlns:rdf="http://www.w3.org/1999/02/22-rdf-syntax-ns#"
     xmlns:svg="http://www.w3.org/2000/svg"
     xmlns="http://www.w3.org/2000/svg"
     xmlns:xlink="http://www.w3.org/1999/xlink"
     xmlns:sodipodi="http://sodipodi.sourceforge.net/DTD/sodipodi-0.dtd"
     xmlns:inkscape="http://www.inkscape.org/namespaces/inkscape"
     width="432pt"
     height="432pt"
     version="1.1"
     viewBox="0 0 432 432"
     id="svg2"
     inkscape:version="0.92.2 5c3e80d, 2017-08-06"
     sodipodi:docname="XYplot-7.svg">
    <metadata
         id="metadata659">
        <rdf:RDF>
            <cc:Work
                 rdf:about="">
                <dc:format>image/svg+xml</dc:format>
                <dc:type
                     rdf:resource="http://purl.org/dc/dcmitype/StillImage" />
                <dc:title></dc:title>
            </cc:Work>
        </rdf:RDF>
    </metadata>
    <sodipodi:namedview
         pagecolor="#ffffff"
         bordercolor="#666666"
         borderopacity="1"
         objecttolerance="10"
         gridtolerance="10"
         guidetolerance="10"
         inkscape:pageopacity="0"
         inkscape:pageshadow="2"
         inkscape:window-width="857"
         inkscape:window-height="480"
         id="namedview657"
         showgrid="false"
         inkscape:zoom="0.437"
         inkscape:cx="270"
         inkscape:cy="270"
         inkscape:window-x="0"
         inkscape:window-y="0"
         inkscape:window-maximized="0"
         inkscape:current-layer="svg2" />
    <defs
         id="defs4">
        <symbol
             id="a"
             overflow="visible">
            <path
                 d="m2.9219-7.5469c0.97656 0 1.6875 0.40234 2.125 1.2031 0.33203 0.625 0.5 1.4805 0.5 2.5625 0 1.0234-0.15234 1.8711-0.45312 2.5469-0.44922 0.96094-1.1719 1.4375-2.1719 1.4375-0.90625 0-1.5859-0.39062-2.0312-1.1719-0.36719-0.66406-0.54688-1.5508-0.54688-2.6562 0-0.85156 0.10938-1.5859 0.32812-2.2031 0.41406-1.1445 1.1641-1.7188 2.25-1.7188zm-0.015625 6.8906c0.48828 0 0.87891-0.21875 1.1719-0.65625 0.28906-0.4375 0.4375-1.25 0.4375-2.4375 0-0.85156-0.10547-1.5547-0.3125-2.1094-0.21094-0.5625-0.61719-0.84375-1.2188-0.84375-0.5625 0-0.97656 0.26562-1.2344 0.79688-0.26172 0.52344-0.39062 1.2969-0.39062 2.3281 0 0.76172 0.082031 1.375 0.25 1.8438 0.25781 0.71875 0.69141 1.0781 1.2969 1.0781z"
                 id="path7" />
        </symbol>
        <symbol
             id="b"
             overflow="visible">
            <path
                 d="m0.92188-1.1562h1.1094v1.1562h-1.1094z"
                 id="path10" />
        </symbol>
        <symbol
             id="f"
             overflow="visible">
            <path
                 d="m1.0312-5.3438v-0.73438c0.6875-0.0625 1.1641-0.17188 1.4375-0.32812 0.26953-0.15625 0.47266-0.52344 0.60938-1.1094h0.75v7.5156h-1.0156v-5.3438z"
                 id="path13" />
        </symbol>
        <symbol
             id="s"
             overflow="visible">
            <path
                 d="m0.34375 0c0.03125-0.64453 0.16016-1.207 0.39062-1.6875 0.23828-0.48828 0.69531-0.92969 1.375-1.3281l1.0156-0.57812c0.44531-0.25781 0.76562-0.48438 0.95312-0.67188 0.28125-0.28906 0.42188-0.625 0.42188-1 0-0.44531-0.13281-0.79688-0.39062-1.0469-0.26172-0.25781-0.60938-0.39062-1.0469-0.39062-0.65625 0-1.1094 0.24609-1.3594 0.73438-0.13672 0.26172-0.21094 0.625-0.21875 1.0938h-0.96875c0.007813-0.65625 0.13281-1.1914 0.375-1.6094 0.40625-0.72656 1.1289-1.0938 2.1719-1.0938 0.86328 0 1.4922 0.23438 1.8906 0.70312 0.40625 0.46875 0.60938 0.99219 0.60938 1.5625 0 0.60547-0.21484 1.1211-0.64062 1.5469-0.25 0.25-0.69531 0.55469-1.3281 0.90625l-0.71875 0.40625c-0.34375 0.1875-0.61719 0.37109-0.8125 0.54688-0.35547 0.30469-0.57812 0.64062-0.67188 1.0156h4.125v0.89062z"
                 id="path16" />
        </symbol>
        <symbol
             id="r"
             overflow="visible">
            <path
                 d="m2.7969 0.20312c-0.88672 0-1.5312-0.24219-1.9375-0.73438-0.39844-0.48828-0.59375-1.082-0.59375-1.7812h0.98438c0.039062 0.48047 0.13281 0.83594 0.28125 1.0625 0.23828 0.39844 0.67969 0.59375 1.3281 0.59375 0.5 0 0.89844-0.12891 1.2031-0.39062 0.30078-0.26953 0.45312-0.61719 0.45312-1.0469 0-0.51953-0.16406-0.88281-0.48438-1.0938-0.3125-0.20703-0.75781-0.3125-1.3281-0.3125-0.0625 0-0.125 0.007812-0.1875 0.015625h-0.20312v-0.84375c0.10156 0.011719 0.1875 0.023437 0.25 0.03125h0.21875c0.35156 0 0.64453-0.054687 0.875-0.17188 0.40625-0.19531 0.60938-0.54688 0.60938-1.0469 0-0.375-0.13672-0.66406-0.40625-0.875-0.27344-0.20703-0.58594-0.3125-0.9375-0.3125-0.625 0-1.0625 0.21484-1.3125 0.64062-0.13672 0.23047-0.21094 0.55859-0.21875 0.98438h-0.9375c0-0.5625 0.10938-1.0352 0.32812-1.4219 0.38281-0.70703 1.0664-1.0625 2.0469-1.0625 0.76953 0 1.3633 0.17188 1.7812 0.51562 0.42578 0.34375 0.64062 0.83984 0.64062 1.4844 0 0.46875-0.125 0.85156-0.375 1.1406-0.15625 0.17969-0.35938 0.32031-0.60938 0.42188 0.39453 0.10547 0.70312 0.3125 0.92188 0.625 0.22656 0.3125 0.34375 0.69531 0.34375 1.1406 0 0.71875-0.24219 1.3086-0.71875 1.7656-0.46875 0.44922-1.1406 0.67188-2.0156 0.67188z"
                 id="path19" />
        </symbol>
        <symbol
             id="q"
             overflow="visible">
            <path
                 d="m3.5625-2.6719v-3.4219l-2.4062 3.4219zm0.015625 2.6719v-1.8438h-3.2969v-0.92188l3.4531-4.8125h0.79688v4.9062h1.1094v0.82812h-1.1094v1.8438z"
                 id="path22" />
        </symbol>
        <symbol
             id="i"
             overflow="visible">
            <path
                 d="m1.3281-1.9219c0.0625 0.54297 0.31641 0.91797 0.76562 1.125 0.21875 0.10547 0.47656 0.15625 0.78125 0.15625 0.5625 0 0.97266-0.17578 1.2344-0.53125 0.26953-0.36328 0.40625-0.76562 0.40625-1.2031 0-0.51953-0.16406-0.92578-0.48438-1.2188-0.3125-0.28906-0.69531-0.4375-1.1406-0.4375-0.33594 0-0.62109 0.070312-0.85938 0.20312-0.23047 0.125-0.42969 0.29688-0.59375 0.51562l-0.8125-0.046875 0.57812-4.0625h3.9219v0.92188h-3.2188l-0.3125 2.0938c0.16406-0.13281 0.33203-0.23438 0.5-0.29688 0.28125-0.11328 0.60156-0.17188 0.96875-0.17188 0.6875 0 1.2695 0.22656 1.75 0.67188 0.48828 0.4375 0.73438 1 0.73438 1.6875 0 0.71875-0.22656 1.3516-0.67188 1.8906-0.4375 0.54297-1.1406 0.8125-2.1094 0.8125-0.61719 0-1.1562-0.17188-1.625-0.51562s-0.73438-0.875-0.79688-1.5938z"
                 id="path25" />
        </symbol>
        <symbol
             id="p"
             overflow="visible">
            <path
                 d="m3.1562-7.5781c0.84375 0 1.4297 0.21875 1.7656 0.65625 0.33203 0.4375 0.5 0.88672 0.5 1.3438h-0.9375c-0.0625-0.28906-0.15234-0.52344-0.26562-0.70312-0.23047-0.3125-0.57812-0.46875-1.0469-0.46875-0.53125 0-0.95312 0.24609-1.2656 0.73438-0.3125 0.49219-0.48438 1.1953-0.51562 2.1094 0.21875-0.32031 0.48828-0.5625 0.8125-0.71875 0.30078-0.13281 0.64062-0.20312 1.0156-0.20312 0.63281 0 1.1875 0.20312 1.6562 0.60938 0.46875 0.39844 0.70312 0.99609 0.70312 1.7969 0 0.6875-0.22656 1.2969-0.67188 1.8281-0.4375 0.52344-1.0742 0.78125-1.9062 0.78125-0.69922 0-1.3086-0.26562-1.8281-0.79688-0.51172-0.53125-0.76562-1.4297-0.76562-2.7031 0-0.9375 0.11328-1.7344 0.34375-2.3906 0.4375-1.25 1.2383-1.875 2.4062-1.875zm-0.0625 6.9219c0.5 0 0.86719-0.16406 1.1094-0.5 0.25-0.33203 0.375-0.72656 0.375-1.1875 0-0.38281-0.10938-0.75-0.32812-1.0938-0.21875-0.35156-0.62109-0.53125-1.2031-0.53125-0.40625 0-0.76562 0.13672-1.0781 0.40625-0.3125 0.27344-0.46875 0.67969-0.46875 1.2188 0 0.48047 0.14062 0.88281 0.42188 1.2031 0.28125 0.32422 0.67188 0.48438 1.1719 0.48438z"
                 id="path28" />
        </symbol>
        <symbol
             id="e"
             overflow="visible">
            <path
                 d="m5.6406-7.4219v0.82812c-0.24219 0.24219-0.5625 0.65234-0.96875 1.2344-0.39844 0.58594-0.75 1.2109-1.0625 1.875-0.30469 0.65625-0.53125 1.2578-0.6875 1.7969-0.10547 0.35547-0.24219 0.91797-0.40625 1.6875h-1.0469c0.23828-1.4375 0.76562-2.8672 1.5781-4.2969 0.48828-0.84375 1-1.5664 1.5312-2.1719h-4.1875v-0.95312z"
                 id="path31" />
        </symbol>
        <symbol
             id="g"
             overflow="visible">
            <path
                 d="m2.9375-4.3906c0.41406 0 0.73828-0.11328 0.96875-0.34375 0.23828-0.23828 0.35938-0.51953 0.35938-0.84375 0-0.28125-0.11719-0.53516-0.34375-0.76562-0.21875-0.23828-0.55859-0.35938-1.0156-0.35938-0.46094 0-0.79297 0.12109-1 0.35938-0.19922 0.23047-0.29688 0.50781-0.29688 0.82812 0 0.35547 0.12891 0.63281 0.39062 0.82812 0.26953 0.19922 0.58203 0.29688 0.9375 0.29688zm0.0625 3.7344c0.4375 0 0.79688-0.11328 1.0781-0.34375 0.28906-0.23828 0.4375-0.59375 0.4375-1.0625 0-0.48828-0.15234-0.85938-0.45312-1.1094-0.29297-0.25781-0.67188-0.39062-1.1406-0.39062-0.44922 0-0.82031 0.13281-1.1094 0.39062-0.28125 0.26172-0.42188 0.62109-0.42188 1.0781 0 0.39844 0.12891 0.73438 0.39062 1.0156 0.25781 0.28125 0.66406 0.42188 1.2188 0.42188zm-1.3594-3.3594c-0.26172-0.11328-0.46484-0.25-0.60938-0.40625-0.28125-0.28125-0.42188-0.64453-0.42188-1.0938 0-0.5625 0.20312-1.0469 0.60938-1.4531s0.98438-0.60938 1.7344-0.60938c0.72656 0 1.2969 0.19531 1.7031 0.57812 0.41406 0.38672 0.625 0.83594 0.625 1.3438 0 0.46875-0.12109 0.85156-0.35938 1.1406-0.13672 0.16797-0.34375 0.32812-0.625 0.48438 0.3125 0.14844 0.55469 0.3125 0.73438 0.5 0.33203 0.34375 0.5 0.79688 0.5 1.3594 0 0.66797-0.22656 1.2344-0.67188 1.7031-0.4375 0.46094-1.0703 0.6875-1.8906 0.6875-0.73047 0-1.3516-0.19922-1.8594-0.59375-0.51172-0.40625-0.76562-0.98828-0.76562-1.75 0-0.4375 0.10938-0.81641 0.32812-1.1406 0.21875-0.33203 0.53906-0.58203 0.96875-0.75z"
                 id="path34" />
        </symbol>
        <symbol
             id="d"
             overflow="visible">
            <path
                 d="m1.4375-1.8281c0.019531 0.53125 0.22266 0.89844 0.60938 1.0938 0.1875 0.10547 0.39844 0.15625 0.64062 0.15625 0.45703 0 0.84375-0.1875 1.1562-0.5625 0.32031-0.38281 0.55078-1.1562 0.6875-2.3125-0.21094 0.33594-0.46875 0.57031-0.78125 0.70312-0.3125 0.13672-0.64844 0.20312-1 0.20312-0.73047 0-1.3086-0.22266-1.7344-0.67188-0.41797-0.45703-0.625-1.0391-0.625-1.75 0-0.6875 0.20703-1.2891 0.625-1.8125 0.41406-0.51953 1.0312-0.78125 1.8438-0.78125 1.1016 0 1.8633 0.49609 2.2812 1.4844 0.22656 0.55469 0.34375 1.2344 0.34375 2.0469 0 0.92969-0.13672 1.7461-0.40625 2.4531-0.46875 1.1875-1.25 1.7812-2.3438 1.7812-0.74219 0-1.3047-0.19531-1.6875-0.57812-0.38672-0.38281-0.57812-0.86719-0.57812-1.4531zm1.4375-1.5469c0.375 0 0.71875-0.125 1.0312-0.375s0.46875-0.67969 0.46875-1.2969c0-0.55078-0.14062-0.96094-0.42188-1.2344-0.28125-0.28125-0.63672-0.42188-1.0625-0.42188-0.46875 0-0.83984 0.15625-1.1094 0.46875-0.27344 0.3125-0.40625 0.73047-0.40625 1.25 0 0.49219 0.11719 0.88281 0.35938 1.1719 0.23828 0.29297 0.61719 0.4375 1.1406 0.4375z"
                 id="path37" />
        </symbol>
        <symbol
             id="w"
             overflow="visible">
            <path
                 d="m1.0625-7.75h1.0625v7.75h-1.0625z"
                 id="path40" />
        </symbol>
        <symbol
             id="v"
             overflow="visible">
            <path
                 d="m0.70312-5.6406h0.89062v0.79688c0.26953-0.33203 0.55078-0.56641 0.84375-0.70312 0.30078-0.14453 0.63281-0.21875 1-0.21875 0.80078 0 1.3438 0.27734 1.625 0.82812 0.15625 0.3125 0.23438 0.75 0.23438 1.3125v3.625h-0.96875v-3.5625c0-0.34375-0.046875-0.61719-0.14062-0.82812-0.17969-0.35156-0.48438-0.53125-0.92188-0.53125-0.23047 0-0.41797 0.027344-0.5625 0.078125-0.26172 0.074219-0.48438 0.22656-0.67188 0.45312-0.16797 0.1875-0.27734 0.38281-0.32812 0.57812-0.042969 0.19922-0.0625 0.48438-0.0625 0.85938v2.9531h-0.9375zm2.2188-0.14062z"
                 id="path43" />
        </symbol>
        <symbol
             id="bf"
             overflow="visible">
            <path
                 d="m2.875-5.8125c0.63281 0 1.1484 0.15625 1.5469 0.46875 0.40625 0.3125 0.64453 0.84375 0.71875 1.5938h-0.92188c-0.054688-0.34375-0.18359-0.62891-0.39062-0.85938-0.19922-0.22656-0.51562-0.34375-0.95312-0.34375-0.60547 0-1.0391 0.29297-1.2969 0.875-0.16797 0.38672-0.25 0.85938-0.25 1.4219s0.11719 1.0391 0.35938 1.4219c0.23828 0.38672 0.61328 0.57812 1.125 0.57812 0.39453 0 0.70703-0.11719 0.9375-0.35938 0.22656-0.23828 0.38281-0.56641 0.46875-0.98438h0.92188c-0.10547 0.75-0.37109 1.2969-0.79688 1.6406-0.41797 0.34375-0.95312 0.51562-1.6094 0.51562-0.74219 0-1.3281-0.26562-1.7656-0.79688-0.4375-0.53906-0.65625-1.2188-0.65625-2.0312 0-0.98828 0.23828-1.7578 0.71875-2.3125 0.47656-0.55078 1.0938-0.82812 1.8438-0.82812zm-0.15625 0.03125z"
                 id="path46" />
        </symbol>
        <symbol
             id="be"
             overflow="visible">
            <path
                 d="m0.71875-7.75h0.95312v7.75h-0.95312z"
                 id="path49" />
        </symbol>
        <symbol
             id="bd"
             overflow="visible">
            <path
                 d="m1.6406-5.6406v3.75c0 0.28125 0.046875 0.51562 0.14062 0.70312 0.16406 0.33594 0.47656 0.5 0.9375 0.5 0.66406 0 1.1172-0.29688 1.3594-0.89062 0.125-0.3125 0.1875-0.74219 0.1875-1.2969v-2.7656h0.95312v5.6406h-0.89062v-0.82812c-0.11719 0.21094-0.26562 0.38672-0.45312 0.53125-0.36719 0.30078-0.80469 0.45312-1.3125 0.45312-0.8125 0-1.3672-0.26953-1.6562-0.8125-0.15625-0.28906-0.23438-0.67578-0.23438-1.1562v-3.8281zm1.3125-0.14062z"
                 id="path52" />
        </symbol>
        <symbol
             id="bc"
             overflow="visible">
            <path
                 d="m1.2656-1.7656c0.019531 0.3125 0.097656 0.55469 0.23438 0.71875 0.23828 0.3125 0.64844 0.46875 1.2344 0.46875 0.35156 0 0.66016-0.078125 0.92188-0.23438 0.26953-0.15625 0.40625-0.39453 0.40625-0.71875 0-0.23828-0.10547-0.42188-0.3125-0.54688-0.13672-0.070313-0.40625-0.16016-0.8125-0.26562l-0.75-0.1875c-0.49219-0.125-0.84375-0.25781-1.0625-0.40625-0.41797-0.25781-0.625-0.61328-0.625-1.0625 0-0.53125 0.19141-0.96094 0.57812-1.2969 0.38281-0.33203 0.90625-0.5 1.5625-0.5 0.84375 0 1.4531 0.25 1.8281 0.75 0.23828 0.3125 0.35156 0.65625 0.34375 1.0312h-0.89062c-0.023437-0.21875-0.09375-0.41406-0.21875-0.59375-0.21875-0.25-0.60156-0.375-1.1406-0.375-0.35547 0-0.625 0.070313-0.8125 0.20312-0.1875 0.13672-0.28125 0.32031-0.28125 0.54688 0 0.25 0.11719 0.44922 0.35938 0.59375 0.14453 0.085937 0.35156 0.16406 0.625 0.23438l0.625 0.14062c0.6875 0.16797 1.1445 0.32812 1.375 0.48438 0.375 0.24219 0.5625 0.62109 0.5625 1.1406 0 0.51172-0.19531 0.94922-0.57812 1.3125-0.38672 0.36328-0.96875 0.54688-1.75 0.54688-0.83594 0-1.4297-0.1875-1.7812-0.5625-0.34375-0.38281-0.53125-0.85938-0.5625-1.4219zm1.3906-4.0156z"
                 id="path55" />
        </symbol>
        <symbol
             id="bb"
             overflow="visible">
            <path
                 d="m0.70312-5.625h0.95312v5.625h-0.95312zm0-2.125h0.95312v1.0781h-0.95312z"
                 id="path58" />
        </symbol>
        <symbol
             id="u"
             overflow="visible">
            <path
                 d="m2.9375-0.60938c0.625 0 1.0508-0.23828 1.2812-0.71875 0.23828-0.47656 0.35938-1.0078 0.35938-1.5938 0-0.51953-0.085937-0.94531-0.25-1.2812-0.27344-0.51953-0.73047-0.78125-1.375-0.78125-0.58594 0-1.0117 0.22656-1.2812 0.67188-0.26172 0.4375-0.39062 0.96875-0.39062 1.5938 0 0.60547 0.12891 1.1094 0.39062 1.5156 0.26953 0.39844 0.69141 0.59375 1.2656 0.59375zm0.03125-5.2031c0.72656 0 1.3438 0.24609 1.8438 0.73438 0.50781 0.48047 0.76562 1.1953 0.76562 2.1406 0 0.90625-0.22656 1.6562-0.67188 2.25-0.4375 0.59375-1.125 0.89062-2.0625 0.89062-0.77344 0-1.3867-0.25781-1.8438-0.78125-0.46094-0.53125-0.6875-1.2383-0.6875-2.125 0-0.94531 0.23828-1.7031 0.71875-2.2656 0.47656-0.5625 1.125-0.84375 1.9375-0.84375zm-0.03125 0.03125z"
                 id="path61" />
        </symbol>
        <symbol
             id="j"
             overflow="visible">
            <path
                 d="m1.2031-5.5781h1.0938v1.1562h-1.0938zm0 4.4219h1.0938v1.1562h-1.0938z"
                 id="path64" />
        </symbol>
        <symbol
             id="c"
             overflow="visible" />
        <symbol
             id="ba"
             overflow="visible">
            <path
                 d="m4.0781-7.9531c0.98828 0 1.7539 0.26172 2.2969 0.78125 0.53906 0.51172 0.83594 1.0938 0.89062 1.75h-1.0156c-0.11719-0.5-0.35156-0.89453-0.70312-1.1875-0.34375-0.28906-0.82812-0.4375-1.4531-0.4375-0.76172 0-1.375 0.27344-1.8438 0.8125-0.46875 0.53125-0.70312 1.3516-0.70312 2.4531 0 0.90625 0.20703 1.6484 0.625 2.2188 0.42578 0.5625 1.0625 0.84375 1.9062 0.84375 0.76953 0 1.3594-0.29688 1.7656-0.89062 0.20703-0.3125 0.36719-0.72266 0.48438-1.2344h1.0156c-0.09375 0.8125-0.39844 1.4961-0.90625 2.0469-0.61719 0.66797-1.4453 1-2.4844 1-0.90625 0-1.6641-0.26953-2.2656-0.8125-0.8125-0.72656-1.2188-1.8438-1.2188-3.3438 0-1.1445 0.30078-2.082 0.90625-2.8125 0.65625-0.78906 1.5547-1.1875 2.7031-1.1875zm-0.20312 0z"
                 id="path68" />
        </symbol>
        <symbol
             id="az"
             overflow="visible">
            <path
                 d="m1.1562-5.6406l1.5156 4.5938 1.5781-4.5938h1.0312l-2.125 5.6406h-1.0156l-2.0781-5.6406z"
                 id="path71" />
        </symbol>
        <symbol
             id="t"
             overflow="visible">
            <path
                 d="m3.0469-5.7656c0.39453 0 0.78125 0.09375 1.1562 0.28125 0.38281 0.1875 0.67578 0.42969 0.875 0.71875 0.1875 0.29297 0.3125 0.625 0.375 1 0.050781 0.26172 0.078125 0.67969 0.078125 1.25h-4.1406c0.019531 0.57422 0.15625 1.0312 0.40625 1.375 0.25781 0.34375 0.65625 0.51562 1.1875 0.51562 0.48828 0 0.88281-0.16016 1.1875-0.48438 0.16406-0.1875 0.28125-0.40625 0.34375-0.65625h0.9375c-0.023437 0.21094-0.10547 0.4375-0.25 0.6875-0.13672 0.25-0.28906 0.46094-0.45312 0.625-0.29297 0.28125-0.65234 0.46875-1.0781 0.5625-0.23047 0.0625-0.48438 0.09375-0.76562 0.09375-0.71094 0-1.3086-0.25391-1.7969-0.76562-0.49219-0.50781-0.73438-1.2266-0.73438-2.1562 0-0.90625 0.24219-1.6406 0.73438-2.2031 0.5-0.5625 1.1445-0.84375 1.9375-0.84375zm1.5156 2.4844c-0.042969-0.40625-0.13281-0.73438-0.26562-0.98438-0.26172-0.44531-0.69922-0.67188-1.3125-0.67188-0.4375 0-0.80469 0.15625-1.0938 0.46875-0.29297 0.3125-0.44922 0.71094-0.46875 1.1875zm-1.6094-2.5z"
                 id="path74" />
        </symbol>
        <symbol
             id="ay"
             overflow="visible">
            <path
                 d="m0.71875-5.6406h0.90625v0.96875c0.070312-0.1875 0.25-0.41406 0.53125-0.6875 0.28906-0.26953 0.625-0.40625 1-0.40625h0.09375c0.039062 0 0.11328 0.007813 0.21875 0.015625v1c-0.054688-0.007812-0.10547-0.015625-0.15625-0.015625h-0.15625c-0.48047 0-0.85156 0.15625-1.1094 0.46875-0.25 0.30469-0.375 0.65234-0.375 1.0469v3.25h-0.95312z"
                 id="path77" />
        </symbol>
        <symbol
             id="ax"
             overflow="visible">
            <path
                 d="m1.4219-1.5c0 0.27344 0.097656 0.49219 0.29688 0.65625 0.20703 0.15625 0.44531 0.23438 0.71875 0.23438 0.33203 0 0.65625-0.078125 0.96875-0.23438 0.53125-0.25781 0.79688-0.67969 0.79688-1.2656v-0.76562c-0.125 0.074219-0.28125 0.13672-0.46875 0.1875-0.17969 0.054688-0.35547 0.089844-0.53125 0.10938l-0.5625 0.0625c-0.34375 0.054687-0.60547 0.125-0.78125 0.21875-0.29297 0.16797-0.4375 0.43359-0.4375 0.79688zm2.2969-1.9219c0.21875-0.03125 0.36328-0.125 0.4375-0.28125 0.039062-0.082031 0.0625-0.20312 0.0625-0.35938 0-0.32031-0.11719-0.55469-0.34375-0.70312-0.23047-0.14453-0.55859-0.21875-0.98438-0.21875-0.5 0-0.85547 0.13672-1.0625 0.40625-0.11719 0.14844-0.1875 0.36719-0.21875 0.65625h-0.89062c0.019531-0.69531 0.24219-1.1797 0.67188-1.4531 0.4375-0.26953 0.94141-0.40625 1.5156-0.40625 0.66406 0 1.207 0.125 1.625 0.375 0.40625 0.25 0.60938 0.64844 0.60938 1.1875v3.25c0 0.09375 0.019531 0.17188 0.0625 0.23438 0.039063 0.0625 0.12891 0.09375 0.26562 0.09375h0.14062c0.050781-0.007813 0.10156-0.019531 0.15625-0.03125v0.70312c-0.14844 0.039062-0.26172 0.066406-0.34375 0.078125-0.074219 0.007813-0.17188 0.015625-0.29688 0.015625-0.33594 0-0.57422-0.12109-0.71875-0.35938-0.074219-0.11328-0.125-0.28516-0.15625-0.51562-0.19922 0.25-0.48047 0.46875-0.84375 0.65625-0.35547 0.1875-0.75 0.28125-1.1875 0.28125-0.53125 0-0.96484-0.15625-1.2969-0.46875-0.32422-0.32031-0.48438-0.72266-0.48438-1.2031 0-0.51953 0.16016-0.92188 0.48438-1.2031 0.32031-0.28906 0.75-0.47266 1.2812-0.54688zm-0.78125-2.3594z"
                 id="path80" />
        </symbol>
        <symbol
             id="aw"
             overflow="visible">
            <path
                 d="m2.6875-5.75c0.44531 0 0.83203 0.10938 1.1562 0.32812 0.1875 0.125 0.36719 0.30859 0.54688 0.54688v-0.71875h0.875v5.1406c0 0.70703-0.10547 1.2695-0.3125 1.6875-0.39844 0.76953-1.1406 1.1562-2.2344 1.1562-0.60547 0-1.1172-0.13672-1.5312-0.40625-0.41797-0.27344-0.64844-0.69922-0.6875-1.2812h0.95312c0.050781 0.25 0.14453 0.44141 0.28125 0.57812 0.21875 0.21875 0.55469 0.32812 1.0156 0.32812 0.72656 0 1.2031-0.26172 1.4219-0.78125 0.13281-0.30469 0.19531-0.83594 0.1875-1.6094-0.1875 0.28125-0.41797 0.49609-0.6875 0.64062-0.26172 0.13672-0.61719 0.20312-1.0625 0.20312-0.60547 0-1.1367-0.21094-1.5938-0.64062-0.46094-0.4375-0.6875-1.1562-0.6875-2.1562 0-0.94531 0.22656-1.6875 0.6875-2.2188 0.45703-0.53125 1.0156-0.79688 1.6719-0.79688zm1.7031 2.9062c0-0.69531-0.14844-1.2109-0.4375-1.5469-0.28125-0.34375-0.64844-0.51562-1.0938-0.51562-0.66797 0-1.125 0.3125-1.375 0.9375-0.125 0.33594-0.1875 0.77344-0.1875 1.3125 0 0.63672 0.12891 1.1211 0.39062 1.4531 0.25781 0.33594 0.60156 0.5 1.0312 0.5 0.6875 0 1.1719-0.30469 1.4531-0.92188 0.14453-0.35156 0.21875-0.75781 0.21875-1.2188zm-1.5938-2.9375z"
                 id="path83" />
        </symbol>
        <symbol
             id="av"
             overflow="visible">
            <path
                 d="m0.92188-7.75h3.4844c0.6875 0 1.2383 0.19922 1.6562 0.59375 0.42578 0.38672 0.64062 0.92969 0.64062 1.625 0 0.60547-0.1875 1.1328-0.5625 1.5781-0.375 0.44922-0.95312 0.67188-1.7344 0.67188h-2.4375v3.2812h-1.0469zm4.7188 2.2344c0-0.57031-0.21094-0.95703-0.625-1.1562-0.23047-0.11328-0.54688-0.17188-0.95312-0.17188h-2.0938v2.6875h2.0938c0.46875 0 0.84766-0.097656 1.1406-0.29688 0.28906-0.20703 0.4375-0.5625 0.4375-1.0625z"
                 id="path86" />
        </symbol>
        <symbol
             id="au"
             overflow="visible">
            <path
                 d="m4.4219-4.2031c0.48828 0 0.875-0.09375 1.1562-0.28125 0.28906-0.19531 0.4375-0.55469 0.4375-1.0781 0-0.55078-0.19922-0.92578-0.59375-1.125-0.21875-0.10156-0.50781-0.15625-0.85938-0.15625h-2.5625v2.6406zm-3.4688-3.5469h3.5781c0.59375 0 1.082 0.089844 1.4688 0.26562 0.71875 0.33594 1.0781 0.94531 1.0781 1.8281 0 0.46875-0.09375 0.85156-0.28125 1.1406-0.1875 0.29297-0.45312 0.52734-0.79688 0.70312 0.30078 0.125 0.52344 0.29297 0.67188 0.5 0.15625 0.19922 0.24219 0.52344 0.26562 0.96875l0.03125 1.0312c0.007812 0.30469 0.035156 0.52344 0.078125 0.65625 0.0625 0.25 0.17188 0.41406 0.32812 0.48438v0.17188h-1.2812c-0.03125-0.0625-0.058594-0.14453-0.078125-0.25-0.023437-0.11328-0.042969-0.32031-0.0625-0.625l-0.0625-1.2812c-0.023437-0.50781-0.21094-0.84766-0.5625-1.0156-0.19922-0.10156-0.51172-0.15625-0.9375-0.15625h-2.3906v3.3281h-1.0469z"
                 id="path89" />
        </symbol>
        <symbol
             id="at"
             overflow="visible">
            <path
                 d="m0.03125-1.7812c0.0625-0.46875 0.15625-0.86719 0.28125-1.2031 0.125-0.34375 0.27344-0.61719 0.45312-0.82812 0.1875-0.22656 0.37891-0.39062 0.57812-0.48438 0.20703-0.09375 0.42188-0.14062 0.64062-0.14062 0.09375 0 0.21094 0.015625 0.35938 0.046875 0.25 0.03125 0.47656 0.089844 0.6875 0.17188l1.3594 0.53125c0.15625 0.0625 0.30469 0.10938 0.45312 0.14062 0.15625 0.023437 0.27344 0.03125 0.35938 0.03125 0.25781 0 0.46094-0.097656 0.60938-0.29688 0.15625-0.20703 0.26953-0.45312 0.34375-0.73438h1c-0.11719 0.71875-0.33594 1.3398-0.65625 1.8594-0.32422 0.52344-0.76172 0.78125-1.3125 0.78125-0.11719 0-0.23438-0.007812-0.35938-0.03125-0.23047-0.03125-0.50781-0.11328-0.82812-0.25l-1.2188-0.46875c-0.11719-0.039062-0.25781-0.078125-0.42188-0.10938-0.16797-0.03125-0.28906-0.046875-0.35938-0.046875-0.21875 0-0.41797 0.085938-0.59375 0.25-0.16797 0.16797-0.29297 0.42969-0.375 0.78125z"
                 id="path92" />
        </symbol>
        <symbol
             id="as"
             overflow="visible">
            <path
                 d="m0.89062-8.6406h1.8906l3.4375 6.0312v-6.0312h1.6875v8.6406h-1.8125l-3.5312-6.1406v6.1406h-1.6719zm3.5625-0.015625z"
                 id="path95" />
        </symbol>
        <symbol
             id="ar"
             overflow="visible">
            <path
                 d="m3.2812-3.2656h2.1875l-1.0781-3.3906zm0.10938-5.375h2.0312l3.0625 8.6406h-1.9531l-0.5625-1.7812h-3.1719l-0.60938 1.7812h-1.875zm1 0z"
                 id="path98" />
        </symbol>
        <symbol
             id="aq"
             overflow="visible">
            <path
                 d="m7.1875-8.6406v1.5312h-2.5781v7.1094h-1.8125v-7.1094h-2.6094v-1.5312z"
                 id="path101" />
        </symbol>
        <symbol
             id="ap"
             overflow="visible">
            <path
                 d="m5.7812-5.8906c0-0.44531-0.12109-0.76562-0.35938-0.95312-0.24219-0.19531-0.57031-0.29688-0.98438-0.29688h-1.6875v2.5469h1.6875c0.41406 0 0.74219-0.10156 0.98438-0.3125 0.23828-0.20703 0.35938-0.53516 0.35938-0.98438zm1.7812-0.015625c0 1.0234-0.26172 1.7461-0.78125 2.1719-0.51172 0.41797-1.2461 0.625-2.2031 0.625h-1.8281v3.1094h-1.7969v-8.6406h3.7656c0.86328 0 1.5508 0.22656 2.0625 0.67188 0.51953 0.44922 0.78125 1.1367 0.78125 2.0625z"
                 id="path104" />
        </symbol>
        <symbol
             id="ao"
             overflow="visible">
            <path
                 d="m2.7188-7.1406v2.3281h2.0469c0.40625 0 0.70703-0.046875 0.90625-0.14062 0.36328-0.16406 0.54688-0.49219 0.54688-0.98438 0-0.51953-0.17188-0.86719-0.51562-1.0469-0.19922-0.10156-0.49609-0.15625-0.89062-0.15625zm2.4688-1.5c0.60156 0.011719 1.0664 0.089844 1.3906 0.23438 0.33203 0.13672 0.61328 0.33594 0.84375 0.59375 0.1875 0.21875 0.33203 0.46484 0.4375 0.73438 0.11328 0.26172 0.17188 0.5625 0.17188 0.90625 0 0.40625-0.10547 0.80859-0.3125 1.2031-0.21094 0.39844-0.55469 0.67969-1.0312 0.84375 0.40625 0.15625 0.6875 0.38672 0.84375 0.6875 0.16406 0.29297 0.25 0.74219 0.25 1.3438v0.57812c0 0.39844 0.015625 0.66797 0.046875 0.8125 0.050781 0.21875 0.16016 0.38281 0.32812 0.48438v0.21875h-1.9844c-0.054687-0.1875-0.089844-0.34375-0.10938-0.46875-0.054688-0.23828-0.078125-0.48438-0.078125-0.73438l-0.015625-0.8125c-0.011719-0.55078-0.11719-0.91406-0.3125-1.0938-0.1875-0.1875-0.54688-0.28125-1.0781-0.28125h-1.8594v3.3906h-1.7656v-8.6406z"
                 id="path107" />
        </symbol>
        <symbol
             id="an"
             overflow="visible">
            <path
                 d="m2.5625 0h-1.7812v-8.6406h1.7812zm-0.89062-8.8125z"
                 id="path110" />
        </symbol>
        <symbol
             id="am"
             overflow="visible">
            <path
                 d="m2.6719-7.1406v5.6406h1.6562c0.85156 0 1.4453-0.42188 1.7812-1.2656 0.1875-0.45703 0.28125-1.0039 0.28125-1.6406 0-0.875-0.14062-1.5469-0.42188-2.0156-0.27344-0.47656-0.82031-0.71875-1.6406-0.71875zm1.9688-1.5c0.53125 0.011719 0.97266 0.074219 1.3281 0.1875 0.60156 0.19922 1.0938 0.5625 1.4688 1.0938 0.30078 0.4375 0.50391 0.90625 0.60938 1.4062 0.11328 0.5 0.17188 0.97656 0.17188 1.4219 0 1.1484-0.23047 2.1211-0.6875 2.9219-0.625 1.0742-1.5898 1.6094-2.8906 1.6094h-3.7188v-8.6406z"
                 id="path113" />
        </symbol>
        <symbol
             id="al"
             overflow="visible">
            <path
                 d="m7.2969-7.1094h-4.5625v1.8281h4.1875v1.5h-4.1875v2.2344h4.7812v1.5469h-6.5469v-8.6406h6.3281z"
                 id="path116" />
        </symbol>
        <symbol
             id="ak"
             overflow="visible">
            <path
                 d="m-5.8906-5.7812c-0.44531 0-0.76562 0.12109-0.95312 0.35938-0.19531 0.24219-0.29688 0.57031-0.29688 0.98438v1.6875h2.5469v-1.6875c0-0.41406-0.10156-0.74219-0.3125-0.98438-0.20703-0.23828-0.53516-0.35938-0.98438-0.35938zm-0.015625-1.7812c1.0234 0 1.7461 0.26172 2.1719 0.78125 0.41797 0.51172 0.625 1.2461 0.625 2.2031v1.8281h3.1094v1.7969h-8.6406v-3.7656c0-0.86328 0.22656-1.5508 0.67188-2.0625 0.44922-0.51953 1.1367-0.78125 2.0625-0.78125z"
                 id="path119" />
        </symbol>
        <symbol
             id="aj"
             overflow="visible">
            <path
                 d="m-7.1406-2.7188h2.3281v-2.0469c0-0.40625-0.046875-0.70703-0.14062-0.90625-0.16406-0.36328-0.49219-0.54688-0.98438-0.54688-0.51953 0-0.86719 0.17188-1.0469 0.51562-0.10156 0.19922-0.15625 0.49609-0.15625 0.89062zm-1.5-2.4688c0.011719-0.60156 0.089844-1.0664 0.23438-1.3906 0.13672-0.33203 0.33594-0.61328 0.59375-0.84375 0.21875-0.1875 0.46484-0.33203 0.73438-0.4375 0.26172-0.11328 0.5625-0.17188 0.90625-0.17188 0.40625 0 0.80859 0.10547 1.2031 0.3125 0.39844 0.21094 0.67969 0.55469 0.84375 1.0312 0.15625-0.40625 0.38672-0.6875 0.6875-0.84375 0.29297-0.16406 0.74219-0.25 1.3438-0.25h0.57812c0.39844 0 0.66797-0.015625 0.8125-0.046875 0.21875-0.050781 0.38281-0.16016 0.48438-0.32812h0.21875v1.9844c-0.1875 0.054687-0.34375 0.089844-0.46875 0.10938-0.23828 0.054688-0.48438 0.078125-0.73438 0.078125l-0.8125 0.015625c-0.55078 0.011719-0.91406 0.11719-1.0938 0.3125-0.1875 0.1875-0.28125 0.54688-0.28125 1.0781v1.8594h3.3906v1.7656h-8.6406z"
                 id="path122" />
        </symbol>
        <symbol
             id="ai"
             overflow="visible">
            <path
                 d="m-1.2969-4.7344c0-0.71875-0.25781-1.2852-0.78125-1.7031-0.53125-0.41406-1.2812-0.625-2.25-0.625s-1.7188 0.21094-2.25 0.625c-0.53125 0.41797-0.79688 0.98438-0.79688 1.7031s0.26562 1.293 0.79688 1.7188c0.52344 0.41797 1.2734 0.625 2.25 0.625 0.96875 0 1.7188-0.20703 2.25-0.625 0.52344-0.42578 0.78125-1 0.78125-1.7188zm-3.0312-4.1406c1.5547 0 2.7422 0.4375 3.5625 1.3125 0.66797 0.64844 1 1.5898 1 2.8281 0 1.2305-0.33203 2.1719-1 2.8281-0.82031 0.875-2.0078 1.3125-3.5625 1.3125-1.582 0-2.7695-0.4375-3.5625-1.3125-0.67578-0.65625-1.0156-1.5977-1.0156-2.8281 0-1.2383 0.33984-2.1797 1.0156-2.8281 0.79297-0.875 1.9805-1.3125 3.5625-1.3125zm-4.5781 4.1406z"
                 id="path125" />
        </symbol>
        <symbol
             id="o"
             overflow="visible">
            <path
                 d="m-8.6406-7.1875h1.5312v2.5781h7.1094v1.8125h-7.1094v2.6094h-1.5312z"
                 id="path128" />
        </symbol>
        <symbol
             id="ah"
             overflow="visible">
            <path
                 d="m-7.1094-7.2969v4.5625h1.8281v-4.1875h1.5v4.1875h2.2344v-4.7812h1.5469v6.5469h-8.6406v-6.3281z"
                 id="path131" />
        </symbol>
        <symbol
             id="ag"
             overflow="visible">
            <path
                 d="m-2.6719-2.2188c0.39844-0.050781 0.69531-0.16016 0.89062-0.32812 0.35547-0.28906 0.53125-0.78906 0.53125-1.5 0-0.42578-0.046875-0.77344-0.14062-1.0469-0.17578-0.5-0.50781-0.75-1-0.75-0.28125 0-0.5 0.125-0.65625 0.375s-0.28906 0.64062-0.40625 1.1719l-0.20312 0.92188c-0.20703 0.89844-0.42969 1.5156-0.67188 1.8594-0.39453 0.58594-1.0156 0.875-1.8594 0.875-0.78125 0-1.4258-0.28125-1.9375-0.84375-0.50781-0.5625-0.76562-1.3906-0.76562-2.4844 0-0.90625 0.24609-1.6758 0.73438-2.3125 0.48047-0.64453 1.1797-0.98438 2.0938-1.0156v1.7344c-0.51953 0.03125-0.89062 0.25781-1.1094 0.67188-0.14453 0.28125-0.21875 0.63281-0.21875 1.0469 0 0.46875 0.09375 0.84375 0.28125 1.125 0.1875 0.27344 0.44922 0.40625 0.78125 0.40625 0.3125 0 0.54688-0.13281 0.70312-0.40625 0.09375-0.17578 0.21094-0.55078 0.34375-1.125l0.35938-1.4844c0.15625-0.65625 0.36719-1.1484 0.625-1.4844 0.40625-0.50781 0.99609-0.76562 1.7656-0.76562 0.79297 0 1.4492 0.30469 1.9688 0.90625 0.52344 0.60547 0.78125 1.4531 0.78125 2.5469 0 1.125-0.25391 2.0117-0.76562 2.6562-0.50781 0.64844-1.2188 0.96875-2.125 0.96875zm-6.2344-1.75z"
                 id="path134" />
        </symbol>
        <symbol
             id="af"
             overflow="visible">
            <path
                 d="m2.5-3c0.0625 0.44922 0.17969 0.78125 0.35938 1 0.33203 0.39844 0.89844 0.59375 1.7031 0.59375 0.47656 0 0.86328-0.050781 1.1562-0.15625 0.57031-0.19531 0.85938-0.57031 0.85938-1.125 0-0.32031-0.14062-0.57031-0.42188-0.75-0.28125-0.16406-0.72656-0.31641-1.3281-0.45312l-1.0312-0.23438c-1.0117-0.22656-1.7109-0.47266-2.0938-0.73438-0.65625-0.44531-0.98438-1.1484-0.98438-2.1094 0-0.86328 0.3125-1.582 0.9375-2.1562 0.63281-0.58203 1.5664-0.875 2.7969-0.875 1.0195 0 1.8906 0.27344 2.6094 0.8125 0.72656 0.54297 1.1133 1.3281 1.1562 2.3594h-1.9531c-0.042969-0.58203-0.29688-0.99219-0.76562-1.2344-0.32422-0.16406-0.71875-0.25-1.1875-0.25-0.52344 0-0.9375 0.10938-1.25 0.32812-0.3125 0.21094-0.46875 0.5-0.46875 0.875 0 0.34375 0.15625 0.60547 0.46875 0.78125 0.19531 0.11719 0.61719 0.24609 1.2656 0.39062l1.6719 0.40625c0.72656 0.17969 1.2812 0.41406 1.6562 0.70312 0.58203 0.46094 0.875 1.1211 0.875 1.9844 0 0.88672-0.33984 1.625-1.0156 2.2188-0.67969 0.58594-1.6367 0.875-2.875 0.875-1.2734 0-2.2734-0.28516-3-0.85938-0.71875-0.58203-1.0781-1.3789-1.0781-2.3906zm1.9688-7.0156z"
                 id="path137" />
        </symbol>
        <symbol
             id="z"
             overflow="visible">
            <path
                 d="m2.75-7.1875v4.3281c0 0.41797 0.046875 0.72656 0.14062 0.92188 0.17578 0.36719 0.51562 0.54688 1.0156 0.54688 0.63281 0 1.0703-0.25391 1.3125-0.76562 0.125-0.28125 0.1875-0.65625 0.1875-1.125v-3.9062h1.9062v7.1875h-1.8281v-1.0156c-0.023437 0.023437-0.070313 0.089844-0.14062 0.20312-0.0625 0.10547-0.14062 0.19922-0.23438 0.28125-0.30469 0.27344-0.58984 0.45312-0.85938 0.54688-0.27344 0.09375-0.59375 0.14062-0.96875 0.14062-1.0625 0-1.7773-0.37891-2.1406-1.1406-0.21094-0.42578-0.3125-1.0508-0.3125-1.875v-4.3281zm1.3125-0.1875z"
                 id="path140" />
        </symbol>
        <symbol
             id="n"
             overflow="visible">
            <path
                 d="m3.5312-9.8125c0.11328 0 0.21875 0.007812 0.3125 0.015625 0.10156 0 0.23828 0.007813 0.40625 0.015625v1.5312c-0.10547-0.007812-0.28125-0.015625-0.53125-0.015625-0.25-0.007813-0.42188 0.042969-0.51562 0.15625-0.09375 0.11719-0.14062 0.24609-0.14062 0.39062v0.59375h1.2344v1.3281h-1.2344v5.7969h-1.875v-5.7969h-1.0469v-1.3281h1.0312v-0.45312c0-0.76953 0.12891-1.3008 0.39062-1.5938 0.26953-0.42578 0.92578-0.64062 1.9688-0.64062z"
                 id="path143" />
        </symbol>
        <symbol
             id="h"
             overflow="visible">
            <path
                 d="m2.8125-8.0469h-1.9062v-1.7344h1.9062zm-1.9062 0.85938h1.9062v7.1875h-1.9062z"
                 id="path146" />
        </symbol>
        <symbol
             id="m"
             overflow="visible">
            <path
                 d="m5.1719-4.6094c-0.042969-0.26953-0.13672-0.50781-0.28125-0.71875-0.21094-0.28906-0.53125-0.4375-0.96875-0.4375-0.63672 0-1.0742 0.3125-1.3125 0.9375-0.11719 0.33594-0.17188 0.77734-0.17188 1.3281 0 0.53125 0.054688 0.96094 0.17188 1.2812 0.22656 0.59375 0.64844 0.89062 1.2656 0.89062 0.44531 0 0.75781-0.11328 0.9375-0.34375 0.1875-0.23828 0.30078-0.55078 0.34375-0.9375h1.9219c-0.054687 0.57422-0.26172 1.1172-0.625 1.625-0.59375 0.82422-1.4648 1.2344-2.6094 1.2344-1.1562 0-2.0117-0.34375-2.5625-1.0312-0.54297-0.6875-0.8125-1.5781-0.8125-2.6719 0-1.2266 0.30078-2.1875 0.90625-2.875 0.60156-0.6875 1.4297-1.0312 2.4844-1.0312 0.90625 0 1.6445 0.20312 2.2188 0.60938 0.57031 0.40625 0.91016 1.1211 1.0156 2.1406zm-1.2812-2.7656z"
                 id="path149" />
        </symbol>
        <symbol
             id="l"
             overflow="visible">
            <path
                 d="m3.7188-5.8281c-0.4375 0-0.77734 0.13672-1.0156 0.40625-0.24219 0.27344-0.39062 0.64062-0.45312 1.1094h2.9219c-0.03125-0.5-0.18359-0.875-0.45312-1.125-0.27344-0.25781-0.60547-0.39062-1-0.39062zm0-1.5469c0.59375 0 1.1289 0.11719 1.6094 0.34375 0.47656 0.21875 0.875 0.57031 1.1875 1.0469 0.28125 0.42969 0.46094 0.92188 0.54688 1.4844 0.039062 0.33594 0.0625 0.80859 0.0625 1.4219h-4.9219c0.019531 0.73047 0.24219 1.2344 0.67188 1.5156 0.25781 0.1875 0.57031 0.28125 0.9375 0.28125 0.38281 0 0.70312-0.10938 0.95312-0.32812 0.125-0.125 0.23828-0.28906 0.34375-0.5h1.9219c-0.054688 0.42969-0.27734 0.85938-0.67188 1.2969-0.61719 0.69922-1.4766 1.0469-2.5781 1.0469-0.91797 0-1.7266-0.28906-2.4219-0.875-0.69922-0.59375-1.0469-1.5508-1.0469-2.875 0-1.25 0.3125-2.2031 0.9375-2.8594 0.63281-0.66406 1.457-1 2.4688-1zm0.125 0z"
                 id="path152" />
        </symbol>
        <symbol
             id="k"
             overflow="visible">
            <path
                 d="m4.8594-7.3594c0.73828 0 1.3438 0.19922 1.8125 0.59375 0.47656 0.38672 0.71875 1.0273 0.71875 1.9219v4.8438h-1.9219v-4.375c0-0.375-0.054688-0.66016-0.15625-0.85938-0.1875-0.375-0.53906-0.5625-1.0469-0.5625-0.64844 0-1.0859 0.27344-1.3125 0.8125-0.125 0.28125-0.1875 0.64844-0.1875 1.0938v3.8906h-1.875v-7.1719h1.8125v1.0469c0.23828-0.36328 0.46875-0.62891 0.6875-0.79688 0.38281-0.28906 0.875-0.4375 1.4688-0.4375zm-0.6875-0.015625z"
                 id="path155" />
        </symbol>
        <symbol
             id="y"
             overflow="visible">
            <path
                 d="m1.1719 1.375l0.23438 0.015625c0.1875 0.007813 0.36328 0.003906 0.53125-0.015625 0.16406-0.023438 0.30469-0.074219 0.42188-0.15625 0.10156-0.074219 0.20312-0.23047 0.29688-0.46875 0.09375-0.24219 0.13281-0.38672 0.125-0.4375l-2.6406-7.5h2.0938l1.5625 5.2969 1.4844-5.2969h2l-2.4688 7.0625c-0.48047 1.3633-0.85938 2.207-1.1406 2.5312-0.27344 0.33203-0.82031 0.5-1.6406 0.5h-0.42188c-0.09375 0-0.24219-0.011719-0.4375-0.03125zm2.5469-8.75z"
                 id="path158" />
        </symbol>
        <symbol
             id="x"
             overflow="visible" />
        <symbol
             id="ae"
             overflow="visible">
            <path
                 d="m4.7812-7.3594c0.03125 0 0.054688 0.007813 0.078125 0.015625h0.17188v1.9219c-0.11719-0.007813-0.21875-0.015625-0.3125-0.015625-0.09375-0.007812-0.17188-0.015625-0.23438-0.015625-0.75 0-1.2578 0.24609-1.5156 0.73438-0.14844 0.28125-0.21875 0.71094-0.21875 1.2812v3.4375h-1.8906v-7.1875h1.7969v1.25c0.28125-0.47656 0.53125-0.80469 0.75-0.98438 0.35156-0.28906 0.8125-0.4375 1.375-0.4375z"
                 id="path162" />
        </symbol>
        <symbol
             id="ad"
             overflow="visible">
            <path
                 d="m2.7969 0h-1.875v-9.7188h1.875z"
                 id="path165" />
        </symbol>
        <symbol
             id="ac"
             overflow="visible">
            <path
                 d="m4.8438-3.5c-0.125 0.085938-0.25 0.14844-0.375 0.1875-0.11719 0.042969-0.27734 0.085938-0.48438 0.125l-0.42188 0.078125c-0.39844 0.074219-0.68359 0.16406-0.85938 0.26562-0.28125 0.16797-0.42188 0.43359-0.42188 0.79688 0 0.32422 0.085938 0.55859 0.26562 0.70312 0.17578 0.13672 0.39062 0.20312 0.64062 0.20312 0.40625 0 0.77344-0.11719 1.1094-0.35938 0.34375-0.23828 0.52344-0.67188 0.54688-1.2969zm-1.1406-0.875c0.34375-0.039062 0.58594-0.09375 0.73438-0.15625 0.26953-0.11328 0.40625-0.28906 0.40625-0.53125 0-0.30078-0.10547-0.50391-0.3125-0.60938-0.19922-0.11328-0.49609-0.17188-0.89062-0.17188-0.44922 0-0.76172 0.10938-0.9375 0.32812-0.13672 0.15625-0.22656 0.375-0.26562 0.65625h-1.8125c0.03125-0.625 0.20312-1.1406 0.51562-1.5469 0.5-0.63281 1.3516-0.95312 2.5625-0.95312 0.78906 0 1.4883 0.15625 2.0938 0.46875 0.61328 0.3125 0.92188 0.90234 0.92188 1.7656v3.2969c0 0.23047 0.003906 0.50781 0.015625 0.82812 0.007813 0.25 0.046875 0.42188 0.10938 0.51562 0.0625 0.085937 0.15625 0.15234 0.28125 0.20312v0.28125h-2.0469c-0.0625-0.14453-0.10547-0.28125-0.125-0.40625-0.023437-0.125-0.039063-0.26953-0.046875-0.4375-0.26172 0.28125-0.55859 0.52344-0.89062 0.71875-0.40625 0.22656-0.86719 0.34375-1.375 0.34375-0.65625 0-1.1992-0.18359-1.625-0.54688-0.41797-0.375-0.625-0.89844-0.625-1.5781 0-0.88281 0.33594-1.5234 1.0156-1.9219 0.375-0.21875 0.92578-0.375 1.6562-0.46875zm0.09375-3z"
                 id="path168" />
        </symbol>
        <symbol
             id="ab"
             overflow="visible">
            <path
                 d="m0.14062-5.7812v-1.3438h1v-2h1.8594v2h1.1719v1.3438h-1.1719v3.7969c0 0.29297 0.035156 0.47656 0.10938 0.54688 0.070313 0.074219 0.30078 0.10938 0.6875 0.10938h0.17188c0.070312 0 0.14062-0.003906 0.20312-0.015625v1.4062l-0.89062 0.03125c-0.89844 0.03125-1.5078-0.11719-1.8281-0.45312-0.21094-0.21875-0.3125-0.55078-0.3125-1v-4.4219z"
                 id="path171" />
        </symbol>
        <symbol
             id="aa"
             overflow="visible">
            <path
                 d="m4.0938-1.3281c0.55078 0 0.97266-0.19141 1.2656-0.57812 0.30078-0.39453 0.45312-0.95312 0.45312-1.6719s-0.15234-1.2695-0.45312-1.6562c-0.29297-0.39453-0.71484-0.59375-1.2656-0.59375-0.54297 0-0.96484 0.19922-1.2656 0.59375-0.29297 0.38672-0.4375 0.9375-0.4375 1.6562s0.14453 1.2773 0.4375 1.6719c0.30078 0.38672 0.72266 0.57812 1.2656 0.57812zm3.6875-2.25c0 1.0547-0.30859 1.9531-0.92188 2.7031-0.60547 0.75-1.5234 1.125-2.75 1.125-1.2422 0-2.1641-0.375-2.7656-1.125-0.60547-0.75-0.90625-1.6484-0.90625-2.7031 0-1.0391 0.30078-1.9414 0.90625-2.7031 0.60156-0.75781 1.5234-1.1406 2.7656-1.1406 1.2266 0 2.1445 0.38281 2.75 1.1406 0.61328 0.76172 0.92188 1.6641 0.92188 2.7031zm-3.6719-3.7969z"
                 id="path174" />
        </symbol>
        <clipPath
             id="bi">
            <path
                 d="m234 36h2v353.8h-2z"
                 id="path177" />
        </clipPath>
        <clipPath
             id="bh">
            <path
                 d="m44.641 212h381.16v1h-381.16z"
                 id="path180" />
        </clipPath>
        <clipPath
             id="bg">
            <path
                 d="m44.641 36h381.16v353.8h-381.16z"
                 id="path183" />
        </clipPath>
    </defs>
    <rect
         width="432"
         height="432"
         fill="#fff"
         id="rect185" />
    <path
         d="m44.641 388.8h380.16v-352.8h-380.16v352.8"
         fill="none"
         stroke="#000"
         stroke-linecap="round"
         stroke-linejoin="round"
         stroke-miterlimit="10"
         stroke-width=".75"
         id="path187" />
    <path
         d="m58.719 388.8h352"
         fill="none"
         stroke="#000"
         stroke-linecap="round"
         stroke-linejoin="round"
         stroke-miterlimit="10"
         stroke-width=".75"
         id="path189" />
    <path
         d="m58.719 388.8v5.293"
         fill="none"
         stroke="#000"
         stroke-linecap="round"
         stroke-linejoin="round"
         stroke-miterlimit="10"
         stroke-width=".75"
         id="path191" />
    <path
         d="m93.922 388.8v5.293"
         fill="none"
         stroke="#000"
         stroke-linecap="round"
         stroke-linejoin="round"
         stroke-miterlimit="10"
         stroke-width=".75"
         id="path193" />
    <path
         d="m129.12 388.8v5.293"
         fill="none"
         stroke="#000"
         stroke-linecap="round"
         stroke-linejoin="round"
         stroke-miterlimit="10"
         stroke-width=".75"
         id="path195" />
    <path
         d="m164.32 388.8v5.293"
         fill="none"
         stroke="#000"
         stroke-linecap="round"
         stroke-linejoin="round"
         stroke-miterlimit="10"
         stroke-width=".75"
         id="path197" />
    <path
         d="m199.52 388.8v5.293"
         fill="none"
         stroke="#000"
         stroke-linecap="round"
         stroke-linejoin="round"
         stroke-miterlimit="10"
         stroke-width=".75"
         id="path199" />
    <path
         d="m234.72 388.8v5.293"
         fill="none"
         stroke="#000"
         stroke-linecap="round"
         stroke-linejoin="round"
         stroke-miterlimit="10"
         stroke-width=".75"
         id="path201" />
    <path
         d="m269.92 388.8v5.293"
         fill="none"
         stroke="#000"
         stroke-linecap="round"
         stroke-linejoin="round"
         stroke-miterlimit="10"
         stroke-width=".75"
         id="path203" />
    <path
         d="m305.12 388.8v5.293"
         fill="none"
         stroke="#000"
         stroke-linecap="round"
         stroke-linejoin="round"
         stroke-miterlimit="10"
         stroke-width=".75"
         id="path205" />
    <path
         d="m340.32 388.8v5.293"
         fill="none"
         stroke="#000"
         stroke-linecap="round"
         stroke-linejoin="round"
         stroke-miterlimit="10"
         stroke-width=".75"
         id="path207" />
    <path
         d="m375.52 388.8v5.293"
         fill="none"
         stroke="#000"
         stroke-linecap="round"
         stroke-linejoin="round"
         stroke-miterlimit="10"
         stroke-width=".75"
         id="path209" />
    <path
         d="m410.72 388.8v5.293"
         fill="none"
         stroke="#000"
         stroke-linecap="round"
         stroke-linejoin="round"
         stroke-miterlimit="10"
         stroke-width=".75"
         id="path211" />
    <g
         id="g213">
        <use
             x="51.214844"
             y="407.519531"
             xlink:href="#a"
             id="use215" />
        <use
             x="57.219559"
             y="407.519531"
             xlink:href="#b"
             id="use217" />
        <use
             x="60.219284"
             y="407.519531"
             xlink:href="#a"
             id="use219" />
    </g>
    <g
         id="g221">
        <use
             x="86.417969"
             y="407.519531"
             xlink:href="#a"
             id="use223" />
        <use
             x="92.422684"
             y="407.519531"
             xlink:href="#b"
             id="use225" />
        <use
             x="95.422409"
             y="407.519531"
             xlink:href="#f"
             id="use227" />
    </g>
    <g
         id="g229">
        <use
             x="121.617188"
             y="407.519531"
             xlink:href="#a"
             id="use231" />
        <use
             x="127.621902"
             y="407.519531"
             xlink:href="#b"
             id="use233" />
        <use
             x="130.621628"
             y="407.519531"
             xlink:href="#s"
             id="use235" />
    </g>
    <g
         id="g237">
        <use
             x="156.816406"
             y="407.519531"
             xlink:href="#a"
             id="use239" />
        <use
             x="162.821121"
             y="407.519531"
             xlink:href="#b"
             id="use241" />
        <use
             x="165.820847"
             y="407.519531"
             xlink:href="#r"
             id="use243" />
    </g>
    <g
         id="g245">
        <use
             x="192.015625"
             y="407.519531"
             xlink:href="#a"
             id="use247" />
        <use
             x="198.02034"
             y="407.519531"
             xlink:href="#b"
             id="use249" />
        <use
             x="201.020065"
             y="407.519531"
             xlink:href="#q"
             id="use251" />
    </g>
    <g
         id="g253">
        <use
             x="227.214844"
             y="407.519531"
             xlink:href="#a"
             id="use255" />
        <use
             x="233.219559"
             y="407.519531"
             xlink:href="#b"
             id="use257" />
        <use
             x="236.219284"
             y="407.519531"
             xlink:href="#i"
             id="use259" />
    </g>
    <g
         id="g261">
        <use
             x="262.417969"
             y="407.519531"
             xlink:href="#a"
             id="use263" />
        <use
             x="268.422684"
             y="407.519531"
             xlink:href="#b"
             id="use265" />
        <use
             x="271.422409"
             y="407.519531"
             xlink:href="#p"
             id="use267" />
    </g>
    <g
         id="g269">
        <use
             x="297.617188"
             y="407.519531"
             xlink:href="#a"
             id="use271" />
        <use
             x="303.621902"
             y="407.519531"
             xlink:href="#b"
             id="use273" />
        <use
             x="306.621628"
             y="407.519531"
             xlink:href="#e"
             id="use275" />
    </g>
    <g
         id="g277">
        <use
             x="332.816406"
             y="407.519531"
             xlink:href="#a"
             id="use279" />
        <use
             x="338.821121"
             y="407.519531"
             xlink:href="#b"
             id="use281" />
        <use
             x="341.820847"
             y="407.519531"
             xlink:href="#g"
             id="use283" />
    </g>
    <g
         id="g285">
        <use
             x="368.015625"
             y="407.519531"
             xlink:href="#a"
             id="use287" />
        <use
             x="374.02034"
             y="407.519531"
             xlink:href="#b"
             id="use289" />
        <use
             x="377.020065"
             y="407.519531"
             xlink:href="#d"
             id="use291" />
    </g>
    <g
         id="g293">
        <use
             x="403.214844"
             y="407.519531"
             xlink:href="#f"
             id="use295" />
        <use
             x="409.219559"
             y="407.519531"
             xlink:href="#b"
             id="use297" />
        <use
             x="412.219284"
             y="407.519531"
             xlink:href="#a"
             id="use299" />
    </g>
    <path
         d="m44.641 375.73v-326.67"
         fill="none"
         stroke="#000"
         stroke-linecap="round"
         stroke-linejoin="round"
         stroke-miterlimit="10"
         stroke-width=".75"
         id="path301" />
    <path
         d="m44.641 375.73h-5.293"
         fill="none"
         stroke="#000"
         stroke-linecap="round"
         stroke-linejoin="round"
         stroke-miterlimit="10"
         stroke-width=".75"
         id="path303" />
    <path
         d="m44.641 343.07h-5.293"
         fill="none"
         stroke="#000"
         stroke-linecap="round"
         stroke-linejoin="round"
         stroke-miterlimit="10"
         stroke-width=".75"
         id="path305" />
    <path
         d="m44.641 310.4h-5.293"
         fill="none"
         stroke="#000"
         stroke-linecap="round"
         stroke-linejoin="round"
         stroke-miterlimit="10"
         stroke-width=".75"
         id="path307" />
    <path
         d="m44.641 277.73h-5.293"
         fill="none"
         stroke="#000"
         stroke-linecap="round"
         stroke-linejoin="round"
         stroke-miterlimit="10"
         stroke-width=".75"
         id="path309" />
    <path
         d="m44.641 245.07h-5.293"
         fill="none"
         stroke="#000"
         stroke-linecap="round"
         stroke-linejoin="round"
         stroke-miterlimit="10"
         stroke-width=".75"
         id="path311" />
    <path
         d="m44.641 212.4h-5.293"
         fill="none"
         stroke="#000"
         stroke-linecap="round"
         stroke-linejoin="round"
         stroke-miterlimit="10"
         stroke-width=".75"
         id="path313" />
    <path
         d="m44.641 179.73h-5.293"
         fill="none"
         stroke="#000"
         stroke-linecap="round"
         stroke-linejoin="round"
         stroke-miterlimit="10"
         stroke-width=".75"
         id="path315" />
    <path
         d="m44.641 147.07h-5.293"
         fill="none"
         stroke="#000"
         stroke-linecap="round"
         stroke-linejoin="round"
         stroke-miterlimit="10"
         stroke-width=".75"
         id="path317" />
    <path
         d="m44.641 114.4h-5.293"
         fill="none"
         stroke="#000"
         stroke-linecap="round"
         stroke-linejoin="round"
         stroke-miterlimit="10"
         stroke-width=".75"
         id="path319" />
    <path
         d="m44.641 81.734h-5.293"
         fill="none"
         stroke="#000"
         stroke-linecap="round"
         stroke-linejoin="round"
         stroke-miterlimit="10"
         stroke-width=".75"
         id="path321" />
    <path
         d="m44.641 49.066h-5.293"
         fill="none"
         stroke="#000"
         stroke-linecap="round"
         stroke-linejoin="round"
         stroke-miterlimit="10"
         stroke-width=".75"
         id="path323" />
    <g
         id="g325">
        <use
             x="20.929688"
             y="379.609375"
             xlink:href="#a"
             id="use327" />
        <use
             x="26.934402"
             y="379.609375"
             xlink:href="#b"
             id="use329" />
        <use
             x="29.934128"
             y="379.609375"
             xlink:href="#a"
             id="use331" />
    </g>
    <g
         id="g333">
        <use
             x="20.929688"
             y="346.941406"
             xlink:href="#a"
             id="use335" />
        <use
             x="26.934402"
             y="346.941406"
             xlink:href="#b"
             id="use337" />
        <use
             x="29.934128"
             y="346.941406"
             xlink:href="#f"
             id="use339" />
    </g>
    <g
         id="g341">
        <use
             x="20.929688"
             y="314.273438"
             xlink:href="#a"
             id="use343" />
        <use
             x="26.934402"
             y="314.273438"
             xlink:href="#b"
             id="use345" />
        <use
             x="29.934128"
             y="314.273438"
             xlink:href="#s"
             id="use347" />
    </g>
    <g
         id="g349">
        <use
             x="20.929688"
             y="281.609375"
             xlink:href="#a"
             id="use351" />
        <use
             x="26.934402"
             y="281.609375"
             xlink:href="#b"
             id="use353" />
        <use
             x="29.934128"
             y="281.609375"
             xlink:href="#r"
             id="use355" />
    </g>
    <g
         id="g357">
        <use
             x="20.929688"
             y="248.941406"
             xlink:href="#a"
             id="use359" />
        <use
             x="26.934402"
             y="248.941406"
             xlink:href="#b"
             id="use361" />
        <use
             x="29.934128"
             y="248.941406"
             xlink:href="#q"
             id="use363" />
    </g>
    <g
         id="g365">
        <use
             x="20.929688"
             y="216.273438"
             xlink:href="#a"
             id="use367" />
        <use
             x="26.934402"
             y="216.273438"
             xlink:href="#b"
             id="use369" />
        <use
             x="29.934128"
             y="216.273438"
             xlink:href="#i"
             id="use371" />
    </g>
    <g
         id="g373">
        <use
             x="20.929688"
             y="183.609375"
             xlink:href="#a"
             id="use375" />
        <use
             x="26.934402"
             y="183.609375"
             xlink:href="#b"
             id="use377" />
        <use
             x="29.934128"
             y="183.609375"
             xlink:href="#p"
             id="use379" />
    </g>
    <g
         id="g381">
        <use
             x="20.929688"
             y="150.941406"
             xlink:href="#a"
             id="use383" />
        <use
             x="26.934402"
             y="150.941406"
             xlink:href="#b"
             id="use385" />
        <use
             x="29.934128"
             y="150.941406"
             xlink:href="#e"
             id="use387" />
    </g>
    <g
         id="g389">
        <use
             x="20.929688"
             y="118.273438"
             xlink:href="#a"
             id="use391" />
        <use
             x="26.934402"
             y="118.273438"
             xlink:href="#b"
             id="use393" />
        <use
             x="29.934128"
             y="118.273438"
             xlink:href="#g"
             id="use395" />
    </g>
    <g
         id="g397">
        <use
             x="20.929688"
             y="85.609375"
             xlink:href="#a"
             id="use399" />
        <use
             x="26.934402"
             y="85.609375"
             xlink:href="#b"
             id="use401" />
        <use
             x="29.934128"
             y="85.609375"
             xlink:href="#d"
             id="use403" />
    </g>
    <g
         id="g405">
        <use
             x="20.929688"
             y="52.941406"
             xlink:href="#f"
             id="use407" />
        <use
             x="26.934402"
             y="52.941406"
             xlink:href="#b"
             id="use409" />
        <use
             x="29.934128"
             y="52.941406"
             xlink:href="#a"
             id="use411" />
    </g>
    <g
         id="g413">
        <use
             x="200.546875"
             y="425.519531"
             xlink:href="#at"
             id="use415" />
        <use
             x="207.554688"
             y="425.519531"
             xlink:href="#as"
             id="use417" />
        <use
             x="216.220703"
             y="425.519531"
             xlink:href="#ar"
             id="use419" />
        <use
             x="224.886719"
             y="425.519531"
             xlink:href="#aq"
             id="use421" />
        <use
             x="232.216797"
             y="425.519531"
             xlink:href="#ap"
             id="use423" />
        <use
             x="240.220703"
             y="425.519531"
             xlink:href="#ao"
             id="use425" />
        <use
             x="248.886719"
             y="425.519531"
             xlink:href="#an"
             id="use427" />
        <use
             x="252.220703"
             y="425.519531"
             xlink:href="#am"
             id="use429" />
        <use
             x="260.886719"
             y="425.519531"
             xlink:href="#al"
             id="use431" />
    </g>
    <g
         id="g433">
        <use
             x="12.960938"
             y="240.734375"
             xlink:href="#ak"
             id="use435" />
        <use
             x="12.960938"
             y="232.730469"
             xlink:href="#aj"
             id="use437" />
        <use
             x="12.960938"
             y="224.064453"
             xlink:href="#ai"
             id="use439" />
        <use
             x="12.960938"
             y="214.730469"
             xlink:href="#o"
             id="use441" />
        <use
             x="12.960938"
             y="207.400391"
             xlink:href="#ah"
             id="use443" />
        <use
             x="12.960938"
             y="199.396484"
             xlink:href="#ag"
             id="use445" />
        <use
             x="12.960938"
             y="191.392578"
             xlink:href="#o"
             id="use447" />
    </g>
    <g
         id="g449">
        <use
             x="172.453125"
             y="14.398438"
             xlink:href="#af"
             id="use451" />
        <use
             x="181.45752"
             y="14.398438"
             xlink:href="#z"
             id="use453" />
        <use
             x="189.703857"
             y="14.398438"
             xlink:href="#n"
             id="use455" />
        <use
             x="194.199463"
             y="14.398438"
             xlink:href="#n"
             id="use457" />
        <use
             x="198.695068"
             y="14.398438"
             xlink:href="#h"
             id="use459" />
        <use
             x="202.445801"
             y="14.398438"
             xlink:href="#m"
             id="use461" />
        <use
             x="209.953857"
             y="14.398438"
             xlink:href="#h"
             id="use463" />
        <use
             x="213.70459"
             y="14.398438"
             xlink:href="#l"
             id="use465" />
        <use
             x="221.212646"
             y="14.398438"
             xlink:href="#k"
             id="use467" />
        <use
             x="229.458984"
             y="14.398438"
             xlink:href="#m"
             id="use469" />
        <use
             x="236.967041"
             y="14.398438"
             xlink:href="#y"
             id="use471" />
        <use
             x="244.475098"
             y="14.398438"
             xlink:href="#x"
             id="use473" />
        <use
             x="248.22583"
             y="14.398438"
             xlink:href="#ae"
             id="use475" />
        <use
             x="253.479492"
             y="14.398438"
             xlink:href="#l"
             id="use477" />
        <use
             x="260.987549"
             y="14.398438"
             xlink:href="#ad"
             id="use479" />
        <use
             x="264.738281"
             y="14.398438"
             xlink:href="#ac"
             id="use481" />
        <use
             x="272.246338"
             y="14.398438"
             xlink:href="#ab"
             id="use483" />
        <use
             x="276.741943"
             y="14.398438"
             xlink:href="#h"
             id="use485" />
        <use
             x="280.492676"
             y="14.398438"
             xlink:href="#aa"
             id="use487" />
        <use
             x="288.739014"
             y="14.398438"
             xlink:href="#k"
             id="use489" />
    </g>
    <g
         clip-path="url(#bi)"
         id="g491">
        <path
             d="m234.72 388.8v-352.8"
             fill="none"
             stroke="#bebebe"
             stroke-dasharray="3,3"
             stroke-linecap="round"
             stroke-linejoin="round"
             stroke-miterlimit="10"
             stroke-width=".75"
             id="path493" />
    </g>
    <g
         clip-path="url(#bh)"
         id="g495">
        <path
             d="m44.641 212.4h380.16"
             fill="none"
             stroke="#bebebe"
             stroke-dasharray="3,3"
             stroke-linecap="round"
             stroke-linejoin="round"
             stroke-miterlimit="10"
             stroke-width=".75"
             id="path497" />
    </g>
    <g
         clip-path="url(#bg)"
         id="g499">
        <path
             d="m44.641 388.8l380.16-352.8"
             fill="none"
             stroke="#bebebe"
             stroke-linecap="round"
             stroke-linejoin="round"
             stroke-miterlimit="10"
             stroke-width=".75"
             id="path501" />
    </g>
    <path
         d="m141.84 222.2c0 2.8789-4.3203 2.8789-4.3203 0 0-2.8789 4.3203-2.8789 4.3203 0"
         fill="#707070"
         stroke="#000"
         stroke-linecap="round"
         stroke-linejoin="round"
         stroke-miterlimit="10"
         stroke-width=".75"
         id="path503" />
    <path
         d="m103.12 147.07c0 2.8789-4.3203 2.8789-4.3203 0s4.3203-2.8789 4.3203 0"
         fill="#707070"
         stroke="#000"
         stroke-linecap="round"
         stroke-linejoin="round"
         stroke-miterlimit="10"
         stroke-width=".75"
         id="path505" />
    <path
         d="m92.559 365.93c0 2.8789-4.3203 2.8789-4.3203 0s4.3203-2.8789 4.3203 0"
         fill="#707070"
         stroke="#000"
         stroke-linecap="round"
         stroke-linejoin="round"
         stroke-miterlimit="10"
         stroke-width=".75"
         id="path507" />
    <path
         d="m131.28 365.93c0 2.8789-4.3203 2.8789-4.3203 0s4.3203-2.8789 4.3203 0"
         fill="#707070"
         stroke="#000"
         stroke-linecap="round"
         stroke-linejoin="round"
         stroke-miterlimit="10"
         stroke-width=".75"
         id="path509" />
    <path
         d="m201.68 365.93c0 2.8789-4.3203 2.8789-4.3203 0s4.3203-2.8789 4.3203 0"
         fill="#707070"
         stroke="#000"
         stroke-linecap="round"
         stroke-linejoin="round"
         stroke-miterlimit="10"
         stroke-width=".75"
         id="path511" />
    <path
         d="m180.56 287.54c0 2.8789-4.3203 2.8789-4.3203 0 0-2.8828 4.3203-2.8828 4.3203 0"
         fill="#707070"
         stroke="#000"
         stroke-linecap="round"
         stroke-linejoin="round"
         stroke-miterlimit="10"
         stroke-width=".75"
         id="path513" />
    <path
         d="m74.961 326.73c0 2.8789-4.3203 2.8789-4.3203 0 0-2.8828 4.3203-2.8828 4.3203 0"
         fill="#707070"
         stroke="#000"
         stroke-linecap="round"
         stroke-linejoin="round"
         stroke-miterlimit="10"
         stroke-width=".75"
         id="path515" />
    <path
         d="m106.64 232c0 2.8789-4.3203 2.8789-4.3203 0s4.3203-2.8789 4.3203 0"
         fill="#707070"
         stroke="#000"
         stroke-linecap="round"
         stroke-linejoin="round"
         stroke-miterlimit="10"
         stroke-width=".75"
         id="path517" />
    <path
         d="m166.48 222.2c0 2.8789-4.3203 2.8789-4.3203 0 0-2.8789 4.3203-2.8789 4.3203 0"
         fill="#707070"
         stroke="#000"
         stroke-linecap="round"
         stroke-linejoin="round"
         stroke-miterlimit="10"
         stroke-width=".75"
         id="path519" />
    <path
         d="m120.72 258.13c0 2.8789-4.3203 2.8789-4.3203 0 0-2.8789 4.3203-2.8789 4.3203 0"
         fill="#707070"
         stroke="#000"
         stroke-linecap="round"
         stroke-linejoin="round"
         stroke-miterlimit="10"
         stroke-width=".75"
         id="path521" />
    <path
         d="m222.8 117.67c0 2.8789-4.3203 2.8789-4.3203 0 0-2.8828 4.3203-2.8828 4.3203 0"
         fill="#707070"
         stroke="#000"
         stroke-linecap="round"
         stroke-linejoin="round"
         stroke-miterlimit="10"
         stroke-width=".75"
         id="path523" />
    <path
         d="m85.52 267.93c0 2.8789-4.3203 2.8789-4.3203 0s4.3203-2.8789 4.3203 0"
         fill="#707070"
         stroke="#000"
         stroke-linecap="round"
         stroke-linejoin="round"
         stroke-miterlimit="10"
         stroke-width=".75"
         id="path525" />
    <path
         d="m110.16 369.2c0 2.8789-4.3203 2.8789-4.3203 0 0-2.8789 4.3203-2.8789 4.3203 0"
         fill="#707070"
         stroke="#000"
         stroke-linecap="round"
         stroke-linejoin="round"
         stroke-miterlimit="10"
         stroke-width=".75"
         id="path527" />
    <path
         d="m148.88 258.13c0 2.8789-4.3203 2.8789-4.3203 0 0-2.8789 4.3203-2.8789 4.3203 0"
         fill="#707070"
         stroke="#000"
         stroke-linecap="round"
         stroke-linejoin="round"
         stroke-miterlimit="10"
         stroke-width=".75"
         id="path529" />
    <path
         d="m310.8 98.066c0 2.8789-4.3203 2.8789-4.3203 0s4.3203-2.8789 4.3203 0"
         fill="#707070"
         stroke="#000"
         stroke-linecap="round"
         stroke-linejoin="round"
         stroke-miterlimit="10"
         stroke-width=".75"
         id="path531" />
    <path
         d="m324.88 98.066c0 2.8789-4.3203 2.8789-4.3203 0s4.3203-2.8789 4.3203 0"
         fill="#707070"
         stroke="#000"
         stroke-linecap="round"
         stroke-linejoin="round"
         stroke-miterlimit="10"
         stroke-width=".75"
         id="path533" />
    <path
         d="m106.64 189.54c0 2.8789-4.3203 2.8789-4.3203 0 0-2.8828 4.3203-2.8828 4.3203 0"
         fill="#707070"
         stroke="#000"
         stroke-linecap="round"
         stroke-linejoin="round"
         stroke-miterlimit="10"
         stroke-width=".75"
         id="path535" />
    <path
         d="m78.48 346.33c0 2.8828-4.3203 2.8828-4.3203 0 0-2.8789 4.3203-2.8789 4.3203 0"
         fill="#707070"
         stroke="#000"
         stroke-linecap="round"
         stroke-linejoin="round"
         stroke-miterlimit="10"
         stroke-width=".75"
         id="path537" />
    <path
         d="m201.68 137.27c0 2.8828-4.3203 2.8828-4.3203 0 0-2.8789 4.3203-2.8789 4.3203 0"
         fill="#707070"
         stroke="#000"
         stroke-linecap="round"
         stroke-linejoin="round"
         stroke-miterlimit="10"
         stroke-width=".75"
         id="path539" />
    <path
         d="m233.36 192.8c0 2.8789-4.3203 2.8789-4.3203 0 0-2.8789 4.3203-2.8789 4.3203 0"
         fill="#707070"
         stroke="#000"
         stroke-linecap="round"
         stroke-linejoin="round"
         stroke-miterlimit="10"
         stroke-width=".75"
         id="path541" />
    <path
         d="m194.64 183c0 2.8789-4.3203 2.8789-4.3203 0s4.3203-2.8789 4.3203 0"
         fill="#707070"
         stroke="#000"
         stroke-linecap="round"
         stroke-linejoin="round"
         stroke-miterlimit="10"
         stroke-width=".75"
         id="path543" />
    <path
         d="m279.12 71.934c0 2.8789-4.3203 2.8789-4.3203 0s4.3203-2.8789 4.3203 0"
         fill="#707070"
         stroke="#000"
         stroke-linecap="round"
         stroke-linejoin="round"
         stroke-miterlimit="10"
         stroke-width=".75"
         id="path545" />
    <path
         d="m110.16 192.8c0 2.8789-4.3203 2.8789-4.3203 0 0-2.8789 4.3203-2.8789 4.3203 0"
         fill="#707070"
         stroke="#000"
         stroke-linecap="round"
         stroke-linejoin="round"
         stroke-miterlimit="10"
         stroke-width=".75"
         id="path547" />
    <path
         d="m148.88 85c0 2.8789-4.3203 2.8789-4.3203 0s4.3203-2.8789 4.3203 0"
         fill="#707070"
         stroke="#000"
         stroke-linecap="round"
         stroke-linejoin="round"
         stroke-miterlimit="10"
         stroke-width=".75"
         id="path549" />
    <path
         d="m103.12 258.13c0 2.8789-4.3203 2.8789-4.3203 0 0-2.8789 4.3203-2.8789 4.3203 0"
         fill="#707070"
         stroke="#000"
         stroke-linecap="round"
         stroke-linejoin="round"
         stroke-miterlimit="10"
         stroke-width=".75"
         id="path551" />
    <path
         d="m391.76 85c0 2.8789-4.3203 2.8789-4.3203 0s4.3203-2.8789 4.3203 0"
         fill="#707070"
         stroke="#000"
         stroke-linecap="round"
         stroke-linejoin="round"
         stroke-miterlimit="10"
         stroke-width=".75"
         id="path553" />
    <path
         d="m293.2 205.87c0 2.8789-4.3203 2.8789-4.3203 0 0-2.8789 4.3203-2.8789 4.3203 0"
         fill="#707070"
         stroke="#000"
         stroke-linecap="round"
         stroke-linejoin="round"
         stroke-miterlimit="10"
         stroke-width=".75"
         id="path555" />
    <path
         d="m261.52 98.066c0 2.8789-4.3203 2.8789-4.3203 0s4.3203-2.8789 4.3203 0"
         fill="#707070"
         stroke="#000"
         stroke-linecap="round"
         stroke-linejoin="round"
         stroke-miterlimit="10"
         stroke-width=".75"
         id="path557" />
    <path
         d="m268.56 55.602c0 2.8789-4.3203 2.8789-4.3203 0 0-2.8828 4.3203-2.8828 4.3203 0"
         fill="#707070"
         stroke="#000"
         stroke-linecap="round"
         stroke-linejoin="round"
         stroke-miterlimit="10"
         stroke-width=".75"
         id="path559" />
    <g
         id="g561">
        <use
             x="58.71875"
             y="33.121094"
             xlink:href="#w"
             id="use563" />
        <use
             x="61.718475"
             y="33.121094"
             xlink:href="#v"
             id="use565" />
        <use
             x="67.72319"
             y="33.121094"
             xlink:href="#bf"
             id="use567" />
        <use
             x="73.121628"
             y="33.121094"
             xlink:href="#be"
             id="use569" />
        <use
             x="75.520355"
             y="33.121094"
             xlink:href="#bd"
             id="use571" />
        <use
             x="81.52507"
             y="33.121094"
             xlink:href="#bc"
             id="use573" />
        <use
             x="86.923508"
             y="33.121094"
             xlink:href="#bb"
             id="use575" />
        <use
             x="89.322235"
             y="33.121094"
             xlink:href="#u"
             id="use577" />
        <use
             x="95.32695"
             y="33.121094"
             xlink:href="#v"
             id="use579" />
        <use
             x="101.331665"
             y="33.121094"
             xlink:href="#j"
             id="use581" />
        <use
             x="104.33139"
             y="33.121094"
             xlink:href="#c"
             id="use583" />
        <use
             x="107.331116"
             y="33.121094"
             xlink:href="#a"
             id="use585" />
        <use
             x="113.335831"
             y="33.121094"
             xlink:href="#b"
             id="use587" />
        <use
             x="116.335556"
             y="33.121094"
             xlink:href="#g"
             id="use589" />
        <use
             x="122.340271"
             y="33.121094"
             xlink:href="#d"
             id="use591" />
        <use
             x="128.344986"
             y="33.121094"
             xlink:href="#d"
             id="use593" />
        <use
             x="134.349701"
             y="33.121094"
             xlink:href="#c"
             id="use595" />
        <use
             x="137.349426"
             y="33.121094"
             xlink:href="#c"
             id="use597" />
        <use
             x="140.349152"
             y="33.121094"
             xlink:href="#c"
             id="use599" />
        <use
             x="143.348877"
             y="33.121094"
             xlink:href="#ba"
             id="use601" />
        <use
             x="151.146042"
             y="33.121094"
             xlink:href="#u"
             id="use603" />
        <use
             x="157.150757"
             y="33.121094"
             xlink:href="#az"
             id="use605" />
        <use
             x="162.549194"
             y="33.121094"
             xlink:href="#t"
             id="use607" />
        <use
             x="168.553909"
             y="33.121094"
             xlink:href="#ay"
             id="use609" />
        <use
             x="172.149353"
             y="33.121094"
             xlink:href="#ax"
             id="use611" />
        <use
             x="178.154068"
             y="33.121094"
             xlink:href="#aw"
             id="use613" />
        <use
             x="184.158783"
             y="33.121094"
             xlink:href="#t"
             id="use615" />
        <use
             x="190.163498"
             y="33.121094"
             xlink:href="#j"
             id="use617" />
        <use
             x="193.163223"
             y="33.121094"
             xlink:href="#c"
             id="use619" />
        <use
             x="196.162949"
             y="33.121094"
             xlink:href="#a"
             id="use621" />
        <use
             x="202.167664"
             y="33.121094"
             xlink:href="#b"
             id="use623" />
        <use
             x="205.167389"
             y="33.121094"
             xlink:href="#i"
             id="use625" />
        <use
             x="211.172104"
             y="33.121094"
             xlink:href="#d"
             id="use627" />
        <use
             x="217.176819"
             y="33.121094"
             xlink:href="#e"
             id="use629" />
        <use
             x="223.181534"
             y="33.121094"
             xlink:href="#c"
             id="use631" />
        <use
             x="226.181259"
             y="33.121094"
             xlink:href="#c"
             id="use633" />
        <use
             x="229.180984"
             y="33.121094"
             xlink:href="#c"
             id="use635" />
        <use
             x="232.18071"
             y="33.121094"
             xlink:href="#av"
             id="use637" />
        <use
             x="239.382141"
             y="33.121094"
             xlink:href="#au"
             id="use639" />
        <use
             x="247.179306"
             y="33.121094"
             xlink:href="#w"
             id="use641" />
        <use
             x="250.179031"
             y="33.121094"
             xlink:href="#j"
             id="use643" />
        <use
             x="253.178757"
             y="33.121094"
             xlink:href="#c"
             id="use645" />
        <use
             x="256.178482"
             y="33.121094"
             xlink:href="#a"
             id="use647" />
        <use
             x="262.183197"
             y="33.121094"
             xlink:href="#b"
             id="use649" />
        <use
             x="265.182922"
             y="33.121094"
             xlink:href="#g"
             id="use651" />
        <use
             x="271.187637"
             y="33.121094"
             xlink:href="#a"
             id="use653" />
        <use
             x="277.192352"
             y="33.121094"
             xlink:href="#e"
             id="use655" />
    </g>
</svg>
