<?xml version="1.0" encoding="UTF-8" standalone="no"?>
<svg
     xmlns:dc="http://purl.org/dc/elements/1.1/"
     xmlns:cc="http://creativecommons.org/ns#"
     xmlns:rdf="http://www.w3.org/1999/02/22-rdf-syntax-ns#"
     xmlns:svg="http://www.w3.org/2000/svg"
     xmlns="http://www.w3.org/2000/svg"
     xmlns:xlink="http://www.w3.org/1999/xlink"
     xmlns:sodipodi="http://sodipodi.sourceforge.net/DTD/sodipodi-0.dtd"
     xmlns:inkscape="http://www.inkscape.org/namespaces/inkscape"
     width="432pt"
     height="432pt"
     version="1.1"
     viewBox="0 0 432 432"
     id="svg2"
     inkscape:version="0.92.2 5c3e80d, 2017-08-06"
     sodipodi:docname="XYplot-13.svg">
    <metadata
         id="metadata815">
        <rdf:RDF>
            <cc:Work
                 rdf:about="">
                <dc:format>image/svg+xml</dc:format>
                <dc:type
                     rdf:resource="http://purl.org/dc/dcmitype/StillImage" />
                <dc:title></dc:title>
            </cc:Work>
        </rdf:RDF>
    </metadata>
    <sodipodi:namedview
         pagecolor="#ffffff"
         bordercolor="#666666"
         borderopacity="1"
         objecttolerance="10"
         gridtolerance="10"
         guidetolerance="10"
         inkscape:pageopacity="0"
         inkscape:pageshadow="2"
         inkscape:window-width="808"
         inkscape:window-height="480"
         id="namedview813"
         showgrid="false"
         inkscape:zoom="0.437"
         inkscape:cx="13.71"
         inkscape:cy="270"
         inkscape:window-x="0"
         inkscape:window-y="0"
         inkscape:window-maximized="0"
         inkscape:current-layer="svg2" />
    <defs
         id="defs4">
        <symbol
             id="a"
             overflow="visible">
            <path
                 d="m2.5938-6.7031c0.86328 0 1.4922 0.35547 1.8906 1.0625 0.28906 0.55469 0.4375 1.3125 0.4375 2.2812 0 0.90625-0.13672 1.6641-0.40625 2.2656-0.38672 0.85547-1.0273 1.2812-1.9219 1.2812-0.8125 0-1.4141-0.34766-1.7969-1.0469-0.33594-0.59375-0.5-1.3789-0.5-2.3594 0-0.75781 0.097656-1.4141 0.29688-1.9688 0.36328-1.0078 1.0312-1.5156 2-1.5156zm-0.015625 6.125c0.4375 0 0.78516-0.19141 1.0469-0.57812 0.25781-0.39453 0.39062-1.1172 0.39062-2.1719 0-0.75781-0.09375-1.3828-0.28125-1.875-0.1875-0.5-0.55469-0.75-1.0938-0.75-0.49219 0-0.85156 0.23438-1.0781 0.70312-0.23047 0.46875-0.34375 1.1562-0.34375 2.0625 0 0.6875 0.070312 1.2422 0.21875 1.6562 0.21875 0.63672 0.59766 0.95312 1.1406 0.95312z"
                 id="path7" />
        </symbol>
        <symbol
             id="b"
             overflow="visible">
            <path
                 d="m0.8125-1.0156h0.98438v1.0156h-0.98438z"
                 id="path10" />
        </symbol>
        <symbol
             id="c"
             overflow="visible">
            <path
                 d="m0.92188-4.75v-0.64062c0.60156-0.0625 1.0234-0.16016 1.2656-0.29688 0.23828-0.14453 0.42188-0.47656 0.54688-1h0.65625v6.6875h-0.89062v-4.75z"
                 id="path13" />
        </symbol>
        <symbol
             id="d"
             overflow="visible">
            <path
                 d="m0.29688 0c0.03125-0.57031 0.14844-1.0703 0.35938-1.5 0.20703-0.4375 0.61328-0.82812 1.2188-1.1719l0.89062-0.51562c0.40625-0.23828 0.69141-0.44141 0.85938-0.60938 0.25-0.25781 0.375-0.55469 0.375-0.89062 0-0.38281-0.12109-0.69141-0.35938-0.92188-0.23047-0.22656-0.53906-0.34375-0.92188-0.34375-0.58594 0-0.98438 0.21875-1.2031 0.65625-0.11719 0.23047-0.17969 0.55469-0.1875 0.96875h-0.85938c0.007812-0.58203 0.11328-1.0547 0.3125-1.4219 0.36328-0.65625 1.0078-0.98438 1.9375-0.98438 0.76953 0 1.332 0.21094 1.6875 0.625 0.35156 0.41797 0.53125 0.88281 0.53125 1.3906 0 0.53125-0.1875 0.99219-0.5625 1.375-0.21875 0.21875-0.61719 0.49219-1.1875 0.8125l-0.64062 0.34375c-0.30469 0.16797-0.54297 0.32812-0.71875 0.48438-0.3125 0.27344-0.51172 0.57422-0.59375 0.90625h3.6719v0.79688z"
                 id="path16" />
        </symbol>
        <symbol
             id="l"
             overflow="visible">
            <path
                 d="m2.4844 0.1875c-0.79297 0-1.3672-0.21875-1.7188-0.65625-0.35547-0.4375-0.53125-0.96875-0.53125-1.5938h0.875c0.039063 0.4375 0.125 0.75781 0.25 0.95312 0.21875 0.35547 0.60938 0.53125 1.1719 0.53125 0.44531 0 0.80469-0.11719 1.0781-0.35938 0.26953-0.23828 0.40625-0.54688 0.40625-0.92188 0-0.45703-0.14844-0.78125-0.4375-0.96875-0.28125-0.1875-0.67188-0.28125-1.1719-0.28125-0.054688 0-0.10938 0.007813-0.17188 0.015625h-0.17188v-0.75c0.082031 0.011719 0.15625 0.023438 0.21875 0.03125h0.1875c0.32031 0 0.58203-0.050781 0.78125-0.15625 0.35156-0.17578 0.53125-0.48828 0.53125-0.9375 0-0.33203-0.12109-0.58594-0.35938-0.76562-0.23047-0.1875-0.50781-0.28125-0.82812-0.28125-0.5625 0-0.94922 0.1875-1.1562 0.5625-0.125 0.21094-0.19531 0.50781-0.20312 0.89062h-0.84375c0-0.5 0.10156-0.92578 0.3125-1.2812 0.34375-0.625 0.94531-0.9375 1.8125-0.9375 0.67578 0 1.2031 0.15625 1.5781 0.46875 0.375 0.30469 0.5625 0.74219 0.5625 1.3125 0 0.41797-0.10938 0.75-0.32812 1-0.13672 0.15625-0.3125 0.28125-0.53125 0.375 0.35156 0.09375 0.62891 0.28125 0.82812 0.5625 0.19531 0.28125 0.29688 0.62109 0.29688 1.0156 0 0.63672-0.21484 1.1562-0.64062 1.5625-0.41797 0.40625-1.0156 0.60938-1.7969 0.60938z"
                 id="path19" />
        </symbol>
        <symbol
             id="k"
             overflow="visible">
            <path
                 d="m3.1719-2.375v-3.0469l-2.1562 3.0469zm0.015625 2.375v-1.6406h-2.9375v-0.82812l3.0625-4.2656h0.71875v4.3594h0.98438v0.73438h-0.98438v1.6406z"
                 id="path22" />
        </symbol>
        <symbol
             id="i"
             overflow="visible">
            <path
                 d="m1.1875-1.7031c0.050781 0.48047 0.27344 0.80859 0.67188 0.98438 0.19531 0.09375 0.42578 0.14062 0.6875 0.14062 0.5 0 0.86719-0.15625 1.1094-0.46875 0.23828-0.32031 0.35938-0.67578 0.35938-1.0625 0-0.46875-0.14844-0.82812-0.4375-1.0781-0.28125-0.25781-0.62109-0.39062-1.0156-0.39062-0.29297 0-0.54297 0.058594-0.75 0.17188-0.21094 0.11719-0.38672 0.27344-0.53125 0.46875l-0.73438-0.046875 0.51562-3.6094h3.4844v0.8125h-2.8438l-0.29688 1.8594c0.15625-0.11328 0.30469-0.20312 0.45312-0.26562 0.25-0.10156 0.53516-0.15625 0.85938-0.15625 0.61328 0 1.1328 0.20312 1.5625 0.60938 0.42578 0.39844 0.64062 0.89844 0.64062 1.5 0 0.63672-0.19922 1.1992-0.59375 1.6875-0.38672 0.48047-1.0078 0.71875-1.8594 0.71875-0.55469 0-1.0391-0.15234-1.4531-0.45312-0.41797-0.3125-0.65234-0.78516-0.70312-1.4219z"
                 id="path25" />
        </symbol>
        <symbol
             id="j"
             overflow="visible">
            <path
                 d="m2.8125-6.7344c0.75 0 1.2695 0.19922 1.5625 0.59375 0.28906 0.38672 0.4375 0.78125 0.4375 1.1875h-0.82812c-0.054687-0.25781-0.13281-0.46875-0.23438-0.625-0.21094-0.28125-0.52344-0.42188-0.9375-0.42188-0.46875 0-0.84375 0.21875-1.125 0.65625-0.27344 0.4375-0.42188 1.0625-0.45312 1.875 0.1875-0.28125 0.42969-0.49219 0.73438-0.64062 0.25781-0.125 0.55469-0.1875 0.89062-0.1875 0.5625 0 1.0508 0.18359 1.4688 0.54688 0.41406 0.35547 0.625 0.88672 0.625 1.5938 0 0.61719-0.19922 1.1562-0.59375 1.625-0.39844 0.46875-0.96094 0.70312-1.6875 0.70312-0.625 0-1.168-0.23438-1.625-0.70312-0.46094-0.47656-0.6875-1.2852-0.6875-2.4219 0-0.83203 0.10156-1.5352 0.3125-2.1094 0.38281-1.1133 1.0977-1.6719 2.1406-1.6719zm-0.0625 6.1562c0.4375 0 0.76562-0.14453 0.98438-0.4375 0.22656-0.30078 0.34375-0.65625 0.34375-1.0625 0-0.34375-0.10156-0.67188-0.29688-0.98438-0.19922-0.3125-0.55859-0.46875-1.0781-0.46875-0.36719 0-0.68359 0.12109-0.95312 0.35938-0.27344 0.24219-0.40625 0.60547-0.40625 1.0938 0 0.42969 0.11719 0.78906 0.35938 1.0781 0.25 0.28125 0.59766 0.42188 1.0469 0.42188z"
                 id="path28" />
        </symbol>
        <symbol
             id="g"
             overflow="visible">
            <path
                 d="m5.0156-6.5938v0.73438c-0.21875 0.21094-0.50781 0.57422-0.85938 1.0938-0.35547 0.52344-0.67188 1.0781-0.95312 1.6719-0.27344 0.58594-0.47656 1.1172-0.60938 1.5938-0.09375 0.3125-0.21484 0.8125-0.35938 1.5h-0.92188c0.20703-1.2812 0.67578-2.5547 1.4062-3.8281 0.42578-0.73828 0.875-1.3789 1.3438-1.9219h-3.7188v-0.84375z"
                 id="path31" />
        </symbol>
        <symbol
             id="h"
             overflow="visible">
            <path
                 d="m2.6094-3.8906c0.375 0 0.66406-0.10156 0.875-0.3125 0.20703-0.20703 0.3125-0.45703 0.3125-0.75 0-0.25-0.10547-0.47656-0.3125-0.6875-0.19922-0.20703-0.5-0.3125-0.90625-0.3125s-0.70312 0.10547-0.89062 0.3125c-0.17969 0.21094-0.26562 0.45312-0.26562 0.73438 0 0.3125 0.11328 0.5625 0.34375 0.75 0.23828 0.17969 0.51953 0.26562 0.84375 0.26562zm0.046875 3.3125c0.39453 0 0.71875-0.10156 0.96875-0.3125 0.25781-0.20703 0.39062-0.52344 0.39062-0.95312 0-0.42578-0.13672-0.75-0.40625-0.96875-0.26172-0.22656-0.60156-0.34375-1.0156-0.34375-0.39844 0-0.72656 0.11719-0.98438 0.34375-0.25 0.23047-0.375 0.54688-0.375 0.95312 0 0.34375 0.11328 0.64844 0.34375 0.90625 0.23828 0.25 0.59766 0.375 1.0781 0.375zm-1.1875-3c-0.24219-0.09375-0.42969-0.20703-0.5625-0.34375-0.24219-0.25-0.35938-0.57812-0.35938-0.98438 0-0.5 0.17578-0.92578 0.53125-1.2812 0.36328-0.36328 0.87891-0.54688 1.5469-0.54688 0.64453 0 1.1484 0.17188 1.5156 0.51562 0.36328 0.34375 0.54688 0.74219 0.54688 1.1875 0 0.41797-0.10547 0.75781-0.3125 1.0156-0.125 0.14844-0.3125 0.29297-0.5625 0.4375 0.28125 0.125 0.5 0.27344 0.65625 0.4375 0.30078 0.3125 0.45312 0.71875 0.45312 1.2188 0 0.58594-0.19922 1.0859-0.59375 1.5-0.39844 0.40625-0.96094 0.60938-1.6875 0.60938-0.65625 0-1.2109-0.17969-1.6562-0.53125-0.44922-0.35156-0.67188-0.86719-0.67188-1.5469 0-0.39453 0.09375-0.73438 0.28125-1.0156 0.19531-0.28906 0.48828-0.51562 0.875-0.67188z"
                 id="path34" />
        </symbol>
        <symbol
             id="f"
             overflow="visible">
            <path
                 d="m1.2812-1.625c0.019531 0.46875 0.19531 0.79297 0.53125 0.96875 0.17578 0.09375 0.36719 0.14062 0.57812 0.14062 0.40625 0 0.75-0.16406 1.0312-0.5 0.28125-0.33203 0.48438-1.0156 0.60938-2.0469-0.1875 0.29297-0.42188 0.5-0.70312 0.625-0.27344 0.11719-0.57031 0.17188-0.89062 0.17188-0.64844 0-1.1562-0.19531-1.5312-0.59375-0.375-0.40625-0.5625-0.92578-0.5625-1.5625 0-0.60156 0.17969-1.1328 0.54688-1.5938 0.375-0.46875 0.92578-0.70312 1.6562-0.70312 0.97656 0 1.6484 0.44531 2.0156 1.3281 0.20703 0.48047 0.3125 1.0859 0.3125 1.8125 0 0.82422-0.125 1.5547-0.375 2.1875-0.40625 1.0547-1.1016 1.5781-2.0781 1.5781-0.65625 0-1.1562-0.17188-1.5-0.51562-0.33594-0.34375-0.5-0.77344-0.5-1.2969zm1.2656-1.375c0.33203 0 0.64062-0.10938 0.92188-0.32812s0.42188-0.60156 0.42188-1.1562c0-0.48828-0.125-0.85156-0.375-1.0938-0.25-0.25-0.57031-0.375-0.95312-0.375-0.41797 0-0.74609 0.14062-0.98438 0.42188-0.24219 0.27344-0.35938 0.64062-0.35938 1.1094 0 0.4375 0.10156 0.78906 0.3125 1.0469 0.21875 0.25 0.55469 0.375 1.0156 0.375z"
                 id="path37" />
        </symbol>
        <symbol
             id="w"
             overflow="visible">
            <path
                 d="m0.9375-6.875h0.95312v6.875h-0.95312z"
                 id="path40" />
        </symbol>
        <symbol
             id="v"
             overflow="visible">
            <path
                 d="m0.625-5.0156h0.79688v0.70312c0.23828-0.28906 0.48828-0.5 0.75-0.625 0.26953-0.125 0.56641-0.1875 0.89062-0.1875 0.70703 0 1.1875 0.24609 1.4375 0.73438 0.13281 0.27344 0.20312 0.66406 0.20312 1.1719v3.2188h-0.85938v-3.1562c0-0.3125-0.042969-0.5625-0.125-0.75-0.15625-0.3125-0.42969-0.46875-0.8125-0.46875-0.21094 0-0.375 0.023438-0.5 0.0625-0.23047 0.074219-0.43359 0.21484-0.60938 0.42188-0.13672 0.15625-0.22656 0.32422-0.26562 0.5-0.042969 0.17969-0.0625 0.43359-0.0625 0.76562v2.625h-0.84375zm1.9688-0.125z"
                 id="path43" />
        </symbol>
        <symbol
             id="bf"
             overflow="visible">
            <path
                 d="m2.5469-5.1562c0.57031 0 1.0352 0.13672 1.3906 0.40625 0.35156 0.27344 0.56641 0.74609 0.64062 1.4219h-0.82812c-0.054688-0.3125-0.16797-0.56641-0.34375-0.76562-0.17969-0.20703-0.46484-0.3125-0.85938-0.3125-0.53125 0-0.91406 0.26172-1.1406 0.78125-0.15625 0.34375-0.23438 0.76562-0.23438 1.2656s0.10156 0.92188 0.3125 1.2656c0.21875 0.34375 0.55469 0.51562 1.0156 0.51562 0.34375 0 0.61719-0.10156 0.82812-0.3125 0.20703-0.21875 0.34766-0.51562 0.42188-0.89062h0.82812c-0.09375 0.66797-0.32812 1.1562-0.70312 1.4688-0.375 0.30469-0.85547 0.45312-1.4375 0.45312-0.65625 0-1.1836-0.23828-1.5781-0.71875-0.38672-0.47656-0.57812-1.0781-0.57812-1.7969 0-0.875 0.21094-1.5547 0.64062-2.0469 0.42578-0.48828 0.96875-0.73438 1.625-0.73438zm-0.125 0.015625z"
                 id="path46" />
        </symbol>
        <symbol
             id="be"
             overflow="visible">
            <path
                 d="m0.64062-6.875h0.84375v6.875h-0.84375z"
                 id="path49" />
        </symbol>
        <symbol
             id="bd"
             overflow="visible">
            <path
                 d="m1.4688-5.0156v3.3281c0 0.26172 0.035156 0.46875 0.10938 0.625 0.15625 0.30469 0.4375 0.45312 0.84375 0.45312 0.58203 0 0.98438-0.25781 1.2031-0.78125 0.11328-0.28125 0.17188-0.66406 0.17188-1.1562v-2.4688h0.84375v5.0156h-0.79688v-0.73438c-0.10547 0.1875-0.24219 0.35156-0.40625 0.48438-0.32422 0.25781-0.71484 0.39062-1.1719 0.39062-0.71094 0-1.1953-0.23828-1.4531-0.71875-0.14844-0.25781-0.21875-0.60156-0.21875-1.0312v-3.4062zm1.1562-0.125z"
                 id="path52" />
        </symbol>
        <symbol
             id="bc"
             overflow="visible">
            <path
                 d="m1.125-1.5781c0.019531 0.28125 0.085938 0.5 0.20312 0.65625 0.21875 0.27344 0.58594 0.40625 1.1094 0.40625 0.3125 0 0.58203-0.066406 0.8125-0.20312 0.23828-0.13281 0.35938-0.34766 0.35938-0.64062 0-0.20703-0.09375-0.36719-0.28125-0.48438-0.125-0.070312-0.36719-0.14844-0.71875-0.23438l-0.67188-0.17188c-0.42969-0.10156-0.74219-0.22266-0.9375-0.35938-0.36719-0.22656-0.54688-0.54688-0.54688-0.95312 0-0.46875 0.16406-0.84766 0.5-1.1406 0.34375-0.28906 0.80469-0.4375 1.3906-0.4375 0.75 0 1.2969 0.21875 1.6406 0.65625 0.20703 0.28125 0.30469 0.58594 0.29688 0.90625h-0.79688c-0.011719-0.1875-0.078125-0.35938-0.20312-0.51562-0.1875-0.21875-0.52344-0.32812-1-0.32812-0.32422 0-0.57031 0.0625-0.73438 0.1875-0.15625 0.11719-0.23438 0.27344-0.23438 0.46875 0 0.21875 0.10156 0.39844 0.3125 0.53125 0.125 0.074219 0.3125 0.14062 0.5625 0.20312l0.54688 0.14062c0.61328 0.14844 1.0195 0.28906 1.2188 0.42188 0.33203 0.21875 0.5 0.55859 0.5 1.0156 0 0.44922-0.17188 0.83594-0.51562 1.1562-0.33594 0.32031-0.85156 0.48438-1.5469 0.48438-0.74219 0-1.2656-0.16797-1.5781-0.5-0.3125-0.34375-0.48047-0.76562-0.5-1.2656zm1.2344-3.5625z"
                 id="path55" />
        </symbol>
        <symbol
             id="bb"
             overflow="visible">
            <path
                 d="m0.625-5h0.84375v5h-0.84375zm0-1.875h0.84375v0.95312h-0.84375z"
                 id="path58" />
        </symbol>
        <symbol
             id="u"
             overflow="visible">
            <path
                 d="m2.6094-0.54688c0.5625 0 0.94531-0.20703 1.1562-0.625 0.20703-0.42578 0.3125-0.89844 0.3125-1.4219 0-0.46875-0.078125-0.84766-0.23438-1.1406-0.24219-0.45703-0.64844-0.6875-1.2188-0.6875-0.52344 0-0.90234 0.19922-1.1406 0.59375-0.23047 0.38672-0.34375 0.85938-0.34375 1.4219 0 0.53125 0.11328 0.97656 0.34375 1.3281 0.23828 0.35547 0.61328 0.53125 1.125 0.53125zm0.03125-4.6094c0.64453 0 1.1914 0.21484 1.6406 0.64062 0.44531 0.42969 0.67188 1.0625 0.67188 1.9062 0 0.80469-0.19922 1.4688-0.59375 2-0.39844 0.53125-1.0078 0.79688-1.8281 0.79688-0.6875 0-1.2344-0.23438-1.6406-0.70312s-0.60938-1.0977-0.60938-1.8906c0-0.83203 0.21094-1.5 0.64062-2 0.42578-0.5 1-0.75 1.7188-0.75zm-0.03125 0.015625z"
                 id="path61" />
        </symbol>
        <symbol
             id="n"
             overflow="visible">
            <path
                 d="m1.0625-4.9531h0.98438v1.0156h-0.98438zm0 3.9375h0.98438v1.0156h-0.98438z"
                 id="path64" />
        </symbol>
        <symbol
             id="e"
             overflow="visible" />
        <symbol
             id="ba"
             overflow="visible">
            <path
                 d="m3.625-7.0625c0.875 0 1.5508 0.23047 2.0312 0.6875 0.47656 0.46094 0.74219 0.98047 0.79688 1.5625h-0.90625c-0.10547-0.44531-0.3125-0.80078-0.625-1.0625-0.30469-0.25781-0.73047-0.39062-1.2812-0.39062-0.67969 0-1.2266 0.24219-1.6406 0.71875-0.41797 0.48047-0.625 1.2109-0.625 2.1875 0 0.8125 0.1875 1.4688 0.5625 1.9688s0.9375 0.75 1.6875 0.75c0.6875 0 1.207-0.26562 1.5625-0.79688 0.1875-0.26953 0.32812-0.63281 0.42188-1.0938h0.92188c-0.085938 0.73047-0.35547 1.3398-0.8125 1.8281-0.54297 0.58594-1.2773 0.875-2.2031 0.875-0.80469 0-1.4766-0.23828-2.0156-0.71875-0.71875-0.64453-1.0781-1.6328-1.0781-2.9688 0-1.0078 0.26953-1.8438 0.8125-2.5 0.57031-0.69531 1.3672-1.0469 2.3906-1.0469zm-0.1875 0z"
                 id="path68" />
        </symbol>
        <symbol
             id="az"
             overflow="visible">
            <path
                 d="m1.0312-5.0156l1.3438 4.0781 1.3906-4.0781h0.92188l-1.8906 5.0156h-0.89062l-1.8594-5.0156z"
                 id="path71" />
        </symbol>
        <symbol
             id="t"
             overflow="visible">
            <path
                 d="m2.7031-5.125c0.35156 0 0.69531 0.085938 1.0312 0.25 0.34375 0.16797 0.59766 0.38281 0.76562 0.64062 0.17578 0.26172 0.28906 0.55859 0.34375 0.89062 0.050781 0.23047 0.078125 0.60156 0.078125 1.1094h-3.6875c0.019531 0.51172 0.14062 0.92188 0.35938 1.2344 0.22656 0.30469 0.57812 0.45312 1.0469 0.45312 0.44531 0 0.80078-0.14453 1.0625-0.4375 0.14453-0.16406 0.25-0.36328 0.3125-0.59375h0.82812c-0.023438 0.1875-0.09375 0.39844-0.21875 0.625-0.11719 0.21875-0.25 0.40234-0.40625 0.54688-0.26172 0.25-0.57812 0.42188-0.95312 0.51562-0.21094 0.039063-0.4375 0.0625-0.6875 0.0625-0.625 0-1.1562-0.22266-1.5938-0.67188-0.42969-0.45703-0.64062-1.0938-0.64062-1.9062s0.21875-1.4688 0.65625-1.9688 1.0039-0.75 1.7031-0.75zm1.3438 2.2188c-0.03125-0.36328-0.10938-0.65625-0.23438-0.875-0.23047-0.40625-0.61719-0.60938-1.1562-0.60938-0.38672 0-0.71484 0.14062-0.98438 0.42188-0.26172 0.27344-0.39844 0.625-0.40625 1.0625zm-1.4219-2.2344z"
                 id="path74" />
        </symbol>
        <symbol
             id="ay"
             overflow="visible">
            <path
                 d="m0.64062-5.0156h0.79688v0.85938c0.070312-0.16406 0.23438-0.36719 0.48438-0.60938 0.25781-0.23828 0.55469-0.35938 0.89062-0.35938h0.078125c0.039063 0 0.10156 0.007812 0.1875 0.015625v0.89062c-0.054687-0.007812-0.10156-0.015625-0.14062-0.015625h-0.125c-0.42969 0-0.75781 0.13672-0.98438 0.40625-0.23047 0.27344-0.34375 0.58594-0.34375 0.9375v2.8906h-0.84375z"
                 id="path77" />
        </symbol>
        <symbol
             id="ax"
             overflow="visible">
            <path
                 d="m1.2656-1.3281c0 0.24219 0.085937 0.43359 0.26562 0.57812 0.17578 0.13672 0.39062 0.20312 0.64062 0.20312 0.28906 0 0.57812-0.066406 0.85938-0.20312 0.46875-0.22656 0.70312-0.60156 0.70312-1.125v-0.67188c-0.10547 0.0625-0.24219 0.11719-0.40625 0.15625-0.15625 0.042969-0.3125 0.074219-0.46875 0.09375l-0.51562 0.0625c-0.30469 0.042969-0.53125 0.10938-0.6875 0.20312-0.26172 0.14844-0.39062 0.38281-0.39062 0.70312zm2.0469-1.7188c0.1875-0.019531 0.31641-0.097656 0.39062-0.23438 0.03125-0.070312 0.046875-0.17969 0.046875-0.32812 0-0.28125-0.10547-0.48438-0.3125-0.60938-0.19922-0.13281-0.49219-0.20312-0.875-0.20312-0.4375 0-0.75 0.11719-0.9375 0.34375-0.10547 0.13672-0.17188 0.33594-0.20312 0.59375h-0.78125c0.019531-0.61328 0.22266-1.0391 0.60938-1.2812 0.38281-0.25 0.82812-0.375 1.3281-0.375 0.59375 0 1.0781 0.11719 1.4531 0.34375 0.36328 0.21875 0.54688 0.57031 0.54688 1.0469v2.8906c0 0.085937 0.015625 0.15234 0.046875 0.20312 0.039062 0.054688 0.11719 0.078125 0.23438 0.078125h0.10938c0.050781 0 0.10156-0.003906 0.15625-0.015625v0.60938c-0.125 0.039062-0.22656 0.066406-0.29688 0.078125-0.0625 0.007812-0.15625 0.015625-0.28125 0.015625-0.29297 0-0.5-0.10547-0.625-0.3125-0.074219-0.10156-0.125-0.25781-0.15625-0.46875-0.16797 0.23047-0.41406 0.42969-0.73438 0.59375-0.32422 0.16406-0.67969 0.25-1.0625 0.25-0.46875 0-0.85156-0.14062-1.1406-0.42188-0.29297-0.28125-0.4375-0.63281-0.4375-1.0625 0-0.46875 0.14062-0.82812 0.42188-1.0781 0.28906-0.25781 0.67578-0.42188 1.1562-0.48438zm-0.70312-2.0938z"
                 id="path80" />
        </symbol>
        <symbol
             id="aw"
             overflow="visible">
            <path
                 d="m2.3906-5.1094c0.39453 0 0.73828 0.10156 1.0312 0.29688 0.15625 0.10547 0.31641 0.26172 0.48438 0.46875v-0.625h0.78125v4.5625c0 0.63281-0.09375 1.1328-0.28125 1.5-0.35547 0.6875-1.0156 1.0312-1.9844 1.0312-0.54297 0-1-0.125-1.375-0.375-0.36719-0.24219-0.57031-0.61719-0.60938-1.125h0.85938c0.039063 0.21875 0.125 0.39062 0.25 0.51562 0.1875 0.1875 0.48438 0.28125 0.89062 0.28125 0.64453 0 1.0664-0.23047 1.2656-0.6875 0.125-0.26172 0.17969-0.73828 0.17188-1.4375-0.16797 0.26172-0.37109 0.45312-0.60938 0.57812-0.24219 0.125-0.55469 0.1875-0.9375 0.1875-0.54297 0-1.0234-0.19141-1.4375-0.57812-0.40625-0.38281-0.60938-1.0234-0.60938-1.9219 0-0.83203 0.20312-1.4844 0.60938-1.9531 0.41406-0.47656 0.91406-0.71875 1.5-0.71875zm1.5156 2.5781c0-0.625-0.13281-1.082-0.39062-1.375-0.25-0.30078-0.57422-0.45312-0.96875-0.45312-0.59375 0-1 0.27734-1.2188 0.82812-0.11719 0.30469-0.17188 0.69531-0.17188 1.1719 0 0.5625 0.11328 0.99609 0.34375 1.2969 0.22656 0.29297 0.53516 0.4375 0.92188 0.4375 0.60156 0 1.0312-0.27344 1.2812-0.82812 0.13281-0.30078 0.20312-0.66016 0.20312-1.0781zm-1.4219-2.6094z"
                 id="path83" />
        </symbol>
        <symbol
             id="av"
             overflow="visible">
            <path
                 d="m0.8125-6.875h3.1094c0.60156 0 1.0938 0.17188 1.4688 0.51562s0.5625 0.82812 0.5625 1.4531c0 0.53125-0.16797 1-0.5 1.4062-0.33594 0.39844-0.84375 0.59375-1.5312 0.59375h-2.1719v2.9062h-0.9375zm4.2031 1.9688c0-0.5-0.1875-0.84375-0.5625-1.0312-0.21094-0.09375-0.49219-0.14062-0.84375-0.14062h-1.8594v2.375h1.8594c0.41406 0 0.75391-0.085937 1.0156-0.26562 0.25781-0.17578 0.39062-0.48828 0.39062-0.9375z"
                 id="path86" />
        </symbol>
        <symbol
             id="au"
             overflow="visible">
            <path
                 d="m3.9375-3.7344c0.4375 0 0.78125-0.082031 1.0312-0.25 0.25-0.17578 0.375-0.49219 0.375-0.95312 0-0.48828-0.17969-0.82031-0.53125-1-0.1875-0.09375-0.44531-0.14062-0.76562-0.14062h-2.2656v2.3438zm-3.0938-3.1406h3.1875c0.51953 0 0.95312 0.074219 1.2969 0.21875 0.64453 0.29297 0.96875 0.83594 0.96875 1.625 0 0.41797-0.089844 0.75781-0.26562 1.0156-0.16797 0.26172-0.40234 0.47656-0.70312 0.64062 0.26953 0.10547 0.47266 0.24609 0.60938 0.42188 0.13281 0.17969 0.20703 0.46875 0.21875 0.875l0.03125 0.92188c0.007812 0.26172 0.035156 0.45312 0.078125 0.57812 0.050781 0.21875 0.14844 0.35938 0.29688 0.42188v0.15625h-1.1406c-0.03125-0.0625-0.058594-0.14062-0.078125-0.23438-0.023438-0.09375-0.039062-0.26953-0.046875-0.53125l-0.0625-1.1562c-0.023437-0.44531-0.1875-0.75-0.5-0.90625-0.17969-0.082031-0.46094-0.125-0.84375-0.125h-2.1094v2.9531h-0.9375z"
                 id="path89" />
        </symbol>
        <symbol
             id="at"
             overflow="visible">
            <path
                 d="m0.015625-1.6094c0.0625-0.41406 0.14453-0.77344 0.25-1.0781 0.11328-0.30078 0.25391-0.55078 0.42188-0.75 0.16406-0.19531 0.33594-0.33594 0.51562-0.42188 0.1875-0.082031 0.37891-0.125 0.57812-0.125 0.082031 0 0.19141 0.011719 0.32812 0.03125 0.21875 0.03125 0.42188 0.085937 0.60938 0.15625l1.2344 0.46875c0.14453 0.0625 0.28516 0.10547 0.42188 0.125 0.13281 0.023437 0.23828 0.03125 0.3125 0.03125 0.22656 0 0.41016-0.085937 0.54688-0.26562 0.13281-0.1875 0.23438-0.40625 0.29688-0.65625h0.90625c-0.09375 0.65625-0.29297 1.2188-0.59375 1.6875-0.29297 0.46094-0.6875 0.6875-1.1875 0.6875-0.09375 0-0.19922-0.003906-0.3125-0.015625-0.21094-0.03125-0.46094-0.10938-0.75-0.23438l-1.0938-0.42188c-0.10547-0.03125-0.23047-0.0625-0.375-0.09375-0.14844-0.03125-0.25781-0.046875-0.32812-0.046875-0.19922 0-0.375 0.078125-0.53125 0.23438-0.15625 0.14844-0.26562 0.375-0.32812 0.6875z"
                 id="path92" />
        </symbol>
        <symbol
             id="as"
             overflow="visible">
            <path
                 d="m0.79688-7.7656h1.7031l3.0938 5.4219v-5.4219h1.5156v7.7656h-1.625l-3.1719-5.5156v5.5156h-1.5156zm3.2188-0.015625z"
                 id="path95" />
        </symbol>
        <symbol
             id="ar"
             overflow="visible">
            <path
                 d="m2.9531-2.9375h1.9688l-0.96875-3.0625zm0.09375-4.8281h1.8281l2.7656 7.7656h-1.7656l-0.5-1.5938h-2.8594l-0.54688 1.5938h-1.6875zm0.90625 0z"
                 id="path98" />
        </symbol>
        <symbol
             id="aq"
             overflow="visible">
            <path
                 d="m6.4688-7.7656v1.375h-2.3281v6.3906h-1.625v-6.3906h-2.3438v-1.375z"
                 id="path101" />
        </symbol>
        <symbol
             id="ap"
             overflow="visible">
            <path
                 d="m5.2031-5.2969c0-0.40625-0.10938-0.69141-0.32812-0.85938-0.21094-0.17578-0.50781-0.26562-0.89062-0.26562h-1.5156v2.2812h1.5156c0.38281 0 0.67969-0.085937 0.89062-0.26562 0.21875-0.1875 0.32812-0.48438 0.32812-0.89062zm1.6094-0.015625c0 0.91797-0.23438 1.5703-0.70312 1.9531-0.46094 0.375-1.1211 0.5625-1.9844 0.5625h-1.6562v2.7969h-1.6094v-7.7656h3.3906c0.78125 0 1.3984 0.20312 1.8594 0.60938 0.46875 0.39844 0.70312 1.0117 0.70312 1.8438z"
                 id="path104" />
        </symbol>
        <symbol
             id="ao"
             overflow="visible">
            <path
                 d="m2.4531-6.4219v2.0938h1.8281c0.36328 0 0.64062-0.039063 0.82812-0.125 0.32031-0.15625 0.48438-0.44531 0.48438-0.875 0-0.47656-0.15625-0.79688-0.46875-0.95312-0.17969-0.09375-0.44531-0.14062-0.79688-0.14062zm2.2188-1.3438c0.53906 0.011719 0.95703 0.078125 1.25 0.20312 0.30078 0.11719 0.55078 0.29297 0.75 0.53125 0.16406 0.19922 0.29688 0.41797 0.39062 0.65625 0.10156 0.24219 0.15625 0.51172 0.15625 0.8125 0 0.375-0.09375 0.74219-0.28125 1.0938-0.1875 0.35547-0.49609 0.60547-0.92188 0.75 0.36328 0.14844 0.61719 0.35547 0.76562 0.625 0.14453 0.26172 0.21875 0.66797 0.21875 1.2188v0.51562c0 0.35547 0.015625 0.59375 0.046875 0.71875 0.039063 0.19922 0.14062 0.35156 0.29688 0.45312v0.1875h-1.7812c-0.054688-0.17578-0.089844-0.31641-0.10938-0.42188-0.042969-0.21875-0.070313-0.44141-0.078125-0.67188v-0.71875c-0.011719-0.48828-0.10547-0.81641-0.28125-0.98438-0.16797-0.16406-0.49219-0.25-0.96875-0.25h-1.6719v3.0469h-1.5938v-7.7656z"
                 id="path107" />
        </symbol>
        <symbol
             id="an"
             overflow="visible">
            <path
                 d="m2.3125 0h-1.6094v-7.7656h1.6094zm-0.8125-7.9219z"
                 id="path110" />
        </symbol>
        <symbol
             id="am"
             overflow="visible">
            <path
                 d="m2.4062-6.4219v5.0781h1.4844c0.76953 0 1.3047-0.37891 1.6094-1.1406 0.16406-0.41406 0.25-0.91016 0.25-1.4844 0-0.78906-0.125-1.3945-0.375-1.8125-0.25-0.42578-0.74609-0.64062-1.4844-0.64062zm1.7656-1.3438c0.47656 0 0.87891 0.054687 1.2031 0.15625 0.53906 0.1875 0.98438 0.52344 1.3281 1 0.25781 0.38672 0.4375 0.80469 0.53125 1.25 0.10156 0.44922 0.15625 0.875 0.15625 1.2812 0 1.0312-0.20312 1.9062-0.60938 2.625-0.5625 0.96875-1.4336 1.4531-2.6094 1.4531h-3.3438v-7.7656z"
                 id="path113" />
        </symbol>
        <symbol
             id="al"
             overflow="visible">
            <path
                 d="m6.5625-6.3906h-4.1094v1.6406h3.7812v1.3594h-3.7812v2h4.3125v1.3906h-5.8906v-7.7656h5.6875z"
                 id="path116" />
        </symbol>
        <symbol
             id="ak"
             overflow="visible">
            <path
                 d="m-5.2969-5.2031c-0.40625 0-0.69141 0.10938-0.85938 0.32812-0.17578 0.21094-0.26562 0.50781-0.26562 0.89062v1.5156h2.2812v-1.5156c0-0.38281-0.085937-0.67969-0.26562-0.89062-0.1875-0.21875-0.48438-0.32812-0.89062-0.32812zm-0.015625-1.6094c0.91797 0 1.5703 0.23438 1.9531 0.70312 0.375 0.46094 0.5625 1.1211 0.5625 1.9844v1.6562h2.7969v1.6094h-7.7656v-3.3906c0-0.78125 0.20312-1.3984 0.60938-1.8594 0.39844-0.46875 1.0117-0.70312 1.8438-0.70312z"
                 id="path119" />
        </symbol>
        <symbol
             id="aj"
             overflow="visible">
            <path
                 d="m-6.4219-2.4531h2.0938v-1.8281c0-0.36328-0.039063-0.64062-0.125-0.82812-0.15625-0.32031-0.44531-0.48438-0.875-0.48438-0.47656 0-0.79688 0.15625-0.95312 0.46875-0.09375 0.17969-0.14062 0.44531-0.14062 0.79688zm-1.3438-2.2188c0.011719-0.53906 0.078125-0.95703 0.20312-1.25 0.11719-0.30078 0.29297-0.55078 0.53125-0.75 0.19922-0.16406 0.41797-0.29688 0.65625-0.39062 0.24219-0.10156 0.51172-0.15625 0.8125-0.15625 0.375 0 0.74219 0.09375 1.0938 0.28125 0.35547 0.1875 0.60547 0.49609 0.75 0.92188 0.14844-0.36328 0.35547-0.61719 0.625-0.76562 0.26172-0.14453 0.66797-0.21875 1.2188-0.21875h0.51562c0.35547 0 0.59375-0.015625 0.71875-0.046875 0.19922-0.039063 0.35156-0.14062 0.45312-0.29688h0.1875v1.7812c-0.17578 0.054688-0.31641 0.089844-0.42188 0.10938-0.21875 0.042969-0.44141 0.070313-0.67188 0.078125h-0.71875c-0.48828 0.011719-0.81641 0.10547-0.98438 0.28125-0.16406 0.16797-0.25 0.49219-0.25 0.96875v1.6719h3.0469v1.5938h-7.7656z"
                 id="path122" />
        </symbol>
        <symbol
             id="ai"
             overflow="visible">
            <path
                 d="m-1.1562-4.2656c0-0.63281-0.23438-1.1406-0.70312-1.5156-0.47656-0.38281-1.1562-0.57812-2.0312-0.57812s-1.5469 0.19531-2.0156 0.57812c-0.47656 0.375-0.71875 0.88281-0.71875 1.5156 0 0.64844 0.24219 1.1641 0.71875 1.5469 0.46875 0.38672 1.1406 0.57812 2.0156 0.57812s1.5547-0.19141 2.0312-0.57812c0.46875-0.38281 0.70312-0.89844 0.70312-1.5469zm-2.7344-3.7188c1.3984 0 2.4648 0.39062 3.2031 1.1719 0.60547 0.59375 0.90625 1.4453 0.90625 2.5469 0 1.1172-0.30078 1.9648-0.90625 2.5469-0.73828 0.79297-1.8047 1.1875-3.2031 1.1875-1.4258 0-2.4922-0.39453-3.2031-1.1875-0.61328-0.58203-0.92188-1.4297-0.92188-2.5469 0-1.1016 0.30859-1.9531 0.92188-2.5469 0.71094-0.78125 1.7773-1.1719 3.2031-1.1719zm-4.125 3.7188z"
                 id="path125" />
        </symbol>
        <symbol
             id="s"
             overflow="visible">
            <path
                 d="m-7.7656-6.4688h1.375v2.3281h6.3906v1.625h-6.3906v2.3438h-1.375z"
                 id="path128" />
        </symbol>
        <symbol
             id="ah"
             overflow="visible">
            <path
                 d="m-6.3906-6.5625v4.1094h1.6406v-3.7812h1.3594v3.7812h2v-4.3125h1.3906v5.8906h-7.7656v-5.6875z"
                 id="path131" />
        </symbol>
        <symbol
             id="ag"
             overflow="visible">
            <path
                 d="m-2.4062-2c0.36719-0.050781 0.63281-0.14453 0.79688-0.28125 0.32422-0.26953 0.48438-0.72266 0.48438-1.3594 0-0.38281-0.039062-0.69531-0.125-0.9375-0.15625-0.44531-0.45703-0.67188-0.90625-0.67188-0.25 0-0.44531 0.10938-0.59375 0.32812-0.13281 0.23047-0.25391 0.58594-0.35938 1.0625l-0.1875 0.82812c-0.17578 0.80469-0.375 1.3594-0.59375 1.6719-0.35156 0.52344-0.91406 0.78125-1.6875 0.78125-0.6875 0-1.2578-0.25-1.7188-0.75-0.46875-0.50781-0.70312-1.2539-0.70312-2.2344 0-0.82031 0.21875-1.5195 0.65625-2.0938 0.42969-0.58203 1.0586-0.88281 1.8906-0.90625v1.5469c-0.46875 0.03125-0.80078 0.24219-1 0.625-0.125 0.25-0.1875 0.5625-0.1875 0.9375 0 0.41797 0.085937 0.75 0.25 1 0.16797 0.25 0.40234 0.375 0.70312 0.375 0.28125 0 0.49219-0.125 0.625-0.375 0.09375-0.15625 0.19922-0.48828 0.3125-1l0.32812-1.3438c0.13672-0.58203 0.32422-1.0234 0.5625-1.3281 0.36719-0.46875 0.89844-0.70312 1.5938-0.70312 0.71094 0 1.2969 0.27734 1.7656 0.82812 0.46875 0.54297 0.70312 1.3086 0.70312 2.2969 0 1.0117-0.22656 1.8086-0.6875 2.3906-0.46875 0.57422-1.1094 0.85938-1.9219 0.85938zm-5.6094-1.5781z"
                 id="path134" />
        </symbol>
        <symbol
             id="af"
             overflow="visible">
            <path
                 d="m2.2188-2.6719c0.050781 0.39844 0.16016 0.69531 0.32812 0.89062 0.28906 0.35547 0.78906 0.53125 1.5 0.53125 0.42578 0 0.77344-0.046875 1.0469-0.14062 0.5-0.17578 0.75-0.50781 0.75-1 0-0.28125-0.125-0.5-0.375-0.65625s-0.64062-0.28906-1.1719-0.40625l-0.92188-0.20312c-0.89844-0.20703-1.5156-0.42969-1.8594-0.67188-0.58594-0.39453-0.875-1.0156-0.875-1.8594 0-0.78125 0.28125-1.4258 0.84375-1.9375 0.5625-0.50781 1.3906-0.76562 2.4844-0.76562 0.90625 0 1.6758 0.24609 2.3125 0.73438 0.64453 0.48047 0.98438 1.1797 1.0156 2.0938h-1.7344c-0.03125-0.51953-0.25781-0.89062-0.67188-1.1094-0.28125-0.14453-0.63281-0.21875-1.0469-0.21875-0.46875 0-0.84375 0.09375-1.125 0.28125-0.27344 0.1875-0.40625 0.44922-0.40625 0.78125 0 0.3125 0.13281 0.54688 0.40625 0.70312 0.17578 0.09375 0.55078 0.21094 1.125 0.34375l1.4844 0.35938c0.65625 0.15625 1.1484 0.36719 1.4844 0.625 0.50781 0.40625 0.76562 0.99609 0.76562 1.7656 0 0.79297-0.30469 1.4492-0.90625 1.9688-0.60547 0.52344-1.4531 0.78125-2.5469 0.78125-1.125 0-2.0117-0.25391-2.6562-0.76562-0.64844-0.50781-0.96875-1.2188-0.96875-2.125zm1.75-6.2344z"
                 id="path137" />
        </symbol>
        <symbol
             id="z"
             overflow="visible">
            <path
                 d="m2.4375-6.3906v3.8594c0 0.35547 0.046875 0.625 0.14062 0.8125 0.14453 0.32422 0.44141 0.48438 0.89062 0.48438 0.57031 0 0.96094-0.22656 1.1719-0.6875 0.11328-0.25 0.17188-0.57812 0.17188-0.98438v-3.4844h1.6875v6.3906h-1.625v-0.90625c-0.011719 0.023438-0.046875 0.085938-0.10938 0.1875-0.0625 0.09375-0.14062 0.17969-0.23438 0.25-0.26172 0.23047-0.51562 0.38672-0.76562 0.46875-0.24219 0.09375-0.52344 0.14062-0.84375 0.14062-0.94922 0-1.5859-0.33594-1.9062-1.0156-0.1875-0.375-0.28125-0.92578-0.28125-1.6562v-3.8594zm1.1719-0.17188z"
                 id="path140" />
        </symbol>
        <symbol
             id="r"
             overflow="visible">
            <path
                 d="m3.1406-8.7188c0.10156 0 0.19531 0.007812 0.28125 0.015625 0.082031 0 0.20312 0.007813 0.35938 0.015625v1.3594c-0.09375-0.007813-0.25781-0.015625-0.48438-0.015625-0.21875-0.007812-0.37109 0.039062-0.45312 0.14062-0.085938 0.09375-0.125 0.20312-0.125 0.32812v0.54688h1.0938v1.1719h-1.0938v5.1562h-1.6562v-5.1562h-0.9375v-1.1719h0.90625v-0.40625c0-0.6875 0.11719-1.1602 0.35938-1.4219 0.23828-0.375 0.82031-0.5625 1.75-0.5625z"
                 id="path143" />
        </symbol>
        <symbol
             id="m"
             overflow="visible">
            <path
                 d="m2.5-7.1562h-1.7031v-1.5312h1.7031zm-1.7031 0.76562h1.7031v6.3906h-1.7031z"
                 id="path146" />
        </symbol>
        <symbol
             id="q"
             overflow="visible">
            <path
                 d="m4.5938-4.0938c-0.03125-0.23828-0.10938-0.45312-0.23438-0.64062-0.1875-0.25781-0.48047-0.39062-0.875-0.39062-0.5625 0-0.94922 0.27734-1.1562 0.82812-0.11719 0.30469-0.17188 0.69922-0.17188 1.1875 0 0.46875 0.054688 0.85156 0.17188 1.1406 0.19531 0.53125 0.57031 0.79688 1.125 0.79688 0.38281 0 0.66016-0.10156 0.82812-0.3125 0.16406-0.21875 0.26562-0.49219 0.29688-0.82812h1.7031c-0.03125 0.51172-0.21484 0.99219-0.54688 1.4375-0.52344 0.73047-1.2969 1.0938-2.3281 1.0938-1.0234 0-1.7773-0.30078-2.2656-0.90625-0.48047-0.61328-0.71875-1.4062-0.71875-2.375 0-1.1016 0.26562-1.957 0.79688-2.5625 0.53125-0.61328 1.2695-0.92188 2.2188-0.92188 0.80078 0 1.457 0.18359 1.9688 0.54688 0.50781 0.35547 0.8125 0.99219 0.90625 1.9062zm-1.125-2.4688z"
                 id="path149" />
        </symbol>
        <symbol
             id="p"
             overflow="visible">
            <path
                 d="m3.2969-5.1875c-0.38672 0-0.6875 0.125-0.90625 0.375-0.21094 0.24219-0.33984 0.57031-0.39062 0.98438h2.5938c-0.03125-0.44531-0.16797-0.78516-0.40625-1.0156-0.24219-0.22656-0.53906-0.34375-0.89062-0.34375zm0-1.375c0.53125 0 1.0078 0.10547 1.4375 0.3125 0.42578 0.19922 0.78125 0.51172 1.0625 0.9375 0.25 0.375 0.41016 0.8125 0.48438 1.3125 0.039062 0.29297 0.054688 0.71484 0.046875 1.2656h-4.375c0.03125 0.64844 0.23438 1.0938 0.60938 1.3438 0.22656 0.16797 0.50391 0.25 0.82812 0.25 0.34375 0 0.625-0.097656 0.84375-0.29688 0.11328-0.10156 0.21875-0.25 0.3125-0.4375h1.7031c-0.042969 0.375-0.24219 0.76172-0.59375 1.1562-0.55469 0.625-1.3203 0.9375-2.2969 0.9375-0.8125 0-1.5312-0.25781-2.1562-0.78125-0.61719-0.53125-0.92188-1.3828-0.92188-2.5625 0-1.1016 0.27344-1.9531 0.82812-2.5469 0.5625-0.59375 1.2891-0.89062 2.1875-0.89062zm0.125 0z"
                 id="path152" />
        </symbol>
        <symbol
             id="o"
             overflow="visible">
            <path
                 d="m4.3125-6.5469c0.66406 0 1.207 0.17969 1.625 0.53125 0.41406 0.34375 0.625 0.91797 0.625 1.7188v4.2969h-1.7031v-3.8906c0-0.33203-0.046875-0.58594-0.14062-0.76562-0.15625-0.33203-0.46875-0.5-0.9375-0.5-0.5625 0-0.94922 0.24219-1.1562 0.71875-0.11719 0.26172-0.17188 0.58984-0.17188 0.98438v3.4531h-1.6562v-6.375h1.6094v0.9375c0.20703-0.33203 0.41016-0.57031 0.60938-0.71875 0.34375-0.25781 0.77344-0.39062 1.2969-0.39062zm-0.60938-0.015625z"
                 id="path155" />
        </symbol>
        <symbol
             id="y"
             overflow="visible">
            <path
                 d="m1.0312 1.2188l0.21875 0.015625c0.16406 0.007813 0.32031 0.003906 0.46875-0.015625 0.14453-0.023438 0.26953-0.070312 0.375-0.14062 0.09375-0.0625 0.17969-0.19922 0.26562-0.40625 0.082031-0.21094 0.11719-0.33984 0.10938-0.39062l-2.3438-6.6719h1.8594l1.3906 4.7188 1.3125-4.7188h1.7812l-2.1875 6.2812c-0.42969 1.2188-0.76562 1.9688-1.0156 2.25-0.24219 0.28906-0.73047 0.4375-1.4688 0.4375h-0.35938c-0.085938 0-0.21875-0.007813-0.40625-0.015625zm2.2656-7.7812z"
                 id="path158" />
        </symbol>
        <symbol
             id="x"
             overflow="visible" />
        <symbol
             id="ae"
             overflow="visible">
            <path
                 d="m4.25-6.5469c0.03125 0 0.054688 0.007813 0.078125 0.015625h0.14062v1.7188c-0.10547-0.007812-0.19922-0.015625-0.28125-0.015625-0.085938-0.007813-0.15234-0.015625-0.20312-0.015625-0.66797 0-1.1172 0.21875-1.3438 0.65625-0.13672 0.24219-0.20312 0.62109-0.20312 1.1406v3.0469h-1.6719v-6.3906h1.5938v1.1094c0.25781-0.41406 0.48438-0.70312 0.67188-0.85938 0.3125-0.26953 0.71875-0.40625 1.2188-0.40625z"
                 id="path162" />
        </symbol>
        <symbol
             id="ad"
             overflow="visible">
            <path
                 d="m2.4844 0h-1.6719v-8.6406h1.6719z"
                 id="path165" />
        </symbol>
        <symbol
             id="ac"
             overflow="visible">
            <path
                 d="m4.2969-3.1094c-0.10547 0.074219-0.21094 0.13281-0.3125 0.17188-0.10547 0.03125-0.25 0.070312-0.4375 0.10938l-0.375 0.0625c-0.35547 0.0625-0.60938 0.14062-0.76562 0.23438-0.26172 0.15625-0.39062 0.39062-0.39062 0.70312 0 0.29297 0.078125 0.5 0.23438 0.625 0.16406 0.125 0.36328 0.1875 0.59375 0.1875 0.35156 0 0.67969-0.10156 0.98438-0.3125 0.30078-0.20703 0.45703-0.59375 0.46875-1.1562zm-1.0156-0.78125c0.3125-0.03125 0.53516-0.078125 0.67188-0.14062 0.23828-0.10156 0.35938-0.25781 0.35938-0.46875 0-0.26953-0.09375-0.45312-0.28125-0.54688-0.17969-0.10156-0.44531-0.15625-0.79688-0.15625-0.39844 0-0.67969 0.10156-0.84375 0.29688-0.11719 0.14844-0.19531 0.34375-0.23438 0.59375h-1.6094c0.039063-0.5625 0.19531-1.0234 0.46875-1.3906 0.44531-0.5625 1.207-0.84375 2.2812-0.84375 0.69531 0 1.3164 0.14062 1.8594 0.42188 0.53906 0.28125 0.8125 0.80859 0.8125 1.5781v2.9219c0 0.21094 0.003906 0.45312 0.015625 0.73438 0.007813 0.21875 0.039063 0.37109 0.09375 0.45312 0.0625 0.074219 0.14453 0.13672 0.25 0.1875v0.25h-1.8125c-0.054687-0.125-0.089844-0.24219-0.10938-0.35938-0.023438-0.11328-0.039062-0.24219-0.046875-0.39062-0.23047 0.25-0.49609 0.46484-0.79688 0.64062-0.35547 0.20703-0.76172 0.3125-1.2188 0.3125-0.57422 0-1.0547-0.16797-1.4375-0.5-0.375-0.33203-0.5625-0.80078-0.5625-1.4062 0-0.78125 0.30078-1.3477 0.90625-1.7031 0.33203-0.1875 0.82031-0.32031 1.4688-0.40625zm0.09375-2.6719z"
                 id="path168" />
        </symbol>
        <symbol
             id="ab"
             overflow="visible">
            <path
                 d="m0.125-5.1406v-1.1875h0.89062v-1.7812h1.6562v1.7812h1.0312v1.1875h-1.0312v3.375c0 0.26172 0.03125 0.42969 0.09375 0.5 0.0625 0.0625 0.26562 0.09375 0.60938 0.09375h0.15625c0.0625-0.007813 0.11719-0.015625 0.17188-0.015625v1.25l-0.79688 0.03125c-0.78125 0.019531-1.3203-0.11719-1.6094-0.42188-0.1875-0.1875-0.28125-0.47656-0.28125-0.875v-3.9375z"
                 id="path171" />
        </symbol>
        <symbol
             id="aa"
             overflow="visible">
            <path
                 d="m3.6406-1.1719c0.48828 0 0.86328-0.17188 1.125-0.51562 0.25781-0.35156 0.39062-0.85156 0.39062-1.5 0-0.63281-0.13281-1.125-0.39062-1.4688-0.26172-0.35156-0.63672-0.53125-1.125-0.53125-0.49219 0-0.86719 0.17969-1.125 0.53125-0.26172 0.34375-0.39062 0.83594-0.39062 1.4688 0 0.64844 0.12891 1.1484 0.39062 1.5 0.25781 0.34375 0.63281 0.51562 1.125 0.51562zm3.2812-2.0156c0 0.9375-0.27344 1.7422-0.8125 2.4062-0.54297 0.66797-1.3594 1-2.4531 1-1.1055 0-1.9297-0.33203-2.4688-1-0.53125-0.66406-0.79688-1.4688-0.79688-2.4062 0-0.91406 0.26562-1.7109 0.79688-2.3906 0.53906-0.67578 1.3633-1.0156 2.4688-1.0156 1.0938 0 1.9102 0.33984 2.4531 1.0156 0.53906 0.67969 0.8125 1.4766 0.8125 2.3906zm-3.2656-3.375z"
                 id="path174" />
        </symbol>
        <clipPath
             id="bi">
            <path
                 d="m234 36h2v353.8h-2z"
                 id="path177" />
        </clipPath>
        <clipPath
             id="bh">
            <path
                 d="m44.641 212h381.16v1h-381.16z"
                 id="path180" />
        </clipPath>
        <clipPath
             id="bg">
            <path
                 d="m44.641 36h381.16v353.8h-381.16z"
                 id="path183" />
        </clipPath>
    </defs>
    <rect
         width="432"
         height="432"
         fill="#fff"
         id="rect185" />
    <path
         d="m44.641 388.8h380.16v-352.8h-380.16v352.8"
         fill="none"
         stroke="#000"
         stroke-linecap="round"
         stroke-linejoin="round"
         stroke-miterlimit="10"
         stroke-width=".75"
         id="path187" />
    <path
         d="m58.719 388.8h352"
         fill="none"
         stroke="#000"
         stroke-linecap="round"
         stroke-linejoin="round"
         stroke-miterlimit="10"
         stroke-width=".75"
         id="path189" />
    <path
         d="m58.719 388.8v5.293"
         fill="none"
         stroke="#000"
         stroke-linecap="round"
         stroke-linejoin="round"
         stroke-miterlimit="10"
         stroke-width=".75"
         id="path191" />
    <path
         d="m93.922 388.8v5.293"
         fill="none"
         stroke="#000"
         stroke-linecap="round"
         stroke-linejoin="round"
         stroke-miterlimit="10"
         stroke-width=".75"
         id="path193" />
    <path
         d="m129.12 388.8v5.293"
         fill="none"
         stroke="#000"
         stroke-linecap="round"
         stroke-linejoin="round"
         stroke-miterlimit="10"
         stroke-width=".75"
         id="path195" />
    <path
         d="m164.32 388.8v5.293"
         fill="none"
         stroke="#000"
         stroke-linecap="round"
         stroke-linejoin="round"
         stroke-miterlimit="10"
         stroke-width=".75"
         id="path197" />
    <path
         d="m199.52 388.8v5.293"
         fill="none"
         stroke="#000"
         stroke-linecap="round"
         stroke-linejoin="round"
         stroke-miterlimit="10"
         stroke-width=".75"
         id="path199" />
    <path
         d="m234.72 388.8v5.293"
         fill="none"
         stroke="#000"
         stroke-linecap="round"
         stroke-linejoin="round"
         stroke-miterlimit="10"
         stroke-width=".75"
         id="path201" />
    <path
         d="m269.92 388.8v5.293"
         fill="none"
         stroke="#000"
         stroke-linecap="round"
         stroke-linejoin="round"
         stroke-miterlimit="10"
         stroke-width=".75"
         id="path203" />
    <path
         d="m305.12 388.8v5.293"
         fill="none"
         stroke="#000"
         stroke-linecap="round"
         stroke-linejoin="round"
         stroke-miterlimit="10"
         stroke-width=".75"
         id="path205" />
    <path
         d="m340.32 388.8v5.293"
         fill="none"
         stroke="#000"
         stroke-linecap="round"
         stroke-linejoin="round"
         stroke-miterlimit="10"
         stroke-width=".75"
         id="path207" />
    <path
         d="m375.52 388.8v5.293"
         fill="none"
         stroke="#000"
         stroke-linecap="round"
         stroke-linejoin="round"
         stroke-miterlimit="10"
         stroke-width=".75"
         id="path209" />
    <path
         d="m410.72 388.8v5.293"
         fill="none"
         stroke="#000"
         stroke-linecap="round"
         stroke-linejoin="round"
         stroke-miterlimit="10"
         stroke-width=".75"
         id="path211" />
    <g
         id="g213">
        <use
             x="52.050781"
             y="407.519531"
             xlink:href="#a"
             id="use215" />
        <use
             x="57.386368"
             y="407.519531"
             xlink:href="#b"
             id="use217" />
        <use
             x="60.051819"
             y="407.519531"
             xlink:href="#a"
             id="use219" />
    </g>
    <g
         id="g221">
        <use
             x="87.253906"
             y="407.519531"
             xlink:href="#a"
             id="use223" />
        <use
             x="92.589493"
             y="407.519531"
             xlink:href="#b"
             id="use225" />
        <use
             x="95.254944"
             y="407.519531"
             xlink:href="#c"
             id="use227" />
    </g>
    <g
         id="g229">
        <use
             x="122.453125"
             y="407.519531"
             xlink:href="#a"
             id="use231" />
        <use
             x="127.788712"
             y="407.519531"
             xlink:href="#b"
             id="use233" />
        <use
             x="130.454163"
             y="407.519531"
             xlink:href="#d"
             id="use235" />
    </g>
    <g
         id="g237">
        <use
             x="157.652344"
             y="407.519531"
             xlink:href="#a"
             id="use239" />
        <use
             x="162.98793"
             y="407.519531"
             xlink:href="#b"
             id="use241" />
        <use
             x="165.653381"
             y="407.519531"
             xlink:href="#l"
             id="use243" />
    </g>
    <g
         id="g245">
        <use
             x="192.851562"
             y="407.519531"
             xlink:href="#a"
             id="use247" />
        <use
             x="198.187149"
             y="407.519531"
             xlink:href="#b"
             id="use249" />
        <use
             x="200.8526"
             y="407.519531"
             xlink:href="#k"
             id="use251" />
    </g>
    <g
         id="g253">
        <use
             x="228.050781"
             y="407.519531"
             xlink:href="#a"
             id="use255" />
        <use
             x="233.386368"
             y="407.519531"
             xlink:href="#b"
             id="use257" />
        <use
             x="236.051819"
             y="407.519531"
             xlink:href="#i"
             id="use259" />
    </g>
    <g
         id="g261">
        <use
             x="263.253906"
             y="407.519531"
             xlink:href="#a"
             id="use263" />
        <use
             x="268.589493"
             y="407.519531"
             xlink:href="#b"
             id="use265" />
        <use
             x="271.254944"
             y="407.519531"
             xlink:href="#j"
             id="use267" />
    </g>
    <g
         id="g269">
        <use
             x="298.453125"
             y="407.519531"
             xlink:href="#a"
             id="use271" />
        <use
             x="303.788712"
             y="407.519531"
             xlink:href="#b"
             id="use273" />
        <use
             x="306.454163"
             y="407.519531"
             xlink:href="#g"
             id="use275" />
    </g>
    <g
         id="g277">
        <use
             x="333.652344"
             y="407.519531"
             xlink:href="#a"
             id="use279" />
        <use
             x="338.98793"
             y="407.519531"
             xlink:href="#b"
             id="use281" />
        <use
             x="341.653381"
             y="407.519531"
             xlink:href="#h"
             id="use283" />
    </g>
    <g
         id="g285">
        <use
             x="368.851562"
             y="407.519531"
             xlink:href="#a"
             id="use287" />
        <use
             x="374.187149"
             y="407.519531"
             xlink:href="#b"
             id="use289" />
        <use
             x="376.8526"
             y="407.519531"
             xlink:href="#f"
             id="use291" />
    </g>
    <g
         id="g293">
        <use
             x="404.050781"
             y="407.519531"
             xlink:href="#c"
             id="use295" />
        <use
             x="409.386368"
             y="407.519531"
             xlink:href="#b"
             id="use297" />
        <use
             x="412.051819"
             y="407.519531"
             xlink:href="#a"
             id="use299" />
    </g>
    <path
         d="m44.641 375.73v-326.67"
         fill="none"
         stroke="#000"
         stroke-linecap="round"
         stroke-linejoin="round"
         stroke-miterlimit="10"
         stroke-width=".75"
         id="path301" />
    <path
         d="m44.641 375.73h-5.293"
         fill="none"
         stroke="#000"
         stroke-linecap="round"
         stroke-linejoin="round"
         stroke-miterlimit="10"
         stroke-width=".75"
         id="path303" />
    <path
         d="m44.641 343.07h-5.293"
         fill="none"
         stroke="#000"
         stroke-linecap="round"
         stroke-linejoin="round"
         stroke-miterlimit="10"
         stroke-width=".75"
         id="path305" />
    <path
         d="m44.641 310.4h-5.293"
         fill="none"
         stroke="#000"
         stroke-linecap="round"
         stroke-linejoin="round"
         stroke-miterlimit="10"
         stroke-width=".75"
         id="path307" />
    <path
         d="m44.641 277.73h-5.293"
         fill="none"
         stroke="#000"
         stroke-linecap="round"
         stroke-linejoin="round"
         stroke-miterlimit="10"
         stroke-width=".75"
         id="path309" />
    <path
         d="m44.641 245.07h-5.293"
         fill="none"
         stroke="#000"
         stroke-linecap="round"
         stroke-linejoin="round"
         stroke-miterlimit="10"
         stroke-width=".75"
         id="path311" />
    <path
         d="m44.641 212.4h-5.293"
         fill="none"
         stroke="#000"
         stroke-linecap="round"
         stroke-linejoin="round"
         stroke-miterlimit="10"
         stroke-width=".75"
         id="path313" />
    <path
         d="m44.641 179.73h-5.293"
         fill="none"
         stroke="#000"
         stroke-linecap="round"
         stroke-linejoin="round"
         stroke-miterlimit="10"
         stroke-width=".75"
         id="path315" />
    <path
         d="m44.641 147.07h-5.293"
         fill="none"
         stroke="#000"
         stroke-linecap="round"
         stroke-linejoin="round"
         stroke-miterlimit="10"
         stroke-width=".75"
         id="path317" />
    <path
         d="m44.641 114.4h-5.293"
         fill="none"
         stroke="#000"
         stroke-linecap="round"
         stroke-linejoin="round"
         stroke-miterlimit="10"
         stroke-width=".75"
         id="path319" />
    <path
         d="m44.641 81.734h-5.293"
         fill="none"
         stroke="#000"
         stroke-linecap="round"
         stroke-linejoin="round"
         stroke-miterlimit="10"
         stroke-width=".75"
         id="path321" />
    <path
         d="m44.641 49.066h-5.293"
         fill="none"
         stroke="#000"
         stroke-linecap="round"
         stroke-linejoin="round"
         stroke-miterlimit="10"
         stroke-width=".75"
         id="path323" />
    <g
         id="g325">
        <use
             x="22.769531"
             y="379.171875"
             xlink:href="#a"
             id="use327" />
        <use
             x="28.105118"
             y="379.171875"
             xlink:href="#b"
             id="use329" />
        <use
             x="30.770569"
             y="379.171875"
             xlink:href="#a"
             id="use331" />
    </g>
    <g
         id="g333">
        <use
             x="22.769531"
             y="346.503906"
             xlink:href="#a"
             id="use335" />
        <use
             x="28.105118"
             y="346.503906"
             xlink:href="#b"
             id="use337" />
        <use
             x="30.770569"
             y="346.503906"
             xlink:href="#c"
             id="use339" />
    </g>
    <g
         id="g341">
        <use
             x="22.769531"
             y="313.835938"
             xlink:href="#a"
             id="use343" />
        <use
             x="28.105118"
             y="313.835938"
             xlink:href="#b"
             id="use345" />
        <use
             x="30.770569"
             y="313.835938"
             xlink:href="#d"
             id="use347" />
    </g>
    <g
         id="g349">
        <use
             x="22.769531"
             y="281.171875"
             xlink:href="#a"
             id="use351" />
        <use
             x="28.105118"
             y="281.171875"
             xlink:href="#b"
             id="use353" />
        <use
             x="30.770569"
             y="281.171875"
             xlink:href="#l"
             id="use355" />
    </g>
    <g
         id="g357">
        <use
             x="22.769531"
             y="248.503906"
             xlink:href="#a"
             id="use359" />
        <use
             x="28.105118"
             y="248.503906"
             xlink:href="#b"
             id="use361" />
        <use
             x="30.770569"
             y="248.503906"
             xlink:href="#k"
             id="use363" />
    </g>
    <g
         id="g365">
        <use
             x="22.769531"
             y="215.835938"
             xlink:href="#a"
             id="use367" />
        <use
             x="28.105118"
             y="215.835938"
             xlink:href="#b"
             id="use369" />
        <use
             x="30.770569"
             y="215.835938"
             xlink:href="#i"
             id="use371" />
    </g>
    <g
         id="g373">
        <use
             x="22.769531"
             y="183.171875"
             xlink:href="#a"
             id="use375" />
        <use
             x="28.105118"
             y="183.171875"
             xlink:href="#b"
             id="use377" />
        <use
             x="30.770569"
             y="183.171875"
             xlink:href="#j"
             id="use379" />
    </g>
    <g
         id="g381">
        <use
             x="22.769531"
             y="150.503906"
             xlink:href="#a"
             id="use383" />
        <use
             x="28.105118"
             y="150.503906"
             xlink:href="#b"
             id="use385" />
        <use
             x="30.770569"
             y="150.503906"
             xlink:href="#g"
             id="use387" />
    </g>
    <g
         id="g389">
        <use
             x="22.769531"
             y="117.835938"
             xlink:href="#a"
             id="use391" />
        <use
             x="28.105118"
             y="117.835938"
             xlink:href="#b"
             id="use393" />
        <use
             x="30.770569"
             y="117.835938"
             xlink:href="#h"
             id="use395" />
    </g>
    <g
         id="g397">
        <use
             x="22.769531"
             y="85.171875"
             xlink:href="#a"
             id="use399" />
        <use
             x="28.105118"
             y="85.171875"
             xlink:href="#b"
             id="use401" />
        <use
             x="30.770569"
             y="85.171875"
             xlink:href="#f"
             id="use403" />
    </g>
    <g
         id="g405">
        <use
             x="22.769531"
             y="52.503906"
             xlink:href="#c"
             id="use407" />
        <use
             x="28.105118"
             y="52.503906"
             xlink:href="#b"
             id="use409" />
        <use
             x="30.770569"
             y="52.503906"
             xlink:href="#a"
             id="use411" />
    </g>
    <g
         id="g413">
        <use
             x="203.972656"
             y="425.519531"
             xlink:href="#at"
             id="use415" />
        <use
             x="210.277863"
             y="425.519531"
             xlink:href="#as"
             id="use417" />
        <use
             x="218.075027"
             y="425.519531"
             xlink:href="#ar"
             id="use419" />
        <use
             x="225.872192"
             y="425.519531"
             xlink:href="#aq"
             id="use421" />
        <use
             x="232.467361"
             y="425.519531"
             xlink:href="#ap"
             id="use423" />
        <use
             x="239.668793"
             y="425.519531"
             xlink:href="#ao"
             id="use425" />
        <use
             x="247.465958"
             y="425.519531"
             xlink:href="#an"
             id="use427" />
        <use
             x="250.465683"
             y="425.519531"
             xlink:href="#am"
             id="use429" />
        <use
             x="258.262848"
             y="425.519531"
             xlink:href="#al"
             id="use431" />
    </g>
    <g
         id="g433">
        <use
             x="12.960938"
             y="237.894531"
             xlink:href="#ak"
             id="use435" />
        <use
             x="12.960938"
             y="230.6931"
             xlink:href="#aj"
             id="use437" />
        <use
             x="12.960938"
             y="222.895935"
             xlink:href="#ai"
             id="use439" />
        <use
             x="12.960938"
             y="214.497772"
             xlink:href="#s"
             id="use441" />
        <use
             x="12.960938"
             y="207.902603"
             xlink:href="#ah"
             id="use443" />
        <use
             x="12.960938"
             y="200.701172"
             xlink:href="#ag"
             id="use445" />
        <use
             x="12.960938"
             y="193.499741"
             xlink:href="#s"
             id="use447" />
    </g>
    <g
         id="g449">
        <use
             x="179.371094"
             y="14.398438"
             xlink:href="#af"
             id="use451" />
        <use
             x="187.375"
             y="14.398438"
             xlink:href="#z"
             id="use453" />
        <use
             x="194.705078"
             y="14.398438"
             xlink:href="#r"
             id="use455" />
        <use
             x="198.701172"
             y="14.398438"
             xlink:href="#r"
             id="use457" />
        <use
             x="202.697266"
             y="14.398438"
             xlink:href="#m"
             id="use459" />
        <use
             x="206.03125"
             y="14.398438"
             xlink:href="#q"
             id="use461" />
        <use
             x="212.705078"
             y="14.398438"
             xlink:href="#m"
             id="use463" />
        <use
             x="216.039062"
             y="14.398438"
             xlink:href="#p"
             id="use465" />
        <use
             x="222.712891"
             y="14.398438"
             xlink:href="#o"
             id="use467" />
        <use
             x="230.042969"
             y="14.398438"
             xlink:href="#q"
             id="use469" />
        <use
             x="236.716797"
             y="14.398438"
             xlink:href="#y"
             id="use471" />
        <use
             x="243.390625"
             y="14.398438"
             xlink:href="#x"
             id="use473" />
        <use
             x="246.724609"
             y="14.398438"
             xlink:href="#ae"
             id="use475" />
        <use
             x="251.394531"
             y="14.398438"
             xlink:href="#p"
             id="use477" />
        <use
             x="258.068359"
             y="14.398438"
             xlink:href="#ad"
             id="use479" />
        <use
             x="261.402344"
             y="14.398438"
             xlink:href="#ac"
             id="use481" />
        <use
             x="268.076172"
             y="14.398438"
             xlink:href="#ab"
             id="use483" />
        <use
             x="272.072266"
             y="14.398438"
             xlink:href="#m"
             id="use485" />
        <use
             x="275.40625"
             y="14.398438"
             xlink:href="#aa"
             id="use487" />
        <use
             x="282.736328"
             y="14.398438"
             xlink:href="#o"
             id="use489" />
    </g>
    <g
         clip-path="url(#bi)"
         id="g491">
        <path
             d="m234.72 388.8v-352.8"
             fill="none"
             stroke="#bebebe"
             stroke-dasharray="3,3"
             stroke-linecap="round"
             stroke-linejoin="round"
             stroke-miterlimit="10"
             stroke-width=".75"
             id="path493" />
    </g>
    <g
         clip-path="url(#bh)"
         id="g495">
        <path
             d="m44.641 212.4h380.16"
             fill="none"
             stroke="#bebebe"
             stroke-dasharray="3,3"
             stroke-linecap="round"
             stroke-linejoin="round"
             stroke-miterlimit="10"
             stroke-width=".75"
             id="path497" />
    </g>
    <g
         clip-path="url(#bg)"
         id="g499">
        <path
             d="m44.641 388.8l380.16-352.8"
             fill="none"
             stroke="#bebebe"
             stroke-linecap="round"
             stroke-linejoin="round"
             stroke-miterlimit="10"
             stroke-width=".75"
             id="path501" />
    </g>
    <path
         d="m139.79 220.18c0 2.8828-4.3203 2.8828-4.3203 0 0-2.8789 4.3203-2.8789 4.3203 0"
         fill="#707070"
         stroke="#000"
         stroke-linecap="round"
         stroke-linejoin="round"
         stroke-miterlimit="10"
         stroke-width=".75"
         id="path503" />
    <path
         d="m105 147.49c0 2.8789-4.3203 2.8789-4.3203 0 0-2.8789 4.3203-2.8789 4.3203 0"
         fill="#707070"
         stroke="#000"
         stroke-linecap="round"
         stroke-linejoin="round"
         stroke-miterlimit="10"
         stroke-width=".75"
         id="path505" />
    <path
         d="m94.965 366.88c0 2.8789-4.3203 2.8789-4.3203 0 0-2.8828 4.3203-2.8828 4.3203 0"
         fill="#707070"
         stroke="#000"
         stroke-linecap="round"
         stroke-linejoin="round"
         stroke-miterlimit="10"
         stroke-width=".75"
         id="path507" />
    <path
         d="m134.34 365.82c0 2.8789-4.3203 2.8789-4.3203 0 0-2.8789 4.3203-2.8789 4.3203 0"
         fill="#707070"
         stroke="#000"
         stroke-linecap="round"
         stroke-linejoin="round"
         stroke-miterlimit="10"
         stroke-width=".75"
         id="path509" />
    <path
         d="m202.92 364.94c0 2.8828-4.3203 2.8828-4.3203 0 0-2.8789 4.3203-2.8789 4.3203 0"
         fill="#707070"
         stroke="#000"
         stroke-linecap="round"
         stroke-linejoin="round"
         stroke-miterlimit="10"
         stroke-width=".75"
         id="path511" />
    <path
         d="m183.09 286.32c0 2.8828-4.3203 2.8828-4.3203 0 0-2.8789 4.3203-2.8789 4.3203 0"
         fill="#707070"
         stroke="#000"
         stroke-linecap="round"
         stroke-linejoin="round"
         stroke-miterlimit="10"
         stroke-width=".75"
         id="path513" />
    <path
         d="m71.973 324.62c0 2.8789-4.3203 2.8789-4.3203 0s4.3203-2.8789 4.3203 0"
         fill="#707070"
         stroke="#000"
         stroke-linecap="round"
         stroke-linejoin="round"
         stroke-miterlimit="10"
         stroke-width=".75"
         id="path515" />
    <path
         d="m107.59 234.49c0 2.8828-4.3203 2.8828-4.3203 0 0-2.8789 4.3203-2.8789 4.3203 0"
         fill="#707070"
         stroke="#000"
         stroke-linecap="round"
         stroke-linejoin="round"
         stroke-miterlimit="10"
         stroke-width=".75"
         id="path517" />
    <path
         d="m165.74 219.48c0 2.8828-4.3203 2.8828-4.3203 0 0-2.8789 4.3203-2.8789 4.3203 0"
         fill="#707070"
         stroke="#000"
         stroke-linecap="round"
         stroke-linejoin="round"
         stroke-miterlimit="10"
         stroke-width=".75"
         id="path519" />
    <path
         d="m122.46 259.74c0 2.8828-4.3203 2.8828-4.3203 0 0-2.8789 4.3203-2.8789 4.3203 0"
         fill="#707070"
         stroke="#000"
         stroke-linecap="round"
         stroke-linejoin="round"
         stroke-miterlimit="10"
         stroke-width=".75"
         id="path521" />
    <path
         d="m224.48 118.28c0 2.8789-4.3203 2.8789-4.3203 0 0-2.8828 4.3203-2.8828 4.3203 0"
         fill="#707070"
         stroke="#000"
         stroke-linecap="round"
         stroke-linejoin="round"
         stroke-miterlimit="10"
         stroke-width=".75"
         id="path523" />
    <path
         d="m84.617 269.48c0 2.8789-4.3203 2.8789-4.3203 0 0-2.8828 4.3203-2.8828 4.3203 0"
         fill="#707070"
         stroke="#000"
         stroke-linecap="round"
         stroke-linejoin="round"
         stroke-miterlimit="10"
         stroke-width=".75"
         id="path525" />
    <path
         d="m109.03 370.38c0 2.8828-4.3203 2.8828-4.3203 0 0-2.8789 4.3203-2.8789 4.3203 0"
         fill="#707070"
         stroke="#000"
         stroke-linecap="round"
         stroke-linejoin="round"
         stroke-miterlimit="10"
         stroke-width=".75"
         id="path527" />
    <path
         d="m150.1 259.82c0 2.8789-4.3203 2.8789-4.3203 0 0-2.8828 4.3203-2.8828 4.3203 0"
         fill="#707070"
         stroke="#000"
         stroke-linecap="round"
         stroke-linejoin="round"
         stroke-miterlimit="10"
         stroke-width=".75"
         id="path529" />
    <path
         d="m309.55 97.82c0 2.8828-4.3203 2.8828-4.3203 0 0-2.8789 4.3203-2.8789 4.3203 0"
         fill="#707070"
         stroke="#000"
         stroke-linecap="round"
         stroke-linejoin="round"
         stroke-miterlimit="10"
         stroke-width=".75"
         id="path531" />
    <path
         d="m326.18 96.641c0 2.8828-4.3203 2.8828-4.3203 0 0-2.8789 4.3203-2.8789 4.3203 0"
         fill="#707070"
         stroke="#000"
         stroke-linecap="round"
         stroke-linejoin="round"
         stroke-miterlimit="10"
         stroke-width=".75"
         id="path533" />
    <path
         d="m104.62 189.29c0 2.8789-4.3164 2.8789-4.3164 0s4.3164-2.8789 4.3164 0"
         fill="#707070"
         stroke="#000"
         stroke-linecap="round"
         stroke-linejoin="round"
         stroke-miterlimit="10"
         stroke-width=".75"
         id="path535" />
    <path
         d="m76.695 349.49c0 2.8789-4.3203 2.8789-4.3203 0 0-2.8828 4.3203-2.8828 4.3203 0"
         fill="#707070"
         stroke="#000"
         stroke-linecap="round"
         stroke-linejoin="round"
         stroke-miterlimit="10"
         stroke-width=".75"
         id="path537" />
    <path
         d="m199.03 136.46c0 2.8789-4.3203 2.8789-4.3203 0 0-2.8828 4.3203-2.8828 4.3203 0"
         fill="#707070"
         stroke="#000"
         stroke-linecap="round"
         stroke-linejoin="round"
         stroke-miterlimit="10"
         stroke-width=".75"
         id="path539" />
    <path
         d="m235.37 192.13c0 2.8789-4.3164 2.8789-4.3164 0 0-2.8828 4.3164-2.8828 4.3164 0"
         fill="#707070"
         stroke="#000"
         stroke-linecap="round"
         stroke-linejoin="round"
         stroke-miterlimit="10"
         stroke-width=".75"
         id="path541" />
    <path
         d="m196.48 181.27c0 2.8789-4.3203 2.8789-4.3203 0 0-2.8789 4.3203-2.8789 4.3203 0"
         fill="#707070"
         stroke="#000"
         stroke-linecap="round"
         stroke-linejoin="round"
         stroke-miterlimit="10"
         stroke-width=".75"
         id="path543" />
    <path
         d="m276.98 69.488c0 2.8789-4.3203 2.8789-4.3203 0 0-2.8789 4.3203-2.8789 4.3203 0"
         fill="#707070"
         stroke="#000"
         stroke-linecap="round"
         stroke-linejoin="round"
         stroke-miterlimit="10"
         stroke-width=".75"
         id="path545" />
    <path
         d="m112.96 193.17c0 2.8828-4.3203 2.8828-4.3203 0 0-2.8789 4.3203-2.8789 4.3203 0"
         fill="#707070"
         stroke="#000"
         stroke-linecap="round"
         stroke-linejoin="round"
         stroke-miterlimit="10"
         stroke-width=".75"
         id="path547" />
    <path
         d="m149.55 84.961c0 2.8789-4.3203 2.8789-4.3203 0 0-2.8789 4.3203-2.8789 4.3203 0"
         fill="#707070"
         stroke="#000"
         stroke-linecap="round"
         stroke-linejoin="round"
         stroke-miterlimit="10"
         stroke-width=".75"
         id="path549" />
    <path
         d="m102.72 255.58c0 2.8828-4.3203 2.8828-4.3203 0 0-2.8789 4.3203-2.8789 4.3203 0"
         fill="#707070"
         stroke="#000"
         stroke-linecap="round"
         stroke-linejoin="round"
         stroke-miterlimit="10"
         stroke-width=".75"
         id="path551" />
    <path
         d="m390.34 85.801c0 2.8789-4.3203 2.8789-4.3203 0 0-2.8828 4.3203-2.8828 4.3203 0"
         fill="#707070"
         stroke="#000"
         stroke-linecap="round"
         stroke-linejoin="round"
         stroke-miterlimit="10"
         stroke-width=".75"
         id="path553" />
    <path
         d="m291.82 207.45c0 2.8789-4.3203 2.8789-4.3203 0 0-2.8789 4.3203-2.8789 4.3203 0"
         fill="#707070"
         stroke="#000"
         stroke-linecap="round"
         stroke-linejoin="round"
         stroke-miterlimit="10"
         stroke-width=".75"
         id="path555" />
    <path
         d="m262.04 100.23c0 2.8789-4.3203 2.8789-4.3203 0 0-2.8789 4.3203-2.8789 4.3203 0"
         fill="#707070"
         stroke="#000"
         stroke-linecap="round"
         stroke-linejoin="round"
         stroke-miterlimit="10"
         stroke-width=".75"
         id="path557" />
    <path
         d="m271.59 58.301c0 2.8828-4.3203 2.8828-4.3203 0 0-2.8789 4.3203-2.8789 4.3203 0"
         fill="#707070"
         stroke="#000"
         stroke-linecap="round"
         stroke-linejoin="round"
         stroke-miterlimit="10"
         stroke-width=".75"
         id="path559" />
    <g
         id="g561">
        <use
             x="58.71875"
             y="33.121094"
             xlink:href="#w"
             id="use563" />
        <use
             x="61.384201"
             y="33.121094"
             xlink:href="#v"
             id="use565" />
        <use
             x="66.719788"
             y="33.121094"
             xlink:href="#bf"
             id="use567" />
        <use
             x="71.516663"
             y="33.121094"
             xlink:href="#be"
             id="use569" />
        <use
             x="73.648087"
             y="33.121094"
             xlink:href="#bd"
             id="use571" />
        <use
             x="78.983673"
             y="33.121094"
             xlink:href="#bc"
             id="use573" />
        <use
             x="83.780548"
             y="33.121094"
             xlink:href="#bb"
             id="use575" />
        <use
             x="85.911972"
             y="33.121094"
             xlink:href="#u"
             id="use577" />
        <use
             x="91.247559"
             y="33.121094"
             xlink:href="#v"
             id="use579" />
        <use
             x="96.583145"
             y="33.121094"
             xlink:href="#n"
             id="use581" />
        <use
             x="99.248596"
             y="33.121094"
             xlink:href="#e"
             id="use583" />
        <use
             x="101.914047"
             y="33.121094"
             xlink:href="#a"
             id="use585" />
        <use
             x="107.249634"
             y="33.121094"
             xlink:href="#b"
             id="use587" />
        <use
             x="109.915085"
             y="33.121094"
             xlink:href="#h"
             id="use589" />
        <use
             x="115.250671"
             y="33.121094"
             xlink:href="#f"
             id="use591" />
        <use
             x="120.586258"
             y="33.121094"
             xlink:href="#f"
             id="use593" />
        <use
             x="125.921844"
             y="33.121094"
             xlink:href="#e"
             id="use595" />
        <use
             x="128.587296"
             y="33.121094"
             xlink:href="#e"
             id="use597" />
        <use
             x="131.252747"
             y="33.121094"
             xlink:href="#e"
             id="use599" />
        <use
             x="133.918198"
             y="33.121094"
             xlink:href="#ba"
             id="use601" />
        <use
             x="140.846497"
             y="33.121094"
             xlink:href="#u"
             id="use603" />
        <use
             x="146.182083"
             y="33.121094"
             xlink:href="#az"
             id="use605" />
        <use
             x="150.978958"
             y="33.121094"
             xlink:href="#t"
             id="use607" />
        <use
             x="156.314545"
             y="33.121094"
             xlink:href="#ay"
             id="use609" />
        <use
             x="159.509338"
             y="33.121094"
             xlink:href="#ax"
             id="use611" />
        <use
             x="164.844925"
             y="33.121094"
             xlink:href="#aw"
             id="use613" />
        <use
             x="170.180511"
             y="33.121094"
             xlink:href="#t"
             id="use615" />
        <use
             x="175.516098"
             y="33.121094"
             xlink:href="#n"
             id="use617" />
        <use
             x="178.181549"
             y="33.121094"
             xlink:href="#e"
             id="use619" />
        <use
             x="180.847"
             y="33.121094"
             xlink:href="#a"
             id="use621" />
        <use
             x="186.182587"
             y="33.121094"
             xlink:href="#b"
             id="use623" />
        <use
             x="188.848038"
             y="33.121094"
             xlink:href="#i"
             id="use625" />
        <use
             x="194.183624"
             y="33.121094"
             xlink:href="#f"
             id="use627" />
        <use
             x="199.519211"
             y="33.121094"
             xlink:href="#g"
             id="use629" />
        <use
             x="204.854797"
             y="33.121094"
             xlink:href="#e"
             id="use631" />
        <use
             x="207.520248"
             y="33.121094"
             xlink:href="#e"
             id="use633" />
        <use
             x="210.185699"
             y="33.121094"
             xlink:href="#e"
             id="use635" />
        <use
             x="212.851151"
             y="33.121094"
             xlink:href="#av"
             id="use637" />
        <use
             x="219.250107"
             y="33.121094"
             xlink:href="#au"
             id="use639" />
        <use
             x="226.178406"
             y="33.121094"
             xlink:href="#w"
             id="use641" />
        <use
             x="228.843857"
             y="33.121094"
             xlink:href="#n"
             id="use643" />
        <use
             x="231.509308"
             y="33.121094"
             xlink:href="#e"
             id="use645" />
        <use
             x="234.174759"
             y="33.121094"
             xlink:href="#a"
             id="use647" />
        <use
             x="239.510345"
             y="33.121094"
             xlink:href="#b"
             id="use649" />
        <use
             x="242.175797"
             y="33.121094"
             xlink:href="#h"
             id="use651" />
        <use
             x="247.511383"
             y="33.121094"
             xlink:href="#a"
             id="use653" />
        <use
             x="252.84697"
             y="33.121094"
             xlink:href="#g"
             id="use655" />
    </g>
    <g
         id="g657">
        <use
             x="134.964844"
             y="216.988281"
             xlink:href="#c"
             id="use659" />
    </g>
    <g
         id="g661">
        <use
             x="100.167969"
             y="144.324219"
             xlink:href="#d"
             id="use663" />
    </g>
    <g
         id="g665">
        <use
             x="90.136719"
             y="363.605469"
             xlink:href="#l"
             id="use667" />
    </g>
    <g
         id="g669">
        <use
             x="129.507812"
             y="362.660156"
             xlink:href="#k"
             id="use671" />
    </g>
    <g
         id="g673">
        <use
             x="198.089844"
             y="361.617188"
             xlink:href="#i"
             id="use675" />
    </g>
    <g
         id="g677">
        <use
             x="178.257812"
             y="283.070312"
             xlink:href="#j"
             id="use679" />
    </g>
    <g
         id="g681">
        <use
             x="67.144531"
             y="321.386719"
             xlink:href="#g"
             id="use683" />
    </g>
    <g
         id="g685">
        <use
             x="102.765625"
             y="231.230469"
             xlink:href="#h"
             id="use687" />
    </g>
    <g
         id="g689">
        <use
             x="160.914062"
             y="216.21875"
             xlink:href="#f"
             id="use691" />
    </g>
    <g
         id="g693">
        <use
             x="114.96875"
             y="256.46875"
             xlink:href="#c"
             id="use695" />
        <use
             x="120.304337"
             y="256.46875"
             xlink:href="#a"
             id="use697" />
    </g>
    <g
         id="g699">
        <use
             x="216.988281"
             y="115.089844"
             xlink:href="#c"
             id="use701" />
        <use
             x="222.323868"
             y="115.089844"
             xlink:href="#c"
             id="use703" />
    </g>
    <g
         id="g705">
        <use
             x="77.121094"
             y="266.316406"
             xlink:href="#c"
             id="use707" />
        <use
             x="82.45668"
             y="266.316406"
             xlink:href="#d"
             id="use709" />
    </g>
    <g
         id="g711">
        <use
             x="101.53125"
             y="367.109375"
             xlink:href="#c"
             id="use713" />
        <use
             x="106.866837"
             y="367.109375"
             xlink:href="#l"
             id="use715" />
    </g>
    <g
         id="g717">
        <use
             x="142.601562"
             y="256.65625"
             xlink:href="#c"
             id="use719" />
        <use
             x="147.937149"
             y="256.65625"
             xlink:href="#k"
             id="use721" />
    </g>
    <g
         id="g723">
        <use
             x="302.058594"
             y="94.546875"
             xlink:href="#c"
             id="use725" />
        <use
             x="307.39418"
             y="94.546875"
             xlink:href="#i"
             id="use727" />
    </g>
    <g
         id="g729">
        <use
             x="318.679688"
             y="93.390625"
             xlink:href="#c"
             id="use731" />
        <use
             x="324.015274"
             y="93.390625"
             xlink:href="#j"
             id="use733" />
    </g>
    <g
         id="g735">
        <use
             x="97.132812"
             y="186.097656"
             xlink:href="#c"
             id="use737" />
        <use
             x="102.468399"
             y="186.097656"
             xlink:href="#g"
             id="use739" />
    </g>
    <g
         id="g741">
        <use
             x="69.199219"
             y="346.226562"
             xlink:href="#c"
             id="use743" />
        <use
             x="74.534805"
             y="346.226562"
             xlink:href="#h"
             id="use745" />
    </g>
    <g
         id="g747">
        <use
             x="191.53125"
             y="133.195312"
             xlink:href="#c"
             id="use749" />
        <use
             x="196.866837"
             y="133.195312"
             xlink:href="#f"
             id="use751" />
    </g>
    <g
         id="g753">
        <use
             x="227.875"
             y="188.867188"
             xlink:href="#d"
             id="use755" />
        <use
             x="233.210587"
             y="188.867188"
             xlink:href="#a"
             id="use757" />
    </g>
    <g
         id="g759">
        <use
             x="188.984375"
             y="178.109375"
             xlink:href="#d"
             id="use761" />
        <use
             x="194.319962"
             y="178.109375"
             xlink:href="#c"
             id="use763" />
    </g>
    <g
         id="g765">
        <use
             x="269.484375"
             y="66.320312"
             xlink:href="#d"
             id="use767" />
        <use
             x="274.819962"
             y="66.320312"
             xlink:href="#d"
             id="use769" />
    </g>
    <g
         id="g771">
        <use
             x="105.460938"
             y="189.910156"
             xlink:href="#d"
             id="use773" />
        <use
             x="110.796524"
             y="189.910156"
             xlink:href="#l"
             id="use775" />
    </g>
    <g
         id="g777">
        <use
             x="142.054688"
             y="81.796875"
             xlink:href="#d"
             id="use779" />
        <use
             x="147.390274"
             y="81.796875"
             xlink:href="#k"
             id="use781" />
    </g>
    <g
         id="g783">
        <use
             x="95.222656"
             y="252.328125"
             xlink:href="#d"
             id="use785" />
        <use
             x="100.558243"
             y="252.328125"
             xlink:href="#i"
             id="use787" />
    </g>
    <g
         id="g789">
        <use
             x="382.847656"
             y="82.546875"
             xlink:href="#d"
             id="use791" />
        <use
             x="388.183243"
             y="82.546875"
             xlink:href="#j"
             id="use793" />
    </g>
    <g
         id="g795">
        <use
             x="284.320312"
             y="204.28125"
             xlink:href="#d"
             id="use797" />
        <use
             x="289.655899"
             y="204.28125"
             xlink:href="#g"
             id="use799" />
    </g>
    <g
         id="g801">
        <use
             x="254.542969"
             y="96.964844"
             xlink:href="#d"
             id="use803" />
        <use
             x="259.878555"
             y="96.964844"
             xlink:href="#h"
             id="use805" />
    </g>
    <g
         id="g807">
        <use
             x="264.097656"
             y="55.042969"
             xlink:href="#d"
             id="use809" />
        <use
             x="269.433243"
             y="55.042969"
             xlink:href="#f"
             id="use811" />
    </g>
</svg>
